<?xml version="1.0" encoding="UTF-8" standalone="no"?><!DOCTYPE svg PUBLIC "-//W3C//DTD SVG 1.1//EN" "http://www.w3.org/Graphics/SVG/1.1/DTD/svg11.dtd"><svg width="100%" height="100%" viewBox="0 0 2813 2250" version="1.1" xmlns="http://www.w3.org/2000/svg" xmlns:xlink="http://www.w3.org/1999/xlink" xml:space="preserve" xmlns:serif="http://www.serif.com/" style="fill-rule:evenodd;clip-rule:evenodd;stroke-linecap:round;stroke-linejoin:round;stroke-miterlimit:1.5;"><rect x="0" y="-0" width="2812.5" height="2250" style="fill:#0edd42;"/><g><g><g transform="matrix(2.08333,0,0,2.08333,269.453,-78.0006)"><g transform="matrix(32,0,0,32,972.147,850.586)"><path d="M0.318,0.016c-0.059,0 -0.115,-0.007 -0.17,-0.02c-0.055,-0.013 -0.1,-0.031 -0.135,-0.052l0.076,-0.172c0.033,0.019 0.071,0.035 0.112,0.047c0.041,0.011 0.08,0.017 0.119,0.017c0.023,0 0.04,-0.001 0.053,-0.004c0.014,-0.003 0.023,-0.008 0.029,-0.013c0.006,-0.006 0.009,-0.013 0.009,-0.021c0,-0.013 -0.007,-0.023 -0.021,-0.03c-0.014,-0.007 -0.033,-0.013 -0.055,-0.018c-0.024,-0.005 -0.049,-0.011 -0.076,-0.016c-0.027,-0.006 -0.055,-0.014 -0.083,-0.023c-0.027,-0.009 -0.052,-0.022 -0.075,-0.037c-0.023,-0.015 -0.042,-0.035 -0.056,-0.06c-0.014,-0.025 -0.021,-0.057 -0.021,-0.094c0,-0.043 0.012,-0.083 0.037,-0.118c0.024,-0.036 0.06,-0.065 0.109,-0.086c0.048,-0.021 0.108,-0.032 0.18,-0.032c0.047,0 0.094,0.005 0.14,0.015c0.046,0.01 0.087,0.025 0.124,0.046l-0.071,0.171c-0.035,-0.017 -0.068,-0.03 -0.1,-0.039c-0.033,-0.009 -0.064,-0.013 -0.095,-0.013c-0.023,0 -0.041,0.002 -0.054,0.006c-0.013,0.004 -0.023,0.009 -0.028,0.016c-0.006,0.007 -0.009,0.014 -0.009,0.022c0,0.012 0.007,0.021 0.021,0.028c0.014,0.008 0.033,0.013 0.056,0.018c0.023,0.005 0.048,0.01 0.076,0.015c0.027,0.005 0.055,0.013 0.082,0.022c0.027,0.009 0.053,0.022 0.076,0.037c0.023,0.015 0.041,0.035 0.055,0.06c0.014,0.025 0.021,0.055 0.021,0.092c0,0.043 -0.012,0.082 -0.036,0.117c-0.025,0.036 -0.061,0.065 -0.109,0.086c-0.048,0.022 -0.108,0.033 -0.181,0.033Z" style="fill-rule:nonzero;"/></g><g transform="matrix(32,0,0,32,993.171,850.586)"><path d="M0.057,-0l0,-0.7l0.194,0l0.28,0.457l-0.102,0l0.272,-0.457l0.194,0l0.002,0.7l-0.215,-0l-0.002,-0.376l0.034,0l-0.186,0.313l-0.104,0l-0.194,-0.313l0.042,0l0,0.376l-0.215,-0Z" style="fill-rule:nonzero;"/></g><g transform="matrix(32,0,0,32,1023.7,850.586)"><path d="M-0.019,-0l0.306,-0.7l0.232,0l0.306,0.7l-0.244,-0l-0.226,-0.588l0.092,0l-0.226,0.588l-0.24,-0Zm0.182,-0.122l0.06,-0.17l0.322,0l0.06,0.17l-0.442,0Z" style="fill-rule:nonzero;"/></g><g transform="matrix(22,0,0,22,919.321,876.986)"><path d="M0.234,-0l-0.224,-0.7l0.243,0l0.181,0.591l-0.122,0l0.192,-0.591l0.217,0l0.179,0.591l-0.117,0l0.189,-0.591l0.224,0l-0.224,0.7l-0.253,-0l-0.146,-0.484l0.068,0l-0.154,0.484l-0.253,-0Z" style="fill-rule:nonzero;"/></g><g transform="matrix(22,0,0,22,944.643,876.986)"><path d="M0.352,0.01c-0.067,0 -0.125,-0.012 -0.174,-0.037c-0.05,-0.025 -0.089,-0.059 -0.116,-0.102c-0.027,-0.042 -0.041,-0.091 -0.041,-0.145c0,-0.055 0.014,-0.104 0.041,-0.147c0.027,-0.043 0.064,-0.076 0.111,-0.1c0.047,-0.024 0.099,-0.036 0.158,-0.036c0.054,0 0.104,0.011 0.15,0.032c0.045,0.021 0.082,0.053 0.11,0.095c0.027,0.042 0.041,0.094 0.041,0.156c0,0.008 -0,0.017 -0.001,0.027c-0.001,0.009 -0.001,0.018 -0.002,0.026l-0.421,0l0,-0.109l0.301,0l-0.085,0.029c0,-0.021 -0.004,-0.04 -0.011,-0.054c-0.008,-0.016 -0.019,-0.027 -0.032,-0.036c-0.013,-0.008 -0.029,-0.012 -0.048,-0.012c-0.019,0 -0.035,0.004 -0.048,0.013c-0.014,0.008 -0.025,0.02 -0.032,0.035c-0.007,0.014 -0.011,0.033 -0.011,0.054l0,0.034c0,0.023 0.005,0.043 0.014,0.06c0.009,0.017 0.023,0.029 0.04,0.038c0.017,0.008 0.038,0.012 0.063,0.012c0.025,0 0.046,-0.003 0.063,-0.01c0.016,-0.007 0.033,-0.017 0.051,-0.03l0.118,0.119c-0.027,0.029 -0.059,0.051 -0.098,0.066c-0.039,0.014 -0.086,0.022 -0.141,0.022Z" style="fill-rule:nonzero;"/></g><g transform="matrix(22,0,0,22,959.009,876.986)"><path d="M0.344,0.01c-0.063,0 -0.118,-0.012 -0.167,-0.036c-0.049,-0.024 -0.087,-0.058 -0.115,-0.101c-0.027,-0.042 -0.041,-0.092 -0.041,-0.147c-0,-0.055 0.014,-0.104 0.041,-0.147c0.028,-0.043 0.066,-0.076 0.115,-0.1c0.049,-0.024 0.104,-0.036 0.167,-0.036c0.067,0 0.124,0.014 0.171,0.043c0.047,0.029 0.08,0.068 0.098,0.119l-0.175,0.086c-0.011,-0.025 -0.025,-0.044 -0.041,-0.055c-0.017,-0.011 -0.035,-0.017 -0.054,-0.017c-0.017,0 -0.032,0.004 -0.046,0.012c-0.015,0.008 -0.026,0.02 -0.034,0.035c-0.009,0.016 -0.013,0.036 -0.013,0.06c0,0.024 0.004,0.044 0.013,0.06c0.008,0.016 0.019,0.028 0.033,0.036c0.015,0.008 0.03,0.012 0.047,0.012c0.019,-0 0.037,-0.006 0.053,-0.017c0.017,-0.011 0.031,-0.03 0.042,-0.055l0.175,0.086c-0.018,0.051 -0.051,0.09 -0.098,0.119c-0.047,0.029 -0.104,0.043 -0.171,0.043Z" style="fill-rule:nonzero;"/></g><g transform="matrix(22,0,0,22,972.539,876.986)"><path d="M0.43,-0.557c0.042,0 0.08,0.008 0.114,0.026c0.034,0.017 0.061,0.043 0.081,0.079c0.019,0.036 0.029,0.083 0.029,0.14l0,0.312l-0.226,-0l-0,-0.273c-0,-0.034 -0.006,-0.058 -0.018,-0.073c-0.012,-0.014 -0.028,-0.021 -0.049,-0.021c-0.015,0 -0.03,0.004 -0.043,0.011c-0.013,0.007 -0.023,0.018 -0.031,0.034c-0.007,0.016 -0.011,0.038 -0.011,0.065l0,0.257l-0.226,0l-0,-0.742l0.226,0l0,0.355l-0.054,-0.046c0.021,-0.041 0.05,-0.072 0.086,-0.093c0.037,-0.021 0.077,-0.031 0.122,-0.031Z" style="fill-rule:nonzero;"/></g><g transform="matrix(22,0,0,22,987.983,876.986)"><path d="M0.264,0.01c-0.047,0 -0.093,-0.005 -0.138,-0.015c-0.045,-0.01 -0.082,-0.023 -0.11,-0.039l0.062,-0.149c0.026,0.015 0.056,0.027 0.091,0.036c0.034,0.009 0.067,0.013 0.1,0.013c0.027,-0 0.046,-0.002 0.055,-0.007c0.01,-0.005 0.015,-0.011 0.015,-0.019c0,-0.008 -0.006,-0.014 -0.017,-0.018c-0.011,-0.003 -0.026,-0.006 -0.045,-0.008c-0.019,-0.002 -0.039,-0.005 -0.062,-0.008c-0.022,-0.003 -0.044,-0.007 -0.067,-0.013c-0.023,-0.006 -0.043,-0.015 -0.062,-0.027c-0.019,-0.012 -0.034,-0.028 -0.045,-0.048c-0.011,-0.021 -0.017,-0.047 -0.017,-0.078c-0,-0.035 0.01,-0.066 0.031,-0.094c0.021,-0.028 0.053,-0.05 0.094,-0.067c0.042,-0.017 0.094,-0.026 0.155,-0.026c0.04,0 0.08,0.004 0.12,0.011c0.04,0.007 0.074,0.019 0.103,0.034l-0.062,0.149c-0.028,-0.015 -0.056,-0.026 -0.083,-0.031c-0.027,-0.006 -0.052,-0.009 -0.075,-0.009c-0.029,0 -0.048,0.003 -0.058,0.008c-0.011,0.005 -0.016,0.011 -0.016,0.018c0,0.008 0.006,0.014 0.017,0.018c0.011,0.004 0.026,0.007 0.045,0.009c0.019,0.002 0.039,0.005 0.062,0.008c0.022,0.003 0.044,0.007 0.067,0.014c0.022,0.006 0.042,0.015 0.061,0.027c0.019,0.012 0.034,0.028 0.045,0.049c0.011,0.02 0.017,0.046 0.017,0.077c0,0.033 -0.01,0.063 -0.031,0.092c-0.021,0.028 -0.052,0.051 -0.094,0.068c-0.042,0.017 -0.095,0.025 -0.158,0.025Z" style="fill-rule:nonzero;"/></g><g transform="matrix(22,0,0,22,1000.41,876.986)"><path d="M0.352,0.01c-0.067,0 -0.125,-0.012 -0.174,-0.037c-0.05,-0.025 -0.089,-0.059 -0.116,-0.102c-0.027,-0.042 -0.041,-0.091 -0.041,-0.145c0,-0.055 0.014,-0.104 0.041,-0.147c0.027,-0.043 0.064,-0.076 0.111,-0.1c0.047,-0.024 0.099,-0.036 0.158,-0.036c0.054,0 0.104,0.011 0.15,0.032c0.045,0.021 0.082,0.053 0.11,0.095c0.027,0.042 0.041,0.094 0.041,0.156c0,0.008 -0,0.017 -0.001,0.027c-0.001,0.009 -0.001,0.018 -0.002,0.026l-0.421,0l0,-0.109l0.301,0l-0.085,0.029c0,-0.021 -0.004,-0.04 -0.011,-0.054c-0.008,-0.016 -0.019,-0.027 -0.032,-0.036c-0.013,-0.008 -0.029,-0.012 -0.048,-0.012c-0.019,0 -0.035,0.004 -0.048,0.013c-0.014,0.008 -0.025,0.02 -0.032,0.035c-0.007,0.014 -0.011,0.033 -0.011,0.054l0,0.034c0,0.023 0.005,0.043 0.014,0.06c0.009,0.017 0.023,0.029 0.04,0.038c0.017,0.008 0.038,0.012 0.063,0.012c0.025,0 0.046,-0.003 0.063,-0.01c0.016,-0.007 0.033,-0.017 0.051,-0.03l0.118,0.119c-0.027,0.029 -0.059,0.051 -0.098,0.066c-0.039,0.014 -0.086,0.022 -0.141,0.022Z" style="fill-rule:nonzero;"/></g><g transform="matrix(22,0,0,22,1014.78,876.986)"><rect x="0.05" y="-0.742" width="0.226" height="0.742" style="fill-rule:nonzero;"/></g><g transform="matrix(22,0,0,22,1021.95,876.986)"><path d="M0.05,-0l0,-0.547l0.215,0l0,0.165l-0.035,-0.047c0.017,-0.043 0.043,-0.075 0.08,-0.096c0.037,-0.021 0.081,-0.032 0.132,-0.032l0,0.2c-0.01,-0.001 -0.019,-0.002 -0.026,-0.003c-0.008,-0.001 -0.016,-0.001 -0.024,-0.001c-0.034,0 -0.062,0.009 -0.083,0.027c-0.022,0.017 -0.033,0.048 -0.033,0.091l0,0.243l-0.226,0Z" style="fill-rule:nonzero;"/></g><g transform="matrix(22,0,0,22,1031.98,876.986)"><path d="M0.05,-0l0,-0.547l0.226,0l0,0.547l-0.226,-0Zm0.113,-0.591c-0.041,0 -0.074,-0.011 -0.099,-0.033c-0.025,-0.022 -0.037,-0.049 -0.037,-0.082c-0,-0.033 0.012,-0.06 0.037,-0.082c0.025,-0.022 0.058,-0.033 0.099,-0.033c0.041,-0 0.074,0.01 0.099,0.031c0.025,0.021 0.037,0.047 0.037,0.08c0,0.035 -0.012,0.063 -0.037,0.085c-0.025,0.023 -0.058,0.034 -0.099,0.034Z" style="fill-rule:nonzero;"/></g><g transform="matrix(22,0,0,22,1039.16,876.986)"><path d="M0.344,0.01c-0.063,0 -0.118,-0.012 -0.167,-0.036c-0.049,-0.024 -0.087,-0.058 -0.115,-0.101c-0.027,-0.042 -0.041,-0.092 -0.041,-0.147c-0,-0.055 0.014,-0.104 0.041,-0.147c0.028,-0.043 0.066,-0.076 0.115,-0.1c0.049,-0.024 0.104,-0.036 0.167,-0.036c0.067,0 0.124,0.014 0.171,0.043c0.047,0.029 0.08,0.068 0.098,0.119l-0.175,0.086c-0.011,-0.025 -0.025,-0.044 -0.041,-0.055c-0.017,-0.011 -0.035,-0.017 -0.054,-0.017c-0.017,0 -0.032,0.004 -0.046,0.012c-0.015,0.008 -0.026,0.02 -0.034,0.035c-0.009,0.016 -0.013,0.036 -0.013,0.06c0,0.024 0.004,0.044 0.013,0.06c0.008,0.016 0.019,0.028 0.033,0.036c0.015,0.008 0.03,0.012 0.047,0.012c0.019,-0 0.037,-0.006 0.053,-0.017c0.017,-0.011 0.031,-0.03 0.042,-0.055l0.175,0.086c-0.018,0.051 -0.051,0.09 -0.098,0.119c-0.047,0.029 -0.104,0.043 -0.171,0.043Z" style="fill-rule:nonzero;"/></g><g transform="matrix(22,0,0,22,1052.69,876.986)"><path d="M0.43,-0.557c0.042,0 0.08,0.008 0.114,0.026c0.034,0.017 0.061,0.043 0.081,0.079c0.019,0.036 0.029,0.083 0.029,0.14l0,0.312l-0.226,-0l-0,-0.273c-0,-0.034 -0.006,-0.058 -0.018,-0.073c-0.012,-0.014 -0.028,-0.021 -0.049,-0.021c-0.015,0 -0.03,0.004 -0.043,0.011c-0.013,0.007 -0.023,0.018 -0.031,0.034c-0.007,0.016 -0.011,0.038 -0.011,0.065l0,0.257l-0.226,0l-0,-0.742l0.226,0l0,0.355l-0.054,-0.046c0.021,-0.041 0.05,-0.072 0.086,-0.093c0.037,-0.021 0.077,-0.031 0.122,-0.031Z" style="fill-rule:nonzero;"/></g><g transform="matrix(22,0,0,22,1068.13,876.986)"><path d="M0.314,0.01c-0.075,0 -0.134,-0.018 -0.176,-0.055c-0.042,-0.036 -0.063,-0.092 -0.063,-0.167l-0,-0.458l0.226,0l-0,0.456c-0,0.017 0.004,0.03 0.013,0.039c0.009,0.009 0.021,0.014 0.034,0.014c0.019,0 0.036,-0.005 0.051,-0.015l0.054,0.157c-0.017,0.01 -0.038,0.017 -0.063,0.022c-0.024,0.005 -0.049,0.007 -0.076,0.007Zm-0.314,-0.362l-0,-0.165l0.413,0l-0,0.165l-0.413,0Z" style="fill-rule:nonzero;"/></g><g transform="matrix(22,0,0,22,1077.92,876.986)"><path d="M0.352,0.01c-0.067,0 -0.125,-0.012 -0.174,-0.037c-0.05,-0.025 -0.089,-0.059 -0.116,-0.102c-0.027,-0.042 -0.041,-0.091 -0.041,-0.145c0,-0.055 0.014,-0.104 0.041,-0.147c0.027,-0.043 0.064,-0.076 0.111,-0.1c0.047,-0.024 0.099,-0.036 0.158,-0.036c0.054,0 0.104,0.011 0.15,0.032c0.045,0.021 0.082,0.053 0.11,0.095c0.027,0.042 0.041,0.094 0.041,0.156c0,0.008 -0,0.017 -0.001,0.027c-0.001,0.009 -0.001,0.018 -0.002,0.026l-0.421,0l0,-0.109l0.301,0l-0.085,0.029c0,-0.021 -0.004,-0.04 -0.011,-0.054c-0.008,-0.016 -0.019,-0.027 -0.032,-0.036c-0.013,-0.008 -0.029,-0.012 -0.048,-0.012c-0.019,0 -0.035,0.004 -0.048,0.013c-0.014,0.008 -0.025,0.02 -0.032,0.035c-0.007,0.014 -0.011,0.033 -0.011,0.054l0,0.034c0,0.023 0.005,0.043 0.014,0.06c0.009,0.017 0.023,0.029 0.04,0.038c0.017,0.008 0.038,0.012 0.063,0.012c0.025,0 0.046,-0.003 0.063,-0.01c0.016,-0.007 0.033,-0.017 0.051,-0.03l0.118,0.119c-0.027,0.029 -0.059,0.051 -0.098,0.066c-0.039,0.014 -0.086,0.022 -0.141,0.022Z" style="fill-rule:nonzero;"/></g><g transform="matrix(22,0,0,22,1092.29,876.986)"><path d="M0.05,-0l0,-0.547l0.215,0l0,0.165l-0.035,-0.047c0.017,-0.043 0.043,-0.075 0.08,-0.096c0.037,-0.021 0.081,-0.032 0.132,-0.032l0,0.2c-0.01,-0.001 -0.019,-0.002 -0.026,-0.003c-0.008,-0.001 -0.016,-0.001 -0.024,-0.001c-0.034,0 -0.062,0.009 -0.083,0.027c-0.022,0.017 -0.033,0.048 -0.033,0.091l0,0.243l-0.226,0Z" style="fill-rule:nonzero;"/></g></g></g><g><path d="M2561.14,1260.07c0,-28.552 -23.181,-51.733 -51.733,-51.733l-265.859,0c-28.552,0 -51.733,23.181 -51.733,51.733l0,292.368c0,28.552 23.181,51.733 51.733,51.733l7.532,-0l9.348,-9.161l231.27,-0l9.247,9.161l8.462,-0c28.552,-0 51.733,-23.181 51.733,-51.733l0,-292.368Z" style="fill:#4eb84b;stroke:#000;stroke-width:13.33px;"/><path d="M2481.42,1575.82l32.057,0c9.114,0 16.513,-7.399 16.513,-16.513l-0,-304.91c-0,-9.113 -7.399,-16.512 -16.513,-16.512l-272.229,-0c-9.113,-0 -16.513,7.399 -16.513,16.512l0,304.91c0,9.114 7.4,16.513 16.513,16.513l172.815,0" style="fill:#4eb84b;stroke:#000;stroke-width:13.33px;"/><path d="M2418.28,1533.35l57.714,-1.092l5.803,57.383l-68.934,0l5.417,-56.291Z" style="fill:#fff;stroke:#000;stroke-width:13.33px;"/><g><path d="M2412.63,1595.01l4.732,-55.147c0,-0 -0.994,-8.185 6.466,-8.298c7.46,-0.112 25.616,0 25.616,0" style="fill:#fff;stroke:#000;stroke-width:13.33px;"/><path d="M2482.51,1595.01l-4.732,-55.147c0,-0 0.994,-8.185 -6.466,-8.298c-7.46,-0.112 -25.616,0 -25.616,0" style="fill:#fff;stroke:#000;stroke-width:13.33px;"/></g></g></g><g><g><g transform="matrix(2.08333,0,0,2.08333,-229.79,-854.772)"><g transform="matrix(32,0,0,32,851.139,850.586)"><path d="M0.125,-0l0,-0.618l0.101,0.096l-0.221,0l-0,-0.178l0.356,-0l0,0.7l-0.236,-0Z" style="fill-rule:nonzero;"/></g><g transform="matrix(32,0,0,32,864.515,850.586)"><path d="M0.346,0.016c-0.062,0 -0.117,-0.014 -0.165,-0.043c-0.047,-0.029 -0.085,-0.07 -0.112,-0.125c-0.027,-0.055 -0.04,-0.121 -0.04,-0.198c-0,-0.077 0.013,-0.143 0.04,-0.198c0.027,-0.055 0.065,-0.096 0.112,-0.125c0.048,-0.029 0.103,-0.043 0.165,-0.043c0.062,0 0.117,0.014 0.165,0.043c0.047,0.029 0.085,0.07 0.112,0.125c0.027,0.055 0.04,0.121 0.04,0.198c0,0.077 -0.013,0.143 -0.04,0.198c-0.027,0.055 -0.065,0.096 -0.112,0.125c-0.048,0.029 -0.103,0.043 -0.165,0.043Zm0,-0.189c0.015,0 0.029,-0.005 0.041,-0.016c0.012,-0.011 0.022,-0.029 0.029,-0.055c0.007,-0.026 0.01,-0.061 0.01,-0.106c0,-0.045 -0.003,-0.081 -0.01,-0.107c-0.007,-0.025 -0.017,-0.043 -0.029,-0.054c-0.012,-0.011 -0.026,-0.016 -0.041,-0.016c-0.015,0 -0.029,0.005 -0.041,0.016c-0.012,0.011 -0.021,0.029 -0.028,0.054c-0.007,0.026 -0.011,0.062 -0.011,0.107c0,0.045 0.004,0.08 0.011,0.106c0.007,0.026 0.016,0.044 0.028,0.055c0.012,0.011 0.026,0.016 0.041,0.016Z" style="fill-rule:nonzero;"/></g><g transform="matrix(32,0,0,32,896.259,850.586)"><path d="M0.239,-0.09l0.005,-0.266l0.189,-0.191l0.267,-0l-0.25,0.262l-0.113,0.091l-0.098,0.104Zm-0.189,0.09l-0,-0.742l0.226,-0l-0,0.742l-0.226,-0Zm0.395,-0l-0.15,-0.19l0.139,-0.171l0.284,0.361l-0.273,-0Z" style="fill-rule:nonzero;"/></g><g transform="matrix(32,0,0,32,919.075,850.586)"><path d="M0.234,-0l-0.224,-0.7l0.243,0l0.181,0.591l-0.122,0l0.192,-0.591l0.217,0l0.179,0.591l-0.117,0l0.189,-0.591l0.224,0l-0.224,0.7l-0.253,-0l-0.146,-0.484l0.068,0l-0.154,0.484l-0.253,-0Z" style="fill-rule:nonzero;"/></g><g transform="matrix(32,0,0,32,956.547,850.586)"><path d="M0.415,0.01c-0.047,0 -0.087,-0.01 -0.118,-0.031c-0.031,-0.02 -0.053,-0.051 -0.068,-0.093c-0.015,-0.041 -0.022,-0.094 -0.022,-0.159c-0,-0.066 0.007,-0.12 0.02,-0.161c0.014,-0.042 0.036,-0.073 0.067,-0.093c0.031,-0.02 0.071,-0.03 0.121,-0.03c0.048,0 0.092,0.012 0.132,0.035c0.04,0.023 0.072,0.055 0.096,0.098c0.024,0.042 0.036,0.092 0.036,0.151c-0,0.059 -0.012,0.109 -0.036,0.152c-0.024,0.042 -0.056,0.074 -0.096,0.097c-0.04,0.023 -0.084,0.034 -0.132,0.034Zm-0.365,0.184l-0,-0.741l0.215,0l0,0.074l0.001,0.2l0.01,0.2l0,0.267l-0.226,0Zm0.311,-0.36c0.017,-0 0.032,-0.004 0.045,-0.012c0.013,-0.008 0.024,-0.02 0.032,-0.036c0.008,-0.016 0.012,-0.036 0.012,-0.059c0,-0.024 -0.004,-0.044 -0.012,-0.06c-0.008,-0.016 -0.019,-0.028 -0.032,-0.036c-0.013,-0.008 -0.028,-0.012 -0.045,-0.012c-0.017,0 -0.032,0.004 -0.045,0.012c-0.013,0.008 -0.024,0.02 -0.032,0.036c-0.008,0.016 -0.012,0.036 -0.012,0.06c0,0.023 0.004,0.043 0.012,0.059c0.008,0.016 0.019,0.028 0.032,0.036c0.013,0.008 0.028,0.012 0.045,0.012Z" style="fill-rule:nonzero;"/></g><g transform="matrix(32,0,0,32,988.547,850.586)"><path d="M0.057,-0l0,-0.7l0.337,0c0.065,0 0.122,0.011 0.169,0.032c0.048,0.021 0.085,0.052 0.111,0.092c0.026,0.039 0.039,0.086 0.039,0.14c-0,0.054 -0.013,0.101 -0.039,0.14c-0.026,0.039 -0.063,0.07 -0.111,0.092c-0.047,0.021 -0.104,0.032 -0.169,0.032l-0.206,0l0.105,-0.101l0,0.273l-0.236,-0Zm0.236,-0.247l-0.105,-0.107l0.191,0c0.033,0 0.057,-0.007 0.073,-0.022c0.015,-0.015 0.023,-0.035 0.023,-0.06c0,-0.025 -0.008,-0.045 -0.024,-0.06c-0.015,-0.015 -0.039,-0.022 -0.072,-0.022l-0.191,0l0.105,-0.107l0,0.378Z" style="fill-rule:nonzero;"/></g><g transform="matrix(32,0,0,32,1011.68,850.586)"><path d="M0.277,-0l-0.296,-0.7l0.254,0l0.241,0.591l-0.151,0l0.248,-0.591l0.232,0l-0.296,0.7l-0.232,-0Z" style="fill-rule:nonzero;"/></g><g transform="matrix(32,0,0,32,1035.88,850.586)"><rect x="0.045" y="-0.374" width="0.3" height="0.17" style="fill-rule:nonzero;"/></g><g transform="matrix(32,0,0,32,1047.4,850.586)"><path d="M-0.019,-0l0.306,-0.7l0.232,0l0.306,0.7l-0.244,-0l-0.226,-0.588l0.092,0l-0.226,0.588l-0.24,-0Zm0.182,-0.122l0.06,-0.17l0.322,0l0.06,0.17l-0.442,0Z" style="fill-rule:nonzero;"/></g><g transform="matrix(32,0,0,32,1073.19,850.586)"><path d="M0.43,-0.557c0.042,0 0.08,0.008 0.114,0.026c0.034,0.017 0.061,0.043 0.081,0.079c0.019,0.036 0.029,0.083 0.029,0.14l0,0.312l-0.226,-0l-0,-0.273c-0,-0.034 -0.006,-0.058 -0.018,-0.073c-0.012,-0.014 -0.028,-0.021 -0.049,-0.021c-0.015,0 -0.03,0.004 -0.043,0.011c-0.013,0.007 -0.023,0.018 -0.031,0.034c-0.007,0.016 -0.011,0.038 -0.011,0.065l0,0.257l-0.226,0l-0,-0.547l0.215,0l0,0.16l-0.043,-0.046c0.021,-0.041 0.05,-0.072 0.086,-0.093c0.037,-0.021 0.077,-0.031 0.122,-0.031Z" style="fill-rule:nonzero;"/></g><g transform="matrix(32,0,0,32,1095.65,850.586)"><rect x="0.05" y="-0.742" width="0.226" height="0.742" style="fill-rule:nonzero;"/></g><g transform="matrix(32,0,0,32,1106.08,850.586)"><path d="M0.381,-0l0,-0.097l-0.016,-0.026l0,-0.184c0,-0.027 -0.008,-0.047 -0.024,-0.061c-0.017,-0.014 -0.043,-0.021 -0.08,-0.021c-0.025,0 -0.05,0.004 -0.075,0.012c-0.025,0.007 -0.047,0.018 -0.065,0.031l-0.072,-0.149c0.032,-0.02 0.07,-0.035 0.115,-0.046c0.045,-0.011 0.088,-0.016 0.131,-0.016c0.094,0 0.167,0.021 0.219,0.063c0.051,0.042 0.077,0.109 0.077,0.2l0,0.294l-0.21,0Zm-0.155,0.01c-0.045,0 -0.082,-0.008 -0.112,-0.023c-0.03,-0.015 -0.053,-0.036 -0.068,-0.061c-0.015,-0.026 -0.023,-0.055 -0.023,-0.086c0,-0.035 0.009,-0.065 0.027,-0.09c0.018,-0.025 0.046,-0.043 0.083,-0.056c0.037,-0.013 0.083,-0.019 0.14,-0.019l0.114,0l0,0.109l-0.078,0c-0.024,0 -0.041,0.004 -0.052,0.012c-0.011,0.007 -0.017,0.019 -0.017,0.034c0,0.013 0.005,0.023 0.015,0.032c0.009,0.008 0.022,0.012 0.039,0.012c0.015,0 0.03,-0.004 0.043,-0.012c0.013,-0.009 0.022,-0.022 0.028,-0.04l0.029,0.067c-0.009,0.041 -0.027,0.071 -0.055,0.091c-0.028,0.02 -0.066,0.03 -0.113,0.03Z" style="fill-rule:nonzero;"/></g><g transform="matrix(32,0,0,32,1126.85,850.586)"><path d="M0.328,0.204c-0.054,0 -0.105,-0.006 -0.152,-0.017c-0.047,-0.011 -0.088,-0.028 -0.122,-0.051l0.076,-0.154c0.021,0.017 0.048,0.03 0.081,0.039c0.034,0.01 0.065,0.015 0.094,0.015c0.047,-0 0.08,-0.01 0.1,-0.03c0.02,-0.019 0.03,-0.047 0.03,-0.084l-0,-0.046l0.01,-0.17l0.001,-0.17l-0,-0.083l0.215,-0l0,0.438c0,0.106 -0.029,0.185 -0.088,0.236c-0.059,0.051 -0.14,0.077 -0.245,0.077Zm-0.044,-0.234c-0.046,-0 -0.089,-0.011 -0.129,-0.033c-0.04,-0.021 -0.072,-0.052 -0.097,-0.091c-0.025,-0.039 -0.037,-0.086 -0.037,-0.14c-0,-0.054 0.012,-0.101 0.037,-0.14c0.025,-0.039 0.057,-0.07 0.097,-0.091c0.04,-0.021 0.083,-0.032 0.129,-0.032c0.047,-0 0.086,0.009 0.116,0.028c0.031,0.019 0.053,0.047 0.068,0.086c0.015,0.039 0.022,0.089 0.022,0.149c-0,0.06 -0.007,0.109 -0.022,0.148c-0.015,0.039 -0.037,0.068 -0.068,0.087c-0.03,0.019 -0.069,0.029 -0.116,0.029Zm0.06,-0.176c0.018,-0 0.034,-0.004 0.048,-0.011c0.014,-0.007 0.025,-0.018 0.033,-0.031c0.008,-0.013 0.012,-0.029 0.012,-0.046c-0,-0.018 -0.004,-0.034 -0.012,-0.047c-0.008,-0.013 -0.019,-0.023 -0.033,-0.03c-0.014,-0.007 -0.03,-0.01 -0.048,-0.01c-0.017,-0 -0.033,0.003 -0.048,0.01c-0.014,0.007 -0.025,0.017 -0.034,0.03c-0.008,0.013 -0.012,0.029 -0.012,0.047c0,0.017 0.004,0.033 0.013,0.046c0.008,0.013 0.019,0.024 0.033,0.031c0.015,0.007 0.031,0.011 0.048,0.011Z" style="fill-rule:nonzero;"/></g><g transform="matrix(32,0,0,32,1149.6,850.586)"><path d="M0.352,0.01c-0.067,0 -0.125,-0.012 -0.174,-0.037c-0.05,-0.025 -0.089,-0.059 -0.116,-0.102c-0.027,-0.042 -0.041,-0.091 -0.041,-0.145c0,-0.055 0.014,-0.104 0.041,-0.147c0.027,-0.043 0.064,-0.076 0.111,-0.1c0.047,-0.024 0.099,-0.036 0.158,-0.036c0.054,0 0.104,0.011 0.15,0.032c0.045,0.021 0.082,0.053 0.11,0.095c0.027,0.042 0.041,0.094 0.041,0.156c0,0.008 -0,0.017 -0.001,0.027c-0.001,0.009 -0.001,0.018 -0.002,0.026l-0.421,0l0,-0.109l0.301,0l-0.085,0.029c0,-0.021 -0.004,-0.04 -0.011,-0.054c-0.008,-0.016 -0.019,-0.027 -0.032,-0.036c-0.013,-0.008 -0.029,-0.012 -0.048,-0.012c-0.019,0 -0.035,0.004 -0.048,0.013c-0.014,0.008 -0.025,0.02 -0.032,0.035c-0.007,0.014 -0.011,0.033 -0.011,0.054l0,0.034c0,0.023 0.005,0.043 0.014,0.06c0.009,0.017 0.023,0.029 0.04,0.038c0.017,0.008 0.038,0.012 0.063,0.012c0.025,0 0.046,-0.003 0.063,-0.01c0.016,-0.007 0.033,-0.017 0.051,-0.03l0.118,0.119c-0.027,0.029 -0.059,0.051 -0.098,0.066c-0.039,0.014 -0.086,0.022 -0.141,0.022Z" style="fill-rule:nonzero;"/></g><g transform="matrix(22,0,0,22,959.097,876.986)"><path d="M0.318,0.016c-0.059,0 -0.115,-0.007 -0.17,-0.02c-0.055,-0.013 -0.1,-0.031 -0.135,-0.052l0.076,-0.172c0.033,0.019 0.071,0.035 0.112,0.047c0.041,0.011 0.08,0.017 0.119,0.017c0.023,0 0.04,-0.001 0.053,-0.004c0.014,-0.003 0.023,-0.008 0.029,-0.013c0.006,-0.006 0.009,-0.013 0.009,-0.021c0,-0.013 -0.007,-0.023 -0.021,-0.03c-0.014,-0.007 -0.033,-0.013 -0.055,-0.018c-0.024,-0.005 -0.049,-0.011 -0.076,-0.016c-0.027,-0.006 -0.055,-0.014 -0.083,-0.023c-0.027,-0.009 -0.052,-0.022 -0.075,-0.037c-0.023,-0.015 -0.042,-0.035 -0.056,-0.06c-0.014,-0.025 -0.021,-0.057 -0.021,-0.094c0,-0.043 0.012,-0.083 0.037,-0.118c0.024,-0.036 0.06,-0.065 0.109,-0.086c0.048,-0.021 0.108,-0.032 0.18,-0.032c0.047,0 0.094,0.005 0.14,0.015c0.046,0.01 0.087,0.025 0.124,0.046l-0.071,0.171c-0.035,-0.017 -0.068,-0.03 -0.1,-0.039c-0.033,-0.009 -0.064,-0.013 -0.095,-0.013c-0.023,0 -0.041,0.002 -0.054,0.006c-0.013,0.004 -0.023,0.009 -0.028,0.016c-0.006,0.007 -0.009,0.014 -0.009,0.022c0,0.012 0.007,0.021 0.021,0.028c0.014,0.008 0.033,0.013 0.056,0.018c0.023,0.005 0.048,0.01 0.076,0.015c0.027,0.005 0.055,0.013 0.082,0.022c0.027,0.009 0.053,0.022 0.076,0.037c0.023,0.015 0.041,0.035 0.055,0.06c0.014,0.025 0.021,0.055 0.021,0.092c0,0.043 -0.012,0.082 -0.036,0.117c-0.025,0.036 -0.061,0.065 -0.109,0.086c-0.048,0.022 -0.108,0.033 -0.181,0.033Z" style="fill-rule:nonzero;"/></g><g transform="matrix(22,0,0,22,973.551,876.986)"><path d="M0.278,0.01c-0.043,0 -0.083,-0.009 -0.118,-0.027c-0.035,-0.017 -0.062,-0.045 -0.082,-0.083c-0.02,-0.037 -0.03,-0.086 -0.03,-0.145l-0,-0.302l0.226,-0l0,0.263c0,0.039 0.006,0.066 0.019,0.081c0.013,0.015 0.03,0.023 0.052,0.023c0.013,-0 0.026,-0.004 0.037,-0.011c0.012,-0.007 0.022,-0.018 0.029,-0.035c0.007,-0.016 0.011,-0.037 0.011,-0.064l-0,-0.257l0.226,-0l0,0.547l-0.215,-0l-0,-0.158l0.043,0.043c-0.019,0.043 -0.047,0.074 -0.083,0.094c-0.035,0.021 -0.074,0.031 -0.115,0.031Zm0.181,-0.609c-0.025,-0 -0.047,-0.008 -0.064,-0.024c-0.017,-0.016 -0.026,-0.037 -0.026,-0.064c0,-0.027 0.009,-0.048 0.026,-0.065c0.017,-0.016 0.039,-0.024 0.064,-0.024c0.025,-0 0.047,0.008 0.064,0.024c0.017,0.017 0.026,0.038 0.026,0.065c0,0.027 -0.009,0.048 -0.026,0.064c-0.017,0.016 -0.039,0.024 -0.064,0.024Zm-0.222,-0c-0.025,-0 -0.047,-0.008 -0.064,-0.024c-0.017,-0.016 -0.026,-0.037 -0.026,-0.064c-0,-0.027 0.009,-0.048 0.026,-0.065c0.017,-0.016 0.039,-0.024 0.064,-0.024c0.025,-0 0.047,0.008 0.064,0.024c0.017,0.017 0.026,0.038 0.026,0.065c-0,0.027 -0.009,0.048 -0.026,0.064c-0.017,0.016 -0.039,0.024 -0.064,0.024Z" style="fill-rule:nonzero;"/></g><g transform="matrix(22,0,0,22,988.907,876.986)"><path d="M0.29,0.01c-0.047,0 -0.091,-0.012 -0.131,-0.035c-0.041,-0.023 -0.073,-0.055 -0.097,-0.098c-0.024,-0.042 -0.036,-0.092 -0.036,-0.151c0,-0.059 0.012,-0.109 0.036,-0.151c0.024,-0.043 0.056,-0.075 0.097,-0.098c0.04,-0.023 0.084,-0.034 0.131,-0.034c0.048,0 0.087,0.01 0.118,0.031c0.031,0.02 0.053,0.051 0.068,0.093c0.015,0.041 0.022,0.094 0.022,0.159c0,0.065 -0.007,0.119 -0.02,0.161c-0.014,0.042 -0.036,0.073 -0.066,0.093c-0.031,0.02 -0.071,0.03 -0.122,0.03Zm0.054,-0.176c0.017,0 0.032,-0.004 0.045,-0.012c0.013,-0.008 0.024,-0.02 0.032,-0.036c0.008,-0.017 0.012,-0.037 0.012,-0.06c0,-0.024 -0.004,-0.044 -0.012,-0.059c-0.008,-0.016 -0.019,-0.028 -0.032,-0.036c-0.013,-0.008 -0.028,-0.012 -0.045,-0.012c-0.017,0 -0.032,0.004 -0.045,0.012c-0.013,0.008 -0.024,0.02 -0.032,0.035c-0.008,0.016 -0.012,0.036 -0.012,0.06c0,0.023 0.004,0.043 0.012,0.059c0.008,0.017 0.019,0.029 0.032,0.037c0.013,0.008 0.028,0.012 0.045,0.012Zm0.096,0.166l0,-0.074l-0.001,-0.2l-0.01,-0.2l0,-0.268l0.226,0l0,0.742l-0.215,-0Z" style="fill-rule:nonzero;"/></g><g transform="matrix(22,0,0,22,1004.42,876.986)"><path d="M0.264,0.01c-0.047,0 -0.093,-0.005 -0.138,-0.015c-0.045,-0.01 -0.082,-0.023 -0.11,-0.039l0.062,-0.149c0.026,0.015 0.056,0.027 0.091,0.036c0.034,0.009 0.067,0.013 0.1,0.013c0.027,-0 0.046,-0.002 0.055,-0.007c0.01,-0.005 0.015,-0.011 0.015,-0.019c0,-0.008 -0.006,-0.014 -0.017,-0.018c-0.011,-0.003 -0.026,-0.006 -0.045,-0.008c-0.019,-0.002 -0.039,-0.005 -0.062,-0.008c-0.022,-0.003 -0.044,-0.007 -0.067,-0.013c-0.023,-0.006 -0.043,-0.015 -0.062,-0.027c-0.019,-0.012 -0.034,-0.028 -0.045,-0.048c-0.011,-0.021 -0.017,-0.047 -0.017,-0.078c-0,-0.035 0.01,-0.066 0.031,-0.094c0.021,-0.028 0.053,-0.05 0.094,-0.067c0.042,-0.017 0.094,-0.026 0.155,-0.026c0.04,0 0.08,0.004 0.12,0.011c0.04,0.007 0.074,0.019 0.103,0.034l-0.062,0.149c-0.028,-0.015 -0.056,-0.026 -0.083,-0.031c-0.027,-0.006 -0.052,-0.009 -0.075,-0.009c-0.029,0 -0.048,0.003 -0.058,0.008c-0.011,0.005 -0.016,0.011 -0.016,0.018c0,0.008 0.006,0.014 0.017,0.018c0.011,0.004 0.026,0.007 0.045,0.009c0.019,0.002 0.039,0.005 0.062,0.008c0.022,0.003 0.044,0.007 0.067,0.014c0.022,0.006 0.042,0.015 0.061,0.027c0.019,0.012 0.034,0.028 0.045,0.049c0.011,0.02 0.017,0.046 0.017,0.077c0,0.033 -0.01,0.063 -0.031,0.092c-0.021,0.028 -0.052,0.051 -0.094,0.068c-0.042,0.017 -0.095,0.025 -0.158,0.025Z" style="fill-rule:nonzero;"/></g><g transform="matrix(22,0,0,22,1016.85,876.986)"><path d="M0.352,0.01c-0.067,0 -0.125,-0.012 -0.174,-0.037c-0.05,-0.025 -0.089,-0.059 -0.116,-0.102c-0.027,-0.042 -0.041,-0.091 -0.041,-0.145c0,-0.055 0.014,-0.104 0.041,-0.147c0.027,-0.043 0.064,-0.076 0.111,-0.1c0.047,-0.024 0.099,-0.036 0.158,-0.036c0.054,0 0.104,0.011 0.15,0.032c0.045,0.021 0.082,0.053 0.11,0.095c0.027,0.042 0.041,0.094 0.041,0.156c0,0.008 -0,0.017 -0.001,0.027c-0.001,0.009 -0.001,0.018 -0.002,0.026l-0.421,0l0,-0.109l0.301,0l-0.085,0.029c0,-0.021 -0.004,-0.04 -0.011,-0.054c-0.008,-0.016 -0.019,-0.027 -0.032,-0.036c-0.013,-0.008 -0.029,-0.012 -0.048,-0.012c-0.019,0 -0.035,0.004 -0.048,0.013c-0.014,0.008 -0.025,0.02 -0.032,0.035c-0.007,0.014 -0.011,0.033 -0.011,0.054l0,0.034c0,0.023 0.005,0.043 0.014,0.06c0.009,0.017 0.023,0.029 0.04,0.038c0.017,0.008 0.038,0.012 0.063,0.012c0.025,0 0.046,-0.003 0.063,-0.01c0.016,-0.007 0.033,-0.017 0.051,-0.03l0.118,0.119c-0.027,0.029 -0.059,0.051 -0.098,0.066c-0.039,0.014 -0.086,0.022 -0.141,0.022Z" style="fill-rule:nonzero;"/></g><g transform="matrix(22,0,0,22,1031.21,876.986)"><path d="M0.05,-0l0,-0.547l0.226,0l0,0.547l-0.226,-0Zm0.113,-0.591c-0.041,0 -0.074,-0.011 -0.099,-0.033c-0.025,-0.022 -0.037,-0.049 -0.037,-0.082c-0,-0.033 0.012,-0.06 0.037,-0.082c0.025,-0.022 0.058,-0.033 0.099,-0.033c0.041,-0 0.074,0.01 0.099,0.031c0.025,0.021 0.037,0.047 0.037,0.08c0,0.035 -0.012,0.063 -0.037,0.085c-0.025,0.023 -0.058,0.034 -0.099,0.034Z" style="fill-rule:nonzero;"/></g><g transform="matrix(22,0,0,22,1038.39,876.986)"><path d="M0.314,0.01c-0.075,0 -0.134,-0.018 -0.176,-0.055c-0.042,-0.036 -0.063,-0.092 -0.063,-0.167l-0,-0.458l0.226,0l-0,0.456c-0,0.017 0.004,0.03 0.013,0.039c0.009,0.009 0.021,0.014 0.034,0.014c0.019,0 0.036,-0.005 0.051,-0.015l0.054,0.157c-0.017,0.01 -0.038,0.017 -0.063,0.022c-0.024,0.005 -0.049,0.007 -0.076,0.007Zm-0.314,-0.362l-0,-0.165l0.413,0l-0,0.165l-0.413,0Z" style="fill-rule:nonzero;"/></g><g transform="matrix(22,0,0,22,1048.18,876.986)"><path d="M0.352,0.01c-0.067,0 -0.125,-0.012 -0.174,-0.037c-0.05,-0.025 -0.089,-0.059 -0.116,-0.102c-0.027,-0.042 -0.041,-0.091 -0.041,-0.145c0,-0.055 0.014,-0.104 0.041,-0.147c0.027,-0.043 0.064,-0.076 0.111,-0.1c0.047,-0.024 0.099,-0.036 0.158,-0.036c0.054,0 0.104,0.011 0.15,0.032c0.045,0.021 0.082,0.053 0.11,0.095c0.027,0.042 0.041,0.094 0.041,0.156c0,0.008 -0,0.017 -0.001,0.027c-0.001,0.009 -0.001,0.018 -0.002,0.026l-0.421,0l0,-0.109l0.301,0l-0.085,0.029c0,-0.021 -0.004,-0.04 -0.011,-0.054c-0.008,-0.016 -0.019,-0.027 -0.032,-0.036c-0.013,-0.008 -0.029,-0.012 -0.048,-0.012c-0.019,0 -0.035,0.004 -0.048,0.013c-0.014,0.008 -0.025,0.02 -0.032,0.035c-0.007,0.014 -0.011,0.033 -0.011,0.054l0,0.034c0,0.023 0.005,0.043 0.014,0.06c0.009,0.017 0.023,0.029 0.04,0.038c0.017,0.008 0.038,0.012 0.063,0.012c0.025,0 0.046,-0.003 0.063,-0.01c0.016,-0.007 0.033,-0.017 0.051,-0.03l0.118,0.119c-0.027,0.029 -0.059,0.051 -0.098,0.066c-0.039,0.014 -0.086,0.022 -0.141,0.022Z" style="fill-rule:nonzero;"/></g></g></g><g><path d="M2189.58,827.082l-625,0l29.988,-235.415l565.025,-0l29.987,235.415Z" style="fill:#fff;stroke:#000;stroke-width:13.33px;"/><path d="M2161.24,804.564l-567.78,-0l22.031,-190.944l523.718,-0l22.031,190.944Z" style="fill:#4eb848;stroke:#000;stroke-width:13.33px;"/><path d="M2102.53,804.564l-453.43,-0l17.594,-190.944l418.241,-0l17.595,190.944Z" style="fill:#4eb848;stroke:#000;stroke-width:13.33px;"/><path d="M2046.07,804.564l-340.133,-0l13.198,-190.944l313.737,-0l13.198,190.944Z" style="fill:none;stroke:#000;stroke-width:13.33px;"/><path d="M1990.05,804.564l-283.271,-0l10.992,-190.944l261.287,-0l10.992,190.944Z" style="fill:#4eb848;stroke:#000;stroke-width:13.33px;"/><path d="M1933.28,804.564l-170.192,-0l6.604,-190.944l156.984,-0l6.604,190.944Z" style="fill:#4eb848;stroke:#000;stroke-width:13.33px;"/><path d="M1877,804.564l-57.382,-0l2.227,-190.944l52.929,-0l2.226,190.944Z" style="fill:#4eb848;stroke:#000;stroke-width:13.33px;"/><path d="M1610.79,676.273l530.714,0" style="fill:none;stroke:#000;stroke-width:13.33px;"/><path d="M1604.67,740.862l546.37,-0" style="fill:none;stroke:#000;stroke-width:13.33px;"/></g></g><g><g><g transform="matrix(2.08333,0,0,2.08333,-700.399,-77.4566)"><g transform="matrix(32,0,0,32,885.123,850.586)"><path d="M0.057,-0l0,-0.7l0.337,0c0.065,0 0.122,0.011 0.169,0.032c0.048,0.021 0.085,0.052 0.111,0.092c0.026,0.039 0.039,0.086 0.039,0.14c-0,0.054 -0.013,0.101 -0.039,0.14c-0.026,0.039 -0.063,0.068 -0.111,0.089c-0.047,0.021 -0.104,0.031 -0.169,0.031l-0.206,0l0.105,-0.097l0,0.273l-0.236,-0Zm0.419,-0l-0.172,-0.255l0.25,0l0.174,0.255l-0.252,-0Zm-0.183,-0.247l-0.105,-0.107l0.191,0c0.033,0 0.057,-0.007 0.073,-0.022c0.015,-0.015 0.023,-0.035 0.023,-0.06c0,-0.025 -0.008,-0.045 -0.024,-0.06c-0.015,-0.015 -0.039,-0.022 -0.072,-0.022l-0.191,0l0.105,-0.107l0,0.378Z" style="fill-rule:nonzero;"/></g><g transform="matrix(32,0,0,32,908.803,850.586)"><path d="M0.381,-0l0,-0.097l-0.016,-0.026l0,-0.184c0,-0.027 -0.008,-0.047 -0.024,-0.061c-0.017,-0.014 -0.043,-0.021 -0.08,-0.021c-0.025,0 -0.05,0.004 -0.075,0.012c-0.025,0.007 -0.047,0.018 -0.065,0.031l-0.072,-0.149c0.032,-0.02 0.07,-0.035 0.115,-0.046c0.045,-0.011 0.088,-0.016 0.131,-0.016c0.094,0 0.167,0.021 0.219,0.063c0.051,0.042 0.077,0.109 0.077,0.2l0,0.294l-0.21,0Zm-0.155,0.01c-0.045,0 -0.082,-0.008 -0.112,-0.023c-0.03,-0.015 -0.053,-0.036 -0.068,-0.061c-0.015,-0.026 -0.023,-0.055 -0.023,-0.086c0,-0.035 0.009,-0.065 0.027,-0.09c0.018,-0.025 0.046,-0.043 0.083,-0.056c0.037,-0.013 0.083,-0.019 0.14,-0.019l0.114,0l0,0.109l-0.078,0c-0.024,0 -0.041,0.004 -0.052,0.012c-0.011,0.007 -0.017,0.019 -0.017,0.034c0,0.013 0.005,0.023 0.015,0.032c0.009,0.008 0.022,0.012 0.039,0.012c0.015,0 0.03,-0.004 0.043,-0.012c0.013,-0.009 0.022,-0.022 0.028,-0.04l0.029,0.067c-0.009,0.041 -0.027,0.071 -0.055,0.091c-0.028,0.02 -0.066,0.03 -0.113,0.03Z" style="fill-rule:nonzero;"/></g><g transform="matrix(32,0,0,32,929.251,850.586)"><path d="M0.264,0.01c-0.047,0 -0.093,-0.005 -0.138,-0.015c-0.045,-0.01 -0.082,-0.023 -0.11,-0.039l0.062,-0.149c0.026,0.015 0.056,0.027 0.091,0.036c0.034,0.009 0.067,0.013 0.1,0.013c0.027,-0 0.046,-0.002 0.055,-0.007c0.01,-0.005 0.015,-0.011 0.015,-0.019c0,-0.008 -0.006,-0.014 -0.017,-0.018c-0.011,-0.003 -0.026,-0.006 -0.045,-0.008c-0.019,-0.002 -0.039,-0.005 -0.062,-0.008c-0.022,-0.003 -0.044,-0.007 -0.067,-0.013c-0.023,-0.006 -0.043,-0.015 -0.062,-0.027c-0.019,-0.012 -0.034,-0.028 -0.045,-0.048c-0.011,-0.021 -0.017,-0.047 -0.017,-0.078c-0,-0.035 0.01,-0.066 0.031,-0.094c0.021,-0.028 0.053,-0.05 0.094,-0.067c0.042,-0.017 0.094,-0.026 0.155,-0.026c0.04,0 0.08,0.004 0.12,0.011c0.04,0.007 0.074,0.019 0.103,0.034l-0.062,0.149c-0.028,-0.015 -0.056,-0.026 -0.083,-0.031c-0.027,-0.006 -0.052,-0.009 -0.075,-0.009c-0.029,0 -0.048,0.003 -0.058,0.008c-0.011,0.005 -0.016,0.011 -0.016,0.018c0,0.008 0.006,0.014 0.017,0.018c0.011,0.004 0.026,0.007 0.045,0.009c0.019,0.002 0.039,0.005 0.062,0.008c0.022,0.003 0.044,0.007 0.067,0.014c0.022,0.006 0.042,0.015 0.061,0.027c0.019,0.012 0.034,0.028 0.045,0.049c0.011,0.02 0.017,0.046 0.017,0.077c0,0.033 -0.01,0.063 -0.031,0.092c-0.021,0.028 -0.052,0.051 -0.094,0.068c-0.042,0.017 -0.095,0.025 -0.158,0.025Z" style="fill-rule:nonzero;"/></g><g transform="matrix(32,0,0,32,947.331,850.586)"><path d="M0.415,0.01c-0.047,0 -0.087,-0.01 -0.118,-0.031c-0.031,-0.02 -0.053,-0.051 -0.068,-0.093c-0.015,-0.041 -0.022,-0.094 -0.022,-0.159c-0,-0.066 0.007,-0.12 0.02,-0.161c0.014,-0.042 0.036,-0.073 0.067,-0.093c0.031,-0.02 0.071,-0.03 0.121,-0.03c0.048,0 0.092,0.012 0.132,0.035c0.04,0.023 0.072,0.055 0.096,0.098c0.024,0.042 0.036,0.092 0.036,0.151c-0,0.059 -0.012,0.109 -0.036,0.152c-0.024,0.042 -0.056,0.074 -0.096,0.097c-0.04,0.023 -0.084,0.034 -0.132,0.034Zm-0.365,0.184l-0,-0.741l0.215,0l0,0.074l0.001,0.2l0.01,0.2l0,0.267l-0.226,0Zm0.311,-0.36c0.017,-0 0.032,-0.004 0.045,-0.012c0.013,-0.008 0.024,-0.02 0.032,-0.036c0.008,-0.016 0.012,-0.036 0.012,-0.059c0,-0.024 -0.004,-0.044 -0.012,-0.06c-0.008,-0.016 -0.019,-0.028 -0.032,-0.036c-0.013,-0.008 -0.028,-0.012 -0.045,-0.012c-0.017,0 -0.032,0.004 -0.045,0.012c-0.013,0.008 -0.024,0.02 -0.032,0.036c-0.008,0.016 -0.012,0.036 -0.012,0.06c0,0.023 0.004,0.043 0.012,0.059c0.008,0.016 0.019,0.028 0.032,0.036c0.013,0.008 0.028,0.012 0.045,0.012Z" style="fill-rule:nonzero;"/></g><g transform="matrix(32,0,0,32,969.731,850.586)"><path d="M0.415,0.01c-0.05,0 -0.09,-0.01 -0.121,-0.03c-0.031,-0.02 -0.053,-0.051 -0.067,-0.093c-0.013,-0.042 -0.02,-0.096 -0.02,-0.161c-0,-0.065 0.007,-0.118 0.022,-0.159c0.015,-0.042 0.037,-0.073 0.068,-0.093c0.031,-0.021 0.071,-0.031 0.118,-0.031c0.048,0 0.092,0.011 0.132,0.034c0.04,0.023 0.072,0.055 0.096,0.098c0.024,0.042 0.036,0.092 0.036,0.151c-0,0.059 -0.012,0.109 -0.036,0.152c-0.024,0.042 -0.056,0.075 -0.096,0.098c-0.04,0.023 -0.084,0.034 -0.132,0.034Zm-0.365,-0.01l-0,-0.742l0.226,0l0,0.268l-0.01,0.2l-0.001,0.2l0,0.074l-0.215,-0Zm0.311,-0.166c0.017,-0 0.032,-0.004 0.045,-0.012c0.013,-0.008 0.024,-0.02 0.032,-0.037c0.008,-0.016 0.012,-0.036 0.012,-0.059c0,-0.024 -0.004,-0.044 -0.012,-0.059c-0.008,-0.016 -0.019,-0.028 -0.032,-0.036c-0.013,-0.008 -0.028,-0.012 -0.045,-0.012c-0.017,0 -0.032,0.004 -0.045,0.012c-0.013,0.008 -0.024,0.02 -0.032,0.035c-0.008,0.016 -0.012,0.036 -0.012,0.06c0,0.023 0.004,0.043 0.012,0.059c0.008,0.017 0.019,0.029 0.032,0.037c0.013,0.008 0.028,0.012 0.045,0.012Z" style="fill-rule:nonzero;"/></g><g transform="matrix(32,0,0,32,992.131,850.586)"><path d="M0.352,0.01c-0.067,0 -0.125,-0.012 -0.174,-0.037c-0.05,-0.025 -0.089,-0.059 -0.116,-0.102c-0.027,-0.042 -0.041,-0.091 -0.041,-0.145c0,-0.055 0.014,-0.104 0.041,-0.147c0.027,-0.043 0.064,-0.076 0.111,-0.1c0.047,-0.024 0.099,-0.036 0.158,-0.036c0.054,0 0.104,0.011 0.15,0.032c0.045,0.021 0.082,0.053 0.11,0.095c0.027,0.042 0.041,0.094 0.041,0.156c0,0.008 -0,0.017 -0.001,0.027c-0.001,0.009 -0.001,0.018 -0.002,0.026l-0.421,0l0,-0.109l0.301,0l-0.085,0.029c0,-0.021 -0.004,-0.04 -0.011,-0.054c-0.008,-0.016 -0.019,-0.027 -0.032,-0.036c-0.013,-0.008 -0.029,-0.012 -0.048,-0.012c-0.019,0 -0.035,0.004 -0.048,0.013c-0.014,0.008 -0.025,0.02 -0.032,0.035c-0.007,0.014 -0.011,0.033 -0.011,0.054l0,0.034c0,0.023 0.005,0.043 0.014,0.06c0.009,0.017 0.023,0.029 0.04,0.038c0.017,0.008 0.038,0.012 0.063,0.012c0.025,0 0.046,-0.003 0.063,-0.01c0.016,-0.007 0.033,-0.017 0.051,-0.03l0.118,0.119c-0.027,0.029 -0.059,0.051 -0.098,0.066c-0.039,0.014 -0.086,0.022 -0.141,0.022Z" style="fill-rule:nonzero;"/></g><g transform="matrix(32,0,0,32,1013.03,850.586)"><path d="M0.05,-0l0,-0.547l0.215,0l0,0.165l-0.035,-0.047c0.017,-0.043 0.043,-0.075 0.08,-0.096c0.037,-0.021 0.081,-0.032 0.132,-0.032l0,0.2c-0.01,-0.001 -0.019,-0.002 -0.026,-0.003c-0.008,-0.001 -0.016,-0.001 -0.024,-0.001c-0.034,0 -0.062,0.009 -0.083,0.027c-0.022,0.017 -0.033,0.048 -0.033,0.091l0,0.243l-0.226,0Z" style="fill-rule:nonzero;"/></g><g transform="matrix(32,0,0,32,1027.62,850.586)"><path d="M0.05,-0l0,-0.547l0.215,0l0,0.165l-0.035,-0.047c0.017,-0.043 0.043,-0.075 0.08,-0.096c0.037,-0.021 0.081,-0.032 0.132,-0.032l0,0.2c-0.01,-0.001 -0.019,-0.002 -0.026,-0.003c-0.008,-0.001 -0.016,-0.001 -0.024,-0.001c-0.034,0 -0.062,0.009 -0.083,0.027c-0.022,0.017 -0.033,0.048 -0.033,0.091l0,0.243l-0.226,0Z" style="fill-rule:nonzero;"/></g><g transform="matrix(32,0,0,32,1042.69,850.586)"><path d="M0.17,0.204c-0.03,0 -0.061,-0.005 -0.092,-0.014c-0.031,-0.009 -0.055,-0.02 -0.074,-0.035l0.075,-0.155c0.011,0.009 0.024,0.016 0.038,0.021c0.015,0.005 0.029,0.008 0.042,0.008c0.02,0 0.035,-0.004 0.046,-0.013c0.011,-0.008 0.019,-0.02 0.026,-0.037l0.023,-0.058l0.016,-0.022l0.175,-0.446l0.214,0l-0.225,0.558c-0.02,0.05 -0.043,0.089 -0.07,0.117c-0.026,0.028 -0.055,0.048 -0.088,0.059c-0.032,0.011 -0.067,0.017 -0.106,0.017Zm0.053,-0.179l-0.238,-0.572l0.232,0l0.164,0.426l-0.158,0.146Z" style="fill-rule:nonzero;"/></g><g transform="matrix(32,0,0,32,1072.9,850.586)"><path d="M0.057,-0l0,-0.7l0.337,0c0.065,0 0.122,0.011 0.169,0.032c0.048,0.021 0.085,0.052 0.111,0.092c0.026,0.039 0.039,0.086 0.039,0.14c-0,0.054 -0.013,0.101 -0.039,0.14c-0.026,0.039 -0.063,0.07 -0.111,0.092c-0.047,0.021 -0.104,0.032 -0.169,0.032l-0.206,0l0.105,-0.101l0,0.273l-0.236,-0Zm0.236,-0.247l-0.105,-0.107l0.191,0c0.033,0 0.057,-0.007 0.073,-0.022c0.015,-0.015 0.023,-0.035 0.023,-0.06c0,-0.025 -0.008,-0.045 -0.024,-0.06c-0.015,-0.015 -0.039,-0.022 -0.072,-0.022l-0.191,0l0.105,-0.107l0,0.378Z" style="fill-rule:nonzero;"/></g><g transform="matrix(32,0,0,32,1096.68,850.586)"><path d="M0.05,-0l0,-0.547l0.226,0l0,0.547l-0.226,-0Zm0.113,-0.591c-0.041,0 -0.074,-0.011 -0.099,-0.033c-0.025,-0.022 -0.037,-0.049 -0.037,-0.082c-0,-0.033 0.012,-0.06 0.037,-0.082c0.025,-0.022 0.058,-0.033 0.099,-0.033c0.041,-0 0.074,0.01 0.099,0.031c0.025,0.021 0.037,0.047 0.037,0.08c0,0.035 -0.012,0.063 -0.037,0.085c-0.025,0.023 -0.058,0.034 -0.099,0.034Z" style="fill-rule:nonzero;"/></g><g transform="matrix(32,0,0,32,1116.71,850.586)"><path d="M0.281,0.016c-0.048,0 -0.097,-0.005 -0.146,-0.016c-0.049,-0.011 -0.093,-0.026 -0.13,-0.047l0.08,-0.174c0.03,0.017 0.061,0.03 0.094,0.039c0.033,0.008 0.064,0.012 0.093,0.012c0.027,0 0.049,-0.005 0.066,-0.014c0.017,-0.009 0.026,-0.023 0.026,-0.041c0,-0.01 -0.003,-0.019 -0.009,-0.026c-0.006,-0.008 -0.017,-0.014 -0.032,-0.018c-0.015,-0.004 -0.036,-0.006 -0.065,-0.006l-0.203,0l0.035,-0.425l0.465,0l0,0.178l-0.382,0l0.119,-0.101l-0.021,0.271l-0.119,-0.101l0.163,-0c0.069,-0 0.125,0.01 0.166,0.03c0.042,0.02 0.072,0.047 0.091,0.08c0.019,0.034 0.029,0.072 0.029,0.113c-0,0.041 -0.011,0.081 -0.034,0.118c-0.022,0.038 -0.056,0.069 -0.104,0.092c-0.047,0.024 -0.107,0.036 -0.182,0.036Z" style="fill-rule:nonzero;"/></g><g transform="matrix(22,0,0,22,873.77,876.986)"><path d="M0.511,-0.7l0.236,0l0,0.7l-0.236,-0l0,-0.7Zm-0.218,0.7l-0.236,-0l-0,-0.7l0.236,0l-0,0.7Zm0.234,-0.258l-0.25,0l0,-0.194l0.25,0l0,0.194Z" style="fill-rule:nonzero;"/></g><g transform="matrix(22,0,0,22,891.458,876.986)"><path d="M0.339,0.01c-0.062,0 -0.117,-0.012 -0.165,-0.037c-0.047,-0.024 -0.085,-0.057 -0.112,-0.1c-0.027,-0.043 -0.041,-0.092 -0.041,-0.147c-0,-0.055 0.014,-0.104 0.041,-0.147c0.027,-0.043 0.065,-0.076 0.113,-0.1c0.047,-0.024 0.102,-0.036 0.164,-0.036c0.062,0 0.117,0.012 0.165,0.036c0.048,0.024 0.086,0.057 0.113,0.1c0.027,0.043 0.04,0.092 0.04,0.147c0,0.055 -0.013,0.104 -0.04,0.147c-0.027,0.043 -0.065,0.076 -0.113,0.101c-0.048,0.024 -0.103,0.036 -0.165,0.036Zm0,-0.176c0.017,0 0.032,-0.004 0.045,-0.012c0.013,-0.008 0.024,-0.02 0.032,-0.036c0.008,-0.017 0.012,-0.037 0.012,-0.06c0,-0.024 -0.004,-0.044 -0.012,-0.059c-0.008,-0.016 -0.019,-0.028 -0.032,-0.036c-0.013,-0.008 -0.028,-0.012 -0.045,-0.012c-0.017,0 -0.032,0.004 -0.045,0.012c-0.013,0.008 -0.024,0.02 -0.032,0.035c-0.008,0.016 -0.012,0.036 -0.012,0.06c0,0.023 0.004,0.043 0.012,0.059c0.008,0.017 0.019,0.029 0.032,0.037c0.013,0.008 0.028,0.012 0.045,0.012Z" style="fill-rule:nonzero;"/></g><g transform="matrix(22,0,0,22,906.374,876.986)"><path d="M0.774,-0.557c0.041,0 0.079,0.008 0.112,0.026c0.032,0.017 0.058,0.043 0.078,0.079c0.018,0.036 0.028,0.083 0.028,0.14l0,0.312l-0.226,-0l0,-0.273c0,-0.034 -0.006,-0.058 -0.017,-0.073c-0.011,-0.014 -0.026,-0.021 -0.044,-0.021c-0.013,0 -0.025,0.003 -0.036,0.01c-0.011,0.007 -0.019,0.017 -0.025,0.032c-0.007,0.014 -0.01,0.033 -0.01,0.058l0,0.267l-0.226,0l0,-0.273c0,-0.034 -0.005,-0.058 -0.016,-0.072c-0.011,-0.015 -0.026,-0.022 -0.045,-0.022c-0.013,0 -0.025,0.003 -0.036,0.01c-0.011,0.007 -0.019,0.017 -0.025,0.032c-0.007,0.014 -0.01,0.033 -0.01,0.058l0,0.267l-0.226,0l0,-0.547l0.215,0l0,0.157l-0.044,-0.044c0.021,-0.041 0.048,-0.072 0.083,-0.092c0.035,-0.021 0.073,-0.031 0.116,-0.031c0.048,0 0.091,0.013 0.128,0.038c0.036,0.025 0.061,0.064 0.074,0.118l-0.069,-0.011c0.02,-0.045 0.049,-0.081 0.088,-0.106c0.038,-0.026 0.082,-0.039 0.133,-0.039Z" style="fill-rule:nonzero;"/></g><g transform="matrix(22,0,0,22,929.474,876.986)"><path d="M0.352,0.01c-0.067,0 -0.125,-0.012 -0.174,-0.037c-0.05,-0.025 -0.089,-0.059 -0.116,-0.102c-0.027,-0.042 -0.041,-0.091 -0.041,-0.145c0,-0.055 0.014,-0.104 0.041,-0.147c0.027,-0.043 0.064,-0.076 0.111,-0.1c0.047,-0.024 0.099,-0.036 0.158,-0.036c0.054,0 0.104,0.011 0.15,0.032c0.045,0.021 0.082,0.053 0.11,0.095c0.027,0.042 0.041,0.094 0.041,0.156c0,0.008 -0,0.017 -0.001,0.027c-0.001,0.009 -0.001,0.018 -0.002,0.026l-0.421,0l0,-0.109l0.301,0l-0.085,0.029c0,-0.021 -0.004,-0.04 -0.011,-0.054c-0.008,-0.016 -0.019,-0.027 -0.032,-0.036c-0.013,-0.008 -0.029,-0.012 -0.048,-0.012c-0.019,0 -0.035,0.004 -0.048,0.013c-0.014,0.008 -0.025,0.02 -0.032,0.035c-0.007,0.014 -0.011,0.033 -0.011,0.054l0,0.034c0,0.023 0.005,0.043 0.014,0.06c0.009,0.017 0.023,0.029 0.04,0.038c0.017,0.008 0.038,0.012 0.063,0.012c0.025,0 0.046,-0.003 0.063,-0.01c0.016,-0.007 0.033,-0.017 0.051,-0.03l0.118,0.119c-0.027,0.029 -0.059,0.051 -0.098,0.066c-0.039,0.014 -0.086,0.022 -0.141,0.022Z" style="fill-rule:nonzero;"/></g><g transform="matrix(22,0,0,22,950.44,876.986)"><path d="M-0.019,-0l0.306,-0.7l0.232,0l0.306,0.7l-0.244,-0l-0.226,-0.588l0.092,0l-0.226,0.588l-0.24,-0Zm0.182,-0.122l0.06,-0.17l0.322,0l0.06,0.17l-0.442,0Z" style="fill-rule:nonzero;"/></g><g transform="matrix(22,0,0,22,968.062,876.986)"><path d="M0.264,0.01c-0.047,0 -0.093,-0.005 -0.138,-0.015c-0.045,-0.01 -0.082,-0.023 -0.11,-0.039l0.062,-0.149c0.026,0.015 0.056,0.027 0.091,0.036c0.034,0.009 0.067,0.013 0.1,0.013c0.027,-0 0.046,-0.002 0.055,-0.007c0.01,-0.005 0.015,-0.011 0.015,-0.019c0,-0.008 -0.006,-0.014 -0.017,-0.018c-0.011,-0.003 -0.026,-0.006 -0.045,-0.008c-0.019,-0.002 -0.039,-0.005 -0.062,-0.008c-0.022,-0.003 -0.044,-0.007 -0.067,-0.013c-0.023,-0.006 -0.043,-0.015 -0.062,-0.027c-0.019,-0.012 -0.034,-0.028 -0.045,-0.048c-0.011,-0.021 -0.017,-0.047 -0.017,-0.078c-0,-0.035 0.01,-0.066 0.031,-0.094c0.021,-0.028 0.053,-0.05 0.094,-0.067c0.042,-0.017 0.094,-0.026 0.155,-0.026c0.04,0 0.08,0.004 0.12,0.011c0.04,0.007 0.074,0.019 0.103,0.034l-0.062,0.149c-0.028,-0.015 -0.056,-0.026 -0.083,-0.031c-0.027,-0.006 -0.052,-0.009 -0.075,-0.009c-0.029,0 -0.048,0.003 -0.058,0.008c-0.011,0.005 -0.016,0.011 -0.016,0.018c0,0.008 0.006,0.014 0.017,0.018c0.011,0.004 0.026,0.007 0.045,0.009c0.019,0.002 0.039,0.005 0.062,0.008c0.022,0.003 0.044,0.007 0.067,0.014c0.022,0.006 0.042,0.015 0.061,0.027c0.019,0.012 0.034,0.028 0.045,0.049c0.011,0.02 0.017,0.046 0.017,0.077c0,0.033 -0.01,0.063 -0.031,0.092c-0.021,0.028 -0.052,0.051 -0.094,0.068c-0.042,0.017 -0.095,0.025 -0.158,0.025Z" style="fill-rule:nonzero;"/></g><g transform="matrix(22,0,0,22,980.492,876.986)"><path d="M0.264,0.01c-0.047,0 -0.093,-0.005 -0.138,-0.015c-0.045,-0.01 -0.082,-0.023 -0.11,-0.039l0.062,-0.149c0.026,0.015 0.056,0.027 0.091,0.036c0.034,0.009 0.067,0.013 0.1,0.013c0.027,-0 0.046,-0.002 0.055,-0.007c0.01,-0.005 0.015,-0.011 0.015,-0.019c0,-0.008 -0.006,-0.014 -0.017,-0.018c-0.011,-0.003 -0.026,-0.006 -0.045,-0.008c-0.019,-0.002 -0.039,-0.005 -0.062,-0.008c-0.022,-0.003 -0.044,-0.007 -0.067,-0.013c-0.023,-0.006 -0.043,-0.015 -0.062,-0.027c-0.019,-0.012 -0.034,-0.028 -0.045,-0.048c-0.011,-0.021 -0.017,-0.047 -0.017,-0.078c-0,-0.035 0.01,-0.066 0.031,-0.094c0.021,-0.028 0.053,-0.05 0.094,-0.067c0.042,-0.017 0.094,-0.026 0.155,-0.026c0.04,0 0.08,0.004 0.12,0.011c0.04,0.007 0.074,0.019 0.103,0.034l-0.062,0.149c-0.028,-0.015 -0.056,-0.026 -0.083,-0.031c-0.027,-0.006 -0.052,-0.009 -0.075,-0.009c-0.029,0 -0.048,0.003 -0.058,0.008c-0.011,0.005 -0.016,0.011 -0.016,0.018c0,0.008 0.006,0.014 0.017,0.018c0.011,0.004 0.026,0.007 0.045,0.009c0.019,0.002 0.039,0.005 0.062,0.008c0.022,0.003 0.044,0.007 0.067,0.014c0.022,0.006 0.042,0.015 0.061,0.027c0.019,0.012 0.034,0.028 0.045,0.049c0.011,0.02 0.017,0.046 0.017,0.077c0,0.033 -0.01,0.063 -0.031,0.092c-0.021,0.028 -0.052,0.051 -0.094,0.068c-0.042,0.017 -0.095,0.025 -0.158,0.025Z" style="fill-rule:nonzero;"/></g><g transform="matrix(22,0,0,22,992.922,876.986)"><path d="M0.05,-0l0,-0.547l0.226,0l0,0.547l-0.226,-0Zm0.113,-0.591c-0.041,0 -0.074,-0.011 -0.099,-0.033c-0.025,-0.022 -0.037,-0.049 -0.037,-0.082c-0,-0.033 0.012,-0.06 0.037,-0.082c0.025,-0.022 0.058,-0.033 0.099,-0.033c0.041,-0 0.074,0.01 0.099,0.031c0.025,0.021 0.037,0.047 0.037,0.08c0,0.035 -0.012,0.063 -0.037,0.085c-0.025,0.023 -0.058,0.034 -0.099,0.034Z" style="fill-rule:nonzero;"/></g><g transform="matrix(22,0,0,22,1000.09,876.986)"><path d="M0.264,0.01c-0.047,0 -0.093,-0.005 -0.138,-0.015c-0.045,-0.01 -0.082,-0.023 -0.11,-0.039l0.062,-0.149c0.026,0.015 0.056,0.027 0.091,0.036c0.034,0.009 0.067,0.013 0.1,0.013c0.027,-0 0.046,-0.002 0.055,-0.007c0.01,-0.005 0.015,-0.011 0.015,-0.019c0,-0.008 -0.006,-0.014 -0.017,-0.018c-0.011,-0.003 -0.026,-0.006 -0.045,-0.008c-0.019,-0.002 -0.039,-0.005 -0.062,-0.008c-0.022,-0.003 -0.044,-0.007 -0.067,-0.013c-0.023,-0.006 -0.043,-0.015 -0.062,-0.027c-0.019,-0.012 -0.034,-0.028 -0.045,-0.048c-0.011,-0.021 -0.017,-0.047 -0.017,-0.078c-0,-0.035 0.01,-0.066 0.031,-0.094c0.021,-0.028 0.053,-0.05 0.094,-0.067c0.042,-0.017 0.094,-0.026 0.155,-0.026c0.04,0 0.08,0.004 0.12,0.011c0.04,0.007 0.074,0.019 0.103,0.034l-0.062,0.149c-0.028,-0.015 -0.056,-0.026 -0.083,-0.031c-0.027,-0.006 -0.052,-0.009 -0.075,-0.009c-0.029,0 -0.048,0.003 -0.058,0.008c-0.011,0.005 -0.016,0.011 -0.016,0.018c0,0.008 0.006,0.014 0.017,0.018c0.011,0.004 0.026,0.007 0.045,0.009c0.019,0.002 0.039,0.005 0.062,0.008c0.022,0.003 0.044,0.007 0.067,0.014c0.022,0.006 0.042,0.015 0.061,0.027c0.019,0.012 0.034,0.028 0.045,0.049c0.011,0.02 0.017,0.046 0.017,0.077c0,0.033 -0.01,0.063 -0.031,0.092c-0.021,0.028 -0.052,0.051 -0.094,0.068c-0.042,0.017 -0.095,0.025 -0.158,0.025Z" style="fill-rule:nonzero;"/></g><g transform="matrix(22,0,0,22,1012.52,876.986)"><path d="M0.314,0.01c-0.075,0 -0.134,-0.018 -0.176,-0.055c-0.042,-0.036 -0.063,-0.092 -0.063,-0.167l-0,-0.458l0.226,0l-0,0.456c-0,0.017 0.004,0.03 0.013,0.039c0.009,0.009 0.021,0.014 0.034,0.014c0.019,0 0.036,-0.005 0.051,-0.015l0.054,0.157c-0.017,0.01 -0.038,0.017 -0.063,0.022c-0.024,0.005 -0.049,0.007 -0.076,0.007Zm-0.314,-0.362l-0,-0.165l0.413,0l-0,0.165l-0.413,0Z" style="fill-rule:nonzero;"/></g><g transform="matrix(22,0,0,22,1022.64,876.986)"><path d="M0.381,-0l0,-0.097l-0.016,-0.026l0,-0.184c0,-0.027 -0.008,-0.047 -0.024,-0.061c-0.017,-0.014 -0.043,-0.021 -0.08,-0.021c-0.025,0 -0.05,0.004 -0.075,0.012c-0.025,0.007 -0.047,0.018 -0.065,0.031l-0.072,-0.149c0.032,-0.02 0.07,-0.035 0.115,-0.046c0.045,-0.011 0.088,-0.016 0.131,-0.016c0.094,0 0.167,0.021 0.219,0.063c0.051,0.042 0.077,0.109 0.077,0.2l0,0.294l-0.21,0Zm-0.155,0.01c-0.045,0 -0.082,-0.008 -0.112,-0.023c-0.03,-0.015 -0.053,-0.036 -0.068,-0.061c-0.015,-0.026 -0.023,-0.055 -0.023,-0.086c0,-0.035 0.009,-0.065 0.027,-0.09c0.018,-0.025 0.046,-0.043 0.083,-0.056c0.037,-0.013 0.083,-0.019 0.14,-0.019l0.114,0l0,0.109l-0.078,0c-0.024,0 -0.041,0.004 -0.052,0.012c-0.011,0.007 -0.017,0.019 -0.017,0.034c0,0.013 0.005,0.023 0.015,0.032c0.009,0.008 0.022,0.012 0.039,0.012c0.015,0 0.03,-0.004 0.043,-0.012c0.013,-0.009 0.022,-0.022 0.028,-0.04l0.029,0.067c-0.009,0.041 -0.027,0.071 -0.055,0.091c-0.028,0.02 -0.066,0.03 -0.113,0.03Z" style="fill-rule:nonzero;"/></g><g transform="matrix(22,0,0,22,1036.7,876.986)"><path d="M0.43,-0.557c0.042,0 0.08,0.008 0.114,0.026c0.034,0.017 0.061,0.043 0.081,0.079c0.019,0.036 0.029,0.083 0.029,0.14l0,0.312l-0.226,-0l-0,-0.273c-0,-0.034 -0.006,-0.058 -0.018,-0.073c-0.012,-0.014 -0.028,-0.021 -0.049,-0.021c-0.015,0 -0.03,0.004 -0.043,0.011c-0.013,0.007 -0.023,0.018 -0.031,0.034c-0.007,0.016 -0.011,0.038 -0.011,0.065l0,0.257l-0.226,0l-0,-0.547l0.215,0l0,0.16l-0.043,-0.046c0.021,-0.041 0.05,-0.072 0.086,-0.093c0.037,-0.021 0.077,-0.031 0.122,-0.031Z" style="fill-rule:nonzero;"/></g><g transform="matrix(22,0,0,22,1052.15,876.986)"><path d="M0.314,0.01c-0.075,0 -0.134,-0.018 -0.176,-0.055c-0.042,-0.036 -0.063,-0.092 -0.063,-0.167l-0,-0.458l0.226,0l-0,0.456c-0,0.017 0.004,0.03 0.013,0.039c0.009,0.009 0.021,0.014 0.034,0.014c0.019,0 0.036,-0.005 0.051,-0.015l0.054,0.157c-0.017,0.01 -0.038,0.017 -0.063,0.022c-0.024,0.005 -0.049,0.007 -0.076,0.007Zm-0.314,-0.362l-0,-0.165l0.413,0l-0,0.165l-0.413,0Z" style="fill-rule:nonzero;"/></g><g transform="matrix(22,0,0,22,1068.87,876.986)"><path d="M-0.019,-0l0.306,-0.7l0.232,0l0.306,0.7l-0.244,-0l-0.226,-0.588l0.092,0l-0.226,0.588l-0.24,-0Zm0.182,-0.122l0.06,-0.17l0.322,0l0.06,0.17l-0.442,0Z" style="fill-rule:nonzero;"/></g><g transform="matrix(22,0,0,22,1086.49,876.986)"><path d="M0.29,0.01c-0.047,0 -0.091,-0.012 -0.131,-0.035c-0.041,-0.023 -0.073,-0.055 -0.097,-0.098c-0.024,-0.042 -0.036,-0.092 -0.036,-0.151c0,-0.059 0.012,-0.109 0.036,-0.151c0.024,-0.043 0.056,-0.075 0.097,-0.098c0.04,-0.023 0.084,-0.034 0.131,-0.034c0.048,0 0.087,0.01 0.118,0.031c0.031,0.02 0.053,0.051 0.068,0.093c0.015,0.041 0.022,0.094 0.022,0.159c0,0.065 -0.007,0.119 -0.02,0.161c-0.014,0.042 -0.036,0.073 -0.066,0.093c-0.031,0.02 -0.071,0.03 -0.122,0.03Zm0.054,-0.176c0.017,0 0.032,-0.004 0.045,-0.012c0.013,-0.008 0.024,-0.02 0.032,-0.036c0.008,-0.017 0.012,-0.037 0.012,-0.06c0,-0.024 -0.004,-0.044 -0.012,-0.059c-0.008,-0.016 -0.019,-0.028 -0.032,-0.036c-0.013,-0.008 -0.028,-0.012 -0.045,-0.012c-0.017,0 -0.032,0.004 -0.045,0.012c-0.013,0.008 -0.024,0.02 -0.032,0.035c-0.008,0.016 -0.012,0.036 -0.012,0.06c0,0.023 0.004,0.043 0.012,0.059c0.008,0.017 0.019,0.029 0.032,0.037c0.013,0.008 0.028,0.012 0.045,0.012Zm0.096,0.166l0,-0.074l-0.001,-0.2l-0.01,-0.2l0,-0.268l0.226,0l0,0.742l-0.215,-0Z" style="fill-rule:nonzero;"/></g><g transform="matrix(22,0,0,22,1102,876.986)"><path d="M0.29,0.01c-0.047,0 -0.091,-0.012 -0.131,-0.035c-0.041,-0.023 -0.073,-0.055 -0.097,-0.098c-0.024,-0.042 -0.036,-0.092 -0.036,-0.151c0,-0.059 0.012,-0.109 0.036,-0.151c0.024,-0.043 0.056,-0.075 0.097,-0.098c0.04,-0.023 0.084,-0.034 0.131,-0.034c0.048,0 0.087,0.01 0.118,0.031c0.031,0.02 0.053,0.051 0.068,0.093c0.015,0.041 0.022,0.094 0.022,0.159c0,0.065 -0.007,0.119 -0.02,0.161c-0.014,0.042 -0.036,0.073 -0.066,0.093c-0.031,0.02 -0.071,0.03 -0.122,0.03Zm0.054,-0.176c0.017,0 0.032,-0.004 0.045,-0.012c0.013,-0.008 0.024,-0.02 0.032,-0.036c0.008,-0.017 0.012,-0.037 0.012,-0.06c0,-0.024 -0.004,-0.044 -0.012,-0.059c-0.008,-0.016 -0.019,-0.028 -0.032,-0.036c-0.013,-0.008 -0.028,-0.012 -0.045,-0.012c-0.017,0 -0.032,0.004 -0.045,0.012c-0.013,0.008 -0.024,0.02 -0.032,0.035c-0.008,0.016 -0.012,0.036 -0.012,0.06c0,0.023 0.004,0.043 0.012,0.059c0.008,0.017 0.019,0.029 0.032,0.037c0.013,0.008 0.028,0.012 0.045,0.012Zm0.096,0.166l0,-0.074l-0.001,-0.2l-0.01,-0.2l0,-0.268l0.226,0l0,0.742l-0.215,-0Z" style="fill-rule:nonzero;"/></g><g transform="matrix(22,0,0,22,1117.51,876.986)"><path d="M0.339,0.01c-0.062,0 -0.117,-0.012 -0.165,-0.037c-0.047,-0.024 -0.085,-0.057 -0.112,-0.1c-0.027,-0.043 -0.041,-0.092 -0.041,-0.147c-0,-0.055 0.014,-0.104 0.041,-0.147c0.027,-0.043 0.065,-0.076 0.113,-0.1c0.047,-0.024 0.102,-0.036 0.164,-0.036c0.062,0 0.117,0.012 0.165,0.036c0.048,0.024 0.086,0.057 0.113,0.1c0.027,0.043 0.04,0.092 0.04,0.147c0,0.055 -0.013,0.104 -0.04,0.147c-0.027,0.043 -0.065,0.076 -0.113,0.101c-0.048,0.024 -0.103,0.036 -0.165,0.036Zm0,-0.176c0.017,0 0.032,-0.004 0.045,-0.012c0.013,-0.008 0.024,-0.02 0.032,-0.036c0.008,-0.017 0.012,-0.037 0.012,-0.06c0,-0.024 -0.004,-0.044 -0.012,-0.059c-0.008,-0.016 -0.019,-0.028 -0.032,-0.036c-0.013,-0.008 -0.028,-0.012 -0.045,-0.012c-0.017,0 -0.032,0.004 -0.045,0.012c-0.013,0.008 -0.024,0.02 -0.032,0.035c-0.008,0.016 -0.012,0.036 -0.012,0.06c0,0.023 0.004,0.043 0.012,0.059c0.008,0.017 0.019,0.029 0.032,0.037c0.013,0.008 0.028,0.012 0.045,0.012Z" style="fill-rule:nonzero;"/></g><g transform="matrix(22,0,0,22,1132.42,876.986)"><path d="M0.43,-0.557c0.042,0 0.08,0.008 0.114,0.026c0.034,0.017 0.061,0.043 0.081,0.079c0.019,0.036 0.029,0.083 0.029,0.14l0,0.312l-0.226,-0l-0,-0.273c-0,-0.034 -0.006,-0.058 -0.018,-0.073c-0.012,-0.014 -0.028,-0.021 -0.049,-0.021c-0.015,0 -0.03,0.004 -0.043,0.011c-0.013,0.007 -0.023,0.018 -0.031,0.034c-0.007,0.016 -0.011,0.038 -0.011,0.065l0,0.257l-0.226,0l-0,-0.547l0.215,0l0,0.16l-0.043,-0.046c0.021,-0.041 0.05,-0.072 0.086,-0.093c0.037,-0.021 0.077,-0.031 0.122,-0.031Z" style="fill-rule:nonzero;"/></g></g><g><g><path d="M1612.35,1325.13c0,-9.658 -7.841,-17.499 -17.5,-17.499l-396.478,-0c-9.659,-0 -17.5,7.841 -17.5,17.499l-0,244.546c-0,9.658 7.841,17.5 17.5,17.5l396.478,-0c9.659,-0 17.5,-7.842 17.5,-17.5l0,-244.546Z" style="fill:#4eb84b;stroke:#000;stroke-width:13.33px;stroke-linecap:square;"/></g><rect x="1218.29" y="1307.85" width="251.367" height="24.963" style="fill:#fff;stroke:#000;stroke-width:13.33px;"/><rect x="1519.61" y="1499.55" width="112.457" height="87.887" style="fill:#fff;stroke:#000;stroke-width:13.33px;"/><rect x="1543.53" y="1411.86" width="88.033" height="63.62" style="fill:#fff;stroke:#000;stroke-width:13.33px;"/><rect x="1543.53" y="1316.86" width="88.033" height="63.62" style="fill:#fff;stroke:#000;stroke-width:13.33px;"/><rect x="1210.01" y="1560.66" width="44.693" height="37.229" style="fill:#fff;stroke:#000;stroke-width:13.33px;"/><rect x="1293.6" y="1560.5" width="31.934" height="38.801" style="fill:#fff;stroke:#000;stroke-width:13.33px;"/><rect x="1361.35" y="1560.5" width="31.934" height="38.801" style="fill:#fff;stroke:#000;stroke-width:13.33px;"/><rect x="1181.15" y="1403.6" width="19.446" height="68.484" style="fill:#fff;stroke:#000;stroke-width:13.33px;"/></g></g><g><path d="M1390.5,1408.68l-14.66,29.319l14.66,-0l-27.487,51.307l5.496,-36.646l-18.323,-0l18.326,-43.98l21.988,0Z"/><path d="M1437.36,1422.48c4.013,3.785 6.053,8.819 6.118,15.109l-13.313,-0c-0.068,-2.766 -0.918,-5.013 -2.556,-6.744c-1.639,-1.728 -3.801,-2.592 -6.486,-2.592c-3.309,0 -5.806,1.204 -7.49,3.617c-1.688,2.412 -2.533,6.322 -2.533,11.737l0,1.473c0,5.48 0.837,9.417 2.505,11.81c1.671,2.397 4.209,3.592 7.616,3.592c2.622,-0 4.749,-0.717 6.388,-2.16c1.638,-1.443 2.488,-3.358 2.556,-5.749l13.313,-0c-0.035,3.603 -1.016,6.901 -2.948,9.9c-1.934,2.995 -4.578,5.323 -7.936,6.975c-3.355,1.655 -7.064,2.48 -11.126,2.48c-7.599,0 -13.593,-2.412 -17.983,-7.246c-4.391,-4.83 -6.581,-11.503 -6.581,-20.021l0,-0.932c0,-8.186 2.174,-14.723 6.532,-19.603c4.355,-4.879 10.335,-7.322 17.932,-7.322c6.651,0 11.982,1.894 15.992,5.676Z"/><path d="M1489.83,1422.48c4.01,3.785 6.051,8.819 6.119,15.109l-13.319,-0c-0.062,-2.766 -0.915,-5.013 -2.551,-6.744c-1.641,-1.728 -3.804,-2.592 -6.488,-2.592c-3.309,0 -5.806,1.204 -7.491,3.617c-1.687,2.412 -2.529,6.322 -2.529,11.737l-0,1.473c-0,5.48 0.834,9.417 2.505,11.81c1.671,2.397 4.206,3.592 7.613,3.592c2.622,-0 4.749,-0.717 6.39,-2.16c1.636,-1.443 2.489,-3.358 2.551,-5.749l13.319,-0c-0.036,3.603 -1.016,6.901 -2.951,9.9c-1.932,2.995 -4.578,5.323 -7.933,6.975c-3.361,1.655 -7.07,2.48 -11.129,2.48c-7.599,0 -13.593,-2.412 -17.981,-7.246c-4.39,-4.83 -6.583,-11.503 -6.583,-20.021l0,-0.932c0,-8.186 2.176,-14.723 6.532,-19.603c4.358,-4.879 10.335,-7.322 17.934,-7.322c6.649,0 11.979,1.894 15.992,5.676Z"/><path d="M1327.92,1417.79l14.837,-0l-17.935,53.157l-13.557,-0l-17.935,-53.157l14.837,-0l9.877,35.814l9.876,-35.814Z"/><path d="M1249.83,1464.76c-4.896,-4.781 -7.344,-11.153 -7.344,-19.113l0,-1.375c0,-5.339 1.03,-10.113 3.095,-14.321c2.062,-4.209 4.986,-7.45 8.77,-9.73c3.782,-2.274 8.097,-3.415 12.944,-3.415c7.273,0 12.998,2.296 17.174,6.88c4.176,4.586 6.262,11.09 6.262,19.505l0,5.798l-33.85,-0c0.456,3.472 1.842,6.257 4.151,8.351c2.31,2.098 5.233,3.144 8.771,3.144c5.469,-0 9.743,-1.981 12.821,-5.945l6.977,7.814c-2.13,3.011 -5.01,5.363 -8.645,7.051c-3.635,1.684 -7.667,2.526 -12.085,2.526c-7.798,0 -14.145,-2.39 -19.041,-7.17Zm7.051,-26.38l22.56,0c0,0 -1.3,-10.184 -12.146,-10.254c-10.847,-0.07 -10.414,10.254 -10.414,10.254Z"/></g></g><g><g transform="matrix(2.08333,0,0,2.08333,-1670.1,-83.7215)"><g transform="matrix(32,0,0,32,927.059,850.586)"><path d="M0.234,-0l-0.224,-0.7l0.243,0l0.181,0.591l-0.122,0l0.192,-0.591l0.217,0l0.179,0.591l-0.117,0l0.189,-0.591l0.224,0l-0.224,0.7l-0.253,-0l-0.146,-0.484l0.068,0l-0.154,0.484l-0.253,-0Z" style="fill-rule:nonzero;"/></g><g transform="matrix(32,0,0,32,963.891,850.586)"><path d="M0.339,0.01c-0.062,0 -0.117,-0.012 -0.165,-0.037c-0.047,-0.024 -0.085,-0.057 -0.112,-0.1c-0.027,-0.043 -0.041,-0.092 -0.041,-0.147c-0,-0.055 0.014,-0.104 0.041,-0.147c0.027,-0.043 0.065,-0.076 0.113,-0.1c0.047,-0.024 0.102,-0.036 0.164,-0.036c0.062,0 0.117,0.012 0.165,0.036c0.048,0.024 0.086,0.057 0.113,0.1c0.027,0.043 0.04,0.092 0.04,0.147c0,0.055 -0.013,0.104 -0.04,0.147c-0.027,0.043 -0.065,0.076 -0.113,0.101c-0.048,0.024 -0.103,0.036 -0.165,0.036Zm0,-0.176c0.017,0 0.032,-0.004 0.045,-0.012c0.013,-0.008 0.024,-0.02 0.032,-0.036c0.008,-0.017 0.012,-0.037 0.012,-0.06c0,-0.024 -0.004,-0.044 -0.012,-0.059c-0.008,-0.016 -0.019,-0.028 -0.032,-0.036c-0.013,-0.008 -0.028,-0.012 -0.045,-0.012c-0.017,0 -0.032,0.004 -0.045,0.012c-0.013,0.008 -0.024,0.02 -0.032,0.035c-0.008,0.016 -0.012,0.036 -0.012,0.06c0,0.023 0.004,0.043 0.012,0.059c0.008,0.017 0.019,0.029 0.032,0.037c0.013,0.008 0.028,0.012 0.045,0.012Z" style="fill-rule:nonzero;"/></g><g transform="matrix(32,0,0,32,985.587,850.586)"><rect x="0.05" y="-0.742" width="0.226" height="0.742" style="fill-rule:nonzero;"/></g><g transform="matrix(32,0,0,32,996.019,850.586)"><path d="M0.075,-0l0,-0.52c0,-0.071 0.021,-0.127 0.064,-0.169c0.042,-0.042 0.102,-0.063 0.18,-0.063c0.024,-0 0.048,0.002 0.073,0.006c0.024,0.005 0.044,0.012 0.061,0.021l-0.054,0.157c-0.007,-0.003 -0.015,-0.006 -0.024,-0.009c-0.009,-0.003 -0.018,-0.004 -0.027,-0.004c-0.016,0 -0.029,0.005 -0.039,0.015c-0.01,0.01 -0.015,0.026 -0.015,0.048l0,0.026l0.007,0.093l0,0.399l-0.226,-0Zm-0.075,-0.352l0,-0.165l0.413,-0l0,0.165l-0.413,-0Z" style="fill-rule:nonzero;"/></g><g transform="matrix(32,0,0,32,1019.25,850.586)"><path d="M0.419,0.016c-0.056,0 -0.108,-0.009 -0.155,-0.027c-0.048,-0.017 -0.09,-0.042 -0.125,-0.075c-0.035,-0.033 -0.062,-0.071 -0.081,-0.116c-0.019,-0.045 -0.029,-0.094 -0.029,-0.148c-0,-0.054 0.01,-0.103 0.029,-0.148c0.019,-0.045 0.046,-0.083 0.082,-0.116c0.035,-0.033 0.076,-0.058 0.124,-0.076c0.047,-0.017 0.099,-0.026 0.155,-0.026c0.069,0 0.13,0.012 0.183,0.036c0.052,0.024 0.096,0.059 0.131,0.104l-0.149,0.133c-0.021,-0.026 -0.043,-0.046 -0.069,-0.061c-0.025,-0.014 -0.053,-0.021 -0.084,-0.021c-0.025,0 -0.047,0.004 -0.067,0.012c-0.02,0.008 -0.037,0.02 -0.052,0.035c-0.014,0.015 -0.025,0.034 -0.033,0.055c-0.008,0.022 -0.012,0.046 -0.012,0.073c-0,0.027 0.004,0.051 0.012,0.072c0.008,0.022 0.019,0.041 0.033,0.056c0.015,0.015 0.032,0.027 0.052,0.035c0.02,0.008 0.042,0.012 0.067,0.012c0.031,-0 0.059,-0.007 0.084,-0.022c0.025,-0.014 0.048,-0.034 0.069,-0.06l0.149,0.133c-0.035,0.045 -0.079,0.079 -0.132,0.103c-0.052,0.025 -0.113,0.037 -0.182,0.037Z" style="fill-rule:nonzero;"/></g><g transform="matrix(32,0,0,32,1043.06,850.586)"><path d="M0.511,-0.7l0.236,0l0,0.7l-0.236,-0l0,-0.7Zm-0.218,0.7l-0.236,-0l-0,-0.7l0.236,0l-0,0.7Zm0.234,-0.258l-0.25,0l0,-0.194l0.25,0l0,0.194Z" style="fill-rule:nonzero;"/></g><g transform="matrix(32,0,0,32,1068.79,850.586)"><path d="M-0.019,-0l0.306,-0.7l0.232,0l0.306,0.7l-0.244,-0l-0.226,-0.588l0.092,0l-0.226,0.588l-0.24,-0Zm0.182,-0.122l0.06,-0.17l0.322,0l0.06,0.17l-0.442,0Z" style="fill-rule:nonzero;"/></g><g transform="matrix(22,0,0,22,925.679,876.986)"><path d="M0.234,-0l-0.224,-0.7l0.243,0l0.181,0.591l-0.122,0l0.192,-0.591l0.217,0l0.179,0.591l-0.117,0l0.189,-0.591l0.224,0l-0.224,0.7l-0.253,-0l-0.146,-0.484l0.068,0l-0.154,0.484l-0.253,-0Z" style="fill-rule:nonzero;"/></g><g transform="matrix(22,0,0,22,951.001,876.986)"><path d="M0.381,-0l0,-0.097l-0.016,-0.026l0,-0.184c0,-0.027 -0.008,-0.047 -0.024,-0.061c-0.017,-0.014 -0.043,-0.021 -0.08,-0.021c-0.025,0 -0.05,0.004 -0.075,0.012c-0.025,0.007 -0.047,0.018 -0.065,0.031l-0.072,-0.149c0.032,-0.02 0.07,-0.035 0.115,-0.046c0.045,-0.011 0.088,-0.016 0.131,-0.016c0.094,0 0.167,0.021 0.219,0.063c0.051,0.042 0.077,0.109 0.077,0.2l0,0.294l-0.21,0Zm-0.155,0.01c-0.045,0 -0.082,-0.008 -0.112,-0.023c-0.03,-0.015 -0.053,-0.036 -0.068,-0.061c-0.015,-0.026 -0.023,-0.055 -0.023,-0.086c0,-0.035 0.009,-0.065 0.027,-0.09c0.018,-0.025 0.046,-0.043 0.083,-0.056c0.037,-0.013 0.083,-0.019 0.14,-0.019l0.114,0l0,0.109l-0.078,0c-0.024,0 -0.041,0.004 -0.052,0.012c-0.011,0.007 -0.017,0.019 -0.017,0.034c0,0.013 0.005,0.023 0.015,0.032c0.009,0.008 0.022,0.012 0.039,0.012c0.015,0 0.03,-0.004 0.043,-0.012c0.013,-0.009 0.022,-0.022 0.028,-0.04l0.029,0.067c-0.009,0.041 -0.027,0.071 -0.055,0.091c-0.028,0.02 -0.066,0.03 -0.113,0.03Zm0.206,-0.609c-0.025,0 -0.047,-0.008 -0.064,-0.024c-0.017,-0.016 -0.026,-0.037 -0.026,-0.064c0,-0.027 0.009,-0.048 0.026,-0.065c0.017,-0.016 0.039,-0.024 0.064,-0.024c0.025,-0 0.047,0.008 0.064,0.024c0.017,0.017 0.026,0.038 0.026,0.065c0,0.027 -0.009,0.048 -0.026,0.064c-0.017,0.016 -0.039,0.024 -0.064,0.024Zm-0.222,0c-0.025,0 -0.047,-0.008 -0.064,-0.024c-0.017,-0.016 -0.026,-0.037 -0.026,-0.064c0,-0.027 0.009,-0.048 0.026,-0.065c0.017,-0.016 0.039,-0.024 0.064,-0.024c0.025,-0 0.047,0.008 0.064,0.024c0.017,0.017 0.026,0.038 0.026,0.065c0,0.027 -0.009,0.048 -0.026,0.064c-0.017,0.016 -0.039,0.024 -0.064,0.024Z" style="fill-rule:nonzero;"/></g><g transform="matrix(22,0,0,22,965.059,876.986)"><path d="M0.05,-0l0,-0.547l0.215,0l0,0.165l-0.035,-0.047c0.017,-0.043 0.043,-0.075 0.08,-0.096c0.037,-0.021 0.081,-0.032 0.132,-0.032l0,0.2c-0.01,-0.001 -0.019,-0.002 -0.026,-0.003c-0.008,-0.001 -0.016,-0.001 -0.024,-0.001c-0.034,0 -0.062,0.009 -0.083,0.027c-0.022,0.017 -0.033,0.048 -0.033,0.091l0,0.243l-0.226,0Z" style="fill-rule:nonzero;"/></g><g transform="matrix(22,0,0,22,975.091,876.986)"><path d="M0.774,-0.557c0.041,0 0.079,0.008 0.112,0.026c0.032,0.017 0.058,0.043 0.078,0.079c0.018,0.036 0.028,0.083 0.028,0.14l0,0.312l-0.226,-0l0,-0.273c0,-0.034 -0.006,-0.058 -0.017,-0.073c-0.011,-0.014 -0.026,-0.021 -0.044,-0.021c-0.013,0 -0.025,0.003 -0.036,0.01c-0.011,0.007 -0.019,0.017 -0.025,0.032c-0.007,0.014 -0.01,0.033 -0.01,0.058l0,0.267l-0.226,0l0,-0.273c0,-0.034 -0.005,-0.058 -0.016,-0.072c-0.011,-0.015 -0.026,-0.022 -0.045,-0.022c-0.013,0 -0.025,0.003 -0.036,0.01c-0.011,0.007 -0.019,0.017 -0.025,0.032c-0.007,0.014 -0.01,0.033 -0.01,0.058l0,0.267l-0.226,0l0,-0.547l0.215,0l0,0.157l-0.044,-0.044c0.021,-0.041 0.048,-0.072 0.083,-0.092c0.035,-0.021 0.073,-0.031 0.116,-0.031c0.048,0 0.091,0.013 0.128,0.038c0.036,0.025 0.061,0.064 0.074,0.118l-0.069,-0.011c0.02,-0.045 0.049,-0.081 0.088,-0.106c0.038,-0.026 0.082,-0.039 0.133,-0.039Z" style="fill-rule:nonzero;"/></g><g transform="matrix(22,0,0,22,998.191,876.986)"><path d="M0.352,0.01c-0.067,0 -0.125,-0.012 -0.174,-0.037c-0.05,-0.025 -0.089,-0.059 -0.116,-0.102c-0.027,-0.042 -0.041,-0.091 -0.041,-0.145c0,-0.055 0.014,-0.104 0.041,-0.147c0.027,-0.043 0.064,-0.076 0.111,-0.1c0.047,-0.024 0.099,-0.036 0.158,-0.036c0.054,0 0.104,0.011 0.15,0.032c0.045,0.021 0.082,0.053 0.11,0.095c0.027,0.042 0.041,0.094 0.041,0.156c0,0.008 -0,0.017 -0.001,0.027c-0.001,0.009 -0.001,0.018 -0.002,0.026l-0.421,0l0,-0.109l0.301,0l-0.085,0.029c0,-0.021 -0.004,-0.04 -0.011,-0.054c-0.008,-0.016 -0.019,-0.027 -0.032,-0.036c-0.013,-0.008 -0.029,-0.012 -0.048,-0.012c-0.019,0 -0.035,0.004 -0.048,0.013c-0.014,0.008 -0.025,0.02 -0.032,0.035c-0.007,0.014 -0.011,0.033 -0.011,0.054l0,0.034c0,0.023 0.005,0.043 0.014,0.06c0.009,0.017 0.023,0.029 0.04,0.038c0.017,0.008 0.038,0.012 0.063,0.012c0.025,0 0.046,-0.003 0.063,-0.01c0.016,-0.007 0.033,-0.017 0.051,-0.03l0.118,0.119c-0.027,0.029 -0.059,0.051 -0.098,0.066c-0.039,0.014 -0.086,0.022 -0.141,0.022Z" style="fill-rule:nonzero;"/></g><g transform="matrix(22,0,0,22,1012.56,876.986)"><path d="M0.415,0.01c-0.047,0 -0.087,-0.01 -0.118,-0.031c-0.031,-0.02 -0.053,-0.051 -0.068,-0.093c-0.015,-0.041 -0.022,-0.094 -0.022,-0.159c-0,-0.066 0.007,-0.12 0.02,-0.161c0.014,-0.042 0.036,-0.073 0.067,-0.093c0.031,-0.02 0.071,-0.03 0.121,-0.03c0.048,0 0.092,0.012 0.132,0.035c0.04,0.023 0.072,0.055 0.096,0.098c0.024,0.042 0.036,0.092 0.036,0.151c-0,0.059 -0.012,0.109 -0.036,0.152c-0.024,0.042 -0.056,0.074 -0.096,0.097c-0.04,0.023 -0.084,0.034 -0.132,0.034Zm-0.365,0.184l-0,-0.741l0.215,0l0,0.074l0.001,0.2l0.01,0.2l0,0.267l-0.226,0Zm0.311,-0.36c0.017,-0 0.032,-0.004 0.045,-0.012c0.013,-0.008 0.024,-0.02 0.032,-0.036c0.008,-0.016 0.012,-0.036 0.012,-0.059c0,-0.024 -0.004,-0.044 -0.012,-0.06c-0.008,-0.016 -0.019,-0.028 -0.032,-0.036c-0.013,-0.008 -0.028,-0.012 -0.045,-0.012c-0.017,0 -0.032,0.004 -0.045,0.012c-0.013,0.008 -0.024,0.02 -0.032,0.036c-0.008,0.016 -0.012,0.036 -0.012,0.06c0,0.023 0.004,0.043 0.012,0.059c0.008,0.016 0.019,0.028 0.032,0.036c0.013,0.008 0.028,0.012 0.045,0.012Z" style="fill-rule:nonzero;"/></g><g transform="matrix(22,0,0,22,1027.96,876.986)"><path d="M0.278,0.01c-0.043,0 -0.083,-0.009 -0.118,-0.027c-0.035,-0.017 -0.062,-0.045 -0.082,-0.083c-0.02,-0.037 -0.03,-0.086 -0.03,-0.145l-0,-0.302l0.226,-0l0,0.263c0,0.039 0.006,0.066 0.019,0.081c0.013,0.015 0.03,0.023 0.052,0.023c0.013,-0 0.026,-0.004 0.037,-0.011c0.012,-0.007 0.022,-0.018 0.029,-0.035c0.007,-0.016 0.011,-0.037 0.011,-0.064l-0,-0.257l0.226,-0l0,0.547l-0.215,-0l-0,-0.158l0.043,0.043c-0.019,0.043 -0.047,0.074 -0.083,0.094c-0.035,0.021 -0.074,0.031 -0.115,0.031Z" style="fill-rule:nonzero;"/></g><g transform="matrix(22,0,0,22,1043.31,876.986)"><path d="M0.774,-0.557c0.041,0 0.079,0.008 0.112,0.026c0.032,0.017 0.058,0.043 0.078,0.079c0.018,0.036 0.028,0.083 0.028,0.14l0,0.312l-0.226,-0l0,-0.273c0,-0.034 -0.006,-0.058 -0.017,-0.073c-0.011,-0.014 -0.026,-0.021 -0.044,-0.021c-0.013,0 -0.025,0.003 -0.036,0.01c-0.011,0.007 -0.019,0.017 -0.025,0.032c-0.007,0.014 -0.01,0.033 -0.01,0.058l0,0.267l-0.226,0l0,-0.273c0,-0.034 -0.005,-0.058 -0.016,-0.072c-0.011,-0.015 -0.026,-0.022 -0.045,-0.022c-0.013,0 -0.025,0.003 -0.036,0.01c-0.011,0.007 -0.019,0.017 -0.025,0.032c-0.007,0.014 -0.01,0.033 -0.01,0.058l0,0.267l-0.226,0l0,-0.547l0.215,0l0,0.157l-0.044,-0.044c0.021,-0.041 0.048,-0.072 0.083,-0.092c0.035,-0.021 0.073,-0.031 0.116,-0.031c0.048,0 0.091,0.013 0.128,0.038c0.036,0.025 0.061,0.064 0.074,0.118l-0.069,-0.011c0.02,-0.045 0.049,-0.081 0.088,-0.106c0.038,-0.026 0.082,-0.039 0.133,-0.039Z" style="fill-rule:nonzero;"/></g><g transform="matrix(22,0,0,22,1066.19,876.986)"><path d="M0.415,0.01c-0.047,0 -0.087,-0.01 -0.118,-0.031c-0.031,-0.02 -0.053,-0.051 -0.068,-0.093c-0.015,-0.041 -0.022,-0.094 -0.022,-0.159c-0,-0.066 0.007,-0.12 0.02,-0.161c0.014,-0.042 0.036,-0.073 0.067,-0.093c0.031,-0.02 0.071,-0.03 0.121,-0.03c0.048,0 0.092,0.012 0.132,0.035c0.04,0.023 0.072,0.055 0.096,0.098c0.024,0.042 0.036,0.092 0.036,0.151c-0,0.059 -0.012,0.109 -0.036,0.152c-0.024,0.042 -0.056,0.074 -0.096,0.097c-0.04,0.023 -0.084,0.034 -0.132,0.034Zm-0.365,0.184l-0,-0.741l0.215,0l0,0.074l0.001,0.2l0.01,0.2l0,0.267l-0.226,0Zm0.311,-0.36c0.017,-0 0.032,-0.004 0.045,-0.012c0.013,-0.008 0.024,-0.02 0.032,-0.036c0.008,-0.016 0.012,-0.036 0.012,-0.059c0,-0.024 -0.004,-0.044 -0.012,-0.06c-0.008,-0.016 -0.019,-0.028 -0.032,-0.036c-0.013,-0.008 -0.028,-0.012 -0.045,-0.012c-0.017,0 -0.032,0.004 -0.045,0.012c-0.013,0.008 -0.024,0.02 -0.032,0.036c-0.008,0.016 -0.012,0.036 -0.012,0.06c0,0.023 0.004,0.043 0.012,0.059c0.008,0.016 0.019,0.028 0.032,0.036c0.013,0.008 0.028,0.012 0.045,0.012Z" style="fill-rule:nonzero;"/></g><g transform="matrix(22,0,0,22,1081.59,876.986)"><path d="M0.352,0.01c-0.067,0 -0.125,-0.012 -0.174,-0.037c-0.05,-0.025 -0.089,-0.059 -0.116,-0.102c-0.027,-0.042 -0.041,-0.091 -0.041,-0.145c0,-0.055 0.014,-0.104 0.041,-0.147c0.027,-0.043 0.064,-0.076 0.111,-0.1c0.047,-0.024 0.099,-0.036 0.158,-0.036c0.054,0 0.104,0.011 0.15,0.032c0.045,0.021 0.082,0.053 0.11,0.095c0.027,0.042 0.041,0.094 0.041,0.156c0,0.008 -0,0.017 -0.001,0.027c-0.001,0.009 -0.001,0.018 -0.002,0.026l-0.421,0l0,-0.109l0.301,0l-0.085,0.029c0,-0.021 -0.004,-0.04 -0.011,-0.054c-0.008,-0.016 -0.019,-0.027 -0.032,-0.036c-0.013,-0.008 -0.029,-0.012 -0.048,-0.012c-0.019,0 -0.035,0.004 -0.048,0.013c-0.014,0.008 -0.025,0.02 -0.032,0.035c-0.007,0.014 -0.011,0.033 -0.011,0.054l0,0.034c0,0.023 0.005,0.043 0.014,0.06c0.009,0.017 0.023,0.029 0.04,0.038c0.017,0.008 0.038,0.012 0.063,0.012c0.025,0 0.046,-0.003 0.063,-0.01c0.016,-0.007 0.033,-0.017 0.051,-0.03l0.118,0.119c-0.027,0.029 -0.059,0.051 -0.098,0.066c-0.039,0.014 -0.086,0.022 -0.141,0.022Z" style="fill-rule:nonzero;"/></g></g><g><rect x="289.35" y="1203.18" width="286.321" height="394.023" style="fill:#4eb84b;stroke:#000;stroke-width:13.33px;"/><rect x="316.137" y="1226.12" width="164.284" height="164.201" style="fill:#fff;stroke:#000;stroke-width:13.33px;"/><rect x="315.899" y="1419.4" width="164.284" height="164.201" style="fill:#fff;stroke:#000;stroke-width:13.33px;"/><path d="M575.671,1486.89l19.462,38.327l0,60.518l-17.295,-0" style="fill:none;stroke:#000;stroke-width:13.33px;"/><circle cx="398.338" cy="1308.35" r="81.808" style="fill:none;stroke:#000;stroke-width:13.33px;"/><circle cx="398.399" cy="1308.12" r="27.09" style="fill:none;stroke:#000;stroke-width:13.33px;"/><circle cx="398.338" cy="1500.96" r="81.808" style="fill:none;stroke:#000;stroke-width:13.33px;"/><path d="M398.799,1280.45l-0,-39.871c-0,-0 -16.47,2.176 -26.943,13.164l13.109,30.012" style="fill:none;stroke:#000;stroke-width:13.33px;"/><path d="M375.249,1294.06l-34.53,-19.936c0,0 -6.35,15.352 -2.071,29.916l32.546,3.653" style="fill:none;stroke:#000;stroke-width:13.33px;"/><path d="M374.612,1321.16l-34.53,19.936c0,-0 10.12,13.175 24.873,16.751l19.436,-26.358" style="fill:none;stroke:#000;stroke-width:13.33px;"/><path d="M422.885,1295l34.529,-19.936c0,0 -10.12,-13.175 -24.872,-16.751l-19.436,26.358" style="fill:none;stroke:#000;stroke-width:13.33px;"/><path d="M398.413,1335.01l0,39.871c0,0 16.47,-2.176 26.944,-13.164l-13.11,-30.011" style="fill:none;stroke:#000;stroke-width:13.33px;"/><path d="M422.036,1320.75l34.529,19.936c0,-0 6.35,-15.352 2.072,-29.916l-32.546,-3.653" style="fill:none;stroke:#000;stroke-width:13.33px;"/><circle cx="398.399" cy="1500.96" r="27.09" style="fill:none;stroke:#000;stroke-width:13.33px;"/><path d="M398.799,1473.29l-0,-39.871c-0,-0 -16.47,2.176 -26.943,13.164l13.109,30.011" style="fill:none;stroke:#000;stroke-width:13.33px;"/><path d="M375.249,1486.89l-34.53,-19.936c0,0 -6.35,15.352 -2.071,29.916l32.546,3.653" style="fill:none;stroke:#000;stroke-width:13.33px;"/><path d="M374.612,1513.99l-34.53,19.935c0,0 10.12,13.176 24.873,16.752l19.436,-26.359" style="fill:none;stroke:#000;stroke-width:13.33px;"/><path d="M422.885,1487.83l34.529,-19.935c0,-0 -10.12,-13.175 -24.872,-16.752l-19.436,26.359" style="fill:none;stroke:#000;stroke-width:13.33px;"/><path d="M398.413,1527.84l0,39.872c0,-0 16.47,-2.177 26.944,-13.164l-13.11,-30.012" style="fill:none;stroke:#000;stroke-width:13.33px;"/><path d="M422.036,1513.58l34.529,19.935c0,0 6.35,-15.352 2.072,-29.916l-32.546,-3.652" style="fill:none;stroke:#000;stroke-width:13.33px;"/></g></g><g><g transform="matrix(2.08333,0,0,2.08333,-1169.96,-857.182)"><g transform="matrix(32,0,0,32,940.787,850.586)"><path d="M-0.019,-0l0.306,-0.7l0.232,0l0.306,0.7l-0.244,-0l-0.226,-0.588l0.092,0l-0.226,0.588l-0.24,-0Zm0.182,-0.122l0.06,-0.17l0.322,0l0.06,0.17l-0.442,0Z" style="fill-rule:nonzero;"/></g><g transform="matrix(32,0,0,32,965.619,850.586)"><path d="M0.184,-0l-0.19,-0.547l0.214,0l0.144,0.444l-0.103,0l0.151,-0.444l0.192,0l0.144,0.444l-0.1,0l0.149,-0.444l0.198,0l-0.19,0.547l-0.22,-0l-0.115,-0.352l0.066,0l-0.12,0.352l-0.22,-0Z" style="fill-rule:nonzero;"/></g><g transform="matrix(32,0,0,32,996.243,850.586)"><path d="M0.381,-0l0,-0.097l-0.016,-0.026l0,-0.184c0,-0.027 -0.008,-0.047 -0.024,-0.061c-0.017,-0.014 -0.043,-0.021 -0.08,-0.021c-0.025,0 -0.05,0.004 -0.075,0.012c-0.025,0.007 -0.047,0.018 -0.065,0.031l-0.072,-0.149c0.032,-0.02 0.07,-0.035 0.115,-0.046c0.045,-0.011 0.088,-0.016 0.131,-0.016c0.094,0 0.167,0.021 0.219,0.063c0.051,0.042 0.077,0.109 0.077,0.2l0,0.294l-0.21,0Zm-0.155,0.01c-0.045,0 -0.082,-0.008 -0.112,-0.023c-0.03,-0.015 -0.053,-0.036 -0.068,-0.061c-0.015,-0.026 -0.023,-0.055 -0.023,-0.086c0,-0.035 0.009,-0.065 0.027,-0.09c0.018,-0.025 0.046,-0.043 0.083,-0.056c0.037,-0.013 0.083,-0.019 0.14,-0.019l0.114,0l0,0.109l-0.078,0c-0.024,0 -0.041,0.004 -0.052,0.012c-0.011,0.007 -0.017,0.019 -0.017,0.034c0,0.013 0.005,0.023 0.015,0.032c0.009,0.008 0.022,0.012 0.039,0.012c0.015,0 0.03,-0.004 0.043,-0.012c0.013,-0.009 0.022,-0.022 0.028,-0.04l0.029,0.067c-0.009,0.041 -0.027,0.071 -0.055,0.091c-0.028,0.02 -0.066,0.03 -0.113,0.03Z" style="fill-rule:nonzero;"/></g><g transform="matrix(32,0,0,32,1016.69,850.586)"><path d="M0.314,0.01c-0.075,0 -0.134,-0.018 -0.176,-0.055c-0.042,-0.036 -0.063,-0.092 -0.063,-0.167l-0,-0.458l0.226,0l-0,0.456c-0,0.017 0.004,0.03 0.013,0.039c0.009,0.009 0.021,0.014 0.034,0.014c0.019,0 0.036,-0.005 0.051,-0.015l0.054,0.157c-0.017,0.01 -0.038,0.017 -0.063,0.022c-0.024,0.005 -0.049,0.007 -0.076,0.007Zm-0.314,-0.362l-0,-0.165l0.413,0l-0,0.165l-0.413,0Z" style="fill-rule:nonzero;"/></g><g transform="matrix(32,0,0,32,1031.09,850.586)"><path d="M0.314,0.01c-0.075,0 -0.134,-0.018 -0.176,-0.055c-0.042,-0.036 -0.063,-0.092 -0.063,-0.167l-0,-0.458l0.226,0l-0,0.456c-0,0.017 0.004,0.03 0.013,0.039c0.009,0.009 0.021,0.014 0.034,0.014c0.019,0 0.036,-0.005 0.051,-0.015l0.054,0.157c-0.017,0.01 -0.038,0.017 -0.063,0.022c-0.024,0.005 -0.049,0.007 -0.076,0.007Zm-0.314,-0.362l-0,-0.165l0.413,0l-0,0.165l-0.413,0Z" style="fill-rule:nonzero;"/></g><g transform="matrix(32,0,0,32,1045.81,850.586)"><path d="M0.381,-0l0,-0.097l-0.016,-0.026l0,-0.184c0,-0.027 -0.008,-0.047 -0.024,-0.061c-0.017,-0.014 -0.043,-0.021 -0.08,-0.021c-0.025,0 -0.05,0.004 -0.075,0.012c-0.025,0.007 -0.047,0.018 -0.065,0.031l-0.072,-0.149c0.032,-0.02 0.07,-0.035 0.115,-0.046c0.045,-0.011 0.088,-0.016 0.131,-0.016c0.094,0 0.167,0.021 0.219,0.063c0.051,0.042 0.077,0.109 0.077,0.2l0,0.294l-0.21,0Zm-0.155,0.01c-0.045,0 -0.082,-0.008 -0.112,-0.023c-0.03,-0.015 -0.053,-0.036 -0.068,-0.061c-0.015,-0.026 -0.023,-0.055 -0.023,-0.086c0,-0.035 0.009,-0.065 0.027,-0.09c0.018,-0.025 0.046,-0.043 0.083,-0.056c0.037,-0.013 0.083,-0.019 0.14,-0.019l0.114,0l0,0.109l-0.078,0c-0.024,0 -0.041,0.004 -0.052,0.012c-0.011,0.007 -0.017,0.019 -0.017,0.034c0,0.013 0.005,0.023 0.015,0.032c0.009,0.008 0.022,0.012 0.039,0.012c0.015,0 0.03,-0.004 0.043,-0.012c0.013,-0.009 0.022,-0.022 0.028,-0.04l0.029,0.067c-0.009,0.041 -0.027,0.071 -0.055,0.091c-0.028,0.02 -0.066,0.03 -0.113,0.03Z" style="fill-rule:nonzero;"/></g><g transform="matrix(32,0,0,32,1066.26,850.586)"><path d="M0.05,-0l0,-0.547l0.215,0l0,0.165l-0.035,-0.047c0.017,-0.043 0.043,-0.075 0.08,-0.096c0.037,-0.021 0.081,-0.032 0.132,-0.032l0,0.2c-0.01,-0.001 -0.019,-0.002 -0.026,-0.003c-0.008,-0.001 -0.016,-0.001 -0.024,-0.001c-0.034,0 -0.062,0.009 -0.083,0.027c-0.022,0.017 -0.033,0.048 -0.033,0.091l0,0.243l-0.226,0Z" style="fill-rule:nonzero;"/></g><g transform="matrix(22,0,0,22,918.76,876.986)"><path d="M0.057,-0l0,-0.7l0.345,0c0.078,0 0.147,0.014 0.206,0.043c0.059,0.028 0.106,0.068 0.139,0.12c0.033,0.052 0.05,0.114 0.05,0.186c-0,0.073 -0.017,0.135 -0.05,0.188c-0.033,0.052 -0.08,0.092 -0.139,0.121c-0.059,0.028 -0.128,0.042 -0.206,0.042l-0.345,0Zm0.236,-0.184l0.099,0c0.033,0 0.063,-0.006 0.088,-0.019c0.025,-0.013 0.044,-0.032 0.058,-0.056c0.014,-0.025 0.021,-0.056 0.021,-0.092c0,-0.035 -0.007,-0.065 -0.021,-0.09c-0.014,-0.025 -0.033,-0.043 -0.058,-0.056c-0.025,-0.013 -0.055,-0.019 -0.088,-0.019l-0.099,-0l-0,0.332Z" style="fill-rule:nonzero;"/></g><g transform="matrix(22,0,0,22,936.932,876.986)"><path d="M0.17,0.204c-0.03,0 -0.061,-0.005 -0.092,-0.014c-0.031,-0.009 -0.055,-0.02 -0.074,-0.035l0.075,-0.155c0.011,0.009 0.024,0.016 0.038,0.021c0.015,0.005 0.029,0.008 0.042,0.008c0.02,0 0.035,-0.004 0.046,-0.013c0.011,-0.008 0.019,-0.02 0.026,-0.037l0.023,-0.058l0.016,-0.022l0.175,-0.446l0.214,0l-0.225,0.558c-0.02,0.05 -0.043,0.089 -0.07,0.117c-0.026,0.028 -0.055,0.048 -0.088,0.059c-0.032,0.011 -0.067,0.017 -0.106,0.017Zm0.053,-0.179l-0.238,-0.572l0.232,0l0.164,0.426l-0.158,0.146Z" style="fill-rule:nonzero;"/></g><g transform="matrix(22,0,0,22,951.1,876.986)"><path d="M0.43,-0.557c0.042,0 0.08,0.008 0.114,0.026c0.034,0.017 0.061,0.043 0.081,0.079c0.019,0.036 0.029,0.083 0.029,0.14l0,0.312l-0.226,-0l-0,-0.273c-0,-0.034 -0.006,-0.058 -0.018,-0.073c-0.012,-0.014 -0.028,-0.021 -0.049,-0.021c-0.015,0 -0.03,0.004 -0.043,0.011c-0.013,0.007 -0.023,0.018 -0.031,0.034c-0.007,0.016 -0.011,0.038 -0.011,0.065l0,0.257l-0.226,0l-0,-0.547l0.215,0l0,0.16l-0.043,-0.046c0.021,-0.041 0.05,-0.072 0.086,-0.093c0.037,-0.021 0.077,-0.031 0.122,-0.031Z" style="fill-rule:nonzero;"/></g><g transform="matrix(22,0,0,22,966.544,876.986)"><path d="M0.152,0.01c-0.037,0 -0.069,-0.012 -0.094,-0.037c-0.025,-0.024 -0.038,-0.055 -0.038,-0.093c0,-0.039 0.013,-0.07 0.038,-0.093c0.025,-0.023 0.057,-0.035 0.094,-0.035c0.037,0 0.069,0.012 0.094,0.035c0.025,0.023 0.038,0.054 0.038,0.093c0,0.038 -0.013,0.069 -0.038,0.094c-0.025,0.024 -0.057,0.036 -0.094,0.036Z" style="fill-rule:nonzero;"/></g><g transform="matrix(22,0,0,22,979.832,876.986)"><path d="M0.318,0.016c-0.059,0 -0.115,-0.007 -0.17,-0.02c-0.055,-0.013 -0.1,-0.031 -0.135,-0.052l0.076,-0.172c0.033,0.019 0.071,0.035 0.112,0.047c0.041,0.011 0.08,0.017 0.119,0.017c0.023,0 0.04,-0.001 0.053,-0.004c0.014,-0.003 0.023,-0.008 0.029,-0.013c0.006,-0.006 0.009,-0.013 0.009,-0.021c0,-0.013 -0.007,-0.023 -0.021,-0.03c-0.014,-0.007 -0.033,-0.013 -0.055,-0.018c-0.024,-0.005 -0.049,-0.011 -0.076,-0.016c-0.027,-0.006 -0.055,-0.014 -0.083,-0.023c-0.027,-0.009 -0.052,-0.022 -0.075,-0.037c-0.023,-0.015 -0.042,-0.035 -0.056,-0.06c-0.014,-0.025 -0.021,-0.057 -0.021,-0.094c0,-0.043 0.012,-0.083 0.037,-0.118c0.024,-0.036 0.06,-0.065 0.109,-0.086c0.048,-0.021 0.108,-0.032 0.18,-0.032c0.047,0 0.094,0.005 0.14,0.015c0.046,0.01 0.087,0.025 0.124,0.046l-0.071,0.171c-0.035,-0.017 -0.068,-0.03 -0.1,-0.039c-0.033,-0.009 -0.064,-0.013 -0.095,-0.013c-0.023,0 -0.041,0.002 -0.054,0.006c-0.013,0.004 -0.023,0.009 -0.028,0.016c-0.006,0.007 -0.009,0.014 -0.009,0.022c0,0.012 0.007,0.021 0.021,0.028c0.014,0.008 0.033,0.013 0.056,0.018c0.023,0.005 0.048,0.01 0.076,0.015c0.027,0.005 0.055,0.013 0.082,0.022c0.027,0.009 0.053,0.022 0.076,0.037c0.023,0.015 0.041,0.035 0.055,0.06c0.014,0.025 0.021,0.055 0.021,0.092c0,0.043 -0.012,0.082 -0.036,0.117c-0.025,0.036 -0.061,0.065 -0.109,0.086c-0.048,0.022 -0.108,0.033 -0.181,0.033Z" style="fill-rule:nonzero;"/></g><g transform="matrix(22,0,0,22,994.286,876.986)"><path d="M0.314,0.01c-0.075,0 -0.134,-0.018 -0.176,-0.055c-0.042,-0.036 -0.063,-0.092 -0.063,-0.167l-0,-0.458l0.226,0l-0,0.456c-0,0.017 0.004,0.03 0.013,0.039c0.009,0.009 0.021,0.014 0.034,0.014c0.019,0 0.036,-0.005 0.051,-0.015l0.054,0.157c-0.017,0.01 -0.038,0.017 -0.063,0.022c-0.024,0.005 -0.049,0.007 -0.076,0.007Zm-0.314,-0.362l-0,-0.165l0.413,0l-0,0.165l-0.413,0Z" style="fill-rule:nonzero;"/></g><g transform="matrix(22,0,0,22,1004.41,876.986)"><path d="M0.05,-0l0,-0.547l0.215,0l0,0.165l-0.035,-0.047c0.017,-0.043 0.043,-0.075 0.08,-0.096c0.037,-0.021 0.081,-0.032 0.132,-0.032l0,0.2c-0.01,-0.001 -0.019,-0.002 -0.026,-0.003c-0.008,-0.001 -0.016,-0.001 -0.024,-0.001c-0.034,0 -0.062,0.009 -0.083,0.027c-0.022,0.017 -0.033,0.048 -0.033,0.091l0,0.243l-0.226,0Z" style="fill-rule:nonzero;"/></g><g transform="matrix(22,0,0,22,1014.33,876.986)"><path d="M0.339,0.01c-0.062,0 -0.117,-0.012 -0.165,-0.037c-0.047,-0.024 -0.085,-0.057 -0.112,-0.1c-0.027,-0.043 -0.041,-0.092 -0.041,-0.147c-0,-0.055 0.014,-0.104 0.041,-0.147c0.027,-0.043 0.065,-0.076 0.113,-0.1c0.047,-0.024 0.102,-0.036 0.164,-0.036c0.062,0 0.117,0.012 0.165,0.036c0.048,0.024 0.086,0.057 0.113,0.1c0.027,0.043 0.04,0.092 0.04,0.147c0,0.055 -0.013,0.104 -0.04,0.147c-0.027,0.043 -0.065,0.076 -0.113,0.101c-0.048,0.024 -0.103,0.036 -0.165,0.036Zm0,-0.176c0.017,0 0.032,-0.004 0.045,-0.012c0.013,-0.008 0.024,-0.02 0.032,-0.036c0.008,-0.017 0.012,-0.037 0.012,-0.06c0,-0.024 -0.004,-0.044 -0.012,-0.059c-0.008,-0.016 -0.019,-0.028 -0.032,-0.036c-0.013,-0.008 -0.028,-0.012 -0.045,-0.012c-0.017,0 -0.032,0.004 -0.045,0.012c-0.013,0.008 -0.024,0.02 -0.032,0.035c-0.008,0.016 -0.012,0.036 -0.012,0.06c0,0.023 0.004,0.043 0.012,0.059c0.008,0.017 0.019,0.029 0.032,0.037c0.013,0.008 0.028,0.012 0.045,0.012Z" style="fill-rule:nonzero;"/></g><g transform="matrix(22,0,0,22,1029.24,876.986)"><path d="M0.774,-0.557c0.041,0 0.079,0.008 0.112,0.026c0.032,0.017 0.058,0.043 0.078,0.079c0.018,0.036 0.028,0.083 0.028,0.14l0,0.312l-0.226,-0l0,-0.273c0,-0.034 -0.006,-0.058 -0.017,-0.073c-0.011,-0.014 -0.026,-0.021 -0.044,-0.021c-0.013,0 -0.025,0.003 -0.036,0.01c-0.011,0.007 -0.019,0.017 -0.025,0.032c-0.007,0.014 -0.01,0.033 -0.01,0.058l0,0.267l-0.226,0l0,-0.273c0,-0.034 -0.005,-0.058 -0.016,-0.072c-0.011,-0.015 -0.026,-0.022 -0.045,-0.022c-0.013,0 -0.025,0.003 -0.036,0.01c-0.011,0.007 -0.019,0.017 -0.025,0.032c-0.007,0.014 -0.01,0.033 -0.01,0.058l0,0.267l-0.226,0l0,-0.547l0.215,0l0,0.157l-0.044,-0.044c0.021,-0.041 0.048,-0.072 0.083,-0.092c0.035,-0.021 0.073,-0.031 0.116,-0.031c0.048,0 0.091,0.013 0.128,0.038c0.036,0.025 0.061,0.064 0.074,0.118l-0.069,-0.011c0.02,-0.045 0.049,-0.081 0.088,-0.106c0.038,-0.026 0.082,-0.039 0.133,-0.039Z" style="fill-rule:nonzero;"/></g><g transform="matrix(22,0,0,22,1052.12,876.986)"><path d="M0.314,0.01c-0.075,0 -0.134,-0.018 -0.176,-0.055c-0.042,-0.036 -0.063,-0.092 -0.063,-0.167l-0,-0.458l0.226,0l-0,0.456c-0,0.017 0.004,0.03 0.013,0.039c0.009,0.009 0.021,0.014 0.034,0.014c0.019,0 0.036,-0.005 0.051,-0.015l0.054,0.157c-0.017,0.01 -0.038,0.017 -0.063,0.022c-0.024,0.005 -0.049,0.007 -0.076,0.007Zm-0.314,-0.362l-0,-0.165l0.413,0l-0,0.165l-0.413,0Z" style="fill-rule:nonzero;"/></g><g transform="matrix(22,0,0,22,1062.24,876.986)"><path d="M0.381,-0l0,-0.097l-0.016,-0.026l0,-0.184c0,-0.027 -0.008,-0.047 -0.024,-0.061c-0.017,-0.014 -0.043,-0.021 -0.08,-0.021c-0.025,0 -0.05,0.004 -0.075,0.012c-0.025,0.007 -0.047,0.018 -0.065,0.031l-0.072,-0.149c0.032,-0.02 0.07,-0.035 0.115,-0.046c0.045,-0.011 0.088,-0.016 0.131,-0.016c0.094,0 0.167,0.021 0.219,0.063c0.051,0.042 0.077,0.109 0.077,0.2l0,0.294l-0.21,0Zm-0.155,0.01c-0.045,0 -0.082,-0.008 -0.112,-0.023c-0.03,-0.015 -0.053,-0.036 -0.068,-0.061c-0.015,-0.026 -0.023,-0.055 -0.023,-0.086c0,-0.035 0.009,-0.065 0.027,-0.09c0.018,-0.025 0.046,-0.043 0.083,-0.056c0.037,-0.013 0.083,-0.019 0.14,-0.019l0.114,0l0,0.109l-0.078,0c-0.024,0 -0.041,0.004 -0.052,0.012c-0.011,0.007 -0.017,0.019 -0.017,0.034c0,0.013 0.005,0.023 0.015,0.032c0.009,0.008 0.022,0.012 0.039,0.012c0.015,0 0.03,-0.004 0.043,-0.012c0.013,-0.009 0.022,-0.022 0.028,-0.04l0.029,0.067c-0.009,0.041 -0.027,0.071 -0.055,0.091c-0.028,0.02 -0.066,0.03 -0.113,0.03Z" style="fill-rule:nonzero;"/></g><g transform="matrix(22,0,0,22,1076.3,876.986)"><path d="M0.05,-0l0,-0.547l0.215,0l0,0.165l-0.035,-0.047c0.017,-0.043 0.043,-0.075 0.08,-0.096c0.037,-0.021 0.081,-0.032 0.132,-0.032l0,0.2c-0.01,-0.001 -0.019,-0.002 -0.026,-0.003c-0.008,-0.001 -0.016,-0.001 -0.024,-0.001c-0.034,0 -0.062,0.009 -0.083,0.027c-0.022,0.017 -0.033,0.048 -0.033,0.091l0,0.243l-0.226,0Z" style="fill-rule:nonzero;"/></g><g transform="matrix(22,0,0,22,1086.33,876.986)"><path d="M0.05,-0l0,-0.547l0.226,0l0,0.547l-0.226,-0Zm0.113,-0.591c-0.041,0 -0.074,-0.011 -0.099,-0.033c-0.025,-0.022 -0.037,-0.049 -0.037,-0.082c-0,-0.033 0.012,-0.06 0.037,-0.082c0.025,-0.022 0.058,-0.033 0.099,-0.033c0.041,-0 0.074,0.01 0.099,0.031c0.025,0.021 0.037,0.047 0.037,0.08c0,0.035 -0.012,0.063 -0.037,0.085c-0.025,0.023 -0.058,0.034 -0.099,0.034Z" style="fill-rule:nonzero;"/></g><g transform="matrix(22,0,0,22,1093.51,876.986)"><path d="M0.075,-0l0,-0.52c0,-0.071 0.021,-0.127 0.064,-0.169c0.042,-0.042 0.102,-0.063 0.18,-0.063c0.024,-0 0.048,0.002 0.073,0.006c0.024,0.005 0.044,0.012 0.061,0.021l-0.054,0.157c-0.007,-0.003 -0.015,-0.006 -0.024,-0.009c-0.009,-0.003 -0.018,-0.004 -0.027,-0.004c-0.016,0 -0.029,0.005 -0.039,0.015c-0.01,0.01 -0.015,0.026 -0.015,0.048l0,0.026l0.007,0.093l0,0.399l-0.226,-0Zm-0.075,-0.352l0,-0.165l0.413,-0l0,0.165l-0.413,-0Z" style="fill-rule:nonzero;"/></g></g><g><g><path d="M932.885,433.491l113.011,-0c0,-0 7.411,-0.246 7.44,7.44c0.03,7.686 0,339.87 0,339.87l-17.995,46.649l-102.456,0" style="fill:#4eb84b;stroke:#000;stroke-width:13.33px;"/><path d="M943.783,433.491l-113.011,-0c-0,-0 -7.411,-0.246 -7.44,7.44c-0.03,7.686 -0,339.87 -0,339.87l17.994,46.649l102.457,0" style="fill:#4eb84b;stroke:#000;stroke-width:13.33px;"/></g><circle cx="1001.64" cy="569.588" r="16.421" style="fill:#fff;stroke:#000;stroke-width:13.33px;"/><path d="M1051.56,570.071l-38.021,-35.522c0,0 -8.178,-5.823 -8.907,-24.315c-0.729,-18.492 -0,-75.277 -0,-75.277" style="fill:none;stroke:#000;stroke-width:13.33px;"/><path d="M992.22,648.949l26.651,-0l0,45.567l9.388,82.344l-62.937,0l26.898,-82.344l0,-45.567Z" style="fill:none;stroke:#000;stroke-width:13.33px;"/><rect x="862.134" y="503.262" width="121.39" height="33.648" style="fill:#fff;stroke:#000;stroke-width:13.33px;"/><path d="M991.907,693.61l-151.452,-0l-17.191,85.508" style="fill:none;stroke:#000;stroke-width:13.33px;"/><path d="M1022.12,693.61l13.426,-0l17.191,85.508" style="fill:none;stroke:#000;stroke-width:13.33px;"/><path d="M841,695.496l-0,-245.365l161.665,0" style="fill:none;stroke:#000;stroke-width:13.33px;"/><path d="M1036.05,695.496l0,-137.418" style="fill:none;stroke:#000;stroke-width:13.33px;"/></g></g><path d="M2145.83,1441.67l-458.333,-0" style="fill:none;stroke:#000;stroke-width:13.33px;"/><path d="M1125,1441.67l-500,-0" style="fill:none;stroke:#000;stroke-width:13.33px;"/><path d="M2229.17,708.333l145.833,0l0,458.334" style="fill:none;stroke:#000;stroke-width:13.33px;"/><path d="M1268.77,1266.38l-126.488,-279.292" style="fill:none;stroke:#000;stroke-width:13.33px;"/></svg>