<svg viewBox="0 0 2813 2250" xmlns="http://www.w3.org/2000/svg" xml:space="preserve" style="fill-rule:evenodd;clip-rule:evenodd;stroke-linecap:round;stroke-linejoin:round;stroke-miterlimit:1.5"><path style="fill:#17dc43" d="M-115.798-298.833h3119.5v2881.65h-3119.5z"/><path d="M384.013 527.612s81.984-46.318 168.78-72.887c86.797-26.568 285.012-2.743 361.182 17.402 0 0-8.383 8.917-6.909 17.058 1.474 8.141 15.8 23.167 15.8 23.167s22.633 21.84 22.328 23.233c-.305 1.392-1.813 30.337 5.149 42.193 6.962 11.855 10.153 19.784 8.364 27.853-1.789 8.069-3.081 14.749-3.081 14.749s.034 7.462 3.081 10.611l-3.081 14.334 1.266 5.677s-2.455 6.785-6.549 10.984l1.609 6.067s-9.618 7.159-34.226 10.812c-24.608 3.652-136.93 3.577-136.93 3.577l-367.18 8.517H273.891s-36.409-2.336-41.74-8.517c-5.332-6.181 0-3.577 0-3.577l-3.785-8.231 7.828-10.72s-7.938-37.723-7.828-57.591c.109-19.868 42.52-45.18 66.653-54.217 19.293-7.224 85.163-21.856 88.994-20.494Z" style="fill:#4eb848;stroke:#000;stroke-width:14.96px"/><circle cx="845.681" cy="654.156" r="61.082" style="fill:#fff;stroke:#000;stroke-width:14.96px"/><path d="M413.067 536.638s115.59-54.529 151.773-63.169c36.183-8.64 75.369-11.492 170.313-7.588 0 0 40.205 3.418 47.014 4.182 6.809.765 41.751 43.87 41.751 43.87s-20.947 7.526-45.053 10.564c-24.105 3.038-314.653 15.678-314.653 15.678l-51.145-3.537Z" style="fill:#fff;stroke:#000;stroke-width:14.96px"/><circle cx="338.987" cy="654.156" r="61.082" style="fill:#fff;stroke:#000;stroke-width:14.96px"/><path d="M240.397 592.799s14.538-3.064 21.975-5.697c7.438-2.633 39.938-22.31 41.558-22.676 1.619-.366.008-2.56-1.755-2.844-2.245-.361-24.379 1.887-23.694 2.347 0 0-9.399 4.969-17.774 10.723-3.443 2.365-7.774 5.563-11.366 8.819-5.146 4.666-8.944 9.328-8.944 9.328ZM933.385 533.333l-27.19.239s-10.198.173-12.964.368c-2.672.188 5.086 9.936 5.086 9.936l11.189 13.821h28.419s-.301-4.129-.515-8.649c-.213-4.52.149-11.233.149-11.233l-4.174-4.482Z" style="fill:#fff"/><path d="m452.776 839.368-22.2-52.5h19.05l18.075 44.325h-11.325l18.6-44.325h17.4l-22.2 52.5h-17.4Z" style="fill-rule:nonzero"/><path d="m508.501 839.368-16.8-52.5h18.225l13.575 44.325h-9.15l14.4-44.325h16.275l13.425 44.325h-8.775l14.175-44.325h16.8l-16.8 52.5h-18.975l-10.95-36.3h5.1l-11.55 36.3h-18.975ZM608.176 786.868h17.7v52.5h-17.7zM634.426 839.368v-52.5h25.875c5.85 0 11 1.062 15.45 3.187 4.45 2.125 7.925 5.138 10.425 9.038 2.5 3.9 3.75 8.55 3.75 13.95 0 5.45-1.25 10.137-3.75 14.062-2.5 3.925-5.975 6.95-10.425 9.075-4.45 2.125-9.6 3.188-15.45 3.188h-25.875Zm17.7-13.8h7.425c2.5 0 4.688-.475 6.563-1.425 1.875-.95 3.337-2.363 4.387-4.238 1.05-1.875 1.575-4.162 1.575-6.862 0-2.65-.525-4.9-1.575-6.75-1.05-1.85-2.512-3.25-4.387-4.2-1.875-.95-4.063-1.425-6.563-1.425h-7.425v24.9ZM702.001 840.118c-2.8 0-5.15-.913-7.05-2.738-1.9-1.825-2.85-4.162-2.85-7.012 0-2.9.95-5.225 2.85-6.975 1.9-1.75 4.25-2.625 7.05-2.625s5.15.875 7.05 2.625c1.9 1.75 2.85 4.075 2.85 6.975 0 2.85-.95 5.187-2.85 7.012-1.9 1.825-4.25 2.738-7.05 2.738ZM734.401 840.568c-3.6 0-7.25-.4-10.95-1.2-3.7-.8-6.95-1.975-9.75-3.525l6-13.05a27.632 27.632 0 0 0 7.088 2.887c2.475.625 4.812.938 7.012.938 2 0 3.638-.338 4.913-1.013 1.275-.675 1.912-1.687 1.912-3.037 0-1.15-.475-2.038-1.425-2.663-.95-.625-2.55-.937-4.8-.937h-6.975v-10.875l13.575-13.8 1.575 5.925h-26.175v-13.35h39.15v10.875l-13.575 13.8-8.475-4.8h4.65c6.6 0 11.625 1.475 15.075 4.425 3.45 2.95 5.175 6.75 5.175 11.4 0 3-.837 5.875-2.512 8.625s-4.275 5-7.8 6.75c-3.525 1.75-8.088 2.625-13.688 2.625Z" style="fill-rule:nonzero"/><path style="fill:#4eb848;stroke:#000;stroke-width:11.52px" d="M1878.32 1724.83h264.98v212.537h-264.98z"/><path d="M1878.97 1829.72h263.404" style="fill:none;stroke:#000;stroke-width:11.52px"/><path style="fill:#fff;stroke:#000;stroke-width:11.52px" d="M1878.32 1646.27h264.98v78.558h-264.98zM1878.32 1931.38h264.98v30.968h-264.98z"/><path d="M.281.016A.666.666 0 0 1 .135 0a.474.474 0 0 1-.13-.047l.08-.174a.396.396 0 0 0 .187.051.14.14 0 0 0 .066-.014.045.045 0 0 0 .017-.067C.349-.259.338-.265.323-.269a.264.264 0 0 0-.065-.006H.055L.09-.7h.465v.178H.173l.119-.101-.021.271-.119-.101h.163c.069 0 .125.01.166.03a.2.2 0 0 1 .12.193.23.23 0 0 1-.138.21.398.398 0 0 1-.182.036Z" style="fill-rule:nonzero" transform="translate(1642.101 2081.563) scale(74.99988)"/><path d="m.035.16.084-.281.033.126a.137.137 0 0 1-.095-.033A.118.118 0 0 1 .02-.12a.12.12 0 0 1 .037-.093.136.136 0 0 1 .095-.035c.038 0 .069.012.094.035a.12.12 0 0 1 .038.093.173.173 0 0 1-.003.032.187.187 0 0 1-.01.039.572.572 0 0 1-.026.06L.175.16h-.14Z" style="fill-rule:nonzero" transform="translate(1688.526 2081.563) scale(74.99988)"/><path d="M.125 0v-.618l.101.096H.005V-.7h.356V0H.125Z" style="fill-rule:nonzero" transform="translate(1709.826 2081.563) scale(74.99988)"/><path d="M.028 0v-.145l.253-.234a.225.225 0 0 0 .035-.04.102.102 0 0 0 .016-.031.077.077 0 0 0 .004-.025.05.05 0 0 0-.017-.04C.308-.525.291-.53.268-.53a.106.106 0 0 0-.059.017.114.114 0 0 0-.044.048l-.178-.089a.29.29 0 0 1 .114-.117.367.367 0 0 1 .189-.045c.055 0 .104.009.147.027a.228.228 0 0 1 .1.076.19.19 0 0 1 .036.116.265.265 0 0 1-.009.068.212.212 0 0 1-.034.072.506.506 0 0 1-.077.083l-.19.173-.037-.082h.363V0H.028Z" style="fill-rule:nonzero" transform="translate(1741.176 2081.563) scale(74.99988)"/><path d="m.239-.09.005-.266.189-.191H.7l-.25.262-.113.091-.098.104ZM.05 0v-.742h.226V0H.05Zm.395 0-.15-.19.139-.171L.718 0H.445Z" style="fill-rule:nonzero" transform="translate(1809.276 2081.563) scale(74.99988)"/><path d="M.234 0 .01-.7h.243l.181.591H.312L.504-.7h.217L.9-.109H.783L.972-.7h.224L.972 0H.719L.573-.484h.068L.487 0H.234Z" style="fill-rule:nonzero" transform="translate(1862.75 2081.563) scale(74.99988)"/><path d="M.415.01a.207.207 0 0 1-.118-.031.175.175 0 0 1-.068-.093.472.472 0 0 1-.022-.159c0-.066.007-.12.02-.161a.169.169 0 0 1 .067-.093.22.22 0 0 1 .121-.03.26.26 0 0 1 .228.133.299.299 0 0 1 .036.151.305.305 0 0 1-.036.152.256.256 0 0 1-.228.131ZM.05.194v-.741h.215v.074l.001.2.01.2v.267H.05Zm.311-.36a.084.084 0 0 0 .045-.012.087.087 0 0 0 .032-.036.132.132 0 0 0 .012-.059.134.134 0 0 0-.012-.06.087.087 0 0 0-.032-.036.084.084 0 0 0-.045-.012.084.084 0 0 0-.045.012.087.087 0 0 0-.032.036.134.134 0 0 0-.012.06c0 .023.004.043.012.059a.087.087 0 0 0 .032.036.084.084 0 0 0 .045.012Z" style="fill-rule:nonzero" transform="translate(1950.576 2081.563) scale(74.99988)"/><path d="M.057 0v-.7h.374c.097 0 .168.017.214.052a.157.157 0 0 1 .069.131c0 .035-.01.067-.029.095a.207.207 0 0 1-.086.065.348.348 0 0 1-.138.024l.02-.054c.055 0 .102.008.142.023.039.015.07.037.092.067a.17.17 0 0 1 .032.104.16.16 0 0 1-.076.142.39.39 0 0 1-.22.051H.057Zm.232-.165h.142a.101.101 0 0 0 .058-.014c.014-.009.02-.023.02-.041 0-.018-.006-.032-.02-.041a.101.101 0 0 0-.058-.014H.273v-.156h.126c.027 0 .046-.004.058-.013a.044.044 0 0 0 .019-.039.044.044 0 0 0-.019-.039C.445-.531.426-.535.399-.535h-.11v.37Z" style="fill-rule:nonzero" transform="translate(2025.586 2081.563) scale(74.99988)"/><path d="M.237 0v-.307l.054.141L-.027-.7h.249l.215.365H.292L.509-.7h.228l-.316.534.052-.141V0H.237Z" style="fill-rule:nonzero" transform="translate(2082.42 2081.563) scale(74.99988)"/><path d="M.057 0v-.7h.345c.078 0 .147.014.206.043a.326.326 0 0 1 .139.12.34.34 0 0 1 .05.186.347.347 0 0 1-.05.188.335.335 0 0 1-.139.121A.477.477 0 0 1 .402 0H.057Zm.236-.184h.099A.19.19 0 0 0 .48-.203a.142.142 0 0 0 .058-.056.187.187 0 0 0 .021-.092.181.181 0 0 0-.021-.09.136.136 0 0 0-.058-.056.19.19 0 0 0-.088-.019H.293v.332Z" style="fill-rule:nonzero" transform="translate(2135.67 2081.563) scale(74.99988)"/><path d="M.511-.7h.236V0H.511v-.7ZM.293 0H.057v-.7h.236V0Zm.234-.258h-.25v-.194h.25v.194Z" style="fill-rule:nonzero" transform="translate(2220.127 2081.563) scale(74.99988)"/><path d="m.277 0-.296-.7h.254l.241.591H.325L.573-.7h.232L.509 0H.277Z" style="fill-rule:nonzero" transform="translate(2280.419 2081.563) scale(74.99988)"/><path d="M.318.016a.732.732 0 0 1-.17-.02.476.476 0 0 1-.135-.052l.076-.172a.516.516 0 0 0 .231.064c.023 0 .04-.001.053-.004a.066.066 0 0 0 .029-.013.029.029 0 0 0 .009-.021c0-.013-.007-.023-.021-.03A.253.253 0 0 0 .335-.25L.259-.266a.943.943 0 0 1-.083-.023.327.327 0 0 1-.075-.037.17.17 0 0 1-.056-.06.192.192 0 0 1-.021-.094.2.2 0 0 1 .037-.118.24.24 0 0 1 .109-.086.45.45 0 0 1 .18-.032.66.66 0 0 1 .14.015c.046.01.087.025.124.046l-.071.171a.604.604 0 0 0-.1-.039.356.356 0 0 0-.095-.013.191.191 0 0 0-.054.006c-.013.004-.023.009-.028.016a.033.033 0 0 0-.009.022c0 .012.007.021.021.028a.205.205 0 0 0 .056.018l.076.015a.623.623 0 0 1 .082.022.335.335 0 0 1 .076.037.167.167 0 0 1 .055.06.184.184 0 0 1 .021.092.202.202 0 0 1-.036.117.251.251 0 0 1-.109.086.434.434 0 0 1-.181.033Z" style="fill-rule:nonzero" transform="translate(2338.252 2081.563) scale(74.99988)"/><path d="M.318.016a.732.732 0 0 1-.17-.02.476.476 0 0 1-.135-.052l.076-.172a.516.516 0 0 0 .231.064c.023 0 .04-.001.053-.004a.066.066 0 0 0 .029-.013.029.029 0 0 0 .009-.021c0-.013-.007-.023-.021-.03A.253.253 0 0 0 .335-.25L.259-.266a.943.943 0 0 1-.083-.023.327.327 0 0 1-.075-.037.17.17 0 0 1-.056-.06.192.192 0 0 1-.021-.094.2.2 0 0 1 .037-.118.24.24 0 0 1 .109-.086.45.45 0 0 1 .18-.032.66.66 0 0 1 .14.015c.046.01.087.025.124.046l-.071.171a.604.604 0 0 0-.1-.039.356.356 0 0 0-.095-.013.191.191 0 0 0-.054.006c-.013.004-.023.009-.028.016a.033.033 0 0 0-.009.022c0 .012.007.021.021.028a.205.205 0 0 0 .056.018l.076.015a.623.623 0 0 1 .082.022.335.335 0 0 1 .076.037.167.167 0 0 1 .055.06.184.184 0 0 1 .021.092.202.202 0 0 1-.036.117.251.251 0 0 1-.109.086.434.434 0 0 1-.181.033Z" style="fill-rule:nonzero" transform="translate(1885.572 2146.563) scale(54.16658)"/><path d="M.415.01a.207.207 0 0 1-.118-.031.175.175 0 0 1-.068-.093.472.472 0 0 1-.022-.159c0-.066.007-.12.02-.161a.169.169 0 0 1 .067-.093.22.22 0 0 1 .121-.03.26.26 0 0 1 .228.133.299.299 0 0 1 .036.151.305.305 0 0 1-.036.152.256.256 0 0 1-.228.131ZM.05.194v-.741h.215v.074l.001.2.01.2v.267H.05Zm.311-.36a.084.084 0 0 0 .045-.012.087.087 0 0 0 .032-.036.132.132 0 0 0 .012-.059.134.134 0 0 0-.012-.06.087.087 0 0 0-.032-.036.084.084 0 0 0-.045-.012.084.084 0 0 0-.045.012.087.087 0 0 0-.032.036.134.134 0 0 0-.012.06c0 .023.004.043.012.059a.087.087 0 0 0 .032.036.084.084 0 0 0 .045.012Z" style="fill-rule:nonzero" transform="translate(1921.159 2146.563) scale(54.16658)"/><path d="M.352.01a.378.378 0 0 1-.174-.037.282.282 0 0 1-.116-.102.264.264 0 0 1-.041-.145.271.271 0 0 1 .152-.247.34.34 0 0 1 .158-.036c.054 0 .104.011.15.032a.266.266 0 0 1 .11.095.283.283 0 0 1 .041.156l-.001.027-.002.026H.208V-.33h.301l-.085.029a.124.124 0 0 0-.011-.054.094.094 0 0 0-.032-.036.09.09 0 0 0-.048-.012.082.082 0 0 0-.048.013.078.078 0 0 0-.032.035.124.124 0 0 0-.011.054v.034c0 .023.005.043.014.06a.092.092 0 0 0 .04.038.148.148 0 0 0 .063.012.167.167 0 0 0 .063-.01.28.28 0 0 0 .051-.03l.118.119a.257.257 0 0 1-.098.066.417.417 0 0 1-.141.022Z" style="fill-rule:nonzero" transform="translate(1959.076 2146.563) scale(54.16658)"/><path d="M.05 0v-.547h.226V0H.05Zm.113-.591a.144.144 0 0 1-.099-.033.104.104 0 0 1-.037-.082c0-.033.012-.06.037-.082a.144.144 0 0 1 .099-.033c.041 0 .074.01.099.031a.099.099 0 0 1 .037.08.107.107 0 0 1-.037.085.14.14 0 0 1-.099.034Z" style="fill-rule:nonzero" transform="translate(1994.44 2146.563) scale(54.16658)"/><path d="M.344.01a.373.373 0 0 1-.167-.036.269.269 0 0 1-.156-.248c0-.055.014-.104.041-.147a.28.28 0 0 1 .115-.1.373.373 0 0 1 .167-.036.32.32 0 0 1 .171.043c.047.029.08.068.098.119l-.175.086a.128.128 0 0 0-.041-.055.098.098 0 0 0-.054-.017.09.09 0 0 0-.08.047.121.121 0 0 0-.013.06c0 .024.004.044.013.06a.083.083 0 0 0 .033.036.093.093 0 0 0 .1-.005.122.122 0 0 0 .042-.055l.175.086a.225.225 0 0 1-.098.119.32.32 0 0 1-.171.043Z" style="fill-rule:nonzero" transform="translate(2012.107 2146.563) scale(54.16658)"/><path d="M.43-.557a.24.24 0 0 1 .114.026.187.187 0 0 1 .081.079.3.3 0 0 1 .029.14V0H.428v-.273c0-.034-.006-.058-.018-.073a.06.06 0 0 0-.049-.021.092.092 0 0 0-.043.011.074.074 0 0 0-.031.034.165.165 0 0 0-.011.065V0H.05v-.742h.226v.355L.222-.433A.222.222 0 0 1 .43-.557Z" style="fill-rule:nonzero" transform="translate(2045.42 2146.563) scale(54.16658)"/><path d="M.352.01a.378.378 0 0 1-.174-.037.282.282 0 0 1-.116-.102.264.264 0 0 1-.041-.145.271.271 0 0 1 .152-.247.34.34 0 0 1 .158-.036c.054 0 .104.011.15.032a.266.266 0 0 1 .11.095.283.283 0 0 1 .041.156l-.001.027-.002.026H.208V-.33h.301l-.085.029a.124.124 0 0 0-.011-.054.094.094 0 0 0-.032-.036.09.09 0 0 0-.048-.012.082.082 0 0 0-.048.013.078.078 0 0 0-.032.035.124.124 0 0 0-.011.054v.034c0 .023.005.043.014.06a.092.092 0 0 0 .04.038.148.148 0 0 0 .063.012.167.167 0 0 0 .063-.01.28.28 0 0 0 .051-.03l.118.119a.257.257 0 0 1-.098.066.417.417 0 0 1-.141.022Z" style="fill-rule:nonzero" transform="translate(2083.982 2146.563) scale(54.16658)"/><path d="M.05 0v-.547h.215v.165L.23-.429a.182.182 0 0 1 .08-.096.263.263 0 0 1 .132-.032v.2A.66.66 0 0 1 .416-.36L.392-.361a.124.124 0 0 0-.083.027c-.022.017-.033.048-.033.091V0H.05Z" style="fill-rule:nonzero" transform="translate(2119.357 2146.563) scale(54.16658)"/><path d="M657.614 1390.73h91.943s17.365.729 27.458 14.411c11.685 15.837 10.641 37.576 10.641 37.576v279.842s.804 42.213-38.099 76.825c-36.829 32.768-89.425 32.32-89.425 32.32" style="fill:#4eb848;stroke:#000;stroke-width:11.92px"/><path d="M664.276 1390.73h-91.943s-17.364.729-27.458 14.411c-11.685 15.837-10.64 37.576-10.64 37.576v279.842s-.804 42.213 38.098 76.825c36.83 32.768 89.425 32.32 89.425 32.32" style="fill:#4eb848;stroke:#000;stroke-width:11.92px"/><ellipse cx="739.081" cy="1598.56" rx="16.242" ry="16.204" style="fill:#fff;stroke:#000;stroke-width:11.92px"/><ellipse cx="661.937" cy="1704.98" rx="91.942" ry="91.954" style="fill:#fff;stroke:#000;stroke-width:11.92px"/><path d="M582.15 1477.12h91.943s17.365.729 27.459 14.411c11.684 15.837 10.64 37.576 10.64 37.576v279.842s.804 42.213-38.099 76.825c-36.829 32.768-89.425 32.32-89.425 32.32" style="fill:#4eb848;stroke:#000;stroke-width:11.92px"/><path d="M588.812 1477.12h-91.943s-17.364.729-27.458 14.411c-11.685 15.837-10.64 37.576-10.64 37.576v279.842s-.804 42.213 38.098 76.825c36.83 32.768 89.426 32.32 89.426 32.32" style="fill:#4eb848;stroke:#000;stroke-width:11.92px"/><ellipse cx="663.617" cy="1684.95" rx="16.242" ry="16.204" style="fill:#fff;stroke:#000;stroke-width:11.92px"/><ellipse cx="586.473" cy="1791.37" rx="91.942" ry="91.954" style="fill:#fff;stroke:#000;stroke-width:11.92px"/><path d="M.328.204A.668.668 0 0 1 .176.187.365.365 0 0 1 .054.136L.13-.018a.333.333 0 0 0 .175.054c.047 0 .08-.01.1-.03.02-.019.03-.047.03-.084v-.046l.01-.17.001-.17v-.083h.215v.438c0 .106-.029.185-.088.236a.361.361 0 0 1-.245.077ZM.284-.03a.263.263 0 0 1-.226-.124.254.254 0 0 1-.037-.14.254.254 0 0 1 .263-.263c.047 0 .086.009.116.028a.165.165 0 0 1 .068.086.422.422 0 0 1 .022.149c0 .06-.007.109-.022.148A.168.168 0 0 1 .4-.059a.214.214 0 0 1-.116.029Zm.06-.176a.106.106 0 0 0 .048-.011.082.082 0 0 0 .033-.031.088.088 0 0 0 .012-.046.089.089 0 0 0-.012-.047.08.08 0 0 0-.033-.03.106.106 0 0 0-.048-.01.112.112 0 0 0-.048.01.09.09 0 0 0-.034.03.089.089 0 0 0-.012.047.08.08 0 0 0 .013.046.082.082 0 0 0 .033.031.113.113 0 0 0 .048.011Z" style="fill-rule:nonzero" transform="translate(151.243 2074.817) scale(74.99988)"/><path d="M.339.01a.352.352 0 0 1-.165-.037.271.271 0 0 1-.153-.247.271.271 0 0 1 .154-.247.357.357 0 0 1 .164-.036c.062 0 .117.012.165.036a.275.275 0 0 1 .113.1.27.27 0 0 1 .04.147.27.27 0 0 1-.153.248.364.364 0 0 1-.165.036Zm0-.176a.084.084 0 0 0 .045-.012.087.087 0 0 0 .032-.036.14.14 0 0 0 .012-.06.126.126 0 0 0-.012-.059.087.087 0 0 0-.032-.036.084.084 0 0 0-.045-.012.084.084 0 0 0-.077.047.134.134 0 0 0-.012.06c0 .023.004.043.012.059a.084.084 0 0 0 .032.037.084.084 0 0 0 .045.012Z" style="fill-rule:nonzero" transform="translate(204.568 2074.817) scale(74.99988)"/><path style="fill-rule:nonzero" d="M.045-.374h.3v.17h-.3z" transform="translate(256.168 2074.817) scale(74.99988)"/><path d="M.352.01a.378.378 0 0 1-.174-.037.282.282 0 0 1-.116-.102.264.264 0 0 1-.041-.145.271.271 0 0 1 .152-.247.34.34 0 0 1 .158-.036c.054 0 .104.011.15.032a.266.266 0 0 1 .11.095.283.283 0 0 1 .041.156l-.001.027-.002.026H.208V-.33h.301l-.085.029a.124.124 0 0 0-.011-.054.094.094 0 0 0-.032-.036.09.09 0 0 0-.048-.012.082.082 0 0 0-.048.013.078.078 0 0 0-.032.035.124.124 0 0 0-.011.054v.034c0 .023.005.043.014.06a.092.092 0 0 0 .04.038.148.148 0 0 0 .063.012.167.167 0 0 0 .063-.01.28.28 0 0 0 .051-.03l.118.119a.257.257 0 0 1-.098.066.417.417 0 0 1-.141.022Z" style="fill-rule:nonzero" transform="translate(286.168 2074.817) scale(74.99988)"/><path d="M.419.016a.431.431 0 0 1-.28-.102.338.338 0 0 1-.081-.116.376.376 0 0 1-.029-.148c0-.054.01-.103.029-.148A.364.364 0 0 1 .264-.69a.454.454 0 0 1 .155-.026.44.44 0 0 1 .183.036.35.35 0 0 1 .131.104l-.149.133a.247.247 0 0 0-.069-.061.169.169 0 0 0-.084-.021.178.178 0 0 0-.067.012.154.154 0 0 0-.052.035.168.168 0 0 0-.033.055.21.21 0 0 0-.012.073c0 .027.004.051.012.072a.163.163 0 0 0 .033.056.154.154 0 0 0 .052.035c.02.008.042.012.067.012a.16.16 0 0 0 .084-.022.24.24 0 0 0 .069-.06l.149.133a.343.343 0 0 1-.132.103.417.417 0 0 1-.182.037Z" style="fill-rule:nonzero" transform="translate(335.142 2074.817) scale(74.99988)"/><path d="M.43-.557a.24.24 0 0 1 .114.026.187.187 0 0 1 .081.079.3.3 0 0 1 .029.14V0H.428v-.273c0-.034-.006-.058-.018-.073a.06.06 0 0 0-.049-.021.092.092 0 0 0-.043.011.074.074 0 0 0-.031.034.165.165 0 0 0-.011.065V0H.05v-.742h.226v.355L.222-.433A.222.222 0 0 1 .43-.557Z" style="fill-rule:nonzero" transform="translate(390.942 2074.817) scale(74.99988)"/><path d="M.381 0v-.097L.365-.123v-.184c0-.027-.008-.047-.024-.061C.324-.382.298-.389.261-.389a.245.245 0 0 0-.075.012.206.206 0 0 0-.065.031L.049-.495a.39.39 0 0 1 .115-.046.546.546 0 0 1 .131-.016.34.34 0 0 1 .219.063c.051.042.077.109.077.2V0h-.21ZM.226.01a.248.248 0 0 1-.112-.023.162.162 0 0 1-.068-.061A.17.17 0 0 1 .05-.25a.166.166 0 0 1 .083-.056.426.426 0 0 1 .14-.019h.114v.109H.309c-.024 0-.041.004-.052.012C.246-.197.24-.185.24-.17a.04.04 0 0 0 .015.032c.009.008.022.012.039.012.015 0 .03-.004.043-.012a.075.075 0 0 0 .028-.04l.029.067a.144.144 0 0 1-.055.091.191.191 0 0 1-.113.03Z" style="fill-rule:nonzero" transform="translate(443.592 2074.817) scale(74.99988)"/><path d="M.05 0v-.547h.215v.165L.23-.429a.182.182 0 0 1 .08-.096.263.263 0 0 1 .132-.032v.2A.66.66 0 0 1 .416-.36L.392-.361a.124.124 0 0 0-.083.027c-.022.017-.033.048-.033.091V0H.05Z" style="fill-rule:nonzero" transform="translate(491.517 2074.817) scale(74.99988)"/><path d="M.328.204A.668.668 0 0 1 .176.187.365.365 0 0 1 .054.136L.13-.018a.333.333 0 0 0 .175.054c.047 0 .08-.01.1-.03.02-.019.03-.047.03-.084v-.046l.01-.17.001-.17v-.083h.215v.438c0 .106-.029.185-.088.236a.361.361 0 0 1-.245.077ZM.284-.03a.263.263 0 0 1-.226-.124.254.254 0 0 1-.037-.14.254.254 0 0 1 .263-.263c.047 0 .086.009.116.028a.165.165 0 0 1 .068.086.422.422 0 0 1 .022.149c0 .06-.007.109-.022.148A.168.168 0 0 1 .4-.059a.214.214 0 0 1-.116.029Zm.06-.176a.106.106 0 0 0 .048-.011.082.082 0 0 0 .033-.031.088.088 0 0 0 .012-.046.089.089 0 0 0-.012-.047.08.08 0 0 0-.033-.03.106.106 0 0 0-.048-.01.112.112 0 0 0-.048.01.09.09 0 0 0-.034.03.089.089 0 0 0-.012.047.08.08 0 0 0 .013.046.082.082 0 0 0 .033.031.113.113 0 0 0 .048.011Z" style="fill-rule:nonzero" transform="translate(525.342 2074.817) scale(74.99988)"/><path d="M.352.01a.378.378 0 0 1-.174-.037.282.282 0 0 1-.116-.102.264.264 0 0 1-.041-.145.271.271 0 0 1 .152-.247.34.34 0 0 1 .158-.036c.054 0 .104.011.15.032a.266.266 0 0 1 .11.095.283.283 0 0 1 .041.156l-.001.027-.002.026H.208V-.33h.301l-.085.029a.124.124 0 0 0-.011-.054.094.094 0 0 0-.032-.036.09.09 0 0 0-.048-.012.082.082 0 0 0-.048.013.078.078 0 0 0-.032.035.124.124 0 0 0-.011.054v.034c0 .023.005.043.014.06a.092.092 0 0 0 .04.038.148.148 0 0 0 .063.012.167.167 0 0 0 .063-.01.28.28 0 0 0 .051-.03l.118.119a.257.257 0 0 1-.098.066.417.417 0 0 1-.141.022Z" style="fill-rule:nonzero" transform="translate(578.665 2074.817) scale(74.99988)"/><path d="M.05 0v-.547h.215v.165L.23-.429a.182.182 0 0 1 .08-.096.263.263 0 0 1 .132-.032v.2A.66.66 0 0 1 .416-.36L.392-.361a.124.124 0 0 0-.083.027c-.022.017-.033.048-.033.091V0H.05Z" style="fill-rule:nonzero" transform="translate(627.644 2074.817) scale(74.99988)"/><path d="M.511-.7h.236V0H.511v-.7ZM.293 0H.057v-.7h.236V0Zm.234-.258h-.25v-.194h.25v.194Z" style="fill-rule:nonzero" transform="translate(684.352 2074.817) scale(74.99988)"/><path d="M.425.016a.448.448 0 0 1-.158-.027.357.357 0 0 1-.209-.193.374.374 0 0 1 0-.293.368.368 0 0 1 .209-.192.442.442 0 0 1 .157-.027c.057 0 .11.009.158.027a.35.35 0 0 1 .237.339.353.353 0 0 1-.112.262.37.37 0 0 1-.125.077.442.442 0 0 1-.157.027ZM.424-.175a.154.154 0 0 0 .061-.012.137.137 0 0 0 .05-.035.146.146 0 0 0 .034-.055.207.207 0 0 0 .012-.073.207.207 0 0 0-.012-.073.146.146 0 0 0-.034-.055.126.126 0 0 0-.05-.035.16.16 0 0 0-.123 0 .153.153 0 0 0-.05.034.168.168 0 0 0-.033.055.217.217 0 0 0-.012.074c0 .027.004.052.012.073.008.022.019.04.033.055a.156.156 0 0 0 .05.035.16.16 0 0 0 .062.012Z" style="fill-rule:nonzero" transform="translate(744.644 2074.817) scale(74.99988)"/><path d="M.057 0v-.7h.194l.28.457H.429L.701-.7h.194l.002.7H.682L.68-.376h.034l-.186.313H.424L.23-.376h.042V0H.057Z" style="fill-rule:nonzero" transform="translate(808.248 2074.817) scale(74.99988)"/><path d="M.273-.44h.312v.17H.273v-.17Zm.016.262h.35V0H.057v-.7h.569v.178H.289v.344Z" style="fill-rule:nonzero" transform="translate(879.79 2074.817) scale(74.99988)"/><path d="M.075 0v-.52c0-.071.021-.127.064-.169.042-.042.102-.063.18-.063.024 0 .048.002.073.006a.23.23 0 0 1 .061.021l-.054.157a.311.311 0 0 0-.024-.009.084.084 0 0 0-.027-.004.053.053 0 0 0-.039.015c-.01.01-.015.026-.015.048v.026l.007.093V0H.075ZM0-.352v-.165h.413v.165H0ZM.501 0v-.547h.226V0H.501Zm.113-.591a.144.144 0 0 1-.099-.033.104.104 0 0 1-.037-.082c0-.033.012-.06.037-.082a.144.144 0 0 1 .099-.033c.041 0 .074.01.099.031a.099.099 0 0 1 .037.08.107.107 0 0 1-.037.085.14.14 0 0 1-.099.034Z" style="fill-rule:nonzero" transform="translate(930.269 2074.817) scale(74.99988)"/><path d="m-.009 0 .258-.338-.006.13-.246-.339h.255l.121.181-.094.007.133-.188h.237l-.247.328v-.125L.654 0H.395L.27-.193l.095.013L.236 0h-.245Z" style="fill-rule:nonzero" transform="translate(988.54 2074.817) scale(74.99988)"/><path d="M.028 0v-.145l.253-.234a.225.225 0 0 0 .035-.04.102.102 0 0 0 .016-.031.077.077 0 0 0 .004-.025.05.05 0 0 0-.017-.04C.308-.525.291-.53.268-.53a.106.106 0 0 0-.059.017.114.114 0 0 0-.044.048l-.178-.089a.29.29 0 0 1 .114-.117.367.367 0 0 1 .189-.045c.055 0 .104.009.147.027a.228.228 0 0 1 .1.076.19.19 0 0 1 .036.116.265.265 0 0 1-.009.068.212.212 0 0 1-.034.072.506.506 0 0 1-.077.083l-.19.173-.037-.082h.363V0H.028Z" style="fill-rule:nonzero" transform="translate(340.634 2139.817) scale(54.16658)"/><path d="m-.009 0 .258-.338-.006.13-.246-.339h.255l.121.181-.094.007.133-.188h.237l-.247.328v-.125L.654 0H.395L.27-.193l.095.013L.236 0h-.245Z" style="fill-rule:nonzero" transform="translate(373.567 2139.817) scale(54.16658)"/><path d="M.125 0v-.618l.101.096H.005V-.7h.356V0H.125Z" style="fill-rule:nonzero" transform="translate(424.755 2139.817) scale(54.16658)"/><path d="M.125 0v-.618l.101.096H.005V-.7h.356V0H.125Z" style="fill-rule:nonzero" transform="translate(447.396 2139.817) scale(54.16658)"/><path d="m.239-.09.005-.266.189-.191H.7l-.25.262-.113.091-.098.104ZM.05 0v-.742h.226V0H.05Zm.395 0-.15-.19.139-.171L.718 0H.445Z" style="fill-rule:nonzero" transform="translate(486.288 2139.817) scale(54.16658)"/><path d="M.234 0 .01-.7h.243l.181.591H.312L.504-.7h.217L.9-.109H.783L.972-.7h.224L.972 0H.719L.573-.484h.068L.487 0H.234Z" style="fill-rule:nonzero" transform="translate(524.909 2139.817) scale(54.16658)"/><path d="M.234 0 .01-.7h.243l.181.591H.312L.504-.7h.217L.9-.109H.783L.972-.7h.224L.972 0H.719L.573-.484h.068L.487 0H.234Z" style="fill-rule:nonzero" transform="translate(606.477 2139.817) scale(54.16658)"/><path d="M.381 0v-.097L.365-.123v-.184c0-.027-.008-.047-.024-.061C.324-.382.298-.389.261-.389a.245.245 0 0 0-.075.012.206.206 0 0 0-.065.031L.049-.495a.39.39 0 0 1 .115-.046.546.546 0 0 1 .131-.016.34.34 0 0 1 .219.063c.051.042.077.109.077.2V0h-.21ZM.226.01a.248.248 0 0 1-.112-.023.162.162 0 0 1-.068-.061A.17.17 0 0 1 .05-.25a.166.166 0 0 1 .083-.056.426.426 0 0 1 .14-.019h.114v.109H.309c-.024 0-.041.004-.052.012C.246-.197.24-.185.24-.17a.04.04 0 0 0 .015.032c.009.008.022.012.039.012.015 0 .03-.004.043-.012a.075.075 0 0 0 .028-.04l.029.067a.144.144 0 0 1-.055.091.191.191 0 0 1-.113.03Z" style="fill-rule:nonzero" transform="translate(668.832 2139.817) scale(54.16658)"/><path style="fill-rule:nonzero" d="M.05-.742h.226V0H.05z" transform="translate(703.436 2139.817) scale(54.16658)"/><path style="fill-rule:nonzero" d="M.05-.742h.226V0H.05z" transform="translate(721.102 2139.817) scale(54.16658)"/><path d="M.415.01a.22.22 0 0 1-.121-.03.169.169 0 0 1-.067-.093.555.555 0 0 1-.02-.161c0-.065.007-.118.022-.159a.175.175 0 0 1 .068-.093.207.207 0 0 1 .118-.031.251.251 0 0 1 .228.132.299.299 0 0 1 .036.151.305.305 0 0 1-.036.152.258.258 0 0 1-.228.132ZM.05 0v-.742h.226v.268l-.01.2-.001.2V0H.05Zm.311-.166a.084.084 0 0 0 .045-.012.084.084 0 0 0 .032-.037.132.132 0 0 0 .012-.059.126.126 0 0 0-.012-.059.087.087 0 0 0-.032-.036.084.084 0 0 0-.045-.012.084.084 0 0 0-.077.047.134.134 0 0 0-.012.06c0 .023.004.043.012.059a.084.084 0 0 0 .032.037.084.084 0 0 0 .045.012Z" style="fill-rule:nonzero" transform="translate(738.769 2139.817) scale(54.16658)"/><path d="M.339.01a.352.352 0 0 1-.165-.037.271.271 0 0 1-.153-.247.271.271 0 0 1 .154-.247.357.357 0 0 1 .164-.036c.062 0 .117.012.165.036a.275.275 0 0 1 .113.1.27.27 0 0 1 .04.147.27.27 0 0 1-.153.248.364.364 0 0 1-.165.036Zm0-.176a.084.084 0 0 0 .045-.012.087.087 0 0 0 .032-.036.14.14 0 0 0 .012-.06.126.126 0 0 0-.012-.059.087.087 0 0 0-.032-.036.084.084 0 0 0-.045-.012.084.084 0 0 0-.077.047.134.134 0 0 0-.012.06c0 .023.004.043.012.059a.084.084 0 0 0 .032.037.084.084 0 0 0 .045.012Z" style="fill-rule:nonzero" transform="translate(776.686 2139.817) scale(54.16658)"/><path d="m-.009 0 .258-.338-.006.13-.246-.339h.255l.121.181-.094.007.133-.188h.237l-.247.328v-.125L.654 0H.395L.27-.193l.095.013L.236 0h-.245Z" style="fill-rule:nonzero" transform="translate(812.581 2139.817) scale(54.16658)"/><path d="m2138.47 869.221 22.411-17.967 75.979-9.802h79.141l77.103 9.802 16.197 103.438v183.64l-24.182 116.215-50.731 10.899h-69.758l-103.749-10.899-29.597-75.007V982.895l7.186-113.674Z" style="fill:#4eb848"/><path d="M2313.76 959.345c0-11.824-9.6-21.424-21.424-21.424h-42.848c-11.824 0-21.424 9.6-21.424 21.424v121.523c0 11.825 9.6 21.424 21.424 21.424h42.848c11.824 0 21.424-9.599 21.424-21.424V959.345ZM2385.53 1255.77c1.386-43.477 9.528-403.015 9.528-403.015s10.237 6.807 15.936 13.092c7.343 8.096 12.786 16.675 12.786 16.675s-3.628 175.004-5.008 208.635-4.653 129.496-4.653 129.496-5.778 11.216-10.574 17.006c-4.796 5.79-18.015 18.111-18.015 18.111" style="fill:#fff;stroke:#000;stroke-width:11.52px"/><path d="M2395.06 852.756s-33.35-5.668-63.437-8.587c-30.087-2.919-60.663-2.357-60.663-2.357h1.208s-30.577-.562-60.664 2.357c-30.087 2.919-63.437 8.587-63.437 8.587M2385.44 1255.94s-31.989 5.005-56.26 6.957c-18.712 1.506-57.924 2.589-57.924 2.589h.615s-39.211-1.083-57.923-2.589c-7.681-.617-16.135-1.541-24.103-2.515-17.211-2.104-32.158-4.442-32.158-4.442" style="fill:none;stroke:#000;stroke-width:11.52px"/><path d="M2157.59 1255.77c-1.386-43.477-9.529-403.015-9.529-403.015s-10.236 6.807-15.936 13.092c-7.342 8.096-12.786 16.675-12.786 16.675s3.628 175.004 5.008 208.635 4.654 129.496 4.654 129.496 5.777 11.216 10.573 17.006c4.796 5.79 18.016 18.111 18.016 18.111" style="fill:#fff;stroke:#000;stroke-width:11.52px"/><path d="M.268-.15.255-.409.519-.7h.257L.48-.374.349-.24l-.081.09ZM.057 0v-.7h.232V0H.057Zm.46 0L.311-.272l.153-.162L.79 0H.517Z" style="fill-rule:nonzero" transform="translate(1834.496 1382.673) scale(74.99988)"/><path d="M.339.01a.352.352 0 0 1-.165-.037.271.271 0 0 1-.153-.247.271.271 0 0 1 .154-.247.357.357 0 0 1 .164-.036c.062 0 .117.012.165.036a.275.275 0 0 1 .113.1.27.27 0 0 1 .04.147.27.27 0 0 1-.153.248.364.364 0 0 1-.165.036Zm0-.176a.084.084 0 0 0 .045-.012.087.087 0 0 0 .032-.036.14.14 0 0 0 .012-.06.126.126 0 0 0-.012-.059.087.087 0 0 0-.032-.036.084.084 0 0 0-.045-.012.084.084 0 0 0-.077.047.134.134 0 0 0-.012.06c0 .023.004.043.012.059a.084.084 0 0 0 .032.037.084.084 0 0 0 .045.012Z" style="fill-rule:nonzero" transform="translate(1890.371 1382.673) scale(74.99988)"/><path d="M.264.01a.634.634 0 0 1-.138-.015.4.4 0 0 1-.11-.039l.062-.149a.387.387 0 0 0 .191.049.135.135 0 0 0 .055-.007c.01-.005.015-.011.015-.019S.333-.184.322-.188a.288.288 0 0 0-.045-.008L.215-.204a.564.564 0 0 1-.067-.013.216.216 0 0 1-.062-.027.13.13 0 0 1-.045-.048.167.167 0 0 1-.017-.078c0-.035.01-.066.031-.094a.219.219 0 0 1 .094-.067.415.415 0 0 1 .155-.026c.04 0 .08.004.12.011.04.007.074.019.103.034l-.062.149a.347.347 0 0 0-.158-.04.145.145 0 0 0-.058.008C.238-.39.233-.384.233-.377c0 .008.006.014.017.018a.197.197 0 0 0 .045.009l.062.008a.421.421 0 0 1 .067.014.223.223 0 0 1 .061.027.125.125 0 0 1 .045.049.16.16 0 0 1 .017.077c0 .033-.01.063-.031.092a.214.214 0 0 1-.094.068.426.426 0 0 1-.158.025Z" style="fill-rule:nonzero" transform="translate(1941.221 1382.673) scale(74.99988)"/><path d="M.314.01a.258.258 0 0 1-.176-.055C.096-.081.075-.137.075-.212V-.67h.226v.456c0 .017.004.03.013.039a.048.048 0 0 0 .034.014.09.09 0 0 0 .051-.015l.054.157A.202.202 0 0 1 .39.003.37.37 0 0 1 .314.01ZM0-.352v-.165h.413v.165H0Z" style="fill-rule:nonzero" transform="translate(1983.596 1382.673) scale(74.99988)"/><path d="M.381 0v-.097L.365-.123v-.184c0-.027-.008-.047-.024-.061C.324-.382.298-.389.261-.389a.245.245 0 0 0-.075.012.206.206 0 0 0-.065.031L.049-.495a.39.39 0 0 1 .115-.046.546.546 0 0 1 .131-.016.34.34 0 0 1 .219.063c.051.042.077.109.077.2V0h-.21ZM.226.01a.248.248 0 0 1-.112-.023.162.162 0 0 1-.068-.061A.17.17 0 0 1 .05-.25a.166.166 0 0 1 .083-.056.426.426 0 0 1 .14-.019h.114v.109H.309c-.024 0-.041.004-.052.012C.246-.197.24-.185.24-.17a.04.04 0 0 0 .015.032c.009.008.022.012.039.012.015 0 .03-.004.043-.012a.075.075 0 0 0 .028-.04l.029.067a.144.144 0 0 1-.055.091.191.191 0 0 1-.113.03Z" style="fill-rule:nonzero" transform="translate(2018.096 1382.673) scale(74.99988)"/><path style="fill-rule:nonzero" d="M.05-.742h.226V0H.05z" transform="translate(2066.02 1382.673) scale(74.99988)"/><path d="M.057 0v-.7h.337c.065 0 .122.011.169.032a.247.247 0 0 1 .111.092.247.247 0 0 1 .039.14.247.247 0 0 1-.039.14.26.26 0 0 1-.111.092.414.414 0 0 1-.169.032H.188l.105-.101V0H.057Zm.236-.247L.188-.354h.191c.033 0 .057-.007.073-.022a.081.081 0 0 0 .023-.06.078.078 0 0 0-.024-.06C.436-.511.412-.518.379-.518H.188l.105-.107v.378Z" style="fill-rule:nonzero" transform="translate(2112.97 1382.673) scale(74.99988)"/><path style="fill-rule:nonzero" d="M.05-.742h.226V0H.05z" transform="translate(2168.696 1382.673) scale(74.99988)"/><path d="M.352.01a.378.378 0 0 1-.174-.037.282.282 0 0 1-.116-.102.264.264 0 0 1-.041-.145.271.271 0 0 1 .152-.247.34.34 0 0 1 .158-.036c.054 0 .104.011.15.032a.266.266 0 0 1 .11.095.283.283 0 0 1 .041.156l-.001.027-.002.026H.208V-.33h.301l-.085.029a.124.124 0 0 0-.011-.054.094.094 0 0 0-.032-.036.09.09 0 0 0-.048-.012.082.082 0 0 0-.048.013.078.078 0 0 0-.032.035.124.124 0 0 0-.011.054v.034c0 .023.005.043.014.06a.092.092 0 0 0 .04.038.148.148 0 0 0 .063.012.167.167 0 0 0 .063-.01.28.28 0 0 0 .051-.03l.118.119a.257.257 0 0 1-.098.066.417.417 0 0 1-.141.022Z" style="fill-rule:nonzero" transform="translate(2193.146 1382.673) scale(74.99988)"/><path d="M.43-.557a.24.24 0 0 1 .114.026.187.187 0 0 1 .081.079.3.3 0 0 1 .029.14V0H.428v-.273c0-.034-.006-.058-.018-.073a.06.06 0 0 0-.049-.021.092.092 0 0 0-.043.011.074.074 0 0 0-.031.034.165.165 0 0 0-.011.065V0H.05v-.547h.215v.16L.222-.433A.222.222 0 0 1 .43-.557Z" style="fill-rule:nonzero" transform="translate(2242.12 1382.673) scale(74.99988)"/><path d="M.314.01a.258.258 0 0 1-.176-.055C.096-.081.075-.137.075-.212V-.67h.226v.456c0 .017.004.03.013.039a.048.048 0 0 0 .034.014.09.09 0 0 0 .051-.015l.054.157A.202.202 0 0 1 .39.003.37.37 0 0 1 .314.01ZM0-.352v-.165h.413v.165H0Z" style="fill-rule:nonzero" transform="translate(2294.773 1382.673) scale(74.99988)"/><path d="M.05 0v-.547h.226V0H.05Zm.113-.591a.144.144 0 0 1-.099-.033.104.104 0 0 1-.037-.082c0-.033.012-.06.037-.082a.144.144 0 0 1 .099-.033c.041 0 .074.01.099.031a.099.099 0 0 1 .037.08.107.107 0 0 1-.037.085.14.14 0 0 1-.099.034Z" style="fill-rule:nonzero" transform="translate(2329.273 1382.673) scale(74.99988)"/><path d="M.344.01a.373.373 0 0 1-.167-.036.269.269 0 0 1-.156-.248c0-.055.014-.104.041-.147a.28.28 0 0 1 .115-.1.373.373 0 0 1 .167-.036.32.32 0 0 1 .171.043c.047.029.08.068.098.119l-.175.086a.128.128 0 0 0-.041-.055.098.098 0 0 0-.054-.017.09.09 0 0 0-.08.047.121.121 0 0 0-.013.06c0 .024.004.044.013.06a.083.083 0 0 0 .033.036.093.093 0 0 0 .1-.005.122.122 0 0 0 .042-.055l.175.086a.225.225 0 0 1-.098.119.32.32 0 0 1-.171.043Z" style="fill-rule:nonzero" transform="translate(2353.73 1382.673) scale(74.99988)"/><path d="M.339.01a.352.352 0 0 1-.165-.037.271.271 0 0 1-.153-.247.271.271 0 0 1 .154-.247.357.357 0 0 1 .164-.036c.062 0 .117.012.165.036a.275.275 0 0 1 .113.1.27.27 0 0 1 .04.147.27.27 0 0 1-.153.248.364.364 0 0 1-.165.036Zm0-.176a.084.084 0 0 0 .045-.012.087.087 0 0 0 .032-.036.14.14 0 0 0 .012-.06.126.126 0 0 0-.012-.059.087.087 0 0 0-.032-.036.084.084 0 0 0-.045-.012.084.084 0 0 0-.077.047.134.134 0 0 0-.012.06c0 .023.004.043.012.059a.084.084 0 0 0 .032.037.084.084 0 0 0 .045.012Z" style="fill-rule:nonzero" transform="translate(2399.48 1382.673) scale(74.99988)"/><path d="M.05 0v-.547h.215v.165L.23-.429a.182.182 0 0 1 .08-.096.263.263 0 0 1 .132-.032v.2A.66.66 0 0 1 .416-.36L.392-.361a.124.124 0 0 0-.083.027c-.022.017-.033.048-.033.091V0H.05Z" style="fill-rule:nonzero" transform="translate(2450.314 1382.673) scale(74.99988)"/><path d="M.352.01a.378.378 0 0 1-.174-.037.282.282 0 0 1-.116-.102.264.264 0 0 1-.041-.145.271.271 0 0 1 .152-.247.34.34 0 0 1 .158-.036c.054 0 .104.011.15.032a.266.266 0 0 1 .11.095.283.283 0 0 1 .041.156l-.001.027-.002.026H.208V-.33h.301l-.085.029a.124.124 0 0 0-.011-.054.094.094 0 0 0-.032-.036.09.09 0 0 0-.048-.012.082.082 0 0 0-.048.013.078.078 0 0 0-.032.035.124.124 0 0 0-.011.054v.034c0 .023.005.043.014.06a.092.092 0 0 0 .04.038.148.148 0 0 0 .063.012.167.167 0 0 0 .063-.01.28.28 0 0 0 .051-.03l.118.119a.257.257 0 0 1-.098.066.417.417 0 0 1-.141.022Z" style="fill-rule:nonzero" transform="translate(2484.147 1382.673) scale(74.99988)"/><path d="M.415.01a.207.207 0 0 1-.118-.031.175.175 0 0 1-.068-.093.472.472 0 0 1-.022-.159c0-.066.007-.12.02-.161a.169.169 0 0 1 .067-.093.22.22 0 0 1 .121-.03.26.26 0 0 1 .228.133.299.299 0 0 1 .036.151.305.305 0 0 1-.036.152.256.256 0 0 1-.228.131ZM.05.194v-.741h.215v.074l.001.2.01.2v.267H.05Zm.311-.36a.084.084 0 0 0 .045-.012.087.087 0 0 0 .032-.036.132.132 0 0 0 .012-.059.134.134 0 0 0-.012-.06.087.087 0 0 0-.032-.036.084.084 0 0 0-.045-.012.084.084 0 0 0-.045.012.087.087 0 0 0-.032.036.134.134 0 0 0-.012.06c0 .023.004.043.012.059a.087.087 0 0 0 .032.036.084.084 0 0 0 .045.012Z" style="fill-rule:nonzero" transform="translate(2555.626 1382.673) scale(74.99988)"/><path style="fill-rule:nonzero" d="M.05-.742h.226V0H.05z" transform="translate(2608.126 1382.673) scale(74.99988)"/><path d="M.278.01A.256.256 0 0 1 .16-.017.183.183 0 0 1 .078-.1a.306.306 0 0 1-.03-.145v-.302h.226v.263c0 .039.006.066.019.081s.03.023.052.023a.07.07 0 0 0 .037-.011.069.069 0 0 0 .029-.035.16.16 0 0 0 .011-.064v-.257h.226V0H.433v-.158l.043.043a.192.192 0 0 1-.083.094.22.22 0 0 1-.115.031Z" style="fill-rule:nonzero" transform="translate(2632.564 1382.673) scale(74.99988)"/><path d="M.264.01a.634.634 0 0 1-.138-.015.4.4 0 0 1-.11-.039l.062-.149a.387.387 0 0 0 .191.049.135.135 0 0 0 .055-.007c.01-.005.015-.011.015-.019S.333-.184.322-.188a.288.288 0 0 0-.045-.008L.215-.204a.564.564 0 0 1-.067-.013.216.216 0 0 1-.062-.027.13.13 0 0 1-.045-.048.167.167 0 0 1-.017-.078c0-.035.01-.066.031-.094a.219.219 0 0 1 .094-.067.415.415 0 0 1 .155-.026c.04 0 .08.004.12.011.04.007.074.019.103.034l-.062.149a.347.347 0 0 0-.158-.04.145.145 0 0 0-.058.008C.238-.39.233-.384.233-.377c0 .008.006.014.017.018a.197.197 0 0 0 .045.009l.062.008a.421.421 0 0 1 .067.014.223.223 0 0 1 .061.027.125.125 0 0 1 .045.049.16.16 0 0 1 .017.077c0 .033-.01.063-.031.092a.214.214 0 0 1-.094.068.426.426 0 0 1-.158.025Z" style="fill-rule:nonzero" transform="translate(2684.918 1382.673) scale(74.99988)"/><path d="M.234 0 .01-.7h.243l.181.591H.312L.504-.7h.217L.9-.109H.783L.972-.7h.224L.972 0H.719L.573-.484h.068L.487 0H.234Z" style="fill-rule:nonzero" transform="translate(2055.617 1447.673) scale(54.16658)"/><path d="M.352.01a.378.378 0 0 1-.174-.037.282.282 0 0 1-.116-.102.264.264 0 0 1-.041-.145.271.271 0 0 1 .152-.247.34.34 0 0 1 .158-.036c.054 0 .104.011.15.032a.266.266 0 0 1 .11.095.283.283 0 0 1 .041.156l-.001.027-.002.026H.208V-.33h.301l-.085.029a.124.124 0 0 0-.011-.054.094.094 0 0 0-.032-.036.09.09 0 0 0-.048-.012.082.082 0 0 0-.048.013.078.078 0 0 0-.032.035.124.124 0 0 0-.011.054v.034c0 .023.005.043.014.06a.092.092 0 0 0 .04.038.148.148 0 0 0 .063.012.167.167 0 0 0 .063-.01.28.28 0 0 0 .051-.03l.118.119a.257.257 0 0 1-.098.066.417.417 0 0 1-.141.022Z" style="fill-rule:nonzero" transform="translate(2117.962 1447.673) scale(54.16658)"/><path d="M.344.01a.373.373 0 0 1-.167-.036.269.269 0 0 1-.156-.248c0-.055.014-.104.041-.147a.28.28 0 0 1 .115-.1.373.373 0 0 1 .167-.036.32.32 0 0 1 .171.043c.047.029.08.068.098.119l-.175.086a.128.128 0 0 0-.041-.055.098.098 0 0 0-.054-.017.09.09 0 0 0-.08.047.121.121 0 0 0-.013.06c0 .024.004.044.013.06a.083.083 0 0 0 .033.036.093.093 0 0 0 .1-.005.122.122 0 0 0 .042-.055l.175.086a.225.225 0 0 1-.098.119.32.32 0 0 1-.171.043Z" style="fill-rule:nonzero" transform="translate(2153.333 1447.673) scale(54.16658)"/><path d="M.43-.557a.24.24 0 0 1 .114.026.187.187 0 0 1 .081.079.3.3 0 0 1 .029.14V0H.428v-.273c0-.034-.006-.058-.018-.073a.06.06 0 0 0-.049-.021.092.092 0 0 0-.043.011.074.074 0 0 0-.031.034.165.165 0 0 0-.011.065V0H.05v-.742h.226v.355L.222-.433A.222.222 0 0 1 .43-.557Z" style="fill-rule:nonzero" transform="translate(2186.646 1447.673) scale(54.16658)"/><path d="M.264.01a.634.634 0 0 1-.138-.015.4.4 0 0 1-.11-.039l.062-.149a.387.387 0 0 0 .191.049.135.135 0 0 0 .055-.007c.01-.005.015-.011.015-.019S.333-.184.322-.188a.288.288 0 0 0-.045-.008L.215-.204a.564.564 0 0 1-.067-.013.216.216 0 0 1-.062-.027.13.13 0 0 1-.045-.048.167.167 0 0 1-.017-.078c0-.035.01-.066.031-.094a.219.219 0 0 1 .094-.067.415.415 0 0 1 .155-.026c.04 0 .08.004.12.011.04.007.074.019.103.034l-.062.149a.347.347 0 0 0-.158-.04.145.145 0 0 0-.058.008C.238-.39.233-.384.233-.377c0 .008.006.014.017.018a.197.197 0 0 0 .045.009l.062.008a.421.421 0 0 1 .067.014.223.223 0 0 1 .061.027.125.125 0 0 1 .045.049.16.16 0 0 1 .017.077c0 .033-.01.063-.031.092a.214.214 0 0 1-.094.068.426.426 0 0 1-.158.025Z" style="fill-rule:nonzero" transform="translate(2224.67 1447.673) scale(54.16658)"/><path d="M.352.01a.378.378 0 0 1-.174-.037.282.282 0 0 1-.116-.102.264.264 0 0 1-.041-.145.271.271 0 0 1 .152-.247.34.34 0 0 1 .158-.036c.054 0 .104.011.15.032a.266.266 0 0 1 .11.095.283.283 0 0 1 .041.156l-.001.027-.002.026H.208V-.33h.301l-.085.029a.124.124 0 0 0-.011-.054.094.094 0 0 0-.032-.036.09.09 0 0 0-.048-.012.082.082 0 0 0-.048.013.078.078 0 0 0-.032.035.124.124 0 0 0-.011.054v.034c0 .023.005.043.014.06a.092.092 0 0 0 .04.038.148.148 0 0 0 .063.012.167.167 0 0 0 .063-.01.28.28 0 0 0 .051-.03l.118.119a.257.257 0 0 1-.098.066.417.417 0 0 1-.141.022Z" style="fill-rule:nonzero" transform="translate(2255.275 1447.673) scale(54.16658)"/><path style="fill-rule:nonzero" d="M.05-.742h.226V0H.05z" transform="translate(2290.648 1447.673) scale(54.16658)"/><path d="M.05 0v-.547h.215v.165L.23-.429a.182.182 0 0 1 .08-.096.263.263 0 0 1 .132-.032v.2A.66.66 0 0 1 .416-.36L.392-.361a.124.124 0 0 0-.083.027c-.022.017-.033.048-.033.091V0H.05Z" style="fill-rule:nonzero" transform="translate(2308.314 1447.673) scale(54.16658)"/><path d="M.05 0v-.547h.226V0H.05Zm.113-.591a.144.144 0 0 1-.099-.033.104.104 0 0 1-.037-.082c0-.033.012-.06.037-.082a.144.144 0 0 1 .099-.033c.041 0 .074.01.099.031a.099.099 0 0 1 .037.08.107.107 0 0 1-.037.085.14.14 0 0 1-.099.034Z" style="fill-rule:nonzero" transform="translate(2333.002 1447.673) scale(54.16658)"/><path d="M.344.01a.373.373 0 0 1-.167-.036.269.269 0 0 1-.156-.248c0-.055.014-.104.041-.147a.28.28 0 0 1 .115-.1.373.373 0 0 1 .167-.036.32.32 0 0 1 .171.043c.047.029.08.068.098.119l-.175.086a.128.128 0 0 0-.041-.055.098.098 0 0 0-.054-.017.09.09 0 0 0-.08.047.121.121 0 0 0-.013.06c0 .024.004.044.013.06a.083.083 0 0 0 .033.036.093.093 0 0 0 .1-.005.122.122 0 0 0 .042-.055l.175.086a.225.225 0 0 1-.098.119.32.32 0 0 1-.171.043Z" style="fill-rule:nonzero" transform="translate(2350.668 1447.673) scale(54.16658)"/><path d="M.43-.557a.24.24 0 0 1 .114.026.187.187 0 0 1 .081.079.3.3 0 0 1 .029.14V0H.428v-.273c0-.034-.006-.058-.018-.073a.06.06 0 0 0-.049-.021.092.092 0 0 0-.043.011.074.074 0 0 0-.031.034.165.165 0 0 0-.011.065V0H.05v-.742h.226v.355L.222-.433A.222.222 0 0 1 .43-.557Z" style="fill-rule:nonzero" transform="translate(2383.98 1447.673) scale(54.16658)"/><path d="M.314.01a.258.258 0 0 1-.176-.055C.096-.081.075-.137.075-.212V-.67h.226v.456c0 .017.004.03.013.039a.048.048 0 0 0 .034.014.09.09 0 0 0 .051-.015l.054.157A.202.202 0 0 1 .39.003.37.37 0 0 1 .314.01ZM0-.352v-.165h.413v.165H0Z" style="fill-rule:nonzero" transform="translate(2422.002 1447.673) scale(54.16658)"/><path d="M.352.01a.378.378 0 0 1-.174-.037.282.282 0 0 1-.116-.102.264.264 0 0 1-.041-.145.271.271 0 0 1 .152-.247.34.34 0 0 1 .158-.036c.054 0 .104.011.15.032a.266.266 0 0 1 .11.095.283.283 0 0 1 .041.156l-.001.027-.002.026H.208V-.33h.301l-.085.029a.124.124 0 0 0-.011-.054.094.094 0 0 0-.032-.036.09.09 0 0 0-.048-.012.082.082 0 0 0-.048.013.078.078 0 0 0-.032.035.124.124 0 0 0-.011.054v.034c0 .023.005.043.014.06a.092.092 0 0 0 .04.038.148.148 0 0 0 .063.012.167.167 0 0 0 .063-.01.28.28 0 0 0 .051-.03l.118.119a.257.257 0 0 1-.098.066.417.417 0 0 1-.141.022Z" style="fill-rule:nonzero" transform="translate(2446.106 1447.673) scale(54.16658)"/><path d="M.05 0v-.547h.215v.165L.23-.429a.182.182 0 0 1 .08-.096.263.263 0 0 1 .132-.032v.2A.66.66 0 0 1 .416-.36L.392-.361a.124.124 0 0 0-.083.027c-.022.017-.033.048-.033.091V0H.05Z" style="fill-rule:nonzero" transform="translate(2481.48 1447.673) scale(54.16658)"/><path d="M2373.52 421.217h-729.167l34.986-274.651h659.195l34.986 274.651Z" style="fill:#fff;stroke:#000;stroke-width:12.87px"/><path d="M2340.45 394.946h-662.411l25.704-222.768h611.004l25.703 222.768Z" style="fill:#4eb848;stroke:#000;stroke-width:12.87px"/><path d="M2271.95 394.946h-529.001l20.527-222.768h487.948l20.526 222.768Z" style="fill:#4eb848;stroke:#000;stroke-width:12.87px"/><path d="M2206.09 394.946h-396.821l15.397-222.768h366.026l15.398 222.768Z" style="fill:none;stroke:#000;stroke-width:12.87px"/><path d="M2140.73 394.946h-330.482l12.823-222.768h304.835l12.824 222.768Z" style="fill:#4eb848;stroke:#000;stroke-width:12.87px"/><path d="M2074.5 394.946h-198.558l7.704-222.768h183.149l7.705 222.768Z" style="fill:#4eb848;stroke:#000;stroke-width:12.87px"/><path d="M2008.84 394.946h-66.946l2.598-222.768h61.75l2.598 222.768Z" style="fill:#4eb848;stroke:#000;stroke-width:12.87px"/><path d="M1698.26 245.273h619.166M1691.12 320.626h637.431" style="fill:none;stroke:#000;stroke-width:12.87px"/><path d="M.125 0v-.618l.101.096H.005V-.7h.356V0H.125Z" style="fill-rule:nonzero" transform="translate(1769.245 536.531) scale(74.99988)"/><path d="M.125 0v-.618l.101.096H.005V-.7h.356V0H.125Z" style="fill-rule:nonzero" transform="translate(1800.595 536.531) scale(74.99988)"/><path d="m.035.16.084-.281.033.126a.137.137 0 0 1-.095-.033A.118.118 0 0 1 .02-.12a.12.12 0 0 1 .037-.093.136.136 0 0 1 .095-.035c.038 0 .069.012.094.035a.12.12 0 0 1 .038.093.173.173 0 0 1-.003.032.187.187 0 0 1-.01.039.572.572 0 0 1-.026.06L.175.16h-.14Z" style="fill-rule:nonzero" transform="translate(1831.945 536.531) scale(74.99988)"/><path d="M.028 0v-.145l.253-.234a.225.225 0 0 0 .035-.04.102.102 0 0 0 .016-.031.077.077 0 0 0 .004-.025.05.05 0 0 0-.017-.04C.308-.525.291-.53.268-.53a.106.106 0 0 0-.059.017.114.114 0 0 0-.044.048l-.178-.089a.29.29 0 0 1 .114-.117.367.367 0 0 1 .189-.045c.055 0 .104.009.147.027a.228.228 0 0 1 .1.076.19.19 0 0 1 .036.116.265.265 0 0 1-.009.068.212.212 0 0 1-.034.072.506.506 0 0 1-.077.083l-.19.173-.037-.082h.363V0H.028Z" style="fill-rule:nonzero" transform="translate(1855.495 536.531) scale(74.99988)"/><path d="m.239-.09.005-.266.189-.191H.7l-.25.262-.113.091-.098.104ZM.05 0v-.742h.226V0H.05Zm.395 0-.15-.19.139-.171L.718 0H.445Z" style="fill-rule:nonzero" transform="translate(1923.595 536.531) scale(74.99988)"/><path d="M.234 0 .01-.7h.243l.181.591H.312L.504-.7h.217L.9-.109H.783L.972-.7h.224L.972 0H.719L.573-.484h.068L.487 0H.234Z" style="fill-rule:nonzero" transform="translate(1977.07 536.531) scale(74.99988)"/><path d="M.415.01a.207.207 0 0 1-.118-.031.175.175 0 0 1-.068-.093.472.472 0 0 1-.022-.159c0-.066.007-.12.02-.161a.169.169 0 0 1 .067-.093.22.22 0 0 1 .121-.03.26.26 0 0 1 .228.133.299.299 0 0 1 .036.151.305.305 0 0 1-.036.152.256.256 0 0 1-.228.131ZM.05.194v-.741h.215v.074l.001.2.01.2v.267H.05Zm.311-.36a.084.084 0 0 0 .045-.012.087.087 0 0 0 .032-.036.132.132 0 0 0 .012-.059.134.134 0 0 0-.012-.06.087.087 0 0 0-.032-.036.084.084 0 0 0-.045-.012.084.084 0 0 0-.045.012.087.087 0 0 0-.032.036.134.134 0 0 0-.012.06c0 .023.004.043.012.059a.087.087 0 0 0 .032.036.084.084 0 0 0 .045.012Z" style="fill-rule:nonzero" transform="translate(2064.905 536.531) scale(74.99988)"/><path d="M.318.016a.732.732 0 0 1-.17-.02.476.476 0 0 1-.135-.052l.076-.172a.516.516 0 0 0 .231.064c.023 0 .04-.001.053-.004a.066.066 0 0 0 .029-.013.029.029 0 0 0 .009-.021c0-.013-.007-.023-.021-.03A.253.253 0 0 0 .335-.25L.259-.266a.943.943 0 0 1-.083-.023.327.327 0 0 1-.075-.037.17.17 0 0 1-.056-.06.192.192 0 0 1-.021-.094.2.2 0 0 1 .037-.118.24.24 0 0 1 .109-.086.45.45 0 0 1 .18-.032.66.66 0 0 1 .14.015c.046.01.087.025.124.046l-.071.171a.604.604 0 0 0-.1-.039.356.356 0 0 0-.095-.013.191.191 0 0 0-.054.006c-.013.004-.023.009-.028.016a.033.033 0 0 0-.009.022c0 .012.007.021.021.028a.205.205 0 0 0 .056.018l.076.015a.623.623 0 0 1 .082.022.335.335 0 0 1 .076.037.167.167 0 0 1 .055.06.184.184 0 0 1 .021.092.202.202 0 0 1-.036.117.251.251 0 0 1-.109.086.434.434 0 0 1-.181.033Z" style="fill-rule:nonzero" transform="translate(2139.905 536.531) scale(74.99988)"/><path d="M.278.01A.256.256 0 0 1 .16-.017.183.183 0 0 1 .078-.1a.306.306 0 0 1-.03-.145v-.302h.226v.263c0 .039.006.066.019.081s.03.023.052.023a.07.07 0 0 0 .037-.011.069.069 0 0 0 .029-.035.16.16 0 0 0 .011-.064v-.257h.226V0H.433v-.158l.043.043a.192.192 0 0 1-.083.094.22.22 0 0 1-.115.031Zm.181-.609a.09.09 0 0 1-.064-.024.084.084 0 0 1-.026-.064c0-.027.009-.048.026-.065a.09.09 0 0 1 .064-.024.09.09 0 0 1 .064.024.087.087 0 0 1 .026.065.084.084 0 0 1-.026.064.09.09 0 0 1-.064.024Zm-.222 0a.09.09 0 0 1-.064-.024.084.084 0 0 1-.026-.064c0-.027.009-.048.026-.065a.09.09 0 0 1 .064-.024.09.09 0 0 1 .064.024.087.087 0 0 1 .026.065.084.084 0 0 1-.026.064.09.09 0 0 1-.064.024Z" style="fill-rule:nonzero" transform="translate(2189.176 536.531) scale(74.99988)"/><path d="M.29.01a.26.26 0 0 1-.228-.133.299.299 0 0 1-.036-.151c0-.059.012-.109.036-.151A.259.259 0 0 1 .29-.557c.048 0 .087.01.118.031.031.02.053.051.068.093a.472.472 0 0 1 .022.159.555.555 0 0 1-.02.161.172.172 0 0 1-.066.093.22.22 0 0 1-.122.03Zm.054-.176a.084.084 0 0 0 .045-.012.087.087 0 0 0 .032-.036.14.14 0 0 0 .012-.06.126.126 0 0 0-.012-.059.087.087 0 0 0-.032-.036.084.084 0 0 0-.045-.012.084.084 0 0 0-.077.047.134.134 0 0 0-.012.06c0 .023.004.043.012.059a.084.084 0 0 0 .032.037.084.084 0 0 0 .045.012ZM.44 0v-.074l-.001-.2-.01-.2v-.268h.226V0H.44Z" style="fill-rule:nonzero" transform="translate(2241.53 536.531) scale(74.99988)"/><path d="M.057 0v-.7h.337c.065 0 .122.011.169.032a.247.247 0 0 1 .111.092.247.247 0 0 1 .039.14.247.247 0 0 1-.039.14.26.26 0 0 1-.111.092.414.414 0 0 1-.169.032H.188l.105-.101V0H.057Zm.236-.247L.188-.354h.191c.033 0 .057-.007.073-.022a.081.081 0 0 0 .023-.06.078.078 0 0 0-.024-.06C.436-.511.412-.518.379-.518H.188l.105-.107v.378Z" style="fill-rule:nonzero" transform="translate(1840.016 601.531) scale(54.16658)"/><path d="M.43-.557a.24.24 0 0 1 .114.026.187.187 0 0 1 .081.079.3.3 0 0 1 .029.14V0H.428v-.273c0-.034-.006-.058-.018-.073a.06.06 0 0 0-.049-.021.092.092 0 0 0-.043.011.074.074 0 0 0-.031.034.165.165 0 0 0-.011.065V0H.05v-.742h.226v.355L.222-.433A.222.222 0 0 1 .43-.557Z" style="fill-rule:nonzero" transform="translate(1880.262 601.531) scale(54.16658)"/><path d="M.339.01a.352.352 0 0 1-.165-.037.271.271 0 0 1-.153-.247.271.271 0 0 1 .154-.247.357.357 0 0 1 .164-.036c.062 0 .117.012.165.036a.275.275 0 0 1 .113.1.27.27 0 0 1 .04.147.27.27 0 0 1-.153.248.364.364 0 0 1-.165.036Zm0-.176a.084.084 0 0 0 .045-.012.087.087 0 0 0 .032-.036.14.14 0 0 0 .012-.06.126.126 0 0 0-.012-.059.087.087 0 0 0-.032-.036.084.084 0 0 0-.045-.012.084.084 0 0 0-.077.047.134.134 0 0 0-.012.06c0 .023.004.043.012.059a.084.084 0 0 0 .032.037.084.084 0 0 0 .045.012Z" style="fill-rule:nonzero" transform="translate(1918.828 601.531) scale(54.16658)"/><path d="M.314.01a.258.258 0 0 1-.176-.055C.096-.081.075-.137.075-.212V-.67h.226v.456c0 .017.004.03.013.039a.048.048 0 0 0 .034.014.09.09 0 0 0 .051-.015l.054.157A.202.202 0 0 1 .39.003.37.37 0 0 1 .314.01ZM0-.352v-.165h.413v.165H0Z" style="fill-rule:nonzero" transform="translate(1955.553 601.531) scale(54.16658)"/><path d="M.339.01a.352.352 0 0 1-.165-.037.271.271 0 0 1-.153-.247.271.271 0 0 1 .154-.247.357.357 0 0 1 .164-.036c.062 0 .117.012.165.036a.275.275 0 0 1 .113.1.27.27 0 0 1 .04.147.27.27 0 0 1-.153.248.364.364 0 0 1-.165.036Zm0-.176a.084.084 0 0 0 .045-.012.087.087 0 0 0 .032-.036.14.14 0 0 0 .012-.06.126.126 0 0 0-.012-.059.087.087 0 0 0-.032-.036.084.084 0 0 0-.045-.012.084.084 0 0 0-.077.047.134.134 0 0 0-.012.06c0 .023.004.043.012.059a.084.084 0 0 0 .032.037.084.084 0 0 0 .045.012Z" style="fill-rule:nonzero" transform="translate(1979.657 601.531) scale(54.16658)"/><path d="m.205 0-.22-.547h.232l.167.444H.267l.178-.444h.214L.439 0H.205Z" style="fill-rule:nonzero" transform="translate(2015.572 601.531) scale(54.16658)"/><path d="M.339.01a.352.352 0 0 1-.165-.037.271.271 0 0 1-.153-.247.271.271 0 0 1 .154-.247.357.357 0 0 1 .164-.036c.062 0 .117.012.165.036a.275.275 0 0 1 .113.1.27.27 0 0 1 .04.147.27.27 0 0 1-.153.248.364.364 0 0 1-.165.036Zm0-.176a.084.084 0 0 0 .045-.012.087.087 0 0 0 .032-.036.14.14 0 0 0 .012-.06.126.126 0 0 0-.012-.059.087.087 0 0 0-.032-.036.084.084 0 0 0-.045-.012.084.084 0 0 0-.077.047.134.134 0 0 0-.012.06c0 .023.004.043.012.059a.084.084 0 0 0 .032.037.084.084 0 0 0 .045.012Z" style="fill-rule:nonzero" transform="translate(2049.634 601.531) scale(54.16658)"/><path style="fill-rule:nonzero" d="M.05-.742h.226V0H.05z" transform="translate(2086.363 601.531) scale(54.16658)"/><path d="M.314.01a.258.258 0 0 1-.176-.055C.096-.081.075-.137.075-.212V-.67h.226v.456c0 .017.004.03.013.039a.048.048 0 0 0 .034.014.09.09 0 0 0 .051-.015l.054.157A.202.202 0 0 1 .39.003.37.37 0 0 1 .314.01ZM0-.352v-.165h.413v.165H0Z" style="fill-rule:nonzero" transform="translate(2107.822 601.531) scale(54.16658)"/><path d="M.381 0v-.097L.365-.123v-.184c0-.027-.008-.047-.024-.061C.324-.382.298-.389.261-.389a.245.245 0 0 0-.075.012.206.206 0 0 0-.065.031L.049-.495a.39.39 0 0 1 .115-.046.546.546 0 0 1 .131-.016.34.34 0 0 1 .219.063c.051.042.077.109.077.2V0h-.21ZM.226.01a.248.248 0 0 1-.112-.023.162.162 0 0 1-.068-.061A.17.17 0 0 1 .05-.25a.166.166 0 0 1 .083-.056.426.426 0 0 1 .14-.019h.114v.109H.309c-.024 0-.041.004-.052.012C.246-.197.24-.185.24-.17a.04.04 0 0 0 .015.032c.009.008.022.012.039.012.015 0 .03-.004.043-.012a.075.075 0 0 0 .028-.04l.029.067a.144.144 0 0 1-.055.091.191.191 0 0 1-.113.03Z" style="fill-rule:nonzero" transform="translate(2132.738 601.531) scale(54.16658)"/><path d="M.05 0v-.547h.226V0H.05Zm.113-.591a.144.144 0 0 1-.099-.033.104.104 0 0 1-.037-.082c0-.033.012-.06.037-.082a.144.144 0 0 1 .099-.033c.041 0 .074.01.099.031a.099.099 0 0 1 .037.08.107.107 0 0 1-.037.085.14.14 0 0 1-.099.034Z" style="fill-rule:nonzero" transform="translate(2167.342 601.531) scale(54.16658)"/><path d="m.239-.09.005-.266.189-.191H.7l-.25.262-.113.091-.098.104ZM.05 0v-.742h.226V0H.05Zm.395 0-.15-.19.139-.171L.718 0H.445Z" style="fill-rule:nonzero" transform="translate(2185.01 601.531) scale(54.16658)"/><path d="M1605.23 907.439c0-10.282-8.348-18.63-18.631-18.63h-422.095c-10.283 0-18.631 8.348-18.631 18.63v260.346c0 10.283 8.348 18.631 18.631 18.631h422.095c10.283 0 18.631-8.348 18.631-18.631V907.439Z" style="fill:#4eb848;stroke:#231f20;stroke-width:12.5px;stroke-linecap:square"/><path d="m1353.32 1020.15-14.267 28.5h14.267l-26.748 49.875 5.348-35.624h-17.83l17.833-42.751h21.397ZM1400.45 1033.69c3.905 3.68 5.89 8.574 5.954 14.688h-12.955c-.066-2.689-.894-4.873-2.488-6.556-1.594-1.679-3.699-2.519-6.311-2.519-3.22 0-5.65 1.17-7.289 3.515-1.642 2.345-2.464 6.146-2.464 11.41v1.431c0 5.327.814 9.154 2.438 11.481 1.626 2.33 4.095 3.492 7.41 3.492 2.552 0 4.622-.698 6.216-2.1 1.594-1.402 2.422-3.264 2.488-5.589h12.955c-.035 3.502-.989 6.709-2.869 9.625-1.882 2.91-4.455 5.173-7.722 6.779-3.266 1.609-6.874 2.412-10.827 2.412-7.395 0-13.227-2.346-17.5-7.044-4.272-4.696-6.403-11.183-6.403-19.463v-.905c0-7.958 2.115-14.313 6.356-19.056 4.238-4.743 10.057-7.118 17.449-7.118 6.472 0 11.66 1.841 15.562 5.517ZM1451.51 1033.69c3.902 3.68 5.887 8.574 5.954 14.688h-12.961c-.06-2.689-.891-4.873-2.482-6.556-1.597-1.679-3.702-2.519-6.314-2.519-3.22 0-5.65 1.17-7.289 3.515-1.642 2.345-2.461 6.146-2.461 11.41v1.431c0 5.327.811 9.154 2.437 11.481 1.626 2.33 4.093 3.492 7.408 3.492 2.552 0 4.622-.698 6.219-2.1 1.591-1.402 2.422-3.264 2.482-5.589h12.961c-.035 3.502-.989 6.709-2.872 9.625-1.879 2.91-4.455 5.173-7.72 6.779-3.27 1.609-6.879 2.412-10.829 2.412-7.395 0-13.227-2.346-17.497-7.044-4.272-4.696-6.406-11.183-6.406-19.463v-.905c0-7.958 2.118-14.313 6.356-19.056 4.241-4.743 10.057-7.118 17.452-7.118 6.469 0 11.657 1.841 15.562 5.517ZM1293.96 1029.13h14.438l-17.452 51.673h-13.192l-17.453-51.673h14.439l9.61 34.815 9.61-34.815ZM1217.97 1074.79c-4.764-4.649-7.146-10.842-7.146-18.58v-1.337c0-5.19 1.002-9.83 3.011-13.921 2.007-4.091 4.852-7.242 8.535-9.458 3.68-2.211 7.878-3.32 12.595-3.32 7.077 0 12.648 2.232 16.712 6.687 4.063 4.459 6.094 10.781 6.094 18.961v5.636h-32.94c.444 3.375 1.792 6.083 4.04 8.119 2.247 2.039 5.092 3.056 8.534 3.056 5.322 0 9.481-1.926 12.476-5.779l6.79 7.596c-2.073 2.926-4.875 5.213-8.413 6.853-3.537 1.638-7.461 2.457-11.76 2.457-7.588 0-13.764-2.325-18.528-6.97Zm6.861-25.644h21.953s-1.265-9.9-11.819-9.968c-10.555-.068-10.134 9.968-10.134 9.968Z"/><path style="fill:#fff;stroke:#231f20;stroke-width:12.5px;stroke-linecap:square" d="M1178.71 888.962h276.828v33.641H1178.71zM1494.37 910.409h130.11v84.788h-130.11zM1513.9 1022.11h109.965v68.746H1513.9zM1513.9 1117.91h109.965v68.746H1513.9zM1182.42 1159.51h40.505v36.967h-40.505zM1267.39 1154.16h32.211v46.425h-32.211zM1341.16 1154.16h32.211v46.425h-32.211zM1413.42 1125.74h35.772v77.018h-35.772z"/><path d="M1068.85 1323.54v-52.5h25.275c4.9 0 9.138.8 12.713 2.4 3.575 1.6 6.337 3.887 8.287 6.862 1.95 2.975 2.925 6.488 2.925 10.538s-.975 7.537-2.925 10.462c-1.95 2.925-4.712 5.163-8.287 6.713-3.575 1.55-7.813 2.325-12.713 2.325h-15.45l7.875-7.275v20.475h-17.7Zm31.425 0-12.9-19.125h18.75l13.05 19.125h-18.9Zm-13.725-18.525-7.875-8.025H1093c2.45 0 4.263-.55 5.438-1.65 1.175-1.1 1.762-2.6 1.762-4.5s-.587-3.4-1.762-4.5-2.988-1.65-5.438-1.65h-14.325l7.875-8.025v28.35ZM1148.65 1323.54v-7.275l-1.2-1.95v-13.8c0-2-.612-3.525-1.837-4.575-1.225-1.05-3.213-1.575-5.963-1.575-1.85 0-3.725.287-5.625.862s-3.525 1.363-4.875 2.363l-5.4-11.175c2.4-1.5 5.275-2.65 8.625-3.45 3.35-.8 6.625-1.2 9.825-1.2 7.05 0 12.513 1.575 16.388 4.725 3.875 3.15 5.812 8.15 5.812 15v22.05h-15.75Zm-11.625.75c-3.35 0-6.15-.575-8.4-1.725-2.25-1.15-3.95-2.688-5.1-4.613-1.15-1.925-1.725-4.062-1.725-6.412 0-2.65.675-4.9 2.025-6.75 1.35-1.85 3.413-3.25 6.188-4.2 2.775-.95 6.287-1.425 10.537-1.425h8.55v8.175h-5.85c-1.8 0-3.112.287-3.937.862-.825.575-1.238 1.438-1.238 2.588 0 .95.363 1.737 1.088 2.362.725.625 1.712.938 2.962.938 1.15 0 2.213-.313 3.188-.938.975-.625 1.687-1.612 2.137-2.962l2.175 5.025c-.65 3.05-2.025 5.325-4.125 6.825s-4.925 2.25-8.475 2.25ZM1187.8 1324.29c-3.5 0-6.95-.375-10.35-1.125-3.4-.75-6.15-1.725-8.25-2.925l4.65-11.175c1.95 1.15 4.213 2.05 6.788 2.7 2.575.65 5.087.975 7.537.975 2.05 0 3.438-.175 4.163-.525.725-.35 1.087-.825 1.087-1.425 0-.6-.425-1.038-1.275-1.313-.85-.275-1.975-.487-3.375-.637-1.4-.15-2.937-.338-4.612-.563a41.226 41.226 0 0 1-5.063-1.012c-1.7-.45-3.25-1.125-4.65-2.025-1.4-.9-2.525-2.113-3.375-3.638-.85-1.525-1.275-3.462-1.275-5.812 0-2.6.788-4.95 2.363-7.05 1.575-2.1 3.925-3.788 7.05-5.063s6.987-1.912 11.587-1.912c3 0 6 .275 9 .825 3 .55 5.575 1.4 7.725 2.55l-4.65 11.175c-2.1-1.15-4.162-1.938-6.187-2.363-2.025-.425-3.913-.637-5.663-.637-2.15 0-3.612.2-4.387.6-.775.4-1.163.85-1.163 1.35 0 .6.425 1.05 1.275 1.35.85.3 1.975.525 3.375.675 1.4.15 2.938.337 4.613.562a35.94 35.94 0 0 1 5.025 1.05 17.1 17.1 0 0 1 4.612 2.063c1.4.9 2.525 2.112 3.375 3.637.85 1.525 1.275 3.463 1.275 5.813 0 2.45-.775 4.737-2.325 6.862-1.55 2.125-3.9 3.825-7.05 5.1-3.15 1.275-7.1 1.913-11.85 1.913ZM1241.5 1324.29c-3.55 0-6.487-.763-8.812-2.288-2.325-1.525-4.038-3.85-5.138-6.975-1.1-3.125-1.65-7.112-1.65-11.962 0-4.95.513-8.988 1.538-12.113s2.687-5.437 4.987-6.937c2.3-1.5 5.325-2.25 9.075-2.25 3.6 0 6.9.862 9.9 2.587s5.4 4.175 7.2 7.35c1.8 3.175 2.7 6.963 2.7 11.363 0 4.4-.9 8.187-2.7 11.362-1.8 3.175-4.2 5.613-7.2 7.313-3 1.7-6.3 2.55-9.9 2.55Zm-27.375 13.8v-55.575h16.125v5.55l.075 15 .75 15v20.025h-16.95Zm23.325-27c1.25 0 2.375-.3 3.375-.9 1-.6 1.8-1.5 2.4-2.7.6-1.2.9-2.675.9-4.425 0-1.8-.3-3.3-.9-4.5-.6-1.2-1.4-2.1-2.4-2.7-1-.6-2.125-.9-3.375-.9s-2.375.3-3.375.9c-1 .6-1.8 1.5-2.4 2.7-.6 1.2-.9 2.7-.9 4.5 0 1.75.3 3.225.9 4.425.6 1.2 1.4 2.1 2.4 2.7 1 .6 2.125.9 3.375.9ZM1294 1324.29c-3.75 0-6.775-.75-9.075-2.25-2.3-1.5-3.962-3.825-4.987-6.975-1.025-3.15-1.538-7.175-1.538-12.075 0-4.85.55-8.838 1.65-11.963 1.1-3.125 2.813-5.45 5.138-6.975 2.325-1.525 5.262-2.287 8.812-2.287 3.6 0 6.9.85 9.9 2.55 3 1.7 5.4 4.137 7.2 7.312 1.8 3.175 2.7 6.963 2.7 11.363 0 4.4-.9 8.187-2.7 11.362-1.8 3.175-4.2 5.625-7.2 7.35-3 1.725-6.3 2.588-9.9 2.588Zm-27.375-.75v-55.65h16.95v20.1l-.75 15-.075 15v5.55h-16.125Zm23.325-12.45c1.25 0 2.375-.3 3.375-.9 1-.6 1.8-1.513 2.4-2.738.6-1.225.9-2.712.9-4.462 0-1.8-.3-3.288-.9-4.463-.6-1.175-1.4-2.062-2.4-2.662-1-.6-2.125-.9-3.375-.9s-2.375.3-3.375.9c-1 .6-1.8 1.487-2.4 2.662-.6 1.175-.9 2.663-.9 4.463 0 1.75.3 3.237.9 4.462.6 1.225 1.4 2.138 2.4 2.738 1 .6 2.125.9 3.375.9ZM1341.77 1324.29c-5 0-9.362-.925-13.087-2.775-3.725-1.85-6.613-4.388-8.663-7.613-2.05-3.225-3.075-6.862-3.075-10.912 0-4.15 1.013-7.825 3.038-11.025s4.8-5.7 8.325-7.5c3.525-1.8 7.487-2.7 11.887-2.7 4.05 0 7.788.8 11.213 2.4 3.425 1.6 6.175 3.975 8.25 7.125s3.112 7.05 3.112 11.7c0 .6-.025 1.262-.075 1.987-.05.725-.1 1.388-.15 1.988h-31.575v-8.175h22.575l-6.375 2.175c0-1.6-.287-2.963-.862-4.088s-1.363-2-2.363-2.625-2.2-.937-3.6-.937-2.612.312-3.637.937-1.813 1.5-2.363 2.625-.825 2.488-.825 4.088v2.55c0 1.75.35 3.25 1.05 4.5.7 1.25 1.7 2.187 3 2.812s2.875.938 4.725.938c1.9 0 3.463-.25 4.688-.75 1.225-.5 2.512-1.25 3.862-2.25l8.85 8.925c-2 2.15-4.462 3.787-7.387 4.912s-6.438 1.688-10.538 1.688ZM1368.1 1323.54v-41.025h16.125v12.375l-2.625-3.525c1.25-3.2 3.25-5.6 6-7.2 2.75-1.6 6.05-2.4 9.9-2.4v15c-.75-.1-1.412-.175-1.987-.225a20.352 20.352 0 0 0-1.763-.075c-2.55 0-4.637.662-6.262 1.987-1.625 1.325-2.438 3.613-2.438 6.863v18.225h-16.95ZM1402.3 1323.54v-41.025h16.125v12.375l-2.625-3.525c1.25-3.2 3.25-5.6 6-7.2 2.75-1.6 6.05-2.4 9.9-2.4v15c-.75-.1-1.412-.175-1.987-.225a20.352 20.352 0 0 0-1.763-.075c-2.55 0-4.637.662-6.262 1.987-1.625 1.325-2.438 3.613-2.438 6.863v18.225h-16.95ZM1446.62 1338.84c-2.25 0-4.537-.338-6.862-1.013-2.325-.675-4.188-1.562-5.588-2.662l5.625-11.625c.85.65 1.813 1.175 2.888 1.575 1.075.4 2.112.6 3.112.6 1.5 0 2.65-.313 3.45-.938.8-.625 1.45-1.562 1.95-2.812l1.725-4.35 1.2-1.65 13.125-33.45h16.05l-16.875 41.85c-1.5 3.75-3.237 6.675-5.212 8.775-1.975 2.1-4.175 3.575-6.6 4.425-2.425.85-5.088 1.275-7.988 1.275Zm3.975-13.425-17.85-42.9h17.4l12.3 31.95-11.85 10.95ZM1508.95 1323.54v-52.5h25.275c4.9 0 9.138.8 12.713 2.4 3.575 1.6 6.337 3.887 8.287 6.862 1.95 2.975 2.925 6.488 2.925 10.538s-.975 7.55-2.925 10.5c-1.95 2.95-4.712 5.237-8.287 6.862-3.575 1.625-7.813 2.438-12.713 2.438h-15.45l7.875-7.575v20.475h-17.7Zm17.7-18.525-7.875-8.025h14.325c2.45 0 4.263-.55 5.438-1.65 1.175-1.1 1.762-2.6 1.762-4.5s-.587-3.4-1.762-4.5-2.988-1.65-5.438-1.65h-14.325l7.875-8.025v28.35ZM1564.15 1323.54v-41.025h16.95v41.025h-16.95Zm8.475-44.325c-3.1 0-5.575-.825-7.425-2.475-1.85-1.65-2.775-3.7-2.775-6.15s.925-4.5 2.775-6.15c1.85-1.65 4.325-2.475 7.425-2.475 3.1 0 5.575.775 7.425 2.325 1.85 1.55 2.775 3.55 2.775 6 0 2.6-.925 4.737-2.775 6.412-1.85 1.675-4.325 2.513-7.425 2.513ZM1627.6 1324.74c-3.6 0-7.25-.4-10.95-1.2-3.7-.8-6.95-1.975-9.75-3.525l6-13.05a27.632 27.632 0 0 0 7.088 2.887c2.475.625 4.812.938 7.012.938 2 0 3.638-.338 4.913-1.013 1.275-.675 1.912-1.687 1.912-3.037 0-1.15-.475-2.038-1.425-2.663-.95-.625-2.55-.937-4.8-.937h-6.975v-10.875l13.575-13.8 1.575 5.925H1609.6v-13.35h39.15v10.875l-13.575 13.8-8.475-4.8h4.65c6.6 0 11.625 1.475 15.075 4.425 3.45 2.95 5.175 6.75 5.175 11.4 0 3-.837 5.875-2.512 8.625s-4.275 5-7.8 6.75c-3.525 1.75-8.088 2.625-13.688 2.625ZM1684.52 1324.29c-3.75 0-6.775-.75-9.075-2.25-2.3-1.5-3.962-3.825-4.987-6.975-1.025-3.15-1.538-7.175-1.538-12.075 0-4.85.55-8.838 1.65-11.963 1.1-3.125 2.813-5.45 5.138-6.975 2.325-1.525 5.262-2.287 8.812-2.287 3.6 0 6.9.85 9.9 2.55 3 1.7 5.4 4.137 7.2 7.312 1.8 3.175 2.7 6.963 2.7 11.363 0 4.4-.9 8.187-2.7 11.362-1.8 3.175-4.2 5.625-7.2 7.35-3 1.725-6.3 2.588-9.9 2.588Zm-27.375-.75v-55.65h16.95v20.1l-.75 15-.075 15v5.55h-16.125Zm23.325-12.45c1.25 0 2.375-.3 3.375-.9 1-.6 1.8-1.513 2.4-2.738.6-1.225.9-2.712.9-4.462 0-1.8-.3-3.288-.9-4.463-.6-1.175-1.4-2.062-2.4-2.662-1-.6-2.125-.9-3.375-.9s-2.375.3-3.375.9c-1 .6-1.8 1.487-2.4 2.662-.6 1.175-.9 2.663-.9 4.463 0 1.75.3 3.237.9 4.462.6 1.225 1.4 2.138 2.4 2.738 1 .6 2.125.9 3.375.9Z" style="fill-rule:nonzero"/><path d="m858.766 1586 221.969-216.588M891.12 754.677l208.255 146.983M1776.54 597.347l-212.56 231.96M1842.66 1593.97l-199.005-220.415M2053.01 1064.01l-355.858-1.29" style="fill:none;stroke:#000;stroke-width:12.5px"/></svg>