<svg viewBox="0 0 675 540" xmlns="http://www.w3.org/2000/svg" xml:space="preserve" style="fill-rule:evenodd;clip-rule:evenodd;stroke-linecap:round;stroke-linejoin:round;stroke-miterlimit:1.5"><path style="fill:#17dc43" d="M-27.791-71.72h748.679v691.597H-27.791z"/><path d="M92.163 126.627s19.676-11.116 40.507-17.493c20.832-6.376 68.403-.658 86.684 4.176 0 0-2.012 2.14-1.658 4.094.354 1.954 3.792 5.561 3.792 5.561s5.432 5.241 5.359 5.575c-.074.335-.435 7.281 1.235 10.127 1.671 2.845 2.437 4.748 2.008 6.684-.43 1.937-.74 3.54-.74 3.54s.008 1.791.74 2.547l-.74 3.44.304 1.363s-.589 1.628-1.572 2.636l.386 1.456s-2.308 1.718-8.214 2.595c-5.906.876-32.863.858-32.863.858l-88.123 2.044H65.734s-8.738-.561-10.018-2.044c-1.279-1.483 0-.858 0-.858l-.908-1.976 1.879-2.573s-1.906-9.053-1.879-13.821c.026-4.769 10.205-10.844 15.997-13.013 4.63-1.733 20.439-5.245 21.358-4.918Z" style="fill:#4eb848;stroke:#000;stroke-width:3.59px"/><circle cx="202.963" cy="156.997" r="14.66" style="fill:#fff;stroke:#000;stroke-width:3.59px"/><path d="M99.136 128.793s27.742-13.087 36.426-15.16c8.684-2.074 18.088-2.758 40.875-1.821 0 0 9.649.82 11.283 1.003 1.634.184 10.02 10.529 10.02 10.529s-5.027 1.806-10.812 2.535c-5.786.729-75.517 3.763-75.517 3.763l-12.275-.849Z" style="fill:#fff;stroke:#000;stroke-width:3.59px"/><circle cx="81.357" cy="156.997" r="14.66" style="fill:#fff;stroke:#000;stroke-width:3.59px"/><path d="M57.695 142.272s3.489-.736 5.274-1.368c1.785-.631 9.585-5.354 9.974-5.442.389-.088.002-.614-.421-.682-.539-.087-5.851.453-5.686.563 0 0-2.256 1.193-4.266 2.573-.827.568-1.866 1.336-2.728 2.117-1.235 1.12-2.147 2.239-2.147 2.239ZM224.012 128l-6.525.057s-2.448.042-3.111.088c-.642.046 1.22 2.385 1.22 2.385l2.685 3.317h6.821s-.072-.991-.124-2.075c-.051-1.085.036-2.696.036-2.696L224.012 128Z" style="fill:#fff"/><path d="m108.666 201.448-5.328-12.6h4.572l4.338 10.638h-2.718l4.464-10.638h4.176l-5.328 12.6h-4.176Z" style="fill-rule:nonzero"/><path d="m122.04 201.448-4.032-12.6h4.374l3.258 10.638h-2.196l3.456-10.638h3.906l3.222 10.638h-2.106l3.402-10.638h4.032l-4.032 12.6h-4.554l-2.628-8.712h1.224l-2.772 8.712h-4.554ZM145.962 188.848h4.248v12.6h-4.248zM152.262 201.448v-12.6h6.21c1.404 0 2.64.255 3.708.765s1.902 1.233 2.502 2.169c.6.936.9 2.052.9 3.348 0 1.308-.3 2.433-.9 3.375-.6.942-1.434 1.668-2.502 2.178-1.068.51-2.304.765-3.708.765h-6.21Zm4.248-3.312h1.782c.6 0 1.125-.114 1.575-.342.45-.228.801-.567 1.053-1.017.252-.45.378-.999.378-1.647 0-.636-.126-1.176-.378-1.62a2.473 2.473 0 0 0-1.053-1.008c-.45-.228-.975-.342-1.575-.342h-1.782v5.976ZM168.48 201.628c-.672 0-1.236-.219-1.692-.657-.456-.438-.684-.999-.684-1.683 0-.696.228-1.254.684-1.674.456-.42 1.02-.63 1.692-.63.672 0 1.236.21 1.692.63.456.42.684.978.684 1.674 0 .684-.228 1.245-.684 1.683-.456.438-1.02.657-1.692.657ZM176.256 201.736c-.864 0-1.74-.096-2.628-.288-.888-.192-1.668-.474-2.34-.846l1.44-3.132c.54.312 1.107.543 1.701.693.594.15 1.155.225 1.683.225.48 0 .873-.081 1.179-.243.306-.162.459-.405.459-.729a.721.721 0 0 0-.342-.639c-.228-.15-.612-.225-1.152-.225h-1.674v-2.61l3.258-3.312.378 1.422h-6.282v-3.204h9.396v2.61l-3.258 3.312-2.034-1.152h1.116c1.584 0 2.79.354 3.618 1.062.828.708 1.242 1.62 1.242 2.736 0 .72-.201 1.41-.603 2.07-.402.66-1.026 1.2-1.872 1.62-.846.42-1.941.63-3.285.63Z" style="fill-rule:nonzero"/><path style="fill:#4eb848;stroke:#000;stroke-width:2.77px" d="M450.797 413.959h63.595v51.009h-63.595z"/><path d="M450.953 439.132h63.217" style="fill:none;stroke:#000;stroke-width:2.77px"/><path style="fill:#fff;stroke:#000;stroke-width:2.77px" d="M450.797 395.105h63.595v18.854h-63.595zM450.797 463.53h63.595v7.432h-63.595z"/><path d="M.281.016A.666.666 0 0 1 .135 0a.474.474 0 0 1-.13-.047l.08-.174a.396.396 0 0 0 .187.051.14.14 0 0 0 .066-.014.045.045 0 0 0 .017-.067C.349-.259.338-.265.323-.269a.264.264 0 0 0-.065-.006H.055L.09-.7h.465v.178H.173l.119-.101-.021.271-.119-.101h.163c.069 0 .125.01.166.03a.2.2 0 0 1 .12.193.23.23 0 0 1-.138.21.398.398 0 0 1-.182.036Z" style="fill-rule:nonzero" transform="matrix(18 0 0 18 394.105 499.576)"/><path d="M.152.01A.128.128 0 0 1 .02-.12a.12.12 0 0 1 .038-.093.135.135 0 0 1 .094-.035c.037 0 .069.012.094.035a.12.12 0 0 1 .038.093.127.127 0 0 1-.038.094.131.131 0 0 1-.094.036Z" style="fill-rule:nonzero" transform="matrix(18 0 0 18 405.247 499.576)"/><path d="M.125 0v-.618l.101.096H.005V-.7h.356V0H.125Z" style="fill-rule:nonzero" transform="matrix(18 0 0 18 410.359 499.576)"/><path d="M.028 0v-.145l.253-.234a.225.225 0 0 0 .035-.04.102.102 0 0 0 .016-.031.077.077 0 0 0 .004-.025.05.05 0 0 0-.017-.04C.308-.525.291-.53.268-.53a.106.106 0 0 0-.059.017.114.114 0 0 0-.044.048l-.178-.089a.29.29 0 0 1 .114-.117.367.367 0 0 1 .189-.045c.055 0 .104.009.147.027a.228.228 0 0 1 .1.076.19.19 0 0 1 .036.116.265.265 0 0 1-.009.068.212.212 0 0 1-.034.072.506.506 0 0 1-.077.083l-.19.173-.037-.082h.363V0H.028Z" style="fill-rule:nonzero" transform="matrix(18 0 0 18 417.883 499.576)"/><path d="m.239-.09.005-.266.189-.191H.7l-.25.262-.113.091-.098.104ZM.05 0v-.742h.226V0H.05Zm.395 0-.15-.19.139-.171L.718 0H.445Z" style="fill-rule:nonzero" transform="matrix(18 0 0 18 434.227 499.576)"/><path d="M.234 0 .01-.7h.243l.181.591H.312L.504-.7h.217L.9-.109H.783L.972-.7h.224L.972 0H.719L.573-.484h.068L.487 0H.234Z" style="fill-rule:nonzero" transform="matrix(18 0 0 18 447.06 499.576)"/><path d="M.415.01a.207.207 0 0 1-.118-.031.175.175 0 0 1-.068-.093.472.472 0 0 1-.022-.159c0-.066.007-.12.02-.161a.169.169 0 0 1 .067-.093.22.22 0 0 1 .121-.03.26.26 0 0 1 .228.133.299.299 0 0 1 .036.151.305.305 0 0 1-.036.152.256.256 0 0 1-.228.131ZM.05.194v-.741h.215v.074l.001.2.01.2v.267H.05Zm.311-.36a.084.084 0 0 0 .045-.012.087.087 0 0 0 .032-.036.132.132 0 0 0 .012-.059.134.134 0 0 0-.012-.06.087.087 0 0 0-.032-.036.084.084 0 0 0-.045-.012.084.084 0 0 0-.045.012.087.087 0 0 0-.032.036.134.134 0 0 0-.012.06c0 .023.004.043.012.059a.087.087 0 0 0 .032.036.084.084 0 0 0 .045.012Z" style="fill-rule:nonzero" transform="matrix(18 0 0 18 468.139 499.576)"/><path d="M.057 0v-.7h.374c.097 0 .168.017.214.052a.157.157 0 0 1 .069.131c0 .035-.01.067-.029.095a.207.207 0 0 1-.086.065.348.348 0 0 1-.138.024l.02-.054c.055 0 .102.008.142.023.039.015.07.037.092.067a.17.17 0 0 1 .032.104.16.16 0 0 1-.076.142.39.39 0 0 1-.22.051H.057Zm.232-.165h.142a.101.101 0 0 0 .058-.014c.014-.009.02-.023.02-.041 0-.018-.006-.032-.02-.041a.101.101 0 0 0-.058-.014H.273v-.156h.126c.027 0 .046-.004.058-.013a.044.044 0 0 0 .019-.039.044.044 0 0 0-.019-.039C.445-.531.426-.535.399-.535h-.11v.37Z" style="fill-rule:nonzero" transform="matrix(18 0 0 18 486.141 499.576)"/><path d="M.237 0v-.307l.054.141L-.027-.7h.249l.215.365H.292L.509-.7h.228l-.316.534.052-.141V0H.237Z" style="fill-rule:nonzero" transform="matrix(18 0 0 18 499.781 499.576)"/><path d="M.057 0v-.7h.345c.078 0 .147.014.206.043a.326.326 0 0 1 .139.12.34.34 0 0 1 .05.186.347.347 0 0 1-.05.188.335.335 0 0 1-.139.121A.477.477 0 0 1 .402 0H.057Zm.236-.184h.099A.19.19 0 0 0 .48-.203a.142.142 0 0 0 .058-.056.187.187 0 0 0 .021-.092.181.181 0 0 0-.021-.09.136.136 0 0 0-.058-.056.19.19 0 0 0-.088-.019H.293v.332Z" style="fill-rule:nonzero" transform="matrix(18 0 0 18 512.561 499.576)"/><path d="M.511-.7h.236V0H.511v-.7ZM.293 0H.057v-.7h.236V0Zm.234-.258h-.25v-.194h.25v.194Z" style="fill-rule:nonzero" transform="matrix(18 0 0 18 532.831 499.576)"/><path d="m.277 0-.296-.7h.254l.241.591H.325L.573-.7h.232L.509 0H.277Z" style="fill-rule:nonzero" transform="matrix(18 0 0 18 547.301 499.576)"/><path d="M.318.016a.732.732 0 0 1-.17-.02.476.476 0 0 1-.135-.052l.076-.172a.516.516 0 0 0 .231.064c.023 0 .04-.001.053-.004a.066.066 0 0 0 .029-.013.029.029 0 0 0 .009-.021c0-.013-.007-.023-.021-.03A.253.253 0 0 0 .335-.25L.259-.266a.943.943 0 0 1-.083-.023.327.327 0 0 1-.075-.037.17.17 0 0 1-.056-.06.192.192 0 0 1-.021-.094.2.2 0 0 1 .037-.118.24.24 0 0 1 .109-.086.45.45 0 0 1 .18-.032.66.66 0 0 1 .14.015c.046.01.087.025.124.046l-.071.171a.604.604 0 0 0-.1-.039.356.356 0 0 0-.095-.013.191.191 0 0 0-.054.006c-.013.004-.023.009-.028.016a.033.033 0 0 0-.009.022c0 .012.007.021.021.028a.205.205 0 0 0 .056.018l.076.015a.623.623 0 0 1 .082.022.335.335 0 0 1 .076.037.167.167 0 0 1 .055.06.184.184 0 0 1 .021.092.202.202 0 0 1-.036.117.251.251 0 0 1-.109.086.434.434 0 0 1-.181.033Z" style="fill-rule:nonzero" transform="matrix(18 0 0 18 561.181 499.576)"/><path d="M.415.01a.22.22 0 0 1-.121-.03.169.169 0 0 1-.067-.093.555.555 0 0 1-.02-.161c0-.065.007-.118.022-.159a.175.175 0 0 1 .068-.093.207.207 0 0 1 .118-.031.251.251 0 0 1 .228.132.299.299 0 0 1 .036.151.305.305 0 0 1-.036.152.258.258 0 0 1-.228.132ZM.05 0v-.742h.226v.268l-.01.2-.001.2V0H.05Zm.311-.166a.084.084 0 0 0 .045-.012.084.084 0 0 0 .032-.037.132.132 0 0 0 .012-.059.126.126 0 0 0-.012-.059.087.087 0 0 0-.032-.036.084.084 0 0 0-.045-.012.084.084 0 0 0-.077.047.134.134 0 0 0-.012.06c0 .023.004.043.012.059a.084.084 0 0 0 .032.037.084.084 0 0 0 .045.012Z" style="fill-rule:nonzero" transform="matrix(13 0 0 13 428.858 515.176)"/><path d="M.381 0v-.097L.365-.123v-.184c0-.027-.008-.047-.024-.061C.324-.382.298-.389.261-.389a.245.245 0 0 0-.075.012.206.206 0 0 0-.065.031L.049-.495a.39.39 0 0 1 .115-.046.546.546 0 0 1 .131-.016.34.34 0 0 1 .219.063c.051.042.077.109.077.2V0h-.21ZM.226.01a.248.248 0 0 1-.112-.023.162.162 0 0 1-.068-.061A.17.17 0 0 1 .05-.25a.166.166 0 0 1 .083-.056.426.426 0 0 1 .14-.019h.114v.109H.309c-.024 0-.041.004-.052.012C.246-.197.24-.185.24-.17a.04.04 0 0 0 .015.032c.009.008.022.012.039.012.015 0 .03-.004.043-.012a.075.075 0 0 0 .028-.04l.029.067a.144.144 0 0 1-.055.091.191.191 0 0 1-.113.03Z" style="fill-rule:nonzero" transform="matrix(13 0 0 13 437.776 515.176)"/><path d="M.314.01a.258.258 0 0 1-.176-.055C.096-.081.075-.137.075-.212V-.67h.226v.456c0 .017.004.03.013.039a.048.048 0 0 0 .034.014.09.09 0 0 0 .051-.015l.054.157A.202.202 0 0 1 .39.003.37.37 0 0 1 .314.01ZM0-.352v-.165h.413v.165H0Z" style="fill-rule:nonzero" transform="matrix(13 0 0 13 446.083 515.176)"/><path d="M.314.01a.258.258 0 0 1-.176-.055C.096-.081.075-.137.075-.212V-.67h.226v.456c0 .017.004.03.013.039a.048.048 0 0 0 .034.014.09.09 0 0 0 .051-.015l.054.157A.202.202 0 0 1 .39.003.37.37 0 0 1 .314.01ZM0-.352v-.165h.413v.165H0Z" style="fill-rule:nonzero" transform="matrix(13 0 0 13 451.933 515.176)"/><path d="M.352.01a.378.378 0 0 1-.174-.037.282.282 0 0 1-.116-.102.264.264 0 0 1-.041-.145.271.271 0 0 1 .152-.247.34.34 0 0 1 .158-.036c.054 0 .104.011.15.032a.266.266 0 0 1 .11.095.283.283 0 0 1 .041.156l-.001.027-.002.026H.208V-.33h.301l-.085.029a.124.124 0 0 0-.011-.054.094.094 0 0 0-.032-.036.09.09 0 0 0-.048-.012.082.082 0 0 0-.048.013.078.078 0 0 0-.032.035.124.124 0 0 0-.011.054v.034c0 .023.005.043.014.06a.092.092 0 0 0 .04.038.148.148 0 0 0 .063.012.167.167 0 0 0 .063-.01.28.28 0 0 0 .051-.03l.118.119a.257.257 0 0 1-.098.066.417.417 0 0 1-.141.022Z" style="fill-rule:nonzero" transform="matrix(13 0 0 13 457.718 515.176)"/><path d="M.05 0v-.547h.215v.165L.23-.429a.182.182 0 0 1 .08-.096.263.263 0 0 1 .132-.032v.2A.66.66 0 0 1 .416-.36L.392-.361a.124.124 0 0 0-.083.027c-.022.017-.033.048-.033.091V0H.05Z" style="fill-rule:nonzero" transform="matrix(13 0 0 13 466.207 515.176)"/><path d="M.17.204A.332.332 0 0 1 .078.19.212.212 0 0 1 .004.155L.079 0a.135.135 0 0 0 .08.029c.02 0 .035-.004.046-.013a.082.082 0 0 0 .026-.037l.023-.058.016-.022.175-.446h.214L.434.011a.359.359 0 0 1-.07.117.21.21 0 0 1-.088.059.323.323 0 0 1-.106.017ZM.223.025l-.238-.572h.232l.164.426-.158.146Z" style="fill-rule:nonzero" transform="matrix(13 0 0 13 472.33 515.176)"/><path d="M.264.01a.634.634 0 0 1-.138-.015.4.4 0 0 1-.11-.039l.062-.149a.387.387 0 0 0 .191.049.135.135 0 0 0 .055-.007c.01-.005.015-.011.015-.019S.333-.184.322-.188a.288.288 0 0 0-.045-.008L.215-.204a.564.564 0 0 1-.067-.013.216.216 0 0 1-.062-.027.13.13 0 0 1-.045-.048.167.167 0 0 1-.017-.078c0-.035.01-.066.031-.094a.219.219 0 0 1 .094-.067.415.415 0 0 1 .155-.026c.04 0 .08.004.12.011.04.007.074.019.103.034l-.062.149a.347.347 0 0 0-.158-.04.145.145 0 0 0-.058.008C.238-.39.233-.384.233-.377c0 .008.006.014.017.018a.197.197 0 0 0 .045.009l.062.008a.421.421 0 0 1 .067.014.223.223 0 0 1 .061.027.125.125 0 0 1 .045.049.16.16 0 0 1 .017.077c0 .033-.01.063-.031.092a.214.214 0 0 1-.094.068.426.426 0 0 1-.158.025Z" style="fill-rule:nonzero" transform="matrix(13 0 0 13 484.601 515.176)"/><path d="M.314.01a.258.258 0 0 1-.176-.055C.096-.081.075-.137.075-.212V-.67h.226v.456c0 .017.004.03.013.039a.048.048 0 0 0 .034.014.09.09 0 0 0 .051-.015l.054.157A.202.202 0 0 1 .39.003.37.37 0 0 1 .314.01ZM0-.352v-.165h.413v.165H0Z" style="fill-rule:nonzero" transform="matrix(13 0 0 13 491.946 515.176)"/><path d="M.339.01a.352.352 0 0 1-.165-.037.271.271 0 0 1-.153-.247.271.271 0 0 1 .154-.247.357.357 0 0 1 .164-.036c.062 0 .117.012.165.036a.275.275 0 0 1 .113.1.27.27 0 0 1 .04.147.27.27 0 0 1-.153.248.364.364 0 0 1-.165.036Zm0-.176a.084.084 0 0 0 .045-.012.087.087 0 0 0 .032-.036.14.14 0 0 0 .012-.06.126.126 0 0 0-.012-.059.087.087 0 0 0-.032-.036.084.084 0 0 0-.045-.012.084.084 0 0 0-.077.047.134.134 0 0 0-.012.06c0 .023.004.043.012.059a.084.084 0 0 0 .032.037.084.084 0 0 0 .045.012Z" style="fill-rule:nonzero" transform="matrix(13 0 0 13 497.731 515.176)"/><path d="M.05 0v-.547h.215v.165L.23-.429a.182.182 0 0 1 .08-.096.263.263 0 0 1 .132-.032v.2A.66.66 0 0 1 .416-.36L.392-.361a.124.124 0 0 0-.083.027c-.022.017-.033.048-.033.091V0H.05Z" style="fill-rule:nonzero" transform="matrix(13 0 0 13 506.546 515.176)"/><path d="M.381 0v-.097L.365-.123v-.184c0-.027-.008-.047-.024-.061C.324-.382.298-.389.261-.389a.245.245 0 0 0-.075.012.206.206 0 0 0-.065.031L.049-.495a.39.39 0 0 1 .115-.046.546.546 0 0 1 .131-.016.34.34 0 0 1 .219.063c.051.042.077.109.077.2V0h-.21ZM.226.01a.248.248 0 0 1-.112-.023.162.162 0 0 1-.068-.061A.17.17 0 0 1 .05-.25a.166.166 0 0 1 .083-.056.426.426 0 0 1 .14-.019h.114v.109H.309c-.024 0-.041.004-.052.012C.246-.197.24-.185.24-.17a.04.04 0 0 0 .015.032c.009.008.022.012.039.012.015 0 .03-.004.043-.012a.075.075 0 0 0 .028-.04l.029.067a.144.144 0 0 1-.055.091.191.191 0 0 1-.113.03Z" style="fill-rule:nonzero" transform="matrix(13 0 0 13 512.086 515.176)"/><path d="M.328.204A.668.668 0 0 1 .176.187.365.365 0 0 1 .054.136L.13-.018a.333.333 0 0 0 .175.054c.047 0 .08-.01.1-.03.02-.019.03-.047.03-.084v-.046l.01-.17.001-.17v-.083h.215v.438c0 .106-.029.185-.088.236a.361.361 0 0 1-.245.077ZM.284-.03a.263.263 0 0 1-.226-.124.254.254 0 0 1-.037-.14.254.254 0 0 1 .263-.263c.047 0 .086.009.116.028a.165.165 0 0 1 .068.086.422.422 0 0 1 .022.149c0 .06-.007.109-.022.148A.168.168 0 0 1 .4-.059a.214.214 0 0 1-.116.029Zm.06-.176a.106.106 0 0 0 .048-.011.082.082 0 0 0 .033-.031.088.088 0 0 0 .012-.046.089.089 0 0 0-.012-.047.08.08 0 0 0-.033-.03.106.106 0 0 0-.048-.01.112.112 0 0 0-.048.01.09.09 0 0 0-.034.03.089.089 0 0 0-.012.047.08.08 0 0 0 .013.046.082.082 0 0 0 .033.031.113.113 0 0 0 .048.011Z" style="fill-rule:nonzero" transform="matrix(13 0 0 13 520.521 515.176)"/><path d="M.352.01a.378.378 0 0 1-.174-.037.282.282 0 0 1-.116-.102.264.264 0 0 1-.041-.145.271.271 0 0 1 .152-.247.34.34 0 0 1 .158-.036c.054 0 .104.011.15.032a.266.266 0 0 1 .11.095.283.283 0 0 1 .041.156l-.001.027-.002.026H.208V-.33h.301l-.085.029a.124.124 0 0 0-.011-.054.094.094 0 0 0-.032-.036.09.09 0 0 0-.048-.012.082.082 0 0 0-.048.013.078.078 0 0 0-.032.035.124.124 0 0 0-.011.054v.034c0 .023.005.043.014.06a.092.092 0 0 0 .04.038.148.148 0 0 0 .063.012.167.167 0 0 0 .063-.01.28.28 0 0 0 .051-.03l.118.119a.257.257 0 0 1-.098.066.417.417 0 0 1-.141.022Z" style="fill-rule:nonzero" transform="matrix(13 0 0 13 529.766 515.176)"/><path d="M157.827 333.774h22.067s4.167.176 6.59 3.459c2.804 3.801 2.553 9.018 2.553 9.018v67.162s.193 10.132-9.143 18.438c-8.839 7.865-21.462 7.757-21.462 7.757" style="fill:#4eb848;stroke:#000;stroke-width:2.86px"/><path d="M159.426 333.774H137.36s-4.168.176-6.59 3.459c-2.804 3.801-2.554 9.018-2.554 9.018v67.162s-.193 10.132 9.144 18.438c8.839 7.865 21.462 7.757 21.462 7.757" style="fill:#4eb848;stroke:#000;stroke-width:2.86px"/><ellipse cx="177.379" cy="383.654" rx="3.898" ry="3.889" style="fill:#fff;stroke:#000;stroke-width:2.86px"/><ellipse cx="158.865" cy="409.194" rx="22.066" ry="22.069" style="fill:#fff;stroke:#000;stroke-width:2.86px"/><path d="M139.716 354.508h22.066s4.168.175 6.59 3.459c2.805 3.801 2.554 9.018 2.554 9.018v67.162s.193 10.131-9.144 18.438c-8.839 7.864-21.462 7.757-21.462 7.757" style="fill:#4eb848;stroke:#000;stroke-width:2.86px"/><path d="M141.315 354.508h-22.066s-4.168.175-6.59 3.459c-2.805 3.801-2.554 9.018-2.554 9.018v67.162s-.193 10.131 9.144 18.438c8.839 7.864 21.462 7.757 21.462 7.757" style="fill:#4eb848;stroke:#000;stroke-width:2.86px"/><ellipse cx="159.268" cy="404.388" rx="3.898" ry="3.889" style="fill:#fff;stroke:#000;stroke-width:2.86px"/><ellipse cx="140.754" cy="429.928" rx="22.066" ry="22.069" style="fill:#fff;stroke:#000;stroke-width:2.86px"/><path d="M.328.204A.668.668 0 0 1 .176.187.365.365 0 0 1 .054.136L.13-.018a.333.333 0 0 0 .175.054c.047 0 .08-.01.1-.03.02-.019.03-.047.03-.084v-.046l.01-.17.001-.17v-.083h.215v.438c0 .106-.029.185-.088.236a.361.361 0 0 1-.245.077ZM.284-.03a.263.263 0 0 1-.226-.124.254.254 0 0 1-.037-.14.254.254 0 0 1 .263-.263c.047 0 .086.009.116.028a.165.165 0 0 1 .068.086.422.422 0 0 1 .022.149c0 .06-.007.109-.022.148A.168.168 0 0 1 .4-.059a.214.214 0 0 1-.116.029Zm.06-.176a.106.106 0 0 0 .048-.011.082.082 0 0 0 .033-.031.088.088 0 0 0 .012-.046.089.089 0 0 0-.012-.047.08.08 0 0 0-.033-.03.106.106 0 0 0-.048-.01.112.112 0 0 0-.048.01.09.09 0 0 0-.034.03.089.089 0 0 0-.012.047.08.08 0 0 0 .013.046.082.082 0 0 0 .033.031.113.113 0 0 0 .048.011Z" style="fill-rule:nonzero" transform="matrix(18 0 0 18 36.3 497.957)"/><path d="M.339.01a.352.352 0 0 1-.165-.037.271.271 0 0 1-.153-.247.271.271 0 0 1 .154-.247.357.357 0 0 1 .164-.036c.062 0 .117.012.165.036a.275.275 0 0 1 .113.1.27.27 0 0 1 .04.147.27.27 0 0 1-.153.248.364.364 0 0 1-.165.036Zm0-.176a.084.084 0 0 0 .045-.012.087.087 0 0 0 .032-.036.14.14 0 0 0 .012-.06.126.126 0 0 0-.012-.059.087.087 0 0 0-.032-.036.084.084 0 0 0-.045-.012.084.084 0 0 0-.077.047.134.134 0 0 0-.012.06c0 .023.004.043.012.059a.084.084 0 0 0 .032.037.084.084 0 0 0 .045.012Z" style="fill-rule:nonzero" transform="matrix(18 0 0 18 49.097 497.957)"/><path style="fill-rule:nonzero" d="M.045-.374h.3v.17h-.3z" transform="matrix(18 0 0 18 61.481 497.957)"/><path d="M.352.01a.378.378 0 0 1-.174-.037.282.282 0 0 1-.116-.102.264.264 0 0 1-.041-.145.271.271 0 0 1 .152-.247.34.34 0 0 1 .158-.036c.054 0 .104.011.15.032a.266.266 0 0 1 .11.095.283.283 0 0 1 .041.156l-.001.027-.002.026H.208V-.33h.301l-.085.029a.124.124 0 0 0-.011-.054.094.094 0 0 0-.032-.036.09.09 0 0 0-.048-.012.082.082 0 0 0-.048.013.078.078 0 0 0-.032.035.124.124 0 0 0-.011.054v.034c0 .023.005.043.014.06a.092.092 0 0 0 .04.038.148.148 0 0 0 .063.012.167.167 0 0 0 .063-.01.28.28 0 0 0 .051-.03l.118.119a.257.257 0 0 1-.098.066.417.417 0 0 1-.141.022Z" style="fill-rule:nonzero" transform="matrix(18 0 0 18 68.681 497.957)"/><path d="M.419.016a.431.431 0 0 1-.28-.102.338.338 0 0 1-.081-.116.376.376 0 0 1-.029-.148c0-.054.01-.103.029-.148A.364.364 0 0 1 .264-.69a.454.454 0 0 1 .155-.026.44.44 0 0 1 .183.036.35.35 0 0 1 .131.104l-.149.133a.247.247 0 0 0-.069-.061.169.169 0 0 0-.084-.021.178.178 0 0 0-.067.012.154.154 0 0 0-.052.035.168.168 0 0 0-.033.055.21.21 0 0 0-.012.073c0 .027.004.051.012.072a.163.163 0 0 0 .033.056.154.154 0 0 0 .052.035c.02.008.042.012.067.012a.16.16 0 0 0 .084-.022.24.24 0 0 0 .069-.06l.149.133a.343.343 0 0 1-.132.103.417.417 0 0 1-.182.037Z" style="fill-rule:nonzero" transform="matrix(18 0 0 18 80.435 497.957)"/><path d="M.43-.557a.24.24 0 0 1 .114.026.187.187 0 0 1 .081.079.3.3 0 0 1 .029.14V0H.428v-.273c0-.034-.006-.058-.018-.073a.06.06 0 0 0-.049-.021.092.092 0 0 0-.043.011.074.074 0 0 0-.031.034.165.165 0 0 0-.011.065V0H.05v-.742h.226v.355L.222-.433A.222.222 0 0 1 .43-.557Z" style="fill-rule:nonzero" transform="matrix(18 0 0 18 93.827 497.957)"/><path d="M.381 0v-.097L.365-.123v-.184c0-.027-.008-.047-.024-.061C.324-.382.298-.389.261-.389a.245.245 0 0 0-.075.012.206.206 0 0 0-.065.031L.049-.495a.39.39 0 0 1 .115-.046.546.546 0 0 1 .131-.016.34.34 0 0 1 .219.063c.051.042.077.109.077.2V0h-.21ZM.226.01a.248.248 0 0 1-.112-.023.162.162 0 0 1-.068-.061A.17.17 0 0 1 .05-.25a.166.166 0 0 1 .083-.056.426.426 0 0 1 .14-.019h.114v.109H.309c-.024 0-.041.004-.052.012C.246-.197.24-.185.24-.17a.04.04 0 0 0 .015.032c.009.008.022.012.039.012.015 0 .03-.004.043-.012a.075.075 0 0 0 .028-.04l.029.067a.144.144 0 0 1-.055.091.191.191 0 0 1-.113.03Z" style="fill-rule:nonzero" transform="matrix(18 0 0 18 106.464 497.957)"/><path d="M.05 0v-.547h.215v.165L.23-.429a.182.182 0 0 1 .08-.096.263.263 0 0 1 .132-.032v.2A.66.66 0 0 1 .416-.36L.392-.361a.124.124 0 0 0-.083.027c-.022.017-.033.048-.033.091V0H.05Z" style="fill-rule:nonzero" transform="matrix(18 0 0 18 117.966 497.957)"/><path d="M.328.204A.668.668 0 0 1 .176.187.365.365 0 0 1 .054.136L.13-.018a.333.333 0 0 0 .175.054c.047 0 .08-.01.1-.03.02-.019.03-.047.03-.084v-.046l.01-.17.001-.17v-.083h.215v.438c0 .106-.029.185-.088.236a.361.361 0 0 1-.245.077ZM.284-.03a.263.263 0 0 1-.226-.124.254.254 0 0 1-.037-.14.254.254 0 0 1 .263-.263c.047 0 .086.009.116.028a.165.165 0 0 1 .068.086.422.422 0 0 1 .022.149c0 .06-.007.109-.022.148A.168.168 0 0 1 .4-.059a.214.214 0 0 1-.116.029Zm.06-.176a.106.106 0 0 0 .048-.011.082.082 0 0 0 .033-.031.088.088 0 0 0 .012-.046.089.089 0 0 0-.012-.047.08.08 0 0 0-.033-.03.106.106 0 0 0-.048-.01.112.112 0 0 0-.048.01.09.09 0 0 0-.034.03.089.089 0 0 0-.012.047.08.08 0 0 0 .013.046.082.082 0 0 0 .033.031.113.113 0 0 0 .048.011Z" style="fill-rule:nonzero" transform="matrix(18 0 0 18 126.084 497.957)"/><path d="M.352.01a.378.378 0 0 1-.174-.037.282.282 0 0 1-.116-.102.264.264 0 0 1-.041-.145.271.271 0 0 1 .152-.247.34.34 0 0 1 .158-.036c.054 0 .104.011.15.032a.266.266 0 0 1 .11.095.283.283 0 0 1 .041.156l-.001.027-.002.026H.208V-.33h.301l-.085.029a.124.124 0 0 0-.011-.054.094.094 0 0 0-.032-.036.09.09 0 0 0-.048-.012.082.082 0 0 0-.048.013.078.078 0 0 0-.032.035.124.124 0 0 0-.011.054v.034c0 .023.005.043.014.06a.092.092 0 0 0 .04.038.148.148 0 0 0 .063.012.167.167 0 0 0 .063-.01.28.28 0 0 0 .051-.03l.118.119a.257.257 0 0 1-.098.066.417.417 0 0 1-.141.022Z" style="fill-rule:nonzero" transform="matrix(18 0 0 18 138.881 497.957)"/><path d="M.05 0v-.547h.215v.165L.23-.429a.182.182 0 0 1 .08-.096.263.263 0 0 1 .132-.032v.2A.66.66 0 0 1 .416-.36L.392-.361a.124.124 0 0 0-.083.027c-.022.017-.033.048-.033.091V0H.05Z" style="fill-rule:nonzero" transform="matrix(18 0 0 18 150.636 497.957)"/><path d="M.511-.7h.236V0H.511v-.7ZM.293 0H.057v-.7h.236V0Zm.234-.258h-.25v-.194h.25v.194Z" style="fill-rule:nonzero" transform="matrix(18 0 0 18 164.246 497.957)"/><path d="M.425.016a.448.448 0 0 1-.158-.027.357.357 0 0 1-.209-.193.374.374 0 0 1 0-.293.368.368 0 0 1 .209-.192.442.442 0 0 1 .157-.027c.057 0 .11.009.158.027a.35.35 0 0 1 .237.339.353.353 0 0 1-.112.262.37.37 0 0 1-.125.077.442.442 0 0 1-.157.027ZM.424-.175a.154.154 0 0 0 .061-.012.137.137 0 0 0 .05-.035.146.146 0 0 0 .034-.055.207.207 0 0 0 .012-.073.207.207 0 0 0-.012-.073.146.146 0 0 0-.034-.055.126.126 0 0 0-.05-.035.16.16 0 0 0-.123 0 .153.153 0 0 0-.05.034.168.168 0 0 0-.033.055.217.217 0 0 0-.012.074c0 .027.004.052.012.073.008.022.019.04.033.055a.156.156 0 0 0 .05.035.16.16 0 0 0 .062.012Z" style="fill-rule:nonzero" transform="matrix(18 0 0 18 178.716 497.957)"/><path d="M.057 0v-.7h.194l.28.457H.429L.701-.7h.194l.002.7H.682L.68-.376h.034l-.186.313H.424L.23-.376h.042V0H.057Z" style="fill-rule:nonzero" transform="matrix(18 0 0 18 193.981 497.957)"/><path d="M.273-.44h.312v.17H.273v-.17Zm.016.262h.35V0H.057v-.7h.569v.178H.289v.344Z" style="fill-rule:nonzero" transform="matrix(18 0 0 18 211.151 497.957)"/><path d="M.075 0v-.52c0-.071.021-.127.064-.169.042-.042.102-.063.18-.063.024 0 .048.002.073.006a.23.23 0 0 1 .061.021l-.054.157a.311.311 0 0 0-.024-.009.084.084 0 0 0-.027-.004.053.053 0 0 0-.039.015c-.01.01-.015.026-.015.048v.026l.007.093V0H.075ZM0-.352v-.165h.413v.165H0ZM.501 0v-.547h.226V0H.501Zm.113-.591a.144.144 0 0 1-.099-.033.104.104 0 0 1-.037-.082c0-.033.012-.06.037-.082a.144.144 0 0 1 .099-.033c.041 0 .074.01.099.031a.099.099 0 0 1 .037.08.107.107 0 0 1-.037.085.14.14 0 0 1-.099.034Z" style="fill-rule:nonzero" transform="matrix(18 0 0 18 223.266 497.957)"/><path d="m-.009 0 .258-.338-.006.13-.246-.339h.255l.121.181-.094.007.133-.188h.237l-.247.328v-.125L.654 0H.395L.27-.193l.095.013L.236 0h-.245Z" style="fill-rule:nonzero" transform="matrix(18 0 0 18 237.251 497.957)"/><path d="M.028 0v-.145l.253-.234a.225.225 0 0 0 .035-.04.102.102 0 0 0 .016-.031.077.077 0 0 0 .004-.025.05.05 0 0 0-.017-.04C.308-.525.291-.53.268-.53a.106.106 0 0 0-.059.017.114.114 0 0 0-.044.048l-.178-.089a.29.29 0 0 1 .114-.117.367.367 0 0 1 .189-.045c.055 0 .104.009.147.027a.228.228 0 0 1 .1.076.19.19 0 0 1 .036.116.265.265 0 0 1-.009.068.212.212 0 0 1-.034.072.506.506 0 0 1-.077.083l-.19.173-.037-.082h.363V0H.028Z" style="fill-rule:nonzero" transform="matrix(13 0 0 13 83.203 513.557)"/><path d="m-.009 0 .258-.338-.006.13-.246-.339h.255l.121.181-.094.007.133-.188h.237l-.247.328v-.125L.654 0H.395L.27-.193l.095.013L.236 0h-.245Z" style="fill-rule:nonzero" transform="matrix(13 0 0 13 91.107 513.557)"/><path d="M.125 0v-.618l.101.096H.005V-.7h.356V0H.125Z" style="fill-rule:nonzero" transform="matrix(13 0 0 13 103.392 513.557)"/><path d="M.125 0v-.618l.101.096H.005V-.7h.356V0H.125Z" style="fill-rule:nonzero" transform="matrix(13 0 0 13 108.826 513.557)"/><path d="m.239-.09.005-.266.189-.191H.7l-.25.262-.113.091-.098.104ZM.05 0v-.742h.226V0H.05Zm.395 0-.15-.19.139-.171L.718 0H.445Z" style="fill-rule:nonzero" transform="matrix(13 0 0 13 118.16 513.557)"/><path d="M.234 0 .01-.7h.243l.181.591H.312L.504-.7h.217L.9-.109H.783L.972-.7h.224L.972 0H.719L.573-.484h.068L.487 0H.234Z" style="fill-rule:nonzero" transform="matrix(13 0 0 13 127.429 513.557)"/><path d="M.344.01a.373.373 0 0 1-.167-.036.269.269 0 0 1-.156-.248c0-.055.014-.104.041-.147a.28.28 0 0 1 .115-.1.373.373 0 0 1 .167-.036.32.32 0 0 1 .171.043c.047.029.08.068.098.119l-.175.086a.128.128 0 0 0-.041-.055.098.098 0 0 0-.054-.017.09.09 0 0 0-.08.047.121.121 0 0 0-.013.06c0 .024.004.044.013.06a.083.083 0 0 0 .033.036.093.093 0 0 0 .1-.005.122.122 0 0 0 .042-.055l.175.086a.225.225 0 0 1-.098.119.32.32 0 0 1-.171.043Z" style="fill-rule:nonzero" transform="matrix(13 0 0 13 147.006 513.557)"/><path d="M.43-.557a.24.24 0 0 1 .114.026.187.187 0 0 1 .081.079.3.3 0 0 1 .029.14V0H.428v-.273c0-.034-.006-.058-.018-.073a.06.06 0 0 0-.049-.021.092.092 0 0 0-.043.011.074.074 0 0 0-.031.034.165.165 0 0 0-.011.065V0H.05v-.742h.226v.355L.222-.433A.222.222 0 0 1 .43-.557Z" style="fill-rule:nonzero" transform="matrix(13 0 0 13 155.001 513.557)"/><path d="M.381 0v-.097L.365-.123v-.184c0-.027-.008-.047-.024-.061C.324-.382.298-.389.261-.389a.245.245 0 0 0-.075.012.206.206 0 0 0-.065.031L.049-.495a.39.39 0 0 1 .115-.046.546.546 0 0 1 .131-.016.34.34 0 0 1 .219.063c.051.042.077.109.077.2V0h-.21ZM.226.01a.248.248 0 0 1-.112-.023.162.162 0 0 1-.068-.061A.17.17 0 0 1 .05-.25a.166.166 0 0 1 .083-.056.426.426 0 0 1 .14-.019h.114v.109H.309c-.024 0-.041.004-.052.012C.246-.197.24-.185.24-.17a.04.04 0 0 0 .015.032c.009.008.022.012.039.012.015 0 .03-.004.043-.012a.075.075 0 0 0 .028-.04l.029.067a.144.144 0 0 1-.055.091.191.191 0 0 1-.113.03Z" style="fill-rule:nonzero" transform="matrix(13 0 0 13 164.126 513.557)"/><path d="M.05 0v-.547h.215v.165L.23-.429a.182.182 0 0 1 .08-.096.263.263 0 0 1 .132-.032v.2A.66.66 0 0 1 .416-.36L.392-.361a.124.124 0 0 0-.083.027c-.022.017-.033.048-.033.091V0H.05Z" style="fill-rule:nonzero" transform="matrix(13 0 0 13 172.436 513.557)"/><path d="M.328.204A.668.668 0 0 1 .176.187.365.365 0 0 1 .054.136L.13-.018a.333.333 0 0 0 .175.054c.047 0 .08-.01.1-.03.02-.019.03-.047.03-.084v-.046l.01-.17.001-.17v-.083h.215v.438c0 .106-.029.185-.088.236a.361.361 0 0 1-.245.077ZM.284-.03a.263.263 0 0 1-.226-.124.254.254 0 0 1-.037-.14.254.254 0 0 1 .263-.263c.047 0 .086.009.116.028a.165.165 0 0 1 .068.086.422.422 0 0 1 .022.149c0 .06-.007.109-.022.148A.168.168 0 0 1 .4-.059a.214.214 0 0 1-.116.029Zm.06-.176a.106.106 0 0 0 .048-.011.082.082 0 0 0 .033-.031.088.088 0 0 0 .012-.046.089.089 0 0 0-.012-.047.08.08 0 0 0-.033-.03.106.106 0 0 0-.048-.01.112.112 0 0 0-.048.01.09.09 0 0 0-.034.03.089.089 0 0 0-.012.047.08.08 0 0 0 .013.046.082.082 0 0 0 .033.031.113.113 0 0 0 .048.011Z" style="fill-rule:nonzero" transform="matrix(13 0 0 13 178.296 513.557)"/><path d="M.352.01a.378.378 0 0 1-.174-.037.282.282 0 0 1-.116-.102.264.264 0 0 1-.041-.145.271.271 0 0 1 .152-.247.34.34 0 0 1 .158-.036c.054 0 .104.011.15.032a.266.266 0 0 1 .11.095.283.283 0 0 1 .041.156l-.001.027-.002.026H.208V-.33h.301l-.085.029a.124.124 0 0 0-.011-.054.094.094 0 0 0-.032-.036.09.09 0 0 0-.048-.012.082.082 0 0 0-.048.013.078.078 0 0 0-.032.035.124.124 0 0 0-.011.054v.034c0 .023.005.043.014.06a.092.092 0 0 0 .04.038.148.148 0 0 0 .063.012.167.167 0 0 0 .063-.01.28.28 0 0 0 .051-.03l.118.119a.257.257 0 0 1-.098.066.417.417 0 0 1-.141.022Z" style="fill-rule:nonzero" transform="matrix(13 0 0 13 187.541 513.557)"/><path d="M.05 0v-.547h.215v.165L.23-.429a.182.182 0 0 1 .08-.096.263.263 0 0 1 .132-.032v.2A.66.66 0 0 1 .416-.36L.392-.361a.124.124 0 0 0-.083.027c-.022.017-.033.048-.033.091V0H.05Z" style="fill-rule:nonzero" transform="matrix(13 0 0 13 196.031 513.557)"/><path d="m513.234 208.613 5.378-4.312 18.235-2.353h18.994l18.505 2.353 3.887 24.825V273.2l-5.804 27.891-12.175 2.616h-16.742l-24.9-2.616-7.103-18.001v-47.195l1.725-27.282Z" style="fill:#4eb848"/><path d="M555.303 230.243a5.144 5.144 0 0 0-5.142-5.142h-10.284a5.144 5.144 0 0 0-5.141 5.142v29.165a5.144 5.144 0 0 0 5.141 5.142h10.284a5.144 5.144 0 0 0 5.142-5.142v-29.165ZM572.527 301.385c.332-10.435 2.286-96.723 2.286-96.723s2.457 1.633 3.825 3.141a33.456 33.456 0 0 1 3.069 4.003s-.871 42-1.202 50.072c-.331 8.071-1.117 31.079-1.117 31.079s-1.387 2.692-2.538 4.081c-1.151 1.39-4.323 4.347-4.323 4.347" style="fill:#fff;stroke:#000;stroke-width:2.77px"/><path d="M574.813 204.662s-8.004-1.361-15.224-2.061c-7.221-.701-14.56-.566-14.56-.566h.29s-7.338-.135-14.559.566c-7.221.7-15.225 2.061-15.225 2.061M572.505 301.425s-7.678 1.202-13.503 1.67c-4.491.361-13.901.621-13.901.621h.147s-9.411-.26-13.901-.621c-1.844-.148-3.873-.37-5.785-.604a257.638 257.638 0 0 1-7.718-1.066" style="fill:none;stroke:#000;stroke-width:2.77px"/><path d="M517.822 301.385c-.333-10.435-2.287-96.723-2.287-96.723s-2.457 1.633-3.825 3.141c-1.762 1.944-3.068 4.003-3.068 4.003s.871 42 1.202 50.072c.331 8.071 1.117 31.079 1.117 31.079s1.386 2.692 2.537 4.081c1.151 1.39 4.324 4.347 4.324 4.347" style="fill:#fff;stroke:#000;stroke-width:2.77px"/><path d="M.268-.15.255-.409.519-.7h.257L.48-.374.349-.24l-.081.09ZM.057 0v-.7h.232V0H.057Zm.46 0L.311-.272l.153-.162L.79 0H.517Z" style="fill-rule:nonzero" transform="matrix(18 0 0 18 440.28 331.842)"/><path d="M.339.01a.352.352 0 0 1-.165-.037.271.271 0 0 1-.153-.247.271.271 0 0 1 .154-.247.357.357 0 0 1 .164-.036c.062 0 .117.012.165.036a.275.275 0 0 1 .113.1.27.27 0 0 1 .04.147.27.27 0 0 1-.153.248.364.364 0 0 1-.165.036Zm0-.176a.084.084 0 0 0 .045-.012.087.087 0 0 0 .032-.036.14.14 0 0 0 .012-.06.126.126 0 0 0-.012-.059.087.087 0 0 0-.032-.036.084.084 0 0 0-.045-.012.084.084 0 0 0-.077.047.134.134 0 0 0-.012.06c0 .023.004.043.012.059a.084.084 0 0 0 .032.037.084.084 0 0 0 .045.012Z" style="fill-rule:nonzero" transform="matrix(18 0 0 18 453.69 331.842)"/><path d="M.264.01a.634.634 0 0 1-.138-.015.4.4 0 0 1-.11-.039l.062-.149a.387.387 0 0 0 .191.049.135.135 0 0 0 .055-.007c.01-.005.015-.011.015-.019S.333-.184.322-.188a.288.288 0 0 0-.045-.008L.215-.204a.564.564 0 0 1-.067-.013.216.216 0 0 1-.062-.027.13.13 0 0 1-.045-.048.167.167 0 0 1-.017-.078c0-.035.01-.066.031-.094a.219.219 0 0 1 .094-.067.415.415 0 0 1 .155-.026c.04 0 .08.004.12.011.04.007.074.019.103.034l-.062.149a.347.347 0 0 0-.158-.04.145.145 0 0 0-.058.008C.238-.39.233-.384.233-.377c0 .008.006.014.017.018a.197.197 0 0 0 .045.009l.062.008a.421.421 0 0 1 .067.014.223.223 0 0 1 .061.027.125.125 0 0 1 .045.049.16.16 0 0 1 .017.077c0 .033-.01.063-.031.092a.214.214 0 0 1-.094.068.426.426 0 0 1-.158.025Z" style="fill-rule:nonzero" transform="matrix(18 0 0 18 465.894 331.842)"/><path d="M.314.01a.258.258 0 0 1-.176-.055C.096-.081.075-.137.075-.212V-.67h.226v.456c0 .017.004.03.013.039a.048.048 0 0 0 .034.014.09.09 0 0 0 .051-.015l.054.157A.202.202 0 0 1 .39.003.37.37 0 0 1 .314.01ZM0-.352v-.165h.413v.165H0Z" style="fill-rule:nonzero" transform="matrix(18 0 0 18 476.064 331.842)"/><path d="M.381 0v-.097L.365-.123v-.184c0-.027-.008-.047-.024-.061C.324-.382.298-.389.261-.389a.245.245 0 0 0-.075.012.206.206 0 0 0-.065.031L.049-.495a.39.39 0 0 1 .115-.046.546.546 0 0 1 .131-.016.34.34 0 0 1 .219.063c.051.042.077.109.077.2V0h-.21ZM.226.01a.248.248 0 0 1-.112-.023.162.162 0 0 1-.068-.061A.17.17 0 0 1 .05-.25a.166.166 0 0 1 .083-.056.426.426 0 0 1 .14-.019h.114v.109H.309c-.024 0-.041.004-.052.012C.246-.197.24-.185.24-.17a.04.04 0 0 0 .015.032c.009.008.022.012.039.012.015 0 .03-.004.043-.012a.075.075 0 0 0 .028-.04l.029.067a.144.144 0 0 1-.055.091.191.191 0 0 1-.113.03Z" style="fill-rule:nonzero" transform="matrix(18 0 0 18 484.344 331.842)"/><path style="fill-rule:nonzero" d="M.05-.742h.226V0H.05z" transform="matrix(18 0 0 18 495.846 331.842)"/><path d="M.057 0v-.7h.337c.065 0 .122.011.169.032a.247.247 0 0 1 .111.092.247.247 0 0 1 .039.14.247.247 0 0 1-.039.14.26.26 0 0 1-.111.092.414.414 0 0 1-.169.032H.188l.105-.101V0H.057Zm.236-.247L.188-.354h.191c.033 0 .057-.007.073-.022a.081.081 0 0 0 .023-.06.078.078 0 0 0-.024-.06C.436-.511.412-.518.379-.518H.188l.105-.107v.378Z" style="fill-rule:nonzero" transform="matrix(18 0 0 18 507.114 331.842)"/><path style="fill-rule:nonzero" d="M.05-.742h.226V0H.05z" transform="matrix(18 0 0 18 520.488 331.842)"/><path d="M.352.01a.378.378 0 0 1-.174-.037.282.282 0 0 1-.116-.102.264.264 0 0 1-.041-.145.271.271 0 0 1 .152-.247.34.34 0 0 1 .158-.036c.054 0 .104.011.15.032a.266.266 0 0 1 .11.095.283.283 0 0 1 .041.156l-.001.027-.002.026H.208V-.33h.301l-.085.029a.124.124 0 0 0-.011-.054.094.094 0 0 0-.032-.036.09.09 0 0 0-.048-.012.082.082 0 0 0-.048.013.078.078 0 0 0-.032.035.124.124 0 0 0-.011.054v.034c0 .023.005.043.014.06a.092.092 0 0 0 .04.038.148.148 0 0 0 .063.012.167.167 0 0 0 .063-.01.28.28 0 0 0 .051-.03l.118.119a.257.257 0 0 1-.098.066.417.417 0 0 1-.141.022Z" style="fill-rule:nonzero" transform="matrix(18 0 0 18 526.356 331.842)"/><path d="M.43-.557a.24.24 0 0 1 .114.026.187.187 0 0 1 .081.079.3.3 0 0 1 .029.14V0H.428v-.273c0-.034-.006-.058-.018-.073a.06.06 0 0 0-.049-.021.092.092 0 0 0-.043.011.074.074 0 0 0-.031.034.165.165 0 0 0-.011.065V0H.05v-.547h.215v.16L.222-.433A.222.222 0 0 1 .43-.557Z" style="fill-rule:nonzero" transform="matrix(18 0 0 18 538.11 331.842)"/><path d="M.314.01a.258.258 0 0 1-.176-.055C.096-.081.075-.137.075-.212V-.67h.226v.456c0 .017.004.03.013.039a.048.048 0 0 0 .034.014.09.09 0 0 0 .051-.015l.054.157A.202.202 0 0 1 .39.003.37.37 0 0 1 .314.01ZM0-.352v-.165h.413v.165H0Z" style="fill-rule:nonzero" transform="matrix(18 0 0 18 550.746 331.842)"/><path d="M.05 0v-.547h.226V0H.05Zm.113-.591a.144.144 0 0 1-.099-.033.104.104 0 0 1-.037-.082c0-.033.012-.06.037-.082a.144.144 0 0 1 .099-.033c.041 0 .074.01.099.031a.099.099 0 0 1 .037.08.107.107 0 0 1-.037.085.14.14 0 0 1-.099.034Z" style="fill-rule:nonzero" transform="matrix(18 0 0 18 559.026 331.842)"/><path d="M.344.01a.373.373 0 0 1-.167-.036.269.269 0 0 1-.156-.248c0-.055.014-.104.041-.147a.28.28 0 0 1 .115-.1.373.373 0 0 1 .167-.036.32.32 0 0 1 .171.043c.047.029.08.068.098.119l-.175.086a.128.128 0 0 0-.041-.055.098.098 0 0 0-.054-.017.09.09 0 0 0-.08.047.121.121 0 0 0-.013.06c0 .024.004.044.013.06a.083.083 0 0 0 .033.036.093.093 0 0 0 .1-.005.122.122 0 0 0 .042-.055l.175.086a.225.225 0 0 1-.098.119.32.32 0 0 1-.171.043Z" style="fill-rule:nonzero" transform="matrix(18 0 0 18 564.896 331.842)"/><path d="M.339.01a.352.352 0 0 1-.165-.037.271.271 0 0 1-.153-.247.271.271 0 0 1 .154-.247.357.357 0 0 1 .164-.036c.062 0 .117.012.165.036a.275.275 0 0 1 .113.1.27.27 0 0 1 .04.147.27.27 0 0 1-.153.248.364.364 0 0 1-.165.036Zm0-.176a.084.084 0 0 0 .045-.012.087.087 0 0 0 .032-.036.14.14 0 0 0 .012-.06.126.126 0 0 0-.012-.059.087.087 0 0 0-.032-.036.084.084 0 0 0-.045-.012.084.084 0 0 0-.077.047.134.134 0 0 0-.012.06c0 .023.004.043.012.059a.084.084 0 0 0 .032.037.084.084 0 0 0 .045.012Z" style="fill-rule:nonzero" transform="matrix(18 0 0 18 575.876 331.842)"/><path d="M.05 0v-.547h.215v.165L.23-.429a.182.182 0 0 1 .08-.096.263.263 0 0 1 .132-.032v.2A.66.66 0 0 1 .416-.36L.392-.361a.124.124 0 0 0-.083.027c-.022.017-.033.048-.033.091V0H.05Z" style="fill-rule:nonzero" transform="matrix(18 0 0 18 588.076 331.842)"/><path d="M.352.01a.378.378 0 0 1-.174-.037.282.282 0 0 1-.116-.102.264.264 0 0 1-.041-.145.271.271 0 0 1 .152-.247.34.34 0 0 1 .158-.036c.054 0 .104.011.15.032a.266.266 0 0 1 .11.095.283.283 0 0 1 .041.156l-.001.027-.002.026H.208V-.33h.301l-.085.029a.124.124 0 0 0-.011-.054.094.094 0 0 0-.032-.036.09.09 0 0 0-.048-.012.082.082 0 0 0-.048.013.078.078 0 0 0-.032.035.124.124 0 0 0-.011.054v.034c0 .023.005.043.014.06a.092.092 0 0 0 .04.038.148.148 0 0 0 .063.012.167.167 0 0 0 .063-.01.28.28 0 0 0 .051-.03l.118.119a.257.257 0 0 1-.098.066.417.417 0 0 1-.141.022Z" style="fill-rule:nonzero" transform="matrix(18 0 0 18 596.196 331.842)"/><path d="M.415.01a.207.207 0 0 1-.118-.031.175.175 0 0 1-.068-.093.472.472 0 0 1-.022-.159c0-.066.007-.12.02-.161a.169.169 0 0 1 .067-.093.22.22 0 0 1 .121-.03.26.26 0 0 1 .228.133.299.299 0 0 1 .036.151.305.305 0 0 1-.036.152.256.256 0 0 1-.228.131ZM.05.194v-.741h.215v.074l.001.2.01.2v.267H.05Zm.311-.36a.084.084 0 0 0 .045-.012.087.087 0 0 0 .032-.036.132.132 0 0 0 .012-.059.134.134 0 0 0-.012-.06.087.087 0 0 0-.032-.036.084.084 0 0 0-.045-.012.084.084 0 0 0-.045.012.087.087 0 0 0-.032.036.134.134 0 0 0-.012.06c0 .023.004.043.012.059a.087.087 0 0 0 .032.036.084.084 0 0 0 .045.012Z" style="fill-rule:nonzero" transform="matrix(18 0 0 18 613.351 331.842)"/><path style="fill-rule:nonzero" d="M.05-.742h.226V0H.05z" transform="matrix(18 0 0 18 625.951 331.842)"/><path d="M.278.01A.256.256 0 0 1 .16-.017.183.183 0 0 1 .078-.1a.306.306 0 0 1-.03-.145v-.302h.226v.263c0 .039.006.066.019.081s.03.023.052.023a.07.07 0 0 0 .037-.011.069.069 0 0 0 .029-.035.16.16 0 0 0 .011-.064v-.257h.226V0H.433v-.158l.043.043a.192.192 0 0 1-.083.094.22.22 0 0 1-.115.031Z" style="fill-rule:nonzero" transform="matrix(18 0 0 18 631.816 331.842)"/><path d="M.264.01a.634.634 0 0 1-.138-.015.4.4 0 0 1-.11-.039l.062-.149a.387.387 0 0 0 .191.049.135.135 0 0 0 .055-.007c.01-.005.015-.011.015-.019S.333-.184.322-.188a.288.288 0 0 0-.045-.008L.215-.204a.564.564 0 0 1-.067-.013.216.216 0 0 1-.062-.027.13.13 0 0 1-.045-.048.167.167 0 0 1-.017-.078c0-.035.01-.066.031-.094a.219.219 0 0 1 .094-.067.415.415 0 0 1 .155-.026c.04 0 .08.004.12.011.04.007.074.019.103.034l-.062.149a.347.347 0 0 0-.158-.04.145.145 0 0 0-.058.008C.238-.39.233-.384.233-.377c0 .008.006.014.017.018a.197.197 0 0 0 .045.009l.062.008a.421.421 0 0 1 .067.014.223.223 0 0 1 .061.027.125.125 0 0 1 .045.049.16.16 0 0 1 .017.077c0 .033-.01.063-.031.092a.214.214 0 0 1-.094.068.426.426 0 0 1-.158.025Z" style="fill-rule:nonzero" transform="matrix(18 0 0 18 644.381 331.842)"/><path d="M.05 0v-.547h.226V0H.05Zm.113-.591a.144.144 0 0 1-.099-.033.104.104 0 0 1-.037-.082c0-.033.012-.06.037-.082a.144.144 0 0 1 .099-.033c.041 0 .074.01.099.031a.099.099 0 0 1 .037.08.107.107 0 0 1-.037.085.14.14 0 0 1-.099.034Z" style="fill-rule:nonzero" transform="matrix(13 0 0 13 519.303 347.442)"/><path d="M.43-.557a.24.24 0 0 1 .114.026.187.187 0 0 1 .081.079.3.3 0 0 1 .029.14V0H.428v-.273c0-.034-.006-.058-.018-.073a.06.06 0 0 0-.049-.021.092.092 0 0 0-.043.011.074.074 0 0 0-.031.034.165.165 0 0 0-.011.065V0H.05v-.547h.215v.16L.222-.433A.222.222 0 0 1 .43-.557Z" style="fill-rule:nonzero" transform="matrix(13 0 0 13 523.541 347.442)"/><path d="m.205 0-.22-.547h.232l.167.444H.267l.178-.444h.214L.439 0H.205Z" style="fill-rule:nonzero" transform="matrix(13 0 0 13 532.537 347.442)"/><path d="M.352.01a.378.378 0 0 1-.174-.037.282.282 0 0 1-.116-.102.264.264 0 0 1-.041-.145.271.271 0 0 1 .152-.247.34.34 0 0 1 .158-.036c.054 0 .104.011.15.032a.266.266 0 0 1 .11.095.283.283 0 0 1 .041.156l-.001.027-.002.026H.208V-.33h.301l-.085.029a.124.124 0 0 0-.011-.054.094.094 0 0 0-.032-.036.09.09 0 0 0-.048-.012.082.082 0 0 0-.048.013.078.078 0 0 0-.032.035.124.124 0 0 0-.011.054v.034c0 .023.005.043.014.06a.092.092 0 0 0 .04.038.148.148 0 0 0 .063.012.167.167 0 0 0 .063-.01.28.28 0 0 0 .051-.03l.118.119a.257.257 0 0 1-.098.066.417.417 0 0 1-.141.022Z" style="fill-rule:nonzero" transform="matrix(13 0 0 13 540.714 347.442)"/><path d="M.05 0v-.547h.215v.165L.23-.429a.182.182 0 0 1 .08-.096.263.263 0 0 1 .132-.032v.2A.66.66 0 0 1 .416-.36L.392-.361a.124.124 0 0 0-.083.027c-.022.017-.033.048-.033.091V0H.05Z" style="fill-rule:nonzero" transform="matrix(13 0 0 13 549.201 347.442)"/><path d="M.314.01a.258.258 0 0 1-.176-.055C.096-.081.075-.137.075-.212V-.67h.226v.456c0 .017.004.03.013.039a.048.048 0 0 0 .034.014.09.09 0 0 0 .051-.015l.054.157A.202.202 0 0 1 .39.003.37.37 0 0 1 .314.01ZM0-.352v-.165h.413v.165H0Z" style="fill-rule:nonzero" transform="matrix(13 0 0 13 555.326 347.442)"/><path d="M.352.01a.378.378 0 0 1-.174-.037.282.282 0 0 1-.116-.102.264.264 0 0 1-.041-.145.271.271 0 0 1 .152-.247.34.34 0 0 1 .158-.036c.054 0 .104.011.15.032a.266.266 0 0 1 .11.095.283.283 0 0 1 .041.156l-.001.027-.002.026H.208V-.33h.301l-.085.029a.124.124 0 0 0-.011-.054.094.094 0 0 0-.032-.036.09.09 0 0 0-.048-.012.082.082 0 0 0-.048.013.078.078 0 0 0-.032.035.124.124 0 0 0-.011.054v.034c0 .023.005.043.014.06a.092.092 0 0 0 .04.038.148.148 0 0 0 .063.012.167.167 0 0 0 .063-.01.28.28 0 0 0 .051-.03l.118.119a.257.257 0 0 1-.098.066.417.417 0 0 1-.141.022Z" style="fill-rule:nonzero" transform="matrix(13 0 0 13 561.111 347.442)"/><path d="M.05 0v-.547h.215v.165L.23-.429a.182.182 0 0 1 .08-.096.263.263 0 0 1 .132-.032v.2A.66.66 0 0 1 .416-.36L.392-.361a.124.124 0 0 0-.083.027c-.022.017-.033.048-.033.091V0H.05Z" style="fill-rule:nonzero" transform="matrix(13 0 0 13 569.601 347.442)"/><path d="M569.644 101.092h-175l8.396-65.916h158.207l8.397 65.916Z" style="fill:#fff;stroke:#000;stroke-width:3.09px"/><path d="M561.708 94.787H402.729l6.169-53.464h146.641l6.169 53.464Z" style="fill:#4eb848;stroke:#000;stroke-width:3.09px"/><path d="M545.269 94.787h-126.96l4.926-53.464h117.108l4.926 53.464Z" style="fill:#4eb848;stroke:#000;stroke-width:3.09px"/><path d="M529.461 94.787h-95.237l3.695-53.464h87.846l3.696 53.464Z" style="fill:none;stroke:#000;stroke-width:3.09px"/><path d="M513.775 94.787h-79.316l3.078-53.464h73.16l3.078 53.464Z" style="fill:#4eb848;stroke:#000;stroke-width:3.09px"/><path d="M497.879 94.787h-47.654l1.849-53.464h43.956l1.849 53.464Z" style="fill:#4eb848;stroke:#000;stroke-width:3.09px"/><path d="M482.121 94.787h-16.067l.623-53.464h14.82l.624 53.464Z" style="fill:#4eb848;stroke:#000;stroke-width:3.09px"/><path d="M407.583 58.866h148.599M405.868 76.95h152.983" style="fill:none;stroke:#000;stroke-width:3.09px"/><path d="M.125 0v-.618l.101.096H.005V-.7h.356V0H.125Z" style="fill-rule:nonzero" transform="matrix(18 0 0 18 415.233 128.769)"/><path d="M.125 0v-.618l.101.096H.005V-.7h.356V0H.125Z" style="fill-rule:nonzero" transform="matrix(18 0 0 18 422.757 128.769)"/><path d="M.152.01A.128.128 0 0 1 .02-.12a.12.12 0 0 1 .038-.093.135.135 0 0 1 .094-.035c.037 0 .069.012.094.035a.12.12 0 0 1 .038.093.127.127 0 0 1-.038.094.131.131 0 0 1-.094.036Z" style="fill-rule:nonzero" transform="matrix(18 0 0 18 430.28 128.769)"/><path d="M.028 0v-.145l.253-.234a.225.225 0 0 0 .035-.04.102.102 0 0 0 .016-.031.077.077 0 0 0 .004-.025.05.05 0 0 0-.017-.04C.308-.525.291-.53.268-.53a.106.106 0 0 0-.059.017.114.114 0 0 0-.044.048l-.178-.089a.29.29 0 0 1 .114-.117.367.367 0 0 1 .189-.045c.055 0 .104.009.147.027a.228.228 0 0 1 .1.076.19.19 0 0 1 .036.116.265.265 0 0 1-.009.068.212.212 0 0 1-.034.072.506.506 0 0 1-.077.083l-.19.173-.037-.082h.363V0H.028Z" style="fill-rule:nonzero" transform="matrix(18 0 0 18 435.933 128.769)"/><path d="m.239-.09.005-.266.189-.191H.7l-.25.262-.113.091-.098.104ZM.05 0v-.742h.226V0H.05Zm.395 0-.15-.19.139-.171L.718 0H.445Z" style="fill-rule:nonzero" transform="matrix(18 0 0 18 452.277 128.769)"/><path d="M.234 0 .01-.7h.243l.181.591H.312L.504-.7h.217L.9-.109H.783L.972-.7h.224L.972 0H.719L.573-.484h.068L.487 0H.234Z" style="fill-rule:nonzero" transform="matrix(18 0 0 18 465.11 128.769)"/><path d="M.415.01a.207.207 0 0 1-.118-.031.175.175 0 0 1-.068-.093.472.472 0 0 1-.022-.159c0-.066.007-.12.02-.161a.169.169 0 0 1 .067-.093.22.22 0 0 1 .121-.03.26.26 0 0 1 .228.133.299.299 0 0 1 .036.151.305.305 0 0 1-.036.152.256.256 0 0 1-.228.131ZM.05.194v-.741h.215v.074l.001.2.01.2v.267H.05Zm.311-.36a.084.084 0 0 0 .045-.012.087.087 0 0 0 .032-.036.132.132 0 0 0 .012-.059.134.134 0 0 0-.012-.06.087.087 0 0 0-.032-.036.084.084 0 0 0-.045-.012.084.084 0 0 0-.045.012.087.087 0 0 0-.032.036.134.134 0 0 0-.012.06c0 .023.004.043.012.059a.087.087 0 0 0 .032.036.084.084 0 0 0 .045.012Z" style="fill-rule:nonzero" transform="matrix(18 0 0 18 486.188 128.769)"/><path d="M.264.01a.634.634 0 0 1-.138-.015.4.4 0 0 1-.11-.039l.062-.149a.387.387 0 0 0 .191.049.135.135 0 0 0 .055-.007c.01-.005.015-.011.015-.019S.333-.184.322-.188a.288.288 0 0 0-.045-.008L.215-.204a.564.564 0 0 1-.067-.013.216.216 0 0 1-.062-.027.13.13 0 0 1-.045-.048.167.167 0 0 1-.017-.078c0-.035.01-.066.031-.094a.219.219 0 0 1 .094-.067.415.415 0 0 1 .155-.026c.04 0 .08.004.12.011.04.007.074.019.103.034l-.062.149a.347.347 0 0 0-.158-.04.145.145 0 0 0-.058.008C.238-.39.233-.384.233-.377c0 .008.006.014.017.018a.197.197 0 0 0 .045.009l.062.008a.421.421 0 0 1 .067.014.223.223 0 0 1 .061.027.125.125 0 0 1 .045.049.16.16 0 0 1 .017.077c0 .033-.01.063-.031.092a.214.214 0 0 1-.094.068.426.426 0 0 1-.158.025Z" style="fill-rule:nonzero" transform="matrix(18 0 0 18 504.188 128.769)"/><path d="M.339.01a.352.352 0 0 1-.165-.037.271.271 0 0 1-.153-.247.271.271 0 0 1 .154-.247.357.357 0 0 1 .164-.036c.062 0 .117.012.165.036a.275.275 0 0 1 .113.1.27.27 0 0 1 .04.147.27.27 0 0 1-.153.248.364.364 0 0 1-.165.036Zm0-.176a.084.084 0 0 0 .045-.012.087.087 0 0 0 .032-.036.14.14 0 0 0 .012-.06.126.126 0 0 0-.012-.059.087.087 0 0 0-.032-.036.084.084 0 0 0-.045-.012.084.084 0 0 0-.077.047.134.134 0 0 0-.012.06c0 .023.004.043.012.059a.084.084 0 0 0 .032.037.084.084 0 0 0 .045.012Z" style="fill-rule:nonzero" transform="matrix(18 0 0 18 514.358 128.769)"/><path d="M.278.01A.256.256 0 0 1 .16-.017.183.183 0 0 1 .078-.1a.306.306 0 0 1-.03-.145v-.302h.226v.263c0 .039.006.066.019.081s.03.023.052.023a.07.07 0 0 0 .037-.011.069.069 0 0 0 .029-.035.16.16 0 0 0 .011-.064v-.257h.226V0H.433v-.158l.043.043a.192.192 0 0 1-.083.094.22.22 0 0 1-.115.031Z" style="fill-rule:nonzero" transform="matrix(18 0 0 18 526.563 128.769)"/><path d="M.314.01a.258.258 0 0 1-.176-.055C.096-.081.075-.137.075-.212V-.67h.226v.456c0 .017.004.03.013.039a.048.048 0 0 0 .034.014.09.09 0 0 0 .051-.015l.054.157A.202.202 0 0 1 .39.003.37.37 0 0 1 .314.01ZM0-.352v-.165h.413v.165H0Z" style="fill-rule:nonzero" transform="matrix(18 0 0 18 539.128 128.769)"/><path d="M.43-.557a.24.24 0 0 1 .114.026.187.187 0 0 1 .081.079.3.3 0 0 1 .029.14V0H.428v-.273c0-.034-.006-.058-.018-.073a.06.06 0 0 0-.049-.021.092.092 0 0 0-.043.011.074.074 0 0 0-.031.034.165.165 0 0 0-.011.065V0H.05v-.742h.226v.355L.222-.433A.222.222 0 0 1 .43-.557Z" style="fill-rule:nonzero" transform="matrix(18 0 0 18 547.408 128.769)"/><path d="M.415.01a.207.207 0 0 1-.118-.031.175.175 0 0 1-.068-.093.472.472 0 0 1-.022-.159c0-.066.007-.12.02-.161a.169.169 0 0 1 .067-.093.22.22 0 0 1 .121-.03.26.26 0 0 1 .228.133.299.299 0 0 1 .036.151.305.305 0 0 1-.036.152.256.256 0 0 1-.228.131ZM.05.194v-.741h.215v.074l.001.2.01.2v.267H.05Zm.311-.36a.084.084 0 0 0 .045-.012.087.087 0 0 0 .032-.036.132.132 0 0 0 .012-.059.134.134 0 0 0-.012-.06.087.087 0 0 0-.032-.036.084.084 0 0 0-.045-.012.084.084 0 0 0-.045.012.087.087 0 0 0-.032.036.134.134 0 0 0-.012.06c0 .023.004.043.012.059a.087.087 0 0 0 .032.036.084.084 0 0 0 .045.012Z" style="fill-rule:nonzero" transform="matrix(13 0 0 13 438.849 144.369)"/><path d="M.43-.557a.24.24 0 0 1 .114.026.187.187 0 0 1 .081.079.3.3 0 0 1 .029.14V0H.428v-.273c0-.034-.006-.058-.018-.073a.06.06 0 0 0-.049-.021.092.092 0 0 0-.043.011.074.074 0 0 0-.031.034.165.165 0 0 0-.011.065V0H.05v-.742h.226v.355L.222-.433A.222.222 0 0 1 .43-.557Z" style="fill-rule:nonzero" transform="matrix(13 0 0 13 447.949 144.369)"/><path d="M.339.01a.352.352 0 0 1-.165-.037.271.271 0 0 1-.153-.247.271.271 0 0 1 .154-.247.357.357 0 0 1 .164-.036c.062 0 .117.012.165.036a.275.275 0 0 1 .113.1.27.27 0 0 1 .04.147.27.27 0 0 1-.153.248.364.364 0 0 1-.165.036Zm0-.176a.084.084 0 0 0 .045-.012.087.087 0 0 0 .032-.036.14.14 0 0 0 .012-.06.126.126 0 0 0-.012-.059.087.087 0 0 0-.032-.036.084.084 0 0 0-.045-.012.084.084 0 0 0-.077.047.134.134 0 0 0-.012.06c0 .023.004.043.012.059a.084.084 0 0 0 .032.037.084.084 0 0 0 .045.012Z" style="fill-rule:nonzero" transform="matrix(13 0 0 13 457.205 144.369)"/><path d="M.314.01a.258.258 0 0 1-.176-.055C.096-.081.075-.137.075-.212V-.67h.226v.456c0 .017.004.03.013.039a.048.048 0 0 0 .034.014.09.09 0 0 0 .051-.015l.054.157A.202.202 0 0 1 .39.003.37.37 0 0 1 .314.01ZM0-.352v-.165h.413v.165H0Z" style="fill-rule:nonzero" transform="matrix(13 0 0 13 466.019 144.369)"/><path d="M.339.01a.352.352 0 0 1-.165-.037.271.271 0 0 1-.153-.247.271.271 0 0 1 .154-.247.357.357 0 0 1 .164-.036c.062 0 .117.012.165.036a.275.275 0 0 1 .113.1.27.27 0 0 1 .04.147.27.27 0 0 1-.153.248.364.364 0 0 1-.165.036Zm0-.176a.084.084 0 0 0 .045-.012.087.087 0 0 0 .032-.036.14.14 0 0 0 .012-.06.126.126 0 0 0-.012-.059.087.087 0 0 0-.032-.036.084.084 0 0 0-.045-.012.084.084 0 0 0-.077.047.134.134 0 0 0-.012.06c0 .023.004.043.012.059a.084.084 0 0 0 .032.037.084.084 0 0 0 .045.012Z" style="fill-rule:nonzero" transform="matrix(13 0 0 13 471.804 144.369)"/><path d="m.205 0-.22-.547h.232l.167.444H.267l.178-.444h.214L.439 0H.205Z" style="fill-rule:nonzero" transform="matrix(13 0 0 13 480.423 144.369)"/><path d="M.339.01a.352.352 0 0 1-.165-.037.271.271 0 0 1-.153-.247.271.271 0 0 1 .154-.247.357.357 0 0 1 .164-.036c.062 0 .117.012.165.036a.275.275 0 0 1 .113.1.27.27 0 0 1 .04.147.27.27 0 0 1-.153.248.364.364 0 0 1-.165.036Zm0-.176a.084.084 0 0 0 .045-.012.087.087 0 0 0 .032-.036.14.14 0 0 0 .012-.06.126.126 0 0 0-.012-.059.087.087 0 0 0-.032-.036.084.084 0 0 0-.045-.012.084.084 0 0 0-.077.047.134.134 0 0 0-.012.06c0 .023.004.043.012.059a.084.084 0 0 0 .032.037.084.084 0 0 0 .045.012Z" style="fill-rule:nonzero" transform="matrix(13 0 0 13 488.598 144.369)"/><path style="fill-rule:nonzero" d="M.05-.742h.226V0H.05z" transform="matrix(13 0 0 13 497.413 144.369)"/><path d="M.314.01a.258.258 0 0 1-.176-.055C.096-.081.075-.137.075-.212V-.67h.226v.456c0 .017.004.03.013.039a.048.048 0 0 0 .034.014.09.09 0 0 0 .051-.015l.054.157A.202.202 0 0 1 .39.003.37.37 0 0 1 .314.01ZM0-.352v-.165h.413v.165H0Z" style="fill-rule:nonzero" transform="matrix(13 0 0 13 502.563 144.369)"/><path d="M.381 0v-.097L.365-.123v-.184c0-.027-.008-.047-.024-.061C.324-.382.298-.389.261-.389a.245.245 0 0 0-.075.012.206.206 0 0 0-.065.031L.049-.495a.39.39 0 0 1 .115-.046.546.546 0 0 1 .131-.016.34.34 0 0 1 .219.063c.051.042.077.109.077.2V0h-.21ZM.226.01a.248.248 0 0 1-.112-.023.162.162 0 0 1-.068-.061A.17.17 0 0 1 .05-.25a.166.166 0 0 1 .083-.056.426.426 0 0 1 .14-.019h.114v.109H.309c-.024 0-.041.004-.052.012C.246-.197.24-.185.24-.17a.04.04 0 0 0 .015.032c.009.008.022.012.039.012.015 0 .03-.004.043-.012a.075.075 0 0 0 .028-.04l.029.067a.144.144 0 0 1-.055.091.191.191 0 0 1-.113.03Z" style="fill-rule:nonzero" transform="matrix(13 0 0 13 508.543 144.369)"/><path d="M.05 0v-.547h.226V0H.05Zm.113-.591a.144.144 0 0 1-.099-.033.104.104 0 0 1-.037-.082c0-.033.012-.06.037-.082a.144.144 0 0 1 .099-.033c.041 0 .074.01.099.031a.099.099 0 0 1 .037.08.107.107 0 0 1-.037.085.14.14 0 0 1-.099.034Z" style="fill-rule:nonzero" transform="matrix(13 0 0 13 516.848 144.369)"/><path d="M.344.01a.373.373 0 0 1-.167-.036.269.269 0 0 1-.156-.248c0-.055.014-.104.041-.147a.28.28 0 0 1 .115-.1.373.373 0 0 1 .167-.036.32.32 0 0 1 .171.043c.047.029.08.068.098.119l-.175.086a.128.128 0 0 0-.041-.055.098.098 0 0 0-.054-.017.09.09 0 0 0-.08.047.121.121 0 0 0-.013.06c0 .024.004.044.013.06a.083.083 0 0 0 .033.036.093.093 0 0 0 .1-.005.122.122 0 0 0 .042-.055l.175.086a.225.225 0 0 1-.098.119.32.32 0 0 1-.171.043Z" style="fill-rule:nonzero" transform="matrix(13 0 0 13 521.088 144.369)"/><path d="M.264.01a.634.634 0 0 1-.138-.015.4.4 0 0 1-.11-.039l.062-.149a.387.387 0 0 0 .191.049.135.135 0 0 0 .055-.007c.01-.005.015-.011.015-.019S.333-.184.322-.188a.288.288 0 0 0-.045-.008L.215-.204a.564.564 0 0 1-.067-.013.216.216 0 0 1-.062-.027.13.13 0 0 1-.045-.048.167.167 0 0 1-.017-.078c0-.035.01-.066.031-.094a.219.219 0 0 1 .094-.067.415.415 0 0 1 .155-.026c.04 0 .08.004.12.011.04.007.074.019.103.034l-.062.149a.347.347 0 0 0-.158-.04.145.145 0 0 0-.058.008C.238-.39.233-.384.233-.377c0 .008.006.014.017.018a.197.197 0 0 0 .045.009l.062.008a.421.421 0 0 1 .067.014.223.223 0 0 1 .061.027.125.125 0 0 1 .045.049.16.16 0 0 1 .017.077c0 .033-.01.063-.031.092a.214.214 0 0 1-.094.068.426.426 0 0 1-.158.025Z" style="fill-rule:nonzero" transform="matrix(13 0 0 13 529.083 144.369)"/><path d="M385.254 217.785a4.473 4.473 0 0 0-4.471-4.471H279.48a4.473 4.473 0 0 0-4.471 4.471v62.483a4.473 4.473 0 0 0 4.471 4.472h101.303a4.473 4.473 0 0 0 4.471-4.472v-62.483Z" style="fill:#4eb848;stroke:#231f20;stroke-width:3px;stroke-linecap:square"/><path d="m324.797 244.835-3.424 6.84h3.424l-6.419 11.97 1.283-8.549h-4.279l4.28-10.261h5.135ZM336.108 248.086c.937.883 1.414 2.057 1.429 3.525h-3.109c-.016-.646-.214-1.17-.597-1.574-.383-.403-.888-.604-1.515-.604-.773 0-1.356.28-1.749.843-.394.563-.591 1.475-.591 2.739v.343c0 1.279.195 2.197.585 2.756.39.559.982.838 1.778.838.612 0 1.109-.168 1.492-.504.383-.337.581-.784.597-1.342h3.109a4.253 4.253 0 0 1-.688 2.31 4.536 4.536 0 0 1-1.854 1.627c-.783.386-1.649.579-2.598.579-1.775 0-3.175-.563-4.2-1.69-1.025-1.127-1.537-2.684-1.537-4.671v-.218c0-1.91.508-3.435 1.526-4.573 1.017-1.139 2.413-1.708 4.187-1.708 1.554 0 2.799.441 3.735 1.324ZM348.363 248.086c.936.883 1.413 2.057 1.429 3.525h-3.111c-.014-.646-.214-1.17-.596-1.574-.383-.403-.888-.604-1.515-.604-.773 0-1.356.28-1.749.843-.394.563-.591 1.475-.591 2.739v.343c0 1.279.195 2.197.585 2.756.39.559.982.838 1.778.838.612 0 1.109-.168 1.492-.504.382-.337.582-.784.596-1.342h3.111a4.263 4.263 0 0 1-.689 2.31 4.546 4.546 0 0 1-1.853 1.627c-.785.386-1.651.579-2.599.579-1.775 0-3.175-.563-4.199-1.69-1.026-1.127-1.538-2.684-1.538-4.671v-.218c0-1.91.508-3.435 1.525-4.573 1.018-1.139 2.414-1.708 4.189-1.708 1.553 0 2.798.441 3.735 1.324ZM310.55 246.992h3.465l-4.188 12.401h-3.166l-4.189-12.401h3.465l2.307 8.355 2.306-8.355ZM292.312 257.949c-1.143-1.115-1.715-2.602-1.715-4.459v-.321c0-1.245.24-2.359.723-3.341.481-.982 1.164-1.738 2.048-2.27.883-.53 1.891-.796 3.023-.796 1.698 0 3.035.535 4.011 1.605.975 1.069 1.462 2.587 1.462 4.55v1.353h-7.905c.106.81.43 1.459.969 1.948.54.49 1.222.734 2.049.734 1.277 0 2.275-.463 2.994-1.387l1.629 1.823c-.497.702-1.17 1.251-2.019 1.645-.849.393-1.79.589-2.822.589-1.821 0-3.303-.558-4.447-1.673Zm1.647-6.154h5.268s-.303-2.376-2.836-2.393c-2.533-.016-2.432 2.393-2.432 2.393Z"/><path style="fill:#fff;stroke:#231f20;stroke-width:3px;stroke-linecap:square" d="M282.891 213.351h66.439v8.074h-66.439zM358.648 218.498h31.226v20.349h-31.226zM363.337 245.307h26.391v16.499h-26.391zM363.337 268.299h26.391v16.499h-26.391zM283.782 278.283h9.721v8.872h-9.721zM304.173 276.998h7.731v11.142h-7.731zM321.879 276.998h7.731v11.142h-7.731zM339.221 270.177h8.585v18.484h-8.585z"/><path d="M256.524 317.648v-12.6h6.066c1.176 0 2.193.192 3.051.576.858.384 1.521.933 1.989 1.647.468.714.702 1.557.702 2.529s-.234 1.809-.702 2.511c-.468.702-1.131 1.239-1.989 1.611-.858.372-1.875.558-3.051.558h-3.708l1.89-1.746v4.914h-4.248Zm7.542 0-3.096-4.59h4.5l3.132 4.59h-4.536Zm-3.294-4.446-1.89-1.926h3.438c.588 0 1.023-.132 1.305-.396.282-.264.423-.624.423-1.08 0-.456-.141-.816-.423-1.08-.282-.264-.717-.396-1.305-.396h-3.438l1.89-1.926v6.804ZM275.676 317.648v-1.746l-.288-.468v-3.312c0-.48-.147-.846-.441-1.098-.294-.252-.771-.378-1.431-.378-.444 0-.894.069-1.35.207a3.794 3.794 0 0 0-1.17.567l-1.296-2.682c.576-.36 1.266-.636 2.07-.828.804-.192 1.59-.288 2.358-.288 1.692 0 3.003.378 3.933 1.134.93.756 1.395 1.956 1.395 3.6v5.292h-3.78Zm-2.79.18c-.804 0-1.476-.138-2.016-.414-.54-.276-.948-.645-1.224-1.107a2.944 2.944 0 0 1-.414-1.539c0-.636.162-1.176.486-1.62.324-.444.819-.78 1.485-1.008.666-.228 1.509-.342 2.529-.342h2.052v1.962h-1.404c-.432 0-.747.069-.945.207-.198.138-.297.345-.297.621 0 .228.087.417.261.567.174.15.411.225.711.225.276 0 .531-.075.765-.225.234-.15.405-.387.513-.711l.522 1.206c-.156.732-.486 1.278-.99 1.638-.504.36-1.182.54-2.034.54ZM285.072 317.828c-.84 0-1.668-.09-2.484-.27-.816-.18-1.476-.414-1.98-.702l1.116-2.682a6.158 6.158 0 0 0 1.629.648 7.377 7.377 0 0 0 1.809.234c.492 0 .825-.042.999-.126.174-.084.261-.198.261-.342 0-.144-.102-.249-.306-.315a4.153 4.153 0 0 0-.81-.153 41.883 41.883 0 0 1-1.107-.135 9.893 9.893 0 0 1-1.215-.243 3.889 3.889 0 0 1-1.116-.486 2.415 2.415 0 0 1-.81-.873c-.204-.366-.306-.831-.306-1.395 0-.624.189-1.188.567-1.692.378-.504.942-.909 1.692-1.215.75-.306 1.677-.459 2.781-.459.72 0 1.44.066 2.16.198.72.132 1.338.336 1.854.612l-1.116 2.682a5.416 5.416 0 0 0-1.485-.567 6.64 6.64 0 0 0-1.359-.153c-.516 0-.867.048-1.053.144-.186.096-.279.204-.279.324 0 .144.102.252.306.324.204.072.474.126.81.162.336.036.705.081 1.107.135.402.054.804.138 1.206.252.402.114.771.279 1.107.495.336.216.606.507.81.873.204.366.306.831.306 1.395 0 .588-.186 1.137-.558 1.647-.372.51-.936.918-1.692 1.224-.756.306-1.704.459-2.844.459ZM297.96 317.828c-.852 0-1.557-.183-2.115-.549-.558-.366-.969-.924-1.233-1.674-.264-.75-.396-1.707-.396-2.871 0-1.188.123-2.157.369-2.907s.645-1.305 1.197-1.665c.552-.36 1.278-.54 2.178-.54a4.608 4.608 0 0 1 4.104 2.385c.432.762.648 1.671.648 2.727 0 1.056-.216 1.965-.648 2.727-.432.762-1.008 1.347-1.728 1.755a4.736 4.736 0 0 1-2.376.612Zm-6.57 3.312v-13.338h3.87v1.332l.018 3.6.18 3.6v4.806h-4.068Zm5.598-6.48c.3 0 .57-.072.81-.216.24-.144.432-.36.576-.648.144-.288.216-.642.216-1.062 0-.432-.072-.792-.216-1.08a1.526 1.526 0 0 0-.576-.648 1.544 1.544 0 0 0-.81-.216c-.3 0-.57.072-.81.216-.24.144-.432.36-.576.648-.144.288-.216.648-.216 1.08 0 .42.072.774.216 1.062.144.288.336.504.576.648.24.144.51.216.81.216ZM310.56 317.828c-.9 0-1.626-.18-2.178-.54-.552-.36-.951-.918-1.197-1.674-.246-.756-.369-1.722-.369-2.898 0-1.164.132-2.121.396-2.871s.675-1.308 1.233-1.674c.558-.366 1.263-.549 2.115-.549.864 0 1.656.204 2.376.612.72.408 1.296.993 1.728 1.755.432.762.648 1.671.648 2.727 0 1.056-.216 1.965-.648 2.727a4.608 4.608 0 0 1-4.104 2.385Zm-6.57-.18v-13.356h4.068v4.824l-.18 3.6-.018 3.6v1.332h-3.87Zm5.598-2.988c.3 0 .57-.072.81-.216.24-.144.432-.363.576-.657.144-.294.216-.651.216-1.071 0-.432-.072-.789-.216-1.071a1.536 1.536 0 0 0-.576-.639 1.544 1.544 0 0 0-.81-.216c-.3 0-.57.072-.81.216-.24.144-.432.357-.576.639-.144.282-.216.639-.216 1.071 0 .42.072.777.216 1.071.144.294.336.513.576.657.24.144.51.216.81.216ZM322.026 317.828c-1.2 0-2.247-.222-3.141-.666-.894-.444-1.587-1.053-2.079-1.827-.492-.774-.738-1.647-.738-2.619 0-.996.243-1.878.729-2.646a5.005 5.005 0 0 1 1.998-1.8c.846-.432 1.797-.648 2.853-.648.972 0 1.869.192 2.691.576a4.717 4.717 0 0 1 1.98 1.71c.498.756.747 1.692.747 2.808 0 .144-.006.303-.018.477a33.71 33.71 0 0 1-.036.477h-7.578v-1.962h5.418l-1.53.522c0-.384-.069-.711-.207-.981a1.563 1.563 0 0 0-.567-.63 1.597 1.597 0 0 0-.864-.225c-.336 0-.627.075-.873.225-.246.15-.435.36-.567.63-.132.27-.198.597-.198.981v.612c0 .42.084.78.252 1.08.168.3.408.525.72.675.312.15.69.225 1.134.225.456 0 .831-.06 1.125-.18.294-.12.603-.3.927-.54l2.124 2.142a4.67 4.67 0 0 1-1.773 1.179c-.702.27-1.545.405-2.529.405ZM328.344 317.648v-9.846h3.87v2.97l-.63-.846c.3-.768.78-1.344 1.44-1.728.66-.384 1.452-.576 2.376-.576v3.6c-.18-.024-.339-.042-.477-.054a4.882 4.882 0 0 0-.423-.018c-.612 0-1.113.159-1.503.477-.39.318-.585.867-.585 1.647v4.374h-4.068ZM336.552 317.648v-9.846h3.87v2.97l-.63-.846c.3-.768.78-1.344 1.44-1.728.66-.384 1.452-.576 2.376-.576v3.6c-.18-.024-.339-.042-.477-.054a4.882 4.882 0 0 0-.423-.018c-.612 0-1.113.159-1.503.477-.39.318-.585.867-.585 1.647v4.374h-4.068ZM347.19 321.32c-.54 0-1.089-.081-1.647-.243-.558-.162-1.005-.375-1.341-.639l1.35-2.79c.204.156.435.282.693.378.258.096.507.144.747.144.36 0 .636-.075.828-.225.192-.15.348-.375.468-.675l.414-1.044.288-.396 3.15-8.028h3.852l-4.05 10.044c-.36.9-.777 1.602-1.251 2.106-.474.504-1.002.858-1.584 1.062a5.76 5.76 0 0 1-1.917.306Zm.954-3.222-4.284-10.296h4.176l2.952 7.668-2.844 2.628ZM362.148 317.648v-12.6h6.066c1.176 0 2.193.192 3.051.576.858.384 1.521.933 1.989 1.647.468.714.702 1.557.702 2.529s-.234 1.812-.702 2.52c-.468.708-1.131 1.257-1.989 1.647-.858.39-1.875.585-3.051.585h-3.708l1.89-1.818v4.914h-4.248Zm4.248-4.446-1.89-1.926h3.438c.588 0 1.023-.132 1.305-.396.282-.264.423-.624.423-1.08 0-.456-.141-.816-.423-1.08-.282-.264-.717-.396-1.305-.396h-3.438l1.89-1.926v6.804ZM375.396 317.648v-9.846h4.068v9.846h-4.068Zm2.034-10.638c-.744 0-1.338-.198-1.782-.594a1.898 1.898 0 0 1-.666-1.476c0-.588.222-1.08.666-1.476.444-.396 1.038-.594 1.782-.594s1.338.186 1.782.558c.444.372.666.852.666 1.44 0 .624-.222 1.137-.666 1.539-.444.402-1.038.603-1.782.603ZM390.624 317.936c-.864 0-1.74-.096-2.628-.288-.888-.192-1.668-.474-2.34-.846l1.44-3.132c.54.312 1.107.543 1.701.693.594.15 1.155.225 1.683.225.48 0 .873-.081 1.179-.243.306-.162.459-.405.459-.729a.721.721 0 0 0-.342-.639c-.228-.15-.612-.225-1.152-.225h-1.674v-2.61l3.258-3.312.378 1.422h-6.282v-3.204h9.396v2.61l-3.258 3.312-2.034-1.152h1.116c1.584 0 2.79.354 3.618 1.062.828.708 1.242 1.62 1.242 2.736 0 .72-.201 1.41-.603 2.07-.402.66-1.026 1.2-1.872 1.62-.846.42-1.941.63-3.285.63ZM404.286 317.828c-.9 0-1.626-.18-2.178-.54-.552-.36-.951-.918-1.197-1.674-.246-.756-.369-1.722-.369-2.898 0-1.164.132-2.121.396-2.871s.675-1.308 1.233-1.674c.558-.366 1.263-.549 2.115-.549.864 0 1.656.204 2.376.612.72.408 1.296.993 1.728 1.755.432.762.648 1.671.648 2.727 0 1.056-.216 1.965-.648 2.727a4.608 4.608 0 0 1-4.104 2.385Zm-6.57-.18v-13.356h4.068v4.824l-.18 3.6-.018 3.6v1.332h-3.87Zm5.598-2.988c.3 0 .57-.072.81-.216.24-.144.432-.363.576-.657.144-.294.216-.651.216-1.071 0-.432-.072-.789-.216-1.071a1.536 1.536 0 0 0-.576-.639 1.544 1.544 0 0 0-.81-.216c-.3 0-.57.072-.81.216-.24.144-.432.357-.576.639-.144.282-.216.639-.216 1.071 0 .42.072.777.216 1.071.144.294.336.513.576.657.24.144.51.216.81.216Z" style="fill-rule:nonzero"/><path d="m206.104 380.641 53.272-51.981M213.869 181.122l49.981 35.276M426.37 143.363l-51.014 55.671M442.238 382.552l-47.761-52.899M492.723 255.362l-85.406-.31" style="fill:none;stroke:#000;stroke-width:3px"/></svg>