<svg viewBox="0 0 675 540" xmlns="http://www.w3.org/2000/svg" xml:space="preserve" style="fill-rule:evenodd;clip-rule:evenodd;stroke-linecap:round;stroke-linejoin:round;stroke-miterlimit:1.5"><path style="fill:#17dc43" d="M-27.791-71.72h748.679v691.597H-27.791z"/><path d="M75.496 288.485h18.279s3.452.145 5.459 2.865c2.323 3.148 2.115 7.47 2.115 7.47v55.635s.16 8.392-7.574 15.273c-7.322 6.515-17.779 6.426-17.779 6.426" style="fill:#4eb848;stroke:#000;stroke-width:2.37px"/><path d="M76.82 288.485H58.541s-3.452.145-5.459 2.865c-2.323 3.148-2.115 7.47-2.115 7.47v55.635s-.16 8.392 7.574 15.273c7.322 6.515 17.779 6.426 17.779 6.426" style="fill:#4eb848;stroke:#000;stroke-width:2.37px"/><ellipse cx="91.692" cy="329.803" rx="3.229" ry="3.221" style="fill:#fff;stroke:#000;stroke-width:2.37px"/><ellipse cx="76.355" cy="350.96" rx="18.279" ry="18.281" style="fill:#fff;stroke:#000;stroke-width:2.37px"/><path d="M.328.204A.668.668 0 0 1 .176.187.365.365 0 0 1 .054.136L.13-.018a.333.333 0 0 0 .175.054c.047 0 .08-.01.1-.03.02-.019.03-.047.03-.084v-.046l.01-.17.001-.17v-.083h.215v.438c0 .106-.029.185-.088.236a.361.361 0 0 1-.245.077ZM.284-.03a.263.263 0 0 1-.226-.124.254.254 0 0 1-.037-.14.254.254 0 0 1 .263-.263c.047 0 .086.009.116.028a.165.165 0 0 1 .068.086.422.422 0 0 1 .022.149c0 .06-.007.109-.022.148A.168.168 0 0 1 .4-.059a.214.214 0 0 1-.116.029Zm.06-.176a.106.106 0 0 0 .048-.011.082.082 0 0 0 .033-.031.088.088 0 0 0 .012-.046.089.089 0 0 0-.012-.047.08.08 0 0 0-.033-.03.106.106 0 0 0-.048-.01.112.112 0 0 0-.048.01.09.09 0 0 0-.034.03.089.089 0 0 0-.012.047.08.08 0 0 0 .013.046.082.082 0 0 0 .033.031.113.113 0 0 0 .048.011Z" style="fill-rule:nonzero" transform="matrix(16 0 0 16 18.033 403.906)"/><path d="M.339.01a.352.352 0 0 1-.165-.037.271.271 0 0 1-.153-.247.271.271 0 0 1 .154-.247.357.357 0 0 1 .164-.036c.062 0 .117.012.165.036a.275.275 0 0 1 .113.1.27.27 0 0 1 .04.147.27.27 0 0 1-.153.248.364.364 0 0 1-.165.036Zm0-.176a.084.084 0 0 0 .045-.012.087.087 0 0 0 .032-.036.14.14 0 0 0 .012-.06.126.126 0 0 0-.012-.059.087.087 0 0 0-.032-.036.084.084 0 0 0-.045-.012.084.084 0 0 0-.077.047.134.134 0 0 0-.012.06c0 .023.004.043.012.059a.084.084 0 0 0 .032.037.084.084 0 0 0 .045.012Z" style="fill-rule:nonzero" transform="matrix(16 0 0 16 29.409 403.906)"/><path style="fill-rule:nonzero" d="M.045-.374h.3v.17h-.3z" transform="matrix(16 0 0 16 40.417 403.906)"/><path d="M.352.01a.378.378 0 0 1-.174-.037.282.282 0 0 1-.116-.102.264.264 0 0 1-.041-.145.271.271 0 0 1 .152-.247.34.34 0 0 1 .158-.036c.054 0 .104.011.15.032a.266.266 0 0 1 .11.095.283.283 0 0 1 .041.156l-.001.027-.002.026H.208V-.33h.301l-.085.029a.124.124 0 0 0-.011-.054.094.094 0 0 0-.032-.036.09.09 0 0 0-.048-.012.082.082 0 0 0-.048.013.078.078 0 0 0-.032.035.124.124 0 0 0-.011.054v.034c0 .023.005.043.014.06a.092.092 0 0 0 .04.038.148.148 0 0 0 .063.012.167.167 0 0 0 .063-.01.28.28 0 0 0 .051-.03l.118.119a.257.257 0 0 1-.098.066.417.417 0 0 1-.141.022Z" style="fill-rule:nonzero" transform="matrix(16 0 0 16 46.817 403.906)"/><path d="M.511-.7h.236V0H.511v-.7ZM.293 0H.057v-.7h.236V0Zm.234-.258h-.25v-.194h.25v.194Z" style="fill-rule:nonzero" transform="matrix(16 0 0 16 62.065 403.906)"/><path d="M.425.016a.448.448 0 0 1-.158-.027.357.357 0 0 1-.209-.193.374.374 0 0 1 0-.293.368.368 0 0 1 .209-.192.442.442 0 0 1 .157-.027c.057 0 .11.009.158.027a.35.35 0 0 1 .237.339.353.353 0 0 1-.112.262.37.37 0 0 1-.125.077.442.442 0 0 1-.157.027ZM.424-.175a.154.154 0 0 0 .061-.012.137.137 0 0 0 .05-.035.146.146 0 0 0 .034-.055.207.207 0 0 0 .012-.073.207.207 0 0 0-.012-.073.146.146 0 0 0-.034-.055.126.126 0 0 0-.05-.035.16.16 0 0 0-.123 0 .153.153 0 0 0-.05.034.168.168 0 0 0-.033.055.217.217 0 0 0-.012.074c0 .027.004.052.012.073.008.022.019.04.033.055a.156.156 0 0 0 .05.035.16.16 0 0 0 .062.012Z" style="fill-rule:nonzero" transform="matrix(16 0 0 16 74.927 403.906)"/><path d="M.057 0v-.7h.194l.28.457H.429L.701-.7h.194l.002.7H.682L.68-.376h.034l-.186.313H.424L.23-.376h.042V0H.057Z" style="fill-rule:nonzero" transform="matrix(16 0 0 16 88.497 403.906)"/><path d="M.273-.44h.312v.17H.273v-.17Zm.016.262h.35V0H.057v-.7h.569v.178H.289v.344Z" style="fill-rule:nonzero" transform="matrix(16 0 0 16 103.762 403.906)"/><path d="M.075 0v-.52c0-.071.021-.127.064-.169.042-.042.102-.063.18-.063.024 0 .048.002.073.006a.23.23 0 0 1 .061.021l-.054.157a.311.311 0 0 0-.024-.009.084.084 0 0 0-.027-.004.053.053 0 0 0-.039.015c-.01.01-.015.026-.015.048v.026l.007.093V0H.075ZM0-.352v-.165h.413v.165H0ZM.501 0v-.547h.226V0H.501Zm.113-.591a.144.144 0 0 1-.099-.033.104.104 0 0 1-.037-.082c0-.033.012-.06.037-.082a.144.144 0 0 1 .099-.033c.041 0 .074.01.099.031a.099.099 0 0 1 .037.08.107.107 0 0 1-.037.085.14.14 0 0 1-.099.034Z" style="fill-rule:nonzero" transform="matrix(16 0 0 16 114.527 403.906)"/><path d="m-.009 0 .258-.338-.006.13-.246-.339h.255l.121.181-.094.007.133-.188h.237l-.247.328v-.125L.654 0H.395L.27-.193l.095.013L.236 0h-.245Z" style="fill-rule:nonzero" transform="matrix(16 0 0 16 126.962 403.906)"/><path d="M.125 0v-.618l.101.096H.005V-.7h.356V0H.125Z" style="fill-rule:nonzero" transform="matrix(11 0 0 11 35.956 417.106)"/><path d="M.125 0v-.618l.101.096H.005V-.7h.356V0H.125Z" style="fill-rule:nonzero" transform="matrix(11 0 0 11 40.554 417.106)"/><path d="m.239-.09.005-.266.189-.191H.7l-.25.262-.113.091-.098.104ZM.05 0v-.742h.226V0H.05Zm.395 0-.15-.19.139-.171L.718 0H.445Z" style="fill-rule:nonzero" transform="matrix(11 0 0 11 48.452 417.106)"/><path d="M.234 0 .01-.7h.243l.181.591H.312L.504-.7h.217L.9-.109H.783L.972-.7h.224L.972 0H.719L.573-.484h.068L.487 0H.234Z" style="fill-rule:nonzero" transform="matrix(11 0 0 11 56.295 417.106)"/><path d="M.344.01a.373.373 0 0 1-.167-.036.269.269 0 0 1-.156-.248c0-.055.014-.104.041-.147a.28.28 0 0 1 .115-.1.373.373 0 0 1 .167-.036.32.32 0 0 1 .171.043c.047.029.08.068.098.119l-.175.086a.128.128 0 0 0-.041-.055.098.098 0 0 0-.054-.017.09.09 0 0 0-.08.047.121.121 0 0 0-.013.06c0 .024.004.044.013.06a.083.083 0 0 0 .033.036.093.093 0 0 0 .1-.005.122.122 0 0 0 .042-.055l.175.086a.225.225 0 0 1-.098.119.32.32 0 0 1-.171.043Z" style="fill-rule:nonzero" transform="matrix(11 0 0 11 72.862 417.106)"/><path d="M.43-.557a.24.24 0 0 1 .114.026.187.187 0 0 1 .081.079.3.3 0 0 1 .029.14V0H.428v-.273c0-.034-.006-.058-.018-.073a.06.06 0 0 0-.049-.021.092.092 0 0 0-.043.011.074.074 0 0 0-.031.034.165.165 0 0 0-.011.065V0H.05v-.742h.226v.355L.222-.433A.222.222 0 0 1 .43-.557Z" style="fill-rule:nonzero" transform="matrix(11 0 0 11 79.627 417.106)"/><path d="M.381 0v-.097L.365-.123v-.184c0-.027-.008-.047-.024-.061C.324-.382.298-.389.261-.389a.245.245 0 0 0-.075.012.206.206 0 0 0-.065.031L.049-.495a.39.39 0 0 1 .115-.046.546.546 0 0 1 .131-.016.34.34 0 0 1 .219.063c.051.042.077.109.077.2V0h-.21ZM.226.01a.248.248 0 0 1-.112-.023.162.162 0 0 1-.068-.061A.17.17 0 0 1 .05-.25a.166.166 0 0 1 .083-.056.426.426 0 0 1 .14-.019h.114v.109H.309c-.024 0-.041.004-.052.012C.246-.197.24-.185.24-.17a.04.04 0 0 0 .015.032c.009.008.022.012.039.012.015 0 .03-.004.043-.012a.075.075 0 0 0 .028-.04l.029.067a.144.144 0 0 1-.055.091.191.191 0 0 1-.113.03Z" style="fill-rule:nonzero" transform="matrix(11 0 0 11 87.347 417.106)"/><path d="M.05 0v-.547h.215v.165L.23-.429a.182.182 0 0 1 .08-.096.263.263 0 0 1 .132-.032v.2A.66.66 0 0 1 .416-.36L.392-.361a.124.124 0 0 0-.083.027c-.022.017-.033.048-.033.091V0H.05Z" style="fill-rule:nonzero" transform="matrix(11 0 0 11 94.377 417.106)"/><path d="M.328.204A.668.668 0 0 1 .176.187.365.365 0 0 1 .054.136L.13-.018a.333.333 0 0 0 .175.054c.047 0 .08-.01.1-.03.02-.019.03-.047.03-.084v-.046l.01-.17.001-.17v-.083h.215v.438c0 .106-.029.185-.088.236a.361.361 0 0 1-.245.077ZM.284-.03a.263.263 0 0 1-.226-.124.254.254 0 0 1-.037-.14.254.254 0 0 1 .263-.263c.047 0 .086.009.116.028a.165.165 0 0 1 .068.086.422.422 0 0 1 .022.149c0 .06-.007.109-.022.148A.168.168 0 0 1 .4-.059a.214.214 0 0 1-.116.029Zm.06-.176a.106.106 0 0 0 .048-.011.082.082 0 0 0 .033-.031.088.088 0 0 0 .012-.046.089.089 0 0 0-.012-.047.08.08 0 0 0-.033-.03.106.106 0 0 0-.048-.01.112.112 0 0 0-.048.01.09.09 0 0 0-.034.03.089.089 0 0 0-.012.047.08.08 0 0 0 .013.046.082.082 0 0 0 .033.031.113.113 0 0 0 .048.011Z" style="fill-rule:nonzero" transform="matrix(11 0 0 11 99.337 417.106)"/><path d="M.352.01a.378.378 0 0 1-.174-.037.282.282 0 0 1-.116-.102.264.264 0 0 1-.041-.145.271.271 0 0 1 .152-.247.34.34 0 0 1 .158-.036c.054 0 .104.011.15.032a.266.266 0 0 1 .11.095.283.283 0 0 1 .041.156l-.001.027-.002.026H.208V-.33h.301l-.085.029a.124.124 0 0 0-.011-.054.094.094 0 0 0-.032-.036.09.09 0 0 0-.048-.012.082.082 0 0 0-.048.013.078.078 0 0 0-.032.035.124.124 0 0 0-.011.054v.034c0 .023.005.043.014.06a.092.092 0 0 0 .04.038.148.148 0 0 0 .063.012.167.167 0 0 0 .063-.01.28.28 0 0 0 .051-.03l.118.119a.257.257 0 0 1-.098.066.417.417 0 0 1-.141.022Z" style="fill-rule:nonzero" transform="matrix(11 0 0 11 107.157 417.106)"/><path d="M.05 0v-.547h.215v.165L.23-.429a.182.182 0 0 1 .08-.096.263.263 0 0 1 .132-.032v.2A.66.66 0 0 1 .416-.36L.392-.361a.124.124 0 0 0-.083.027c-.022.017-.033.048-.033.091V0H.05Z" style="fill-rule:nonzero" transform="matrix(11 0 0 11 114.342 417.106)"/><path d="M151.038 503.774v-11.2h5.392c1.045 0 1.949.171 2.712.512.762.341 1.352.829 1.768 1.464.416.635.624 1.384.624 2.248 0 .864-.208 1.608-.624 2.232-.416.624-1.006 1.101-1.768 1.432-.763.331-1.667.496-2.712.496h-3.296l1.68-1.552v4.368h-3.776Zm6.704 0-2.752-4.08h4l2.784 4.08h-4.032Zm-2.928-3.952-1.68-1.712h3.056c.522 0 .909-.117 1.16-.352.25-.235.376-.555.376-.96 0-.405-.126-.725-.376-.96-.251-.235-.638-.352-1.16-.352h-3.056l1.68-1.712v6.048ZM167.678 503.934c-1.067 0-1.998-.197-2.792-.592-.795-.395-1.411-.936-1.848-1.624-.438-.688-.656-1.464-.656-2.328 0-.885.216-1.669.648-2.352a4.447 4.447 0 0 1 1.776-1.6c.752-.384 1.597-.576 2.536-.576.864 0 1.661.171 2.392.512.73.341 1.317.848 1.76 1.52.442.672.664 1.504.664 2.496 0 .128-.006.269-.016.424l-.032.424h-6.736v-1.744h4.816l-1.36.464c0-.341-.062-.632-.184-.872a1.392 1.392 0 0 0-.504-.56c-.214-.133-.47-.2-.768-.2-.299 0-.558.067-.776.2-.219.133-.387.32-.504.56-.118.24-.176.531-.176.872v.544c0 .373.074.693.224.96.149.267.362.467.64.6.277.133.613.2 1.008.2.405 0 .738-.053 1-.16.261-.107.536-.267.824-.48l1.888 1.904a4.15 4.15 0 0 1-1.576 1.048c-.624.24-1.374.36-2.248.36ZM179.374 494.862c.672 0 1.28.136 1.824.408.544.272.973.696 1.288 1.272.314.576.472 1.323.472 2.24v4.992h-3.616v-4.368c0-.544-.096-.931-.288-1.16-.192-.229-.454-.344-.784-.344a1.41 1.41 0 0 0-.68.168 1.173 1.173 0 0 0-.496.552c-.123.256-.184.603-.184 1.04v4.112h-3.616v-8.752h3.44v2.56l-.688-.736c.341-.661.802-1.157 1.384-1.488a3.857 3.857 0 0 1 1.944-.496ZM189.822 503.774v-1.552l-.256-.416v-2.944c0-.427-.131-.752-.392-.976-.262-.224-.686-.336-1.272-.336-.395 0-.795.061-1.2.184a3.38 3.38 0 0 0-1.04.504l-1.152-2.384c.512-.32 1.125-.565 1.84-.736a8.983 8.983 0 0 1 2.096-.256c1.504 0 2.669.336 3.496 1.008.826.672 1.24 1.739 1.24 3.2v4.704h-3.36Zm-2.48.16c-.715 0-1.312-.123-1.792-.368s-.843-.573-1.088-.984a2.612 2.612 0 0 1-.368-1.368c0-.565.144-1.045.432-1.44.288-.395.728-.693 1.32-.896.592-.203 1.341-.304 2.248-.304h1.824v1.744h-1.248c-.384 0-.664.061-.84.184-.176.123-.264.307-.264.552 0 .203.077.371.232.504.154.133.365.2.632.2.245 0 .472-.067.68-.2.208-.133.36-.344.456-.632l.464 1.072c-.139.651-.432 1.136-.88 1.456-.448.32-1.051.48-1.808.48ZM198.398 503.934c-.694 0-1.32-.141-1.88-.424-.56-.283-1-.725-1.32-1.328-.32-.603-.48-1.379-.48-2.328v-4.832h3.616v4.208c0 .619.101 1.051.304 1.296.202.245.48.368.832.368.213 0 .413-.056.6-.168.186-.112.338-.299.456-.56.117-.261.176-.605.176-1.032v-4.112h3.616v8.752h-3.44v-2.528l.688.688c-.31.683-.75 1.187-1.32 1.512a3.674 3.674 0 0 1-1.848.488ZM205.918 491.902h3.616v11.872h-3.616zM216.478 503.934c-1.206 0-2.144-.291-2.816-.872-.672-.581-1.008-1.475-1.008-2.68v-7.328h3.616v7.296c0 .267.072.475.216.624a.715.715 0 0 0 .536.224c.309 0 .581-.08.816-.24l.864 2.512c-.278.16-.611.277-1 .352-.39.075-.798.112-1.224.112Zm-5.024-5.792v-2.64h6.608v2.64h-6.608ZM224.126 503.774v-2.32l6.24-7.264.464 1.312h-6.544v-2.928h9.872v2.32l-6.24 7.264-.464-1.312h6.96v2.928h-10.288ZM240.03 503.934c-.992 0-1.87-.195-2.632-.584a4.53 4.53 0 0 1-1.8-1.608c-.438-.683-.656-1.467-.656-2.352 0-.885.218-1.669.656-2.352a4.475 4.475 0 0 1 1.8-1.6c.762-.384 1.64-.576 2.632-.576.992 0 1.872.192 2.64.576.768.384 1.368.917 1.8 1.6.432.683.648 1.467.648 2.352 0 .885-.216 1.669-.648 2.352-.432.683-1.032 1.219-1.8 1.608s-1.648.584-2.64.584Zm0-2.816c.266 0 .506-.064.72-.192.213-.128.384-.323.512-.584.128-.261.192-.579.192-.952 0-.384-.064-.701-.192-.952a1.366 1.366 0 0 0-.512-.568 1.376 1.376 0 0 0-.72-.192 1.37 1.37 0 0 0-.72.192 1.359 1.359 0 0 0-.512.568c-.128.251-.192.568-.192.952 0 .373.064.691.192.952s.298.456.512.584c.213.128.453.192.72.192ZM251.086 503.934c-1.067 0-1.998-.197-2.792-.592-.795-.395-1.411-.936-1.848-1.624-.438-.688-.656-1.464-.656-2.328 0-.885.216-1.669.648-2.352a4.447 4.447 0 0 1 1.776-1.6c.752-.384 1.597-.576 2.536-.576.864 0 1.661.171 2.392.512.73.341 1.317.848 1.76 1.52.442.672.664 1.504.664 2.496 0 .128-.006.269-.016.424l-.032.424h-6.736v-1.744h4.816l-1.36.464c0-.341-.062-.632-.184-.872a1.392 1.392 0 0 0-.504-.56c-.214-.133-.47-.2-.768-.2-.299 0-.558.067-.776.2-.219.133-.387.32-.504.56-.118.24-.176.531-.176.872v.544c0 .373.074.693.224.96.149.267.362.467.64.6.277.133.613.2 1.008.2.405 0 .738-.053 1-.16.261-.107.536-.267.824-.48l1.888 1.904a4.15 4.15 0 0 1-1.576 1.048c-.624.24-1.374.36-2.248.36Z" style="fill-rule:nonzero"/><path d="m262.261 422.989-8.718-1.396-14.524-1.211h-14.765l-19.625 1.211-21.602 5.822-17.355 8.533-8.067 4.673-15.546 3.993-10.857 4.78-5.529 8.25 1.677 9.718-1.677 5.025 15.49 2.746 129.727-2.746 6.327-1.198 3.396-3.827 2.082-10.649-4.533-11.175v-3.473l-5.607-6.117-10.294-12.959Z" style="fill:#4eb848"/><path d="m168.548 474.979 75.451-1.75" style="fill:none;stroke:#000;stroke-width:3.16px"/><path d="M262.917 424.243s-7.704 2.047-7.737 4.658c-.034 2.611 18.645 9.154 18.645 9.154" style="fill:#fff;stroke:#000;stroke-width:3.16px"/><path d="M130.735 451.364c-.572-.697 8.534-3.777 12.053-3.92 2.438-.098 6.534 0 6.534 0s-12.067 7.254-15.518 5.314c-2.852-1.603-2.274-.835-3.069-1.394Z" style="fill:#fff"/><path d="M271.99 471.775s5.283-.713 6.085-1.197c.803-.485 3.406-2.127 4.287-11.073.88-8.945-5.024-13.897-5.024-13.897s1.741-.505 1.639-2.14c-.102-1.636-4.973-6.322-4.973-6.322s-6.521-7.086-11.6-12.421M263.289 423.14s-16.227-3.617-44.46-2.969c-7.527.173-15.386.834-22.778 2.969-20.336 5.874-37.527 17.269-37.527 17.269s-13.036 2.02-25.229 7.439c-8.61 3.828-7.231 15.953-7.231 15.953l1.167 4.052h-1.167v4.166s.163 1.107 3.808 1.286c3.644.178 11.562 1.192 11.562 1.192" style="fill:none;stroke:#000;stroke-width:3.16px"/><path d="M244.302 425.889s-29.428-3.492-47.628 1.632c-10.714 3.017-34.384 15.195-34.384 15.195s3.397.24 35.471-2.496c32.074-2.735 51.377-3.768 51.377-3.768s1.117-.105 0-1.019c-1.117-.914-2.884-2.916-3.982-5.734-1.097-2.818-.854-3.81-.854-3.81h0Z" style="fill:#fff;stroke:#000;stroke-width:3.16px"/><path d="M261.867 441.84c.079 2.39 8.418 5.276 9.967 4.7 1.548-.575 2.313-3.594 2.143-4.386-.17-.792-7.495-4.228-8.787-4.211-1.291.016-3.369 2.505-3.323 3.897Z" style="fill:#fff"/><ellipse cx="154.956" cy="470.274" rx="12.801" ry="12.744" style="fill:#fff;stroke:#000;stroke-width:3.16px"/><ellipse cx="257.826" cy="470.238" rx="12.801" ry="12.744" style="fill:#fff;stroke:#000;stroke-width:3.16px"/><path d="M172.754 103.662h4.928v2.848h-4.928v-2.848Zm.256 6.432h-3.776v-11.2h9.104v2.848h-5.328v8.352ZM179.426 110.094v-8.752h3.616v8.752h-3.616Zm1.808-9.456c-.661 0-1.189-.176-1.584-.528a1.685 1.685 0 0 1-.592-1.312c0-.522.197-.96.592-1.312.395-.352.923-.528 1.584-.528s1.189.166 1.584.496c.395.331.592.758.592 1.28 0 .555-.197 1.011-.592 1.368-.395.358-.923.536-1.584.536ZM189.938 110.094v-1.552l-.256-.416v-2.944c0-.426-.131-.752-.392-.976-.261-.224-.685-.336-1.272-.336-.395 0-.795.062-1.2.184a3.391 3.391 0 0 0-1.04.504l-1.152-2.384c.512-.32 1.125-.565 1.84-.736a9.043 9.043 0 0 1 2.096-.256c1.504 0 2.669.336 3.496 1.008.827.672 1.24 1.739 1.24 3.2v4.704h-3.36Zm-2.48.16c-.715 0-1.312-.122-1.792-.368-.48-.245-.843-.573-1.088-.984a2.616 2.616 0 0 1-.368-1.368c0-.565.144-1.045.432-1.44.288-.394.728-.693 1.32-.896.592-.202 1.341-.304 2.248-.304h1.824v1.744h-1.248c-.384 0-.664.062-.84.184-.176.123-.264.307-.264.552 0 .203.077.371.232.504.155.134.365.2.632.2.245 0 .472-.066.68-.2.208-.133.36-.344.456-.632l.464 1.072c-.139.651-.432 1.136-.88 1.456-.448.32-1.051.48-1.808.48ZM199.09 110.254c-1.205 0-2.144-.29-2.816-.872-.672-.581-1.008-1.474-1.008-2.68v-7.328h3.616v7.296c0 .267.072.475.216.624.144.15.323.224.536.224.309 0 .581-.08.816-.24l.864 2.512a3.18 3.18 0 0 1-1 .352 6.456 6.456 0 0 1-1.224.112Zm-5.024-5.792v-2.64h6.608v2.64h-6.608ZM210.722 110.35c-.768 0-1.547-.085-2.336-.256-.789-.17-1.483-.421-2.08-.752l1.28-2.784c.48.278.981.483 1.504.616.523.134 1.019.2 1.488.2.427 0 .779-.074 1.056-.224.277-.149.416-.368.416-.656a.67.67 0 0 0-.144-.424c-.096-.122-.264-.216-.504-.28-.24-.064-.589-.096-1.048-.096h-3.248l.56-6.8h7.44v2.848h-6.112l1.904-1.616-.336 4.336-1.904-1.616h2.608c1.109 0 1.997.16 2.664.48.667.32 1.152.75 1.456 1.288a3.6 3.6 0 0 1 .456 1.8c0 .662-.179 1.294-.536 1.896-.357.603-.912 1.094-1.664 1.472-.752.379-1.725.568-2.92.568ZM221.666 110.35c-.992 0-1.869-.229-2.632-.688-.763-.458-1.36-1.125-1.792-2-.432-.874-.648-1.93-.648-3.168 0-1.237.216-2.293.648-3.168.432-.874 1.029-1.541 1.792-2 .763-.458 1.64-.688 2.632-.688.992 0 1.869.23 2.632.688.763.459 1.36 1.126 1.792 2 .432.875.648 1.931.648 3.168 0 1.238-.216 2.294-.648 3.168-.432.875-1.029 1.542-1.792 2-.763.459-1.64.688-2.632.688Zm0-3.024a.959.959 0 0 0 .656-.256c.192-.17.344-.464.456-.88.112-.416.168-.981.168-1.696 0-.725-.056-1.293-.168-1.704-.112-.41-.264-.701-.456-.872a.964.964 0 0 0-.656-.256.964.964 0 0 0-.656.256c-.192.171-.344.462-.456.872-.112.411-.168.979-.168 1.704 0 .715.056 1.28.168 1.696.112.416.264.71.456.88a.959.959 0 0 0 .656.256ZM232.738 110.35c-.992 0-1.869-.229-2.632-.688-.763-.458-1.36-1.125-1.792-2-.432-.874-.648-1.93-.648-3.168 0-1.237.216-2.293.648-3.168.432-.874 1.029-1.541 1.792-2 .763-.458 1.64-.688 2.632-.688.992 0 1.869.23 2.632.688.763.459 1.36 1.126 1.792 2 .432.875.648 1.931.648 3.168 0 1.238-.216 2.294-.648 3.168-.432.875-1.029 1.542-1.792 2-.763.459-1.64.688-2.632.688Zm0-3.024a.959.959 0 0 0 .656-.256c.192-.17.344-.464.456-.88.112-.416.168-.981.168-1.696 0-.725-.056-1.293-.168-1.704-.112-.41-.264-.701-.456-.872a.964.964 0 0 0-.656-.256.964.964 0 0 0-.656.256c-.192.171-.344.462-.456.872-.112.411-.168.979-.168 1.704 0 .715.056 1.28.168 1.696.112.416.264.71.456.88a.959.959 0 0 0 .656.256ZM243.906 110.254c-1.067 0-1.997-.197-2.792-.592-.795-.394-1.411-.936-1.848-1.624-.437-.688-.656-1.464-.656-2.328 0-.885.216-1.669.648-2.352a4.454 4.454 0 0 1 1.776-1.6c.752-.384 1.597-.576 2.536-.576.864 0 1.661.171 2.392.512a4.198 4.198 0 0 1 1.76 1.52c.443.672.664 1.504.664 2.496 0 .128-.005.27-.016.424-.011.155-.021.296-.032.424h-6.736v-1.744h4.816l-1.36.464c0-.341-.061-.632-.184-.872a1.398 1.398 0 0 0-.504-.56 1.421 1.421 0 0 0-.768-.2c-.299 0-.557.067-.776.2-.219.134-.387.32-.504.56-.117.24-.176.531-.176.872v.544c0 .374.075.694.224.96.149.267.363.467.64.6.277.134.613.2 1.008.2.405 0 .739-.053 1-.16.261-.106.536-.266.824-.48l1.888 1.904a4.15 4.15 0 0 1-1.576 1.048c-.624.24-1.373.36-2.248.36Z" style="fill-rule:nonzero"/><path d="m251.017 81.152-2.598-4.868-29.314 1.671 16.929 1.695 14.983 1.502Z" style="fill:#4eb848"/><path d="M146.286 80.05s-11.368-1.141-13.804-1.673c-2.436-.531-4.27-1.184-4.465-2.843-.194-1.659.667-4.281.618-5.076-.049-.794-.742-1.452-.618-5.639.124-4.186 1.702-3.978 1.596-8.936 0 0-.23-1.901 2.869-2.933 0 0 .819-6.064 30.586-10.021 0 0 22.519-15.66 35.777-19.095 7.086-1.836 46.545-2.258 53.401 2.405 5.12 3.483 13.99 12.742 19.952 16.065 2.167 1.207 3.699 3.466 3.699 3.466h-1.88l4.088 10.114s3.779 2.201 3.809 5.898c.029 3.697 1.409 7.862.444 10.361-.965 2.499-3.287 4.595-3.287 4.595s-2.647.94-5.919.824" style="fill:#4eb848;stroke:#000;stroke-width:3.16px"/><path d="M134.516 54.033s-.524 3.933.826 4.418c1.35.484 6.287-.811 8.048-5.468-3.385.201-6.528.486-8.874 1.05ZM273.482 46.115s-2.885-1.177-3.654-.232c-.769.945 4.905 10.062 7.709 10.175l-4.055-9.943Z" style="fill:#fff"/><circle cx="157.887" cy="73.761" r="12.159" style="fill:#fff;stroke:#000;stroke-width:3.16px"/><circle cx="260.838" cy="73.867" r="12.159" style="fill:#fff;stroke:#000;stroke-width:3.16px"/><path d="M172.669 43.512s17.636-13.168 29.703-15.304c11.919-2.11 31.819-.523 35.73 0 3.989.533 12.373 3.67 16.379 11.968 0 0 .275.467-3.39.606-3.666.139-78.422 2.73-78.422 2.73h0Z" style="fill:#fff;stroke:#000;stroke-width:3.16px"/><path d="M168.14 81.022s7.448.185 9.555-.211c2.108-.397 13.064-.793 13.064-.793h45.861s3.626.704 8.431.793c4.806.088 5.14 0 5.14 0M146.286 80.05s-11.368-1.141-13.804-1.673c-2.436-.531-4.27-1.184-4.465-2.843-.194-1.659.667-4.281.618-5.076-.049-.794-.742-1.452-.618-5.639.124-4.186 1.702-3.978 1.596-8.936 0 0-.23-1.901 2.869-2.933 0 0 .819-6.064 30.586-10.021 0 0 22.519-15.66 35.777-19.095 7.086-1.836 46.545-2.258 53.401 2.405 5.12 3.483 13.99 12.742 19.952 16.065 2.167 1.207 3.699 3.466 3.699 3.466h-1.88l4.088 10.114s3.779 2.201 3.809 5.898c.029 3.697 1.409 7.862.444 10.361-.965 2.499-3.287 4.595-3.287 4.595s-2.647.94-5.919.824" style="fill:none;stroke:#000;stroke-width:3.16px"/><path d="M.328.204A.668.668 0 0 1 .176.187.365.365 0 0 1 .054.136L.13-.018a.333.333 0 0 0 .175.054c.047 0 .08-.01.1-.03.02-.019.03-.047.03-.084v-.046l.01-.17.001-.17v-.083h.215v.438c0 .106-.029.185-.088.236a.361.361 0 0 1-.245.077ZM.284-.03a.263.263 0 0 1-.226-.124.254.254 0 0 1-.037-.14.254.254 0 0 1 .263-.263c.047 0 .086.009.116.028a.165.165 0 0 1 .068.086.422.422 0 0 1 .022.149c0 .06-.007.109-.022.148A.168.168 0 0 1 .4-.059a.214.214 0 0 1-.116.029Zm.06-.176a.106.106 0 0 0 .048-.011.082.082 0 0 0 .033-.031.088.088 0 0 0 .012-.046.089.089 0 0 0-.012-.047.08.08 0 0 0-.033-.03.106.106 0 0 0-.048-.01.112.112 0 0 0-.048.01.09.09 0 0 0-.034.03.089.089 0 0 0-.012.047.08.08 0 0 0 .013.046.082.082 0 0 0 .033.031.113.113 0 0 0 .048.011Z" style="fill-rule:nonzero" transform="matrix(16 0 0 16 24.096 244.349)"/><path d="M.339.01a.352.352 0 0 1-.165-.037.271.271 0 0 1-.153-.247.271.271 0 0 1 .154-.247.357.357 0 0 1 .164-.036c.062 0 .117.012.165.036a.275.275 0 0 1 .113.1.27.27 0 0 1 .04.147.27.27 0 0 1-.153.248.364.364 0 0 1-.165.036Zm0-.176a.084.084 0 0 0 .045-.012.087.087 0 0 0 .032-.036.14.14 0 0 0 .012-.06.126.126 0 0 0-.012-.059.087.087 0 0 0-.032-.036.084.084 0 0 0-.045-.012.084.084 0 0 0-.077.047.134.134 0 0 0-.012.06c0 .023.004.043.012.059a.084.084 0 0 0 .032.037.084.084 0 0 0 .045.012Z" style="fill-rule:nonzero" transform="matrix(16 0 0 16 35.472 244.349)"/><path style="fill-rule:nonzero" d="M.045-.374h.3v.17h-.3z" transform="matrix(16 0 0 16 46.48 244.349)"/><path d="M.352.01a.378.378 0 0 1-.174-.037.282.282 0 0 1-.116-.102.264.264 0 0 1-.041-.145.271.271 0 0 1 .152-.247.34.34 0 0 1 .158-.036c.054 0 .104.011.15.032a.266.266 0 0 1 .11.095.283.283 0 0 1 .041.156l-.001.027-.002.026H.208V-.33h.301l-.085.029a.124.124 0 0 0-.011-.054.094.094 0 0 0-.032-.036.09.09 0 0 0-.048-.012.082.082 0 0 0-.048.013.078.078 0 0 0-.032.035.124.124 0 0 0-.011.054v.034c0 .023.005.043.014.06a.092.092 0 0 0 .04.038.148.148 0 0 0 .063.012.167.167 0 0 0 .063-.01.28.28 0 0 0 .051-.03l.118.119a.257.257 0 0 1-.098.066.417.417 0 0 1-.141.022Z" style="fill-rule:nonzero" transform="matrix(16 0 0 16 52.88 244.349)"/><path d="M.42.016a.433.433 0 0 1-.156-.027.35.35 0 0 1-.206-.191.376.376 0 0 1-.029-.148c0-.054.01-.103.029-.148A.363.363 0 0 1 .266-.69a.473.473 0 0 1 .159-.026c.069 0 .131.012.186.035a.345.345 0 0 1 .134.1l-.151.133a.242.242 0 0 0-.072-.058.203.203 0 0 0-.156-.007.149.149 0 0 0-.087.09.207.207 0 0 0-.012.073.2.2 0 0 0 .012.071.15.15 0 0 0 .086.091.173.173 0 0 0 .069.013.229.229 0 0 0 .078-.014.31.31 0 0 0 .081-.046l.132.162A.605.605 0 0 1 .42.016Zm.1-.119v-.266h.205v.296L.52-.103Z" style="fill-rule:nonzero" transform="matrix(16 0 0 16 68.128 244.349)"/><path d="M.352.01a.378.378 0 0 1-.174-.037.282.282 0 0 1-.116-.102.264.264 0 0 1-.041-.145.271.271 0 0 1 .152-.247.34.34 0 0 1 .158-.036c.054 0 .104.011.15.032a.266.266 0 0 1 .11.095.283.283 0 0 1 .041.156l-.001.027-.002.026H.208V-.33h.301l-.085.029a.124.124 0 0 0-.011-.054.094.094 0 0 0-.032-.036.09.09 0 0 0-.048-.012.082.082 0 0 0-.048.013.078.078 0 0 0-.032.035.124.124 0 0 0-.011.054v.034c0 .023.005.043.014.06a.092.092 0 0 0 .04.038.148.148 0 0 0 .063.012.167.167 0 0 0 .063-.01.28.28 0 0 0 .051-.03l.118.119a.257.257 0 0 1-.098.066.417.417 0 0 1-.141.022Z" style="fill-rule:nonzero" transform="matrix(16 0 0 16 80.431 244.349)"/><path d="M.774-.557c.041 0 .079.008.112.026a.192.192 0 0 1 .078.079.314.314 0 0 1 .028.14V0H.766v-.273c0-.034-.006-.058-.017-.073a.054.054 0 0 0-.044-.021.065.065 0 0 0-.036.01.063.063 0 0 0-.025.032.131.131 0 0 0-.01.058V0H.408v-.273c0-.034-.005-.058-.016-.072a.052.052 0 0 0-.045-.022.065.065 0 0 0-.036.01.063.063 0 0 0-.025.032.131.131 0 0 0-.01.058V0H.05v-.547h.215v.157L.221-.434A.214.214 0 0 1 .42-.557c.048 0 .091.013.128.038a.191.191 0 0 1 .074.118L.553-.412a.236.236 0 0 1 .221-.145Z" style="fill-rule:nonzero" transform="matrix(16 0 0 16 90.881 244.349)"/><path d="M.05 0v-.547h.226V0H.05Zm.113-.591a.144.144 0 0 1-.099-.033.104.104 0 0 1-.037-.082c0-.033.012-.06.037-.082a.144.144 0 0 1 .099-.033c.041 0 .074.01.099.031a.099.099 0 0 1 .037.08.107.107 0 0 1-.037.085.14.14 0 0 1-.099.034Z" style="fill-rule:nonzero" transform="matrix(16 0 0 16 107.521 244.349)"/><path d="M.43-.557a.24.24 0 0 1 .114.026.187.187 0 0 1 .081.079.3.3 0 0 1 .029.14V0H.428v-.273c0-.034-.006-.058-.018-.073a.06.06 0 0 0-.049-.021.092.092 0 0 0-.043.011.074.074 0 0 0-.031.034.165.165 0 0 0-.011.065V0H.05v-.547h.215v.16L.222-.433A.222.222 0 0 1 .43-.557Z" style="fill-rule:nonzero" transform="matrix(16 0 0 16 112.736 244.349)"/><path d="M.05 0v-.547h.226V0H.05Zm.113-.591a.144.144 0 0 1-.099-.033.104.104 0 0 1-.037-.082c0-.033.012-.06.037-.082a.144.144 0 0 1 .099-.033c.041 0 .074.01.099.031a.099.099 0 0 1 .037.08.107.107 0 0 1-.037.085.14.14 0 0 1-.099.034Z" style="fill-rule:nonzero" transform="matrix(16 0 0 16 123.971 244.349)"/><path d="M.125 0v-.618l.101.096H.005V-.7h.356V0H.125Z" style="fill-rule:nonzero" transform="matrix(11 0 0 11 34.94 257.549)"/><path d="M.125 0v-.618l.101.096H.005V-.7h.356V0H.125Z" style="fill-rule:nonzero" transform="matrix(11 0 0 11 39.538 257.549)"/><path d="m.239-.09.005-.266.189-.191H.7l-.25.262-.113.091-.098.104ZM.05 0v-.742h.226V0H.05Zm.395 0-.15-.19.139-.171L.718 0H.445Z" style="fill-rule:nonzero" transform="matrix(11 0 0 11 47.435 257.549)"/><path d="M.234 0 .01-.7h.243l.181.591H.312L.504-.7h.217L.9-.109H.783L.972-.7h.224L.972 0H.719L.573-.484h.068L.487 0H.234Z" style="fill-rule:nonzero" transform="matrix(11 0 0 11 55.279 257.549)"/><path d="M.344.01a.373.373 0 0 1-.167-.036.269.269 0 0 1-.156-.248c0-.055.014-.104.041-.147a.28.28 0 0 1 .115-.1.373.373 0 0 1 .167-.036.32.32 0 0 1 .171.043c.047.029.08.068.098.119l-.175.086a.128.128 0 0 0-.041-.055.098.098 0 0 0-.054-.017.09.09 0 0 0-.08.047.121.121 0 0 0-.013.06c0 .024.004.044.013.06a.083.083 0 0 0 .033.036.093.093 0 0 0 .1-.005.122.122 0 0 0 .042-.055l.175.086a.225.225 0 0 1-.098.119.32.32 0 0 1-.171.043Z" style="fill-rule:nonzero" transform="matrix(11 0 0 11 71.846 257.549)"/><path d="M.43-.557a.24.24 0 0 1 .114.026.187.187 0 0 1 .081.079.3.3 0 0 1 .029.14V0H.428v-.273c0-.034-.006-.058-.018-.073a.06.06 0 0 0-.049-.021.092.092 0 0 0-.043.011.074.074 0 0 0-.031.034.165.165 0 0 0-.011.065V0H.05v-.742h.226v.355L.222-.433A.222.222 0 0 1 .43-.557Z" style="fill-rule:nonzero" transform="matrix(11 0 0 11 78.611 257.549)"/><path d="M.381 0v-.097L.365-.123v-.184c0-.027-.008-.047-.024-.061C.324-.382.298-.389.261-.389a.245.245 0 0 0-.075.012.206.206 0 0 0-.065.031L.049-.495a.39.39 0 0 1 .115-.046.546.546 0 0 1 .131-.016.34.34 0 0 1 .219.063c.051.042.077.109.077.2V0h-.21ZM.226.01a.248.248 0 0 1-.112-.023.162.162 0 0 1-.068-.061A.17.17 0 0 1 .05-.25a.166.166 0 0 1 .083-.056.426.426 0 0 1 .14-.019h.114v.109H.309c-.024 0-.041.004-.052.012C.246-.197.24-.185.24-.17a.04.04 0 0 0 .015.032c.009.008.022.012.039.012.015 0 .03-.004.043-.012a.075.075 0 0 0 .028-.04l.029.067a.144.144 0 0 1-.055.091.191.191 0 0 1-.113.03Z" style="fill-rule:nonzero" transform="matrix(11 0 0 11 86.331 257.549)"/><path d="M.05 0v-.547h.215v.165L.23-.429a.182.182 0 0 1 .08-.096.263.263 0 0 1 .132-.032v.2A.66.66 0 0 1 .416-.36L.392-.361a.124.124 0 0 0-.083.027c-.022.017-.033.048-.033.091V0H.05Z" style="fill-rule:nonzero" transform="matrix(11 0 0 11 93.361 257.549)"/><path d="M.328.204A.668.668 0 0 1 .176.187.365.365 0 0 1 .054.136L.13-.018a.333.333 0 0 0 .175.054c.047 0 .08-.01.1-.03.02-.019.03-.047.03-.084v-.046l.01-.17.001-.17v-.083h.215v.438c0 .106-.029.185-.088.236a.361.361 0 0 1-.245.077ZM.284-.03a.263.263 0 0 1-.226-.124.254.254 0 0 1-.037-.14.254.254 0 0 1 .263-.263c.047 0 .086.009.116.028a.165.165 0 0 1 .068.086.422.422 0 0 1 .022.149c0 .06-.007.109-.022.148A.168.168 0 0 1 .4-.059a.214.214 0 0 1-.116.029Zm.06-.176a.106.106 0 0 0 .048-.011.082.082 0 0 0 .033-.031.088.088 0 0 0 .012-.046.089.089 0 0 0-.012-.047.08.08 0 0 0-.033-.03.106.106 0 0 0-.048-.01.112.112 0 0 0-.048.01.09.09 0 0 0-.034.03.089.089 0 0 0-.012.047.08.08 0 0 0 .013.046.082.082 0 0 0 .033.031.113.113 0 0 0 .048.011Z" style="fill-rule:nonzero" transform="matrix(11 0 0 11 98.321 257.549)"/><path d="M.352.01a.378.378 0 0 1-.174-.037.282.282 0 0 1-.116-.102.264.264 0 0 1-.041-.145.271.271 0 0 1 .152-.247.34.34 0 0 1 .158-.036c.054 0 .104.011.15.032a.266.266 0 0 1 .11.095.283.283 0 0 1 .041.156l-.001.027-.002.026H.208V-.33h.301l-.085.029a.124.124 0 0 0-.011-.054.094.094 0 0 0-.032-.036.09.09 0 0 0-.048-.012.082.082 0 0 0-.048.013.078.078 0 0 0-.032.035.124.124 0 0 0-.011.054v.034c0 .023.005.043.014.06a.092.092 0 0 0 .04.038.148.148 0 0 0 .063.012.167.167 0 0 0 .063-.01.28.28 0 0 0 .051-.03l.118.119a.257.257 0 0 1-.098.066.417.417 0 0 1-.141.022Z" style="fill-rule:nonzero" transform="matrix(11 0 0 11 106.141 257.549)"/><path d="M.05 0v-.547h.215v.165L.23-.429a.182.182 0 0 1 .08-.096.263.263 0 0 1 .132-.032v.2A.66.66 0 0 1 .416-.36L.392-.361a.124.124 0 0 0-.083.027c-.022.017-.033.048-.033.091V0H.05Z" style="fill-rule:nonzero" transform="matrix(11 0 0 11 113.326 257.549)"/><clipPath id="a"><path d="M43.241 119.842h67.552v97.143H43.241z"/></clipPath><g clip-path="url(#a)"><path style="fill:#4eb848" d="M110.908 29.039h9.157v86.078h-9.157z"/><path d="M115.814 28.125c7.926-.003 14.839.36 15.597 1.909.759 1.55 3.214 19.269 3.292 36.651.078 17.381-4.848 44.852-4.848 44.852s-7.409 3.792-14.041 3.929M115.574 28.125c-7.926-.003-14.839.36-15.597 1.909-.759 1.55-3.214 19.269-3.292 36.651-.078 17.381 4.848 44.852 4.848 44.852s7.409 3.792 14.041 3.929" style="fill:#4eb848;stroke:#000;stroke-width:2.42px"/><path d="M117.775 85.098a2.043 2.043 0 0 0-4.084 0v13.59a2.043 2.043 0 0 0 4.084 0v-13.59Z" style="fill:#fff;stroke:#000;stroke-width:2.42px"/><path d="M103.512 152.611c0-14.375-11.67-26.045-26.045-26.045-14.374 0-26.045 11.67-26.045 26.045v35.428c0 14.375 11.671 26.045 26.045 26.045 14.375 0 26.045-11.67 26.045-26.045v-35.428Z" style="fill:#4eb848;stroke:#000;stroke-width:2.42px"/><circle cx="60.073" cy="170.062" r="4.278" style="fill:#fff;stroke:#000;stroke-width:2.42px"/><circle cx="77.214" cy="190.188" r="16.674" style="fill:#fff;stroke:#000;stroke-width:2.42px"/><path d="m-31.379 181.765-2.382-29.451 1.511-23.439c-.459-3.433.128-5.285 2.659-4.2l18.914-2.876 20.488 2.876c2.888-.167 3.481 1.537 2.897 4.2l.764 17.896-.764 22.051-.71 12.943-3.947.575-4.481-3.379-14.247-3.175-13.29 4.285-7.412 1.694Z" style="fill:#4eb848"/><path d="M-10.967 121.816c9.185-.301 23.293 1.443 23.468 3.545.405 4.872-.479 49.751-.588 56.746h-4.55s-4.712-6.554-18.33-6.282M11.913 182.107v22.838s.133 3.849-3.861 4.036c-3.995.186-10.104 0-10.104 0s-1.689-5.634-4.148-5.769c-2.46-.134-5.661 0-5.661 0" style="fill:none;stroke:#000;stroke-width:2.42px"/><path d="M127.488 219.272c5.323-.057 19.23 3.574 19.23 3.574l2.76 4.791s3.891 28.732 3.696 53.605c-.104 13.347-1.924 19.052-1.924 19.052l-1.772 3.009s-8.721 3.34-21.99 3.322" style="fill:#4eb848;stroke:#000;stroke-width:2.42px"/><path d="M127.495 219.272c-5.323-.057-19.231 3.574-19.231 3.574l-2.759 4.791s-3.891 28.732-3.696 53.605c.104 13.347 1.924 19.052 1.924 19.052l1.772 3.009s8.72 3.34 21.99 3.322M28.372 30.99a6.895 6.895 0 0 0-6.891-6.892H-80.268a6.896 6.896 0 0 0-6.892 6.892v73.099a6.895 6.895 0 0 0 6.892 6.891H21.481a6.895 6.895 0 0 0 6.891-6.891V30.99Z" style="fill:#4eb848;stroke:#000;stroke-width:2.42px"/><circle cx="8.881" cy="91.637" r="4.937" style="fill:#fff;stroke:#000;stroke-width:2.42px"/><path d="M-81.909 33.207H22.902M-82.25 102.357H22.561" style="fill:none;stroke:#000;stroke-width:2.42px"/><path d="M23.867 217.704c18.794.405 25.748 3.107 25.748 3.107l3.299 8.021s-.237 38.737-.734 70.572l-3.315 3.164s-7.975 3.369-24.998 3.05" style="fill:#4eb848;stroke:#000;stroke-width:2.42px"/><path d="M24.155 217.704c-18.794.405-25.749 3.107-25.749 3.107l-3.299 8.021s.237 38.737.734 70.572l3.315 3.164s7.975 3.369 24.999 3.05" style="fill:#4eb848;stroke:#000;stroke-width:2.42px"/><path d="M23.867 229.629H35.82v25.266s.075 1.55-1.165 1.794c-1.24.245-4.829 1.173-10.788 1.241" style="fill:#fff;stroke:#000;stroke-width:2.42px"/><path d="M24.155 229.629H12.201v25.266s-.074 1.55 1.165 1.794c1.24.245 4.829 1.173 10.789 1.241" style="fill:#fff;stroke:#000;stroke-width:2.42px"/><path d="m48.681 220.787-.657 81.992M-.701 220.787l.658 81.992" style="fill:none;stroke:#000;stroke-width:2.42px"/><path style="fill:#4eb848;stroke:#000;stroke-width:2.42px" d="M15.871 234.504h16.198v12.039H15.871z"/></g><path d="M514.766 233.466v.037c0 .011-.008.019-.018.019h-.112a.019.019 0 0 1-.019-.019v-.037c0-.011.009-.019.019-.019h.112c.01 0 .018.008.018.019Z" style="fill:#fff"/><path d="m542.281 167.342.221-15.707 1.027-8.609 3.081-3.997h79.907l3.373 4.331.961 8.376v41.118l-.751 8.359-3.04 4.018h-80.957l-2.915-4.06-.896-8.398-.06-16.094 2.099-2.466v-4.217l-2.05-2.654Z" style="fill:#4eb848;stroke:#000;stroke-width:2.37px"/><path d="M545.497 169.996h44.686v-9.335h22.806v22.645h-22.543v-8.978h-44.888" style="fill:#fff;stroke:#000;stroke-width:2.37px"/><path style="fill:#4eb848;stroke:#000;stroke-width:2.37px" d="M594.641 170.878h10.615v6.101h-10.615z"/><path d="M542.556 151.693h88.088M542.556 193.524h88.088" style="fill:none;stroke:#000;stroke-width:2.37px"/><path d="M.268-.15.255-.409.519-.7h.257L.48-.374.349-.24l-.081.09ZM.057 0v-.7h.232V0H.057Zm.46 0L.311-.272l.153-.162L.79 0H.517Z" style="fill-rule:nonzero" transform="matrix(16 0 0 16 527.795 233.942)"/><path d="M.339.01a.352.352 0 0 1-.165-.037.271.271 0 0 1-.153-.247.271.271 0 0 1 .154-.247.357.357 0 0 1 .164-.036c.062 0 .117.012.165.036a.275.275 0 0 1 .113.1.27.27 0 0 1 .04.147.27.27 0 0 1-.153.248.364.364 0 0 1-.165.036Zm0-.176a.084.084 0 0 0 .045-.012.087.087 0 0 0 .032-.036.14.14 0 0 0 .012-.06.126.126 0 0 0-.012-.059.087.087 0 0 0-.032-.036.084.084 0 0 0-.045-.012.084.084 0 0 0-.077.047.134.134 0 0 0-.012.06c0 .023.004.043.012.059a.084.084 0 0 0 .032.037.084.084 0 0 0 .045.012Z" style="fill-rule:nonzero" transform="matrix(16 0 0 16 539.715 233.942)"/><path d="M.264.01a.634.634 0 0 1-.138-.015.4.4 0 0 1-.11-.039l.062-.149a.387.387 0 0 0 .191.049.135.135 0 0 0 .055-.007c.01-.005.015-.011.015-.019S.333-.184.322-.188a.288.288 0 0 0-.045-.008L.215-.204a.564.564 0 0 1-.067-.013.216.216 0 0 1-.062-.027.13.13 0 0 1-.045-.048.167.167 0 0 1-.017-.078c0-.035.01-.066.031-.094a.219.219 0 0 1 .094-.067.415.415 0 0 1 .155-.026c.04 0 .08.004.12.011.04.007.074.019.103.034l-.062.149a.347.347 0 0 0-.158-.04.145.145 0 0 0-.058.008C.238-.39.233-.384.233-.377c0 .008.006.014.017.018a.197.197 0 0 0 .045.009l.062.008a.421.421 0 0 1 .067.014.223.223 0 0 1 .061.027.125.125 0 0 1 .045.049.16.16 0 0 1 .017.077c0 .033-.01.063-.031.092a.214.214 0 0 1-.094.068.426.426 0 0 1-.158.025Z" style="fill-rule:nonzero" transform="matrix(16 0 0 16 550.563 233.942)"/><path d="M.314.01a.258.258 0 0 1-.176-.055C.096-.081.075-.137.075-.212V-.67h.226v.456c0 .017.004.03.013.039a.048.048 0 0 0 .034.014.09.09 0 0 0 .051-.015l.054.157A.202.202 0 0 1 .39.003.37.37 0 0 1 .314.01ZM0-.352v-.165h.413v.165H0Z" style="fill-rule:nonzero" transform="matrix(16 0 0 16 559.603 233.942)"/><path d="M.381 0v-.097L.365-.123v-.184c0-.027-.008-.047-.024-.061C.324-.382.298-.389.261-.389a.245.245 0 0 0-.075.012.206.206 0 0 0-.065.031L.049-.495a.39.39 0 0 1 .115-.046.546.546 0 0 1 .131-.016.34.34 0 0 1 .219.063c.051.042.077.109.077.2V0h-.21ZM.226.01a.248.248 0 0 1-.112-.023.162.162 0 0 1-.068-.061A.17.17 0 0 1 .05-.25a.166.166 0 0 1 .083-.056.426.426 0 0 1 .14-.019h.114v.109H.309c-.024 0-.041.004-.052.012C.246-.197.24-.185.24-.17a.04.04 0 0 0 .015.032c.009.008.022.012.039.012.015 0 .03-.004.043-.012a.075.075 0 0 0 .028-.04l.029.067a.144.144 0 0 1-.055.091.191.191 0 0 1-.113.03Z" style="fill-rule:nonzero" transform="matrix(16 0 0 16 566.963 233.942)"/><path style="fill-rule:nonzero" d="M.05-.742h.226V0H.05z" transform="matrix(16 0 0 16 577.187 233.942)"/><path d="M.057 0v-.7h.337c.065 0 .122.011.169.032a.247.247 0 0 1 .111.092.247.247 0 0 1 .039.14.247.247 0 0 1-.039.14.26.26 0 0 1-.111.092.414.414 0 0 1-.169.032H.188l.105-.101V0H.057Zm.236-.247L.188-.354h.191c.033 0 .057-.007.073-.022a.081.081 0 0 0 .023-.06.078.078 0 0 0-.024-.06C.436-.511.412-.518.379-.518H.188l.105-.107v.378Z" style="fill-rule:nonzero" transform="matrix(16 0 0 16 587.205 233.942)"/><path d="M.05 0v-.547h.226V0H.05Zm.113-.591a.144.144 0 0 1-.099-.033.104.104 0 0 1-.037-.082c0-.033.012-.06.037-.082a.144.144 0 0 1 .099-.033c.041 0 .074.01.099.031a.099.099 0 0 1 .037.08.107.107 0 0 1-.037.085.14.14 0 0 1-.099.034Z" style="fill-rule:nonzero" transform="matrix(16 0 0 16 599.09 233.942)"/><path d="m.239-.09.005-.266.189-.191H.7l-.25.262-.113.091-.098.104ZM.05 0v-.742h.226V0H.05Zm.395 0-.15-.19.139-.171L.718 0H.445Z" style="fill-rule:nonzero" transform="matrix(16 0 0 16 604.305 233.942)"/><path d="M.339.01a.352.352 0 0 1-.165-.037.271.271 0 0 1-.153-.247.271.271 0 0 1 .154-.247.357.357 0 0 1 .164-.036c.062 0 .117.012.165.036a.275.275 0 0 1 .113.1.27.27 0 0 1 .04.147.27.27 0 0 1-.153.248.364.364 0 0 1-.165.036Zm0-.176a.084.084 0 0 0 .045-.012.087.087 0 0 0 .032-.036.14.14 0 0 0 .012-.06.126.126 0 0 0-.012-.059.087.087 0 0 0-.032-.036.084.084 0 0 0-.045-.012.084.084 0 0 0-.077.047.134.134 0 0 0-.012.06c0 .023.004.043.012.059a.084.084 0 0 0 .032.037.084.084 0 0 0 .045.012Z" style="fill-rule:nonzero" transform="matrix(16 0 0 16 615.315 233.942)"/><path d="M.125 0v-.618l.101.096H.005V-.7h.356V0H.125Z" style="fill-rule:nonzero" transform="matrix(16 0 0 16 630.965 233.942)"/><path d="M.281.016A.666.666 0 0 1 .135 0a.474.474 0 0 1-.13-.047l.08-.174a.396.396 0 0 0 .187.051.14.14 0 0 0 .066-.014.045.045 0 0 0 .017-.067C.349-.259.338-.265.323-.269a.264.264 0 0 0-.065-.006H.055L.09-.7h.465v.178H.173l.119-.101-.021.271-.119-.101h.163c.069 0 .125.01.166.03a.2.2 0 0 1 .12.193.23.23 0 0 1-.138.21.398.398 0 0 1-.182.036Z" style="fill-rule:nonzero" transform="matrix(16 0 0 16 637.65 233.942)"/><path d="M.264.01a.634.634 0 0 1-.138-.015.4.4 0 0 1-.11-.039l.062-.149a.387.387 0 0 0 .191.049.135.135 0 0 0 .055-.007c.01-.005.015-.011.015-.019S.333-.184.322-.188a.288.288 0 0 0-.045-.008L.215-.204a.564.564 0 0 1-.067-.013.216.216 0 0 1-.062-.027.13.13 0 0 1-.045-.048.167.167 0 0 1-.017-.078c0-.035.01-.066.031-.094a.219.219 0 0 1 .094-.067.415.415 0 0 1 .155-.026c.04 0 .08.004.12.011.04.007.074.019.103.034l-.062.149a.347.347 0 0 0-.158-.04.145.145 0 0 0-.058.008C.238-.39.233-.384.233-.377c0 .008.006.014.017.018a.197.197 0 0 0 .045.009l.062.008a.421.421 0 0 1 .067.014.223.223 0 0 1 .061.027.125.125 0 0 1 .045.049.16.16 0 0 1 .017.077c0 .033-.01.063-.031.092a.214.214 0 0 1-.094.068.426.426 0 0 1-.158.025Z" style="fill-rule:nonzero" transform="matrix(12 0 0 12 543.94 248.342)"/><path d="M.339.01a.352.352 0 0 1-.165-.037.271.271 0 0 1-.153-.247.271.271 0 0 1 .154-.247.357.357 0 0 1 .164-.036c.062 0 .117.012.165.036a.275.275 0 0 1 .113.1.27.27 0 0 1 .04.147.27.27 0 0 1-.153.248.364.364 0 0 1-.165.036Zm0-.176a.084.084 0 0 0 .045-.012.087.087 0 0 0 .032-.036.14.14 0 0 0 .012-.06.126.126 0 0 0-.012-.059.087.087 0 0 0-.032-.036.084.084 0 0 0-.045-.012.084.084 0 0 0-.077.047.134.134 0 0 0-.012.06c0 .023.004.043.012.059a.084.084 0 0 0 .032.037.084.084 0 0 0 .045.012Z" style="fill-rule:nonzero" transform="matrix(12 0 0 12 550.72 248.342)"/><path style="fill-rule:nonzero" d="M.05-.742h.226V0H.05z" transform="matrix(12 0 0 12 558.857 248.342)"/><path d="M.381 0v-.097L.365-.123v-.184c0-.027-.008-.047-.024-.061C.324-.382.298-.389.261-.389a.245.245 0 0 0-.075.012.206.206 0 0 0-.065.031L.049-.495a.39.39 0 0 1 .115-.046.546.546 0 0 1 .131-.016.34.34 0 0 1 .219.063c.051.042.077.109.077.2V0h-.21ZM.226.01a.248.248 0 0 1-.112-.023.162.162 0 0 1-.068-.061A.17.17 0 0 1 .05-.25a.166.166 0 0 1 .083-.056.426.426 0 0 1 .14-.019h.114v.109H.309c-.024 0-.041.004-.052.012C.246-.197.24-.185.24-.17a.04.04 0 0 0 .015.032c.009.008.022.012.039.012.015 0 .03-.004.043-.012a.075.075 0 0 0 .028-.04l.029.067a.144.144 0 0 1-.055.091.191.191 0 0 1-.113.03Z" style="fill-rule:nonzero" transform="matrix(12 0 0 12 562.769 248.342)"/><path d="M.05 0v-.547h.215v.165L.23-.429a.182.182 0 0 1 .08-.096.263.263 0 0 1 .132-.032v.2A.66.66 0 0 1 .416-.36L.392-.361a.124.124 0 0 0-.083.027c-.022.017-.033.048-.033.091V0H.05Z" style="fill-rule:nonzero" transform="matrix(12 0 0 12 570.437 248.342)"/><path d="M.05 0v-.547h.226V0H.05Zm.113-.591a.144.144 0 0 1-.099-.033.104.104 0 0 1-.037-.082c0-.033.012-.06.037-.082a.144.144 0 0 1 .099-.033c.041 0 .074.01.099.031a.099.099 0 0 1 .037.08.107.107 0 0 1-.037.085.14.14 0 0 1-.099.034Z" style="fill-rule:nonzero" transform="matrix(12 0 0 12 579.509 248.342)"/><path d="M.43-.557a.24.24 0 0 1 .114.026.187.187 0 0 1 .081.079.3.3 0 0 1 .029.14V0H.428v-.273c0-.034-.006-.058-.018-.073a.06.06 0 0 0-.049-.021.092.092 0 0 0-.043.011.074.074 0 0 0-.031.034.165.165 0 0 0-.011.065V0H.05v-.547h.215v.16L.222-.433A.222.222 0 0 1 .43-.557Z" style="fill-rule:nonzero" transform="matrix(12 0 0 12 583.42 248.342)"/><path d="m.205 0-.22-.547h.232l.167.444H.267l.178-.444h.214L.439 0H.205Z" style="fill-rule:nonzero" transform="matrix(12 0 0 12 591.725 248.342)"/><path d="M.352.01a.378.378 0 0 1-.174-.037.282.282 0 0 1-.116-.102.264.264 0 0 1-.041-.145.271.271 0 0 1 .152-.247.34.34 0 0 1 .158-.036c.054 0 .104.011.15.032a.266.266 0 0 1 .11.095.283.283 0 0 1 .041.156l-.001.027-.002.026H.208V-.33h.301l-.085.029a.124.124 0 0 0-.011-.054.094.094 0 0 0-.032-.036.09.09 0 0 0-.048-.012.082.082 0 0 0-.048.013.078.078 0 0 0-.032.035.124.124 0 0 0-.011.054v.034c0 .023.005.043.014.06a.092.092 0 0 0 .04.038.148.148 0 0 0 .063.012.167.167 0 0 0 .063-.01.28.28 0 0 0 .051-.03l.118.119a.257.257 0 0 1-.098.066.417.417 0 0 1-.141.022Z" style="fill-rule:nonzero" transform="matrix(12 0 0 12 599.275 248.342)"/><path d="M.05 0v-.547h.215v.165L.23-.429a.182.182 0 0 1 .08-.096.263.263 0 0 1 .132-.032v.2A.66.66 0 0 1 .416-.36L.392-.361a.124.124 0 0 0-.083.027c-.022.017-.033.048-.033.091V0H.05Z" style="fill-rule:nonzero" transform="matrix(12 0 0 12 607.11 248.342)"/><path d="M.314.01a.258.258 0 0 1-.176-.055C.096-.081.075-.137.075-.212V-.67h.226v.456c0 .017.004.03.013.039a.048.048 0 0 0 .034.014.09.09 0 0 0 .051-.015l.054.157A.202.202 0 0 1 .39.003.37.37 0 0 1 .314.01ZM0-.352v-.165h.413v.165H0Z" style="fill-rule:nonzero" transform="matrix(12 0 0 12 612.76 248.342)"/><path d="M.352.01a.378.378 0 0 1-.174-.037.282.282 0 0 1-.116-.102.264.264 0 0 1-.041-.145.271.271 0 0 1 .152-.247.34.34 0 0 1 .158-.036c.054 0 .104.011.15.032a.266.266 0 0 1 .11.095.283.283 0 0 1 .041.156l-.001.027-.002.026H.208V-.33h.301l-.085.029a.124.124 0 0 0-.011-.054.094.094 0 0 0-.032-.036.09.09 0 0 0-.048-.012.082.082 0 0 0-.048.013.078.078 0 0 0-.032.035.124.124 0 0 0-.011.054v.034c0 .023.005.043.014.06a.092.092 0 0 0 .04.038.148.148 0 0 0 .063.012.167.167 0 0 0 .063-.01.28.28 0 0 0 .051-.03l.118.119a.257.257 0 0 1-.098.066.417.417 0 0 1-.141.022Z" style="fill-rule:nonzero" transform="matrix(12 0 0 12 618.1 248.342)"/><path d="M.05 0v-.547h.215v.165L.23-.429a.182.182 0 0 1 .08-.096.263.263 0 0 1 .132-.032v.2A.66.66 0 0 1 .416-.36L.392-.361a.124.124 0 0 0-.083.027c-.022.017-.033.048-.033.091V0H.05Z" style="fill-rule:nonzero" transform="matrix(12 0 0 12 625.935 248.342)"/><path d="m558.01 299.207 5.378-4.312 18.235-2.353h18.994l18.505 2.353 3.887 24.825v44.074l-5.804 27.891-12.175 2.616h-16.742l-24.9-2.616-7.103-18.002v-47.194l1.725-27.282Z" style="fill:#4eb848"/><path d="M600.079 320.837a5.144 5.144 0 0 0-5.142-5.142h-10.284a5.144 5.144 0 0 0-5.141 5.142v29.165a5.144 5.144 0 0 0 5.141 5.142h10.284a5.144 5.144 0 0 0 5.142-5.142v-29.165ZM617.303 391.979c.332-10.435 2.286-96.724 2.286-96.724s2.457 1.634 3.825 3.142a33.402 33.402 0 0 1 3.069 4.002s-.871 42.001-1.202 50.073c-.331 8.071-1.117 31.079-1.117 31.079s-1.387 2.692-2.538 4.081c-1.151 1.39-4.323 4.347-4.323 4.347" style="fill:#fff;stroke:#000;stroke-width:2.77px"/><path d="M619.589 295.255s-8.004-1.36-15.224-2.061c-7.221-.7-14.56-.565-14.56-.565h.29s-7.338-.135-14.559.565c-7.221.701-15.225 2.061-15.225 2.061M617.281 392.019s-7.678 1.201-13.503 1.67c-4.491.361-13.901.621-13.901.621h.147s-9.411-.26-13.901-.621c-1.844-.148-3.873-.37-5.785-.604a261.563 261.563 0 0 1-7.718-1.066" style="fill:none;stroke:#000;stroke-width:2.77px"/><path d="M562.598 391.979c-.333-10.435-2.287-96.724-2.287-96.724s-2.457 1.634-3.825 3.142c-1.762 1.943-3.068 4.002-3.068 4.002s.871 42.001 1.202 50.073c.331 8.071 1.117 31.079 1.117 31.079s1.386 2.692 2.537 4.081c1.151 1.39 4.324 4.347 4.324 4.347" style="fill:#fff;stroke:#000;stroke-width:2.77px"/><path d="M.268-.15.255-.409.519-.7h.257L.48-.374.349-.24l-.081.09ZM.057 0v-.7h.232V0H.057Zm.46 0L.311-.272l.153-.162L.79 0H.517Z" style="fill-rule:nonzero" transform="matrix(16 0 0 16 517.696 421.683)"/><path d="M.339.01a.352.352 0 0 1-.165-.037.271.271 0 0 1-.153-.247.271.271 0 0 1 .154-.247.357.357 0 0 1 .164-.036c.062 0 .117.012.165.036a.275.275 0 0 1 .113.1.27.27 0 0 1 .04.147.27.27 0 0 1-.153.248.364.364 0 0 1-.165.036Zm0-.176a.084.084 0 0 0 .045-.012.087.087 0 0 0 .032-.036.14.14 0 0 0 .012-.06.126.126 0 0 0-.012-.059.087.087 0 0 0-.032-.036.084.084 0 0 0-.045-.012.084.084 0 0 0-.077.047.134.134 0 0 0-.012.06c0 .023.004.043.012.059a.084.084 0 0 0 .032.037.084.084 0 0 0 .045.012Z" style="fill-rule:nonzero" transform="matrix(16 0 0 16 529.616 421.683)"/><path d="M.264.01a.634.634 0 0 1-.138-.015.4.4 0 0 1-.11-.039l.062-.149a.387.387 0 0 0 .191.049.135.135 0 0 0 .055-.007c.01-.005.015-.011.015-.019S.333-.184.322-.188a.288.288 0 0 0-.045-.008L.215-.204a.564.564 0 0 1-.067-.013.216.216 0 0 1-.062-.027.13.13 0 0 1-.045-.048.167.167 0 0 1-.017-.078c0-.035.01-.066.031-.094a.219.219 0 0 1 .094-.067.415.415 0 0 1 .155-.026c.04 0 .08.004.12.011.04.007.074.019.103.034l-.062.149a.347.347 0 0 0-.158-.04.145.145 0 0 0-.058.008C.238-.39.233-.384.233-.377c0 .008.006.014.017.018a.197.197 0 0 0 .045.009l.062.008a.421.421 0 0 1 .067.014.223.223 0 0 1 .061.027.125.125 0 0 1 .045.049.16.16 0 0 1 .017.077c0 .033-.01.063-.031.092a.214.214 0 0 1-.094.068.426.426 0 0 1-.158.025Z" style="fill-rule:nonzero" transform="matrix(16 0 0 16 540.464 421.683)"/><path d="M.314.01a.258.258 0 0 1-.176-.055C.096-.081.075-.137.075-.212V-.67h.226v.456c0 .017.004.03.013.039a.048.048 0 0 0 .034.014.09.09 0 0 0 .051-.015l.054.157A.202.202 0 0 1 .39.003.37.37 0 0 1 .314.01ZM0-.352v-.165h.413v.165H0Z" style="fill-rule:nonzero" transform="matrix(16 0 0 16 549.504 421.683)"/><path d="M.381 0v-.097L.365-.123v-.184c0-.027-.008-.047-.024-.061C.324-.382.298-.389.261-.389a.245.245 0 0 0-.075.012.206.206 0 0 0-.065.031L.049-.495a.39.39 0 0 1 .115-.046.546.546 0 0 1 .131-.016.34.34 0 0 1 .219.063c.051.042.077.109.077.2V0h-.21ZM.226.01a.248.248 0 0 1-.112-.023.162.162 0 0 1-.068-.061A.17.17 0 0 1 .05-.25a.166.166 0 0 1 .083-.056.426.426 0 0 1 .14-.019h.114v.109H.309c-.024 0-.041.004-.052.012C.246-.197.24-.185.24-.17a.04.04 0 0 0 .015.032c.009.008.022.012.039.012.015 0 .03-.004.043-.012a.075.075 0 0 0 .028-.04l.029.067a.144.144 0 0 1-.055.091.191.191 0 0 1-.113.03Z" style="fill-rule:nonzero" transform="matrix(16 0 0 16 556.864 421.683)"/><path style="fill-rule:nonzero" d="M.05-.742h.226V0H.05z" transform="matrix(16 0 0 16 567.088 421.683)"/><path d="M.057 0v-.7h.337c.065 0 .122.011.169.032a.247.247 0 0 1 .111.092.247.247 0 0 1 .039.14.247.247 0 0 1-.039.14.26.26 0 0 1-.111.092.414.414 0 0 1-.169.032H.188l.105-.101V0H.057Zm.236-.247L.188-.354h.191c.033 0 .057-.007.073-.022a.081.081 0 0 0 .023-.06.078.078 0 0 0-.024-.06C.436-.511.412-.518.379-.518H.188l.105-.107v.378Z" style="fill-rule:nonzero" transform="matrix(16 0 0 16 577.104 421.683)"/><path d="M.05 0v-.547h.226V0H.05Zm.113-.591a.144.144 0 0 1-.099-.033.104.104 0 0 1-.037-.082c0-.033.012-.06.037-.082a.144.144 0 0 1 .099-.033c.041 0 .074.01.099.031a.099.099 0 0 1 .037.08.107.107 0 0 1-.037.085.14.14 0 0 1-.099.034Z" style="fill-rule:nonzero" transform="matrix(16 0 0 16 588.994 421.683)"/><path d="m.239-.09.005-.266.189-.191H.7l-.25.262-.113.091-.098.104ZM.05 0v-.742h.226V0H.05Zm.395 0-.15-.19.139-.171L.718 0H.445Z" style="fill-rule:nonzero" transform="matrix(16 0 0 16 594.21 421.683)"/><path d="M.339.01a.352.352 0 0 1-.165-.037.271.271 0 0 1-.153-.247.271.271 0 0 1 .154-.247.357.357 0 0 1 .164-.036c.062 0 .117.012.165.036a.275.275 0 0 1 .113.1.27.27 0 0 1 .04.147.27.27 0 0 1-.153.248.364.364 0 0 1-.165.036Zm0-.176a.084.084 0 0 0 .045-.012.087.087 0 0 0 .032-.036.14.14 0 0 0 .012-.06.126.126 0 0 0-.012-.059.087.087 0 0 0-.032-.036.084.084 0 0 0-.045-.012.084.084 0 0 0-.077.047.134.134 0 0 0-.012.06c0 .023.004.043.012.059a.084.084 0 0 0 .032.037.084.084 0 0 0 .045.012Z" style="fill-rule:nonzero" transform="matrix(16 0 0 16 605.214 421.683)"/><path style="fill-rule:nonzero" d="M.057-.7h.236V0H.057z" transform="matrix(16 0 0 16 620.864 421.683)"/><path d="M.424.016a.442.442 0 0 1-.157-.027.357.357 0 0 1-.209-.193.374.374 0 0 1 0-.293.368.368 0 0 1 .209-.192.442.442 0 0 1 .157-.027c.057 0 .11.009.158.027a.35.35 0 0 1 .237.339.353.353 0 0 1-.112.262.37.37 0 0 1-.125.077.448.448 0 0 1-.158.027Zm.229.161A.373.373 0 0 1 .48.136.494.494 0 0 1 .398.075 1.205 1.205 0 0 1 .302-.02l.244-.06c.016.025.03.044.041.057A.103.103 0 0 0 .62.005a.092.092 0 0 0 .038.008.135.135 0 0 0 .097-.045l.102.12a.254.254 0 0 1-.204.089ZM.424-.175a.154.154 0 0 0 .061-.012.137.137 0 0 0 .05-.035.146.146 0 0 0 .034-.055.207.207 0 0 0 .012-.073.207.207 0 0 0-.012-.073.146.146 0 0 0-.034-.055.126.126 0 0 0-.05-.035.16.16 0 0 0-.123 0 .153.153 0 0 0-.05.034.168.168 0 0 0-.033.055.217.217 0 0 0-.012.074c0 .027.004.052.012.073.008.022.019.04.033.055a.156.156 0 0 0 .05.035.16.16 0 0 0 .062.012Z" style="fill-rule:nonzero" transform="matrix(16 0 0 16 626.464 421.683)"/><path d="M.125 0v-.618l.101.096H.005V-.7h.356V0H.125Z" style="fill-rule:nonzero" transform="matrix(16 0 0 16 644.834 421.683)"/><path d="M.346.016a.312.312 0 0 1-.165-.043.297.297 0 0 1-.112-.125.446.446 0 0 1-.04-.198c0-.077.013-.143.04-.198a.297.297 0 0 1 .112-.125.312.312 0 0 1 .165-.043c.062 0 .117.014.165.043.047.029.085.07.112.125.027.055.04.121.04.198a.446.446 0 0 1-.04.198.297.297 0 0 1-.112.125.312.312 0 0 1-.165.043Zm0-.189a.06.06 0 0 0 .041-.016.113.113 0 0 0 .029-.055.426.426 0 0 0 .01-.106.435.435 0 0 0-.01-.107.114.114 0 0 0-.029-.054.06.06 0 0 0-.041-.016.06.06 0 0 0-.041.016.114.114 0 0 0-.028.054.428.428 0 0 0-.011.107c0 .045.004.08.011.106a.113.113 0 0 0 .028.055.06.06 0 0 0 .041.016Z" style="fill-rule:nonzero" transform="matrix(16 0 0 16 651.52 421.683)"/><path d="M.264.01a.634.634 0 0 1-.138-.015.4.4 0 0 1-.11-.039l.062-.149a.387.387 0 0 0 .191.049.135.135 0 0 0 .055-.007c.01-.005.015-.011.015-.019S.333-.184.322-.188a.288.288 0 0 0-.045-.008L.215-.204a.564.564 0 0 1-.067-.013.216.216 0 0 1-.062-.027.13.13 0 0 1-.045-.048.167.167 0 0 1-.017-.078c0-.035.01-.066.031-.094a.219.219 0 0 1 .094-.067.415.415 0 0 1 .155-.026c.04 0 .08.004.12.011.04.007.074.019.103.034l-.062.149a.347.347 0 0 0-.158-.04.145.145 0 0 0-.058.008C.238-.39.233-.384.233-.377c0 .008.006.014.017.018a.197.197 0 0 0 .045.009l.062.008a.421.421 0 0 1 .067.014.223.223 0 0 1 .061.027.125.125 0 0 1 .045.049.16.16 0 0 1 .017.077c0 .033-.01.063-.031.092a.214.214 0 0 1-.094.068.426.426 0 0 1-.158.025Z" style="fill-rule:nonzero" transform="matrix(12 0 0 12 546.41 436.083)"/><path d="M.339.01a.352.352 0 0 1-.165-.037.271.271 0 0 1-.153-.247.271.271 0 0 1 .154-.247.357.357 0 0 1 .164-.036c.062 0 .117.012.165.036a.275.275 0 0 1 .113.1.27.27 0 0 1 .04.147.27.27 0 0 1-.153.248.364.364 0 0 1-.165.036Zm0-.176a.084.084 0 0 0 .045-.012.087.087 0 0 0 .032-.036.14.14 0 0 0 .012-.06.126.126 0 0 0-.012-.059.087.087 0 0 0-.032-.036.084.084 0 0 0-.045-.012.084.084 0 0 0-.077.047.134.134 0 0 0-.012.06c0 .023.004.043.012.059a.084.084 0 0 0 .032.037.084.084 0 0 0 .045.012Z" style="fill-rule:nonzero" transform="matrix(12 0 0 12 553.19 436.083)"/><path style="fill-rule:nonzero" d="M.05-.742h.226V0H.05z" transform="matrix(12 0 0 12 561.326 436.083)"/><path d="M.381 0v-.097L.365-.123v-.184c0-.027-.008-.047-.024-.061C.324-.382.298-.389.261-.389a.245.245 0 0 0-.075.012.206.206 0 0 0-.065.031L.049-.495a.39.39 0 0 1 .115-.046.546.546 0 0 1 .131-.016.34.34 0 0 1 .219.063c.051.042.077.109.077.2V0h-.21ZM.226.01a.248.248 0 0 1-.112-.023.162.162 0 0 1-.068-.061A.17.17 0 0 1 .05-.25a.166.166 0 0 1 .083-.056.426.426 0 0 1 .14-.019h.114v.109H.309c-.024 0-.041.004-.052.012C.246-.197.24-.185.24-.17a.04.04 0 0 0 .015.032c.009.008.022.012.039.012.015 0 .03-.004.043-.012a.075.075 0 0 0 .028-.04l.029.067a.144.144 0 0 1-.055.091.191.191 0 0 1-.113.03Z" style="fill-rule:nonzero" transform="matrix(12 0 0 12 565.238 436.083)"/><path d="M.05 0v-.547h.215v.165L.23-.429a.182.182 0 0 1 .08-.096.263.263 0 0 1 .132-.032v.2A.66.66 0 0 1 .416-.36L.392-.361a.124.124 0 0 0-.083.027c-.022.017-.033.048-.033.091V0H.05Z" style="fill-rule:nonzero" transform="matrix(12 0 0 12 572.906 436.083)"/><path d="M.05 0v-.547h.226V0H.05Zm.113-.591a.144.144 0 0 1-.099-.033.104.104 0 0 1-.037-.082c0-.033.012-.06.037-.082a.144.144 0 0 1 .099-.033c.041 0 .074.01.099.031a.099.099 0 0 1 .037.08.107.107 0 0 1-.037.085.14.14 0 0 1-.099.034Z" style="fill-rule:nonzero" transform="matrix(12 0 0 12 581.978 436.083)"/><path d="M.43-.557a.24.24 0 0 1 .114.026.187.187 0 0 1 .081.079.3.3 0 0 1 .029.14V0H.428v-.273c0-.034-.006-.058-.018-.073a.06.06 0 0 0-.049-.021.092.092 0 0 0-.043.011.074.074 0 0 0-.031.034.165.165 0 0 0-.011.065V0H.05v-.547h.215v.16L.222-.433A.222.222 0 0 1 .43-.557Z" style="fill-rule:nonzero" transform="matrix(12 0 0 12 585.89 436.083)"/><path d="m.205 0-.22-.547h.232l.167.444H.267l.178-.444h.214L.439 0H.205Z" style="fill-rule:nonzero" transform="matrix(12 0 0 12 594.194 436.083)"/><path d="M.352.01a.378.378 0 0 1-.174-.037.282.282 0 0 1-.116-.102.264.264 0 0 1-.041-.145.271.271 0 0 1 .152-.247.34.34 0 0 1 .158-.036c.054 0 .104.011.15.032a.266.266 0 0 1 .11.095.283.283 0 0 1 .041.156l-.001.027-.002.026H.208V-.33h.301l-.085.029a.124.124 0 0 0-.011-.054.094.094 0 0 0-.032-.036.09.09 0 0 0-.048-.012.082.082 0 0 0-.048.013.078.078 0 0 0-.032.035.124.124 0 0 0-.011.054v.034c0 .023.005.043.014.06a.092.092 0 0 0 .04.038.148.148 0 0 0 .063.012.167.167 0 0 0 .063-.01.28.28 0 0 0 .051-.03l.118.119a.257.257 0 0 1-.098.066.417.417 0 0 1-.141.022Z" style="fill-rule:nonzero" transform="matrix(12 0 0 12 601.744 436.083)"/><path d="M.05 0v-.547h.215v.165L.23-.429a.182.182 0 0 1 .08-.096.263.263 0 0 1 .132-.032v.2A.66.66 0 0 1 .416-.36L.392-.361a.124.124 0 0 0-.083.027c-.022.017-.033.048-.033.091V0H.05Z" style="fill-rule:nonzero" transform="matrix(12 0 0 12 609.58 436.083)"/><path d="M.314.01a.258.258 0 0 1-.176-.055C.096-.081.075-.137.075-.212V-.67h.226v.456c0 .017.004.03.013.039a.048.048 0 0 0 .034.014.09.09 0 0 0 .051-.015l.054.157A.202.202 0 0 1 .39.003.37.37 0 0 1 .314.01ZM0-.352v-.165h.413v.165H0Z" style="fill-rule:nonzero" transform="matrix(12 0 0 12 615.23 436.083)"/><path d="M.352.01a.378.378 0 0 1-.174-.037.282.282 0 0 1-.116-.102.264.264 0 0 1-.041-.145.271.271 0 0 1 .152-.247.34.34 0 0 1 .158-.036c.054 0 .104.011.15.032a.266.266 0 0 1 .11.095.283.283 0 0 1 .041.156l-.001.027-.002.026H.208V-.33h.301l-.085.029a.124.124 0 0 0-.011-.054.094.094 0 0 0-.032-.036.09.09 0 0 0-.048-.012.082.082 0 0 0-.048.013.078.078 0 0 0-.032.035.124.124 0 0 0-.011.054v.034c0 .023.005.043.014.06a.092.092 0 0 0 .04.038.148.148 0 0 0 .063.012.167.167 0 0 0 .063-.01.28.28 0 0 0 .051-.03l.118.119a.257.257 0 0 1-.098.066.417.417 0 0 1-.141.022Z" style="fill-rule:nonzero" transform="matrix(12 0 0 12 620.57 436.083)"/><path d="M.05 0v-.547h.215v.165L.23-.429a.182.182 0 0 1 .08-.096.263.263 0 0 1 .132-.032v.2A.66.66 0 0 1 .416-.36L.392-.361a.124.124 0 0 0-.083.027c-.022.017-.033.048-.033.091V0H.05Z" style="fill-rule:nonzero" transform="matrix(12 0 0 12 628.404 436.083)"/><path d="M513.697 83.562h-150l7.197-56.5H506.5l7.197 56.5Z" style="fill:#fff;stroke:#000;stroke-width:2.65px"/><path d="M506.895 78.158H370.628l5.287-45.827h125.693l5.287 45.827Z" style="fill:#4eb848;stroke:#000;stroke-width:2.65px"/><path d="M492.805 78.158H383.982l4.222-45.827h100.378l4.223 45.827Z" style="fill:#4eb848;stroke:#000;stroke-width:2.65px"/><path d="M479.255 78.158h-81.632l3.168-45.827h75.296l3.168 45.827Z" style="fill:none;stroke:#000;stroke-width:2.65px"/><path d="M465.81 78.158h-67.985l2.638-45.827h62.709l2.638 45.827Z" style="fill:#4eb848;stroke:#000;stroke-width:2.65px"/><path d="M452.185 78.158h-40.846l1.585-45.827H450.6l1.585 45.827Z" style="fill:#4eb848;stroke:#000;stroke-width:2.65px"/><path d="M438.677 78.158h-13.771l.534-45.827h12.703l.534 45.827Z" style="fill:#4eb848;stroke:#000;stroke-width:2.65px"/><path d="M374.788 47.368h127.371M373.318 62.869h131.129" style="fill:none;stroke:#000;stroke-width:2.65px"/><path d="M.125 0v-.618l.101.096H.005V-.7h.356V0H.125Z" style="fill-rule:nonzero" transform="matrix(16 0 0 16 351.774 110.154)"/><path d="M.296-.716c.067 0 .125.013.176.038.05.026.089.064.118.115a.391.391 0 0 1 .042.191.412.412 0 0 1-.049.209.335.335 0 0 1-.136.133.468.468 0 0 1-.42-.009l.085-.165a.178.178 0 0 0 .063.029.274.274 0 0 0 .064.008.154.154 0 0 0 .114-.043c.028-.028.042-.069.042-.123v-.059l.054.039a.188.188 0 0 1-.111.093.25.25 0 0 1-.086.013.248.248 0 0 1-.206-.105.208.208 0 0 1-.034-.119.226.226 0 0 1 .141-.215c.043-.02.09-.03.143-.03Zm.016.163a.087.087 0 0 0-.037.008.06.06 0 0 0-.025.025.067.067 0 0 0-.01.038c0 .022.007.039.021.052a.07.07 0 0 0 .051.02.079.079 0 0 0 .038-.009.06.06 0 0 0 .025-.025.076.076 0 0 0 .009-.038.076.076 0 0 0-.009-.038.06.06 0 0 0-.025-.025.092.092 0 0 0-.038-.008Z" style="fill-rule:nonzero" transform="matrix(16 0 0 16 358.462 110.154)"/><path d="m.035.16.084-.281.033.126a.137.137 0 0 1-.095-.033A.118.118 0 0 1 .02-.12a.12.12 0 0 1 .037-.093.136.136 0 0 1 .095-.035c.038 0 .069.012.094.035a.12.12 0 0 1 .038.093.173.173 0 0 1-.003.032.187.187 0 0 1-.01.039.572.572 0 0 1-.026.06L.175.16h-.14Z" style="fill-rule:nonzero" transform="matrix(16 0 0 16 368.798 110.154)"/><path d="M.281.016A.666.666 0 0 1 .135 0a.474.474 0 0 1-.13-.047l.08-.174a.396.396 0 0 0 .187.051.14.14 0 0 0 .066-.014.045.045 0 0 0 .017-.067C.349-.259.338-.265.323-.269a.264.264 0 0 0-.065-.006H.055L.09-.7h.465v.178H.173l.119-.101-.021.271-.119-.101h.163c.069 0 .125.01.166.03a.2.2 0 0 1 .12.193.23.23 0 0 1-.138.21.398.398 0 0 1-.182.036Z" style="fill-rule:nonzero" transform="matrix(16 0 0 16 373.662 110.154)"/><path d="m.239-.09.005-.266.189-.191H.7l-.25.262-.113.091-.098.104ZM.05 0v-.742h.226V0H.05Zm.395 0-.15-.19.139-.171L.718 0H.445Z" style="fill-rule:nonzero" transform="matrix(16 0 0 16 388.366 110.154)"/><path d="M.234 0 .01-.7h.243l.181.591H.312L.504-.7h.217L.9-.109H.783L.972-.7h.224L.972 0H.719L.573-.484h.068L.487 0H.234Z" style="fill-rule:nonzero" transform="matrix(16 0 0 16 399.774 110.154)"/><path d="M.415.01a.207.207 0 0 1-.118-.031.175.175 0 0 1-.068-.093.472.472 0 0 1-.022-.159c0-.066.007-.12.02-.161a.169.169 0 0 1 .067-.093.22.22 0 0 1 .121-.03.26.26 0 0 1 .228.133.299.299 0 0 1 .036.151.305.305 0 0 1-.036.152.256.256 0 0 1-.228.131ZM.05.194v-.741h.215v.074l.001.2.01.2v.267H.05Zm.311-.36a.084.084 0 0 0 .045-.012.087.087 0 0 0 .032-.036.132.132 0 0 0 .012-.059.134.134 0 0 0-.012-.06.087.087 0 0 0-.032-.036.084.084 0 0 0-.045-.012.084.084 0 0 0-.045.012.087.087 0 0 0-.032.036.134.134 0 0 0-.012.06c0 .023.004.043.012.059a.087.087 0 0 0 .032.036.084.084 0 0 0 .045.012Z" style="fill-rule:nonzero" transform="matrix(16 0 0 16 418.51 110.154)"/><path d="M.352.01a.378.378 0 0 1-.174-.037.282.282 0 0 1-.116-.102.264.264 0 0 1-.041-.145.271.271 0 0 1 .152-.247.34.34 0 0 1 .158-.036c.054 0 .104.011.15.032a.266.266 0 0 1 .11.095.283.283 0 0 1 .041.156l-.001.027-.002.026H.208V-.33h.301l-.085.029a.124.124 0 0 0-.011-.054.094.094 0 0 0-.032-.036.09.09 0 0 0-.048-.012.082.082 0 0 0-.048.013.078.078 0 0 0-.032.035.124.124 0 0 0-.011.054v.034c0 .023.005.043.014.06a.092.092 0 0 0 .04.038.148.148 0 0 0 .063.012.167.167 0 0 0 .063-.01.28.28 0 0 0 .051-.03l.118.119a.257.257 0 0 1-.098.066.417.417 0 0 1-.141.022Z" style="fill-rule:nonzero" transform="matrix(16 0 0 16 434.512 110.154)"/><path d="M.381 0v-.097L.365-.123v-.184c0-.027-.008-.047-.024-.061C.324-.382.298-.389.261-.389a.245.245 0 0 0-.075.012.206.206 0 0 0-.065.031L.049-.495a.39.39 0 0 1 .115-.046.546.546 0 0 1 .131-.016.34.34 0 0 1 .219.063c.051.042.077.109.077.2V0h-.21ZM.226.01a.248.248 0 0 1-.112-.023.162.162 0 0 1-.068-.061A.17.17 0 0 1 .05-.25a.166.166 0 0 1 .083-.056.426.426 0 0 1 .14-.019h.114v.109H.309c-.024 0-.041.004-.052.012C.246-.197.24-.185.24-.17a.04.04 0 0 0 .015.032c.009.008.022.012.039.012.015 0 .03-.004.043-.012a.075.075 0 0 0 .028-.04l.029.067a.144.144 0 0 1-.055.091.191.191 0 0 1-.113.03Z" style="fill-rule:nonzero" transform="matrix(16 0 0 16 444.717 110.154)"/><path d="M.264.01a.634.634 0 0 1-.138-.015.4.4 0 0 1-.11-.039l.062-.149a.387.387 0 0 0 .191.049.135.135 0 0 0 .055-.007c.01-.005.015-.011.015-.019S.333-.184.322-.188a.288.288 0 0 0-.045-.008L.215-.204a.564.564 0 0 1-.067-.013.216.216 0 0 1-.062-.027.13.13 0 0 1-.045-.048.167.167 0 0 1-.017-.078c0-.035.01-.066.031-.094a.219.219 0 0 1 .094-.067.415.415 0 0 1 .155-.026c.04 0 .08.004.12.011.04.007.074.019.103.034l-.062.149a.347.347 0 0 0-.158-.04.145.145 0 0 0-.058.008C.238-.39.233-.384.233-.377c0 .008.006.014.017.018a.197.197 0 0 0 .045.009l.062.008a.421.421 0 0 1 .067.014.223.223 0 0 1 .061.027.125.125 0 0 1 .045.049.16.16 0 0 1 .017.077c0 .033-.01.063-.031.092a.214.214 0 0 1-.094.068.426.426 0 0 1-.158.025Z" style="fill-rule:nonzero" transform="matrix(16 0 0 16 454.942 110.154)"/><path d="M.314.01a.258.258 0 0 1-.176-.055C.096-.081.075-.137.075-.212V-.67h.226v.456c0 .017.004.03.013.039a.048.048 0 0 0 .034.014.09.09 0 0 0 .051-.015l.054.157A.202.202 0 0 1 .39.003.37.37 0 0 1 .314.01ZM0-.352v-.165h.413v.165H0Z" style="fill-rule:nonzero" transform="matrix(16 0 0 16 463.982 110.154)"/><path d="m-.04.1.33-.942h.2L.16.1h-.2Z" style="fill-rule:nonzero" transform="matrix(16 0 0 16 471.342 110.154)"/><path d="M.264.01a.634.634 0 0 1-.138-.015.4.4 0 0 1-.11-.039l.062-.149a.387.387 0 0 0 .191.049.135.135 0 0 0 .055-.007c.01-.005.015-.011.015-.019S.333-.184.322-.188a.288.288 0 0 0-.045-.008L.215-.204a.564.564 0 0 1-.067-.013.216.216 0 0 1-.062-.027.13.13 0 0 1-.045-.048.167.167 0 0 1-.017-.078c0-.035.01-.066.031-.094a.219.219 0 0 1 .094-.067.415.415 0 0 1 .155-.026c.04 0 .08.004.12.011.04.007.074.019.103.034l-.062.149a.347.347 0 0 0-.158-.04.145.145 0 0 0-.058.008C.238-.39.233-.384.233-.377c0 .008.006.014.017.018a.197.197 0 0 0 .045.009l.062.008a.421.421 0 0 1 .067.014.223.223 0 0 1 .061.027.125.125 0 0 1 .045.049.16.16 0 0 1 .017.077c0 .033-.01.063-.031.092a.214.214 0 0 1-.094.068.426.426 0 0 1-.158.025Z" style="fill-rule:nonzero" transform="matrix(16 0 0 16 477.422 110.154)"/><path d="M.339.01a.352.352 0 0 1-.165-.037.271.271 0 0 1-.153-.247.271.271 0 0 1 .154-.247.357.357 0 0 1 .164-.036c.062 0 .117.012.165.036a.275.275 0 0 1 .113.1.27.27 0 0 1 .04.147.27.27 0 0 1-.153.248.364.364 0 0 1-.165.036Zm0-.176a.084.084 0 0 0 .045-.012.087.087 0 0 0 .032-.036.14.14 0 0 0 .012-.06.126.126 0 0 0-.012-.059.087.087 0 0 0-.032-.036.084.084 0 0 0-.045-.012.084.084 0 0 0-.077.047.134.134 0 0 0-.012.06c0 .023.004.043.012.059a.084.084 0 0 0 .032.037.084.084 0 0 0 .045.012Z" style="fill-rule:nonzero" transform="matrix(16 0 0 16 486.462 110.154)"/><path d="M.278.01A.256.256 0 0 1 .16-.017.183.183 0 0 1 .078-.1a.306.306 0 0 1-.03-.145v-.302h.226v.263c0 .039.006.066.019.081s.03.023.052.023a.07.07 0 0 0 .037-.011.069.069 0 0 0 .029-.035.16.16 0 0 0 .011-.064v-.257h.226V0H.433v-.158l.043.043a.192.192 0 0 1-.083.094.22.22 0 0 1-.115.031Z" style="fill-rule:nonzero" transform="matrix(16 0 0 16 497.312 110.154)"/><path d="M.314.01a.258.258 0 0 1-.176-.055C.096-.081.075-.137.075-.212V-.67h.226v.456c0 .017.004.03.013.039a.048.048 0 0 0 .034.014.09.09 0 0 0 .051-.015l.054.157A.202.202 0 0 1 .39.003.37.37 0 0 1 .314.01ZM0-.352v-.165h.413v.165H0Z" style="fill-rule:nonzero" transform="matrix(16 0 0 16 508.477 110.154)"/><path d="M.43-.557a.24.24 0 0 1 .114.026.187.187 0 0 1 .081.079.3.3 0 0 1 .029.14V0H.428v-.273c0-.034-.006-.058-.018-.073a.06.06 0 0 0-.049-.021.092.092 0 0 0-.043.011.074.074 0 0 0-.031.034.165.165 0 0 0-.011.065V0H.05v-.742h.226v.355L.222-.433A.222.222 0 0 1 .43-.557Z" style="fill-rule:nonzero" transform="matrix(16 0 0 16 515.837 110.154)"/><path d="M.43-.557a.24.24 0 0 1 .114.026.187.187 0 0 1 .081.079.3.3 0 0 1 .029.14V0H.428v-.273c0-.034-.006-.058-.018-.073a.06.06 0 0 0-.049-.021.092.092 0 0 0-.043.011.074.074 0 0 0-.031.034.165.165 0 0 0-.011.065V0H.05v-.742h.226v.355L.222-.433A.222.222 0 0 1 .43-.557Z" style="fill-rule:nonzero" transform="matrix(12 0 0 12 404.388 124.554)"/><path d="M.339.01a.352.352 0 0 1-.165-.037.271.271 0 0 1-.153-.247.271.271 0 0 1 .154-.247.357.357 0 0 1 .164-.036c.062 0 .117.012.165.036a.275.275 0 0 1 .113.1.27.27 0 0 1 .04.147.27.27 0 0 1-.153.248.364.364 0 0 1-.165.036Zm0-.176a.084.084 0 0 0 .045-.012.087.087 0 0 0 .032-.036.14.14 0 0 0 .012-.06.126.126 0 0 0-.012-.059.087.087 0 0 0-.032-.036.084.084 0 0 0-.045-.012.084.084 0 0 0-.077.047.134.134 0 0 0-.012.06c0 .023.004.043.012.059a.084.084 0 0 0 .032.037.084.084 0 0 0 .045.012Z" style="fill-rule:nonzero" transform="matrix(12 0 0 12 412.932 124.554)"/><path d="M.278.01A.256.256 0 0 1 .16-.017.183.183 0 0 1 .078-.1a.306.306 0 0 1-.03-.145v-.302h.226v.263c0 .039.006.066.019.081s.03.023.052.023a.07.07 0 0 0 .037-.011.069.069 0 0 0 .029-.035.16.16 0 0 0 .011-.064v-.257h.226V0H.433v-.158l.043.043a.192.192 0 0 1-.083.094.22.22 0 0 1-.115.031Z" style="fill-rule:nonzero" transform="matrix(12 0 0 12 421.068 124.554)"/><path d="M.264.01a.634.634 0 0 1-.138-.015.4.4 0 0 1-.11-.039l.062-.149a.387.387 0 0 0 .191.049.135.135 0 0 0 .055-.007c.01-.005.015-.011.015-.019S.333-.184.322-.188a.288.288 0 0 0-.045-.008L.215-.204a.564.564 0 0 1-.067-.013.216.216 0 0 1-.062-.027.13.13 0 0 1-.045-.048.167.167 0 0 1-.017-.078c0-.035.01-.066.031-.094a.219.219 0 0 1 .094-.067.415.415 0 0 1 .155-.026c.04 0 .08.004.12.011.04.007.074.019.103.034l-.062.149a.347.347 0 0 0-.158-.04.145.145 0 0 0-.058.008C.238-.39.233-.384.233-.377c0 .008.006.014.017.018a.197.197 0 0 0 .045.009l.062.008a.421.421 0 0 1 .067.014.223.223 0 0 1 .061.027.125.125 0 0 1 .045.049.16.16 0 0 1 .017.077c0 .033-.01.063-.031.092a.214.214 0 0 1-.094.068.426.426 0 0 1-.158.025Z" style="fill-rule:nonzero" transform="matrix(12 0 0 12 429.444 124.554)"/><path d="M.352.01a.378.378 0 0 1-.174-.037.282.282 0 0 1-.116-.102.264.264 0 0 1-.041-.145.271.271 0 0 1 .152-.247.34.34 0 0 1 .158-.036c.054 0 .104.011.15.032a.266.266 0 0 1 .11.095.283.283 0 0 1 .041.156l-.001.027-.002.026H.208V-.33h.301l-.085.029a.124.124 0 0 0-.011-.054.094.094 0 0 0-.032-.036.09.09 0 0 0-.048-.012.082.082 0 0 0-.048.013.078.078 0 0 0-.032.035.124.124 0 0 0-.011.054v.034c0 .023.005.043.014.06a.092.092 0 0 0 .04.038.148.148 0 0 0 .063.012.167.167 0 0 0 .063-.01.28.28 0 0 0 .051-.03l.118.119a.257.257 0 0 1-.098.066.417.417 0 0 1-.141.022Z" style="fill-rule:nonzero" transform="matrix(12 0 0 12 436.222 124.554)"/><path d="M.05 0v-.547h.215v.165L.23-.429a.182.182 0 0 1 .08-.096.263.263 0 0 1 .132-.032v.2A.66.66 0 0 1 .416-.36L.392-.361a.124.124 0 0 0-.083.027c-.022.017-.033.048-.033.091V0H.05Z" style="fill-rule:nonzero" transform="matrix(12 0 0 12 447.662 124.554)"/><path d="M.339.01a.352.352 0 0 1-.165-.037.271.271 0 0 1-.153-.247.271.271 0 0 1 .154-.247.357.357 0 0 1 .164-.036c.062 0 .117.012.165.036a.275.275 0 0 1 .113.1.27.27 0 0 1 .04.147.27.27 0 0 1-.153.248.364.364 0 0 1-.165.036Zm0-.176a.084.084 0 0 0 .045-.012.087.087 0 0 0 .032-.036.14.14 0 0 0 .012-.06.126.126 0 0 0-.012-.059.087.087 0 0 0-.032-.036.084.084 0 0 0-.045-.012.084.084 0 0 0-.077.047.134.134 0 0 0-.012.06c0 .023.004.043.012.059a.084.084 0 0 0 .032.037.084.084 0 0 0 .045.012Z" style="fill-rule:nonzero" transform="matrix(12 0 0 12 453.072 124.554)"/><path d="M.339.01a.352.352 0 0 1-.165-.037.271.271 0 0 1-.153-.247.271.271 0 0 1 .154-.247.357.357 0 0 1 .164-.036c.062 0 .117.012.165.036a.275.275 0 0 1 .113.1.27.27 0 0 1 .04.147.27.27 0 0 1-.153.248.364.364 0 0 1-.165.036Zm0-.176a.084.084 0 0 0 .045-.012.087.087 0 0 0 .032-.036.14.14 0 0 0 .012-.06.126.126 0 0 0-.012-.059.087.087 0 0 0-.032-.036.084.084 0 0 0-.045-.012.084.084 0 0 0-.077.047.134.134 0 0 0-.012.06c0 .023.004.043.012.059a.084.084 0 0 0 .032.037.084.084 0 0 0 .045.012Z" style="fill-rule:nonzero" transform="matrix(12 0 0 12 461.207 124.554)"/><path d="M.075 0v-.52c0-.071.021-.127.064-.169.042-.042.102-.063.18-.063.024 0 .048.002.073.006a.23.23 0 0 1 .061.021l-.054.157a.311.311 0 0 0-.024-.009.084.084 0 0 0-.027-.004.053.053 0 0 0-.039.015c-.01.01-.015.026-.015.048v.026l.007.093V0H.075ZM0-.352v-.165h.413v.165H0Z" style="fill-rule:nonzero" transform="matrix(12 0 0 12 469.342 124.554)"/><path d="M500.15 475.698h-150l7.197-56.5h135.606l7.197 56.5Z" style="fill:#fff;stroke:#000;stroke-width:2.65px"/><path d="M493.348 470.294H357.081l5.287-45.827H488.06l5.288 45.827Z" style="fill:#4eb848;stroke:#000;stroke-width:2.65px"/><path d="M479.258 470.294H370.435l4.222-45.827h100.378l4.223 45.827Z" style="fill:#4eb848;stroke:#000;stroke-width:2.65px"/><path d="M465.708 470.294h-81.632l3.168-45.827h75.296l3.168 45.827Z" style="fill:none;stroke:#000;stroke-width:2.65px"/><path d="M452.263 470.294h-67.985l2.638-45.827h62.709l2.638 45.827Z" style="fill:#4eb848;stroke:#000;stroke-width:2.65px"/><path d="M438.638 470.294h-40.846l1.585-45.827h37.676l1.585 45.827Z" style="fill:#4eb848;stroke:#000;stroke-width:2.65px"/><path d="M425.13 470.294h-13.771l.534-45.827h12.703l.534 45.827Z" style="fill:#4eb848;stroke:#000;stroke-width:2.65px"/><path d="M361.241 439.504h127.371M359.771 455.005h131.128" style="fill:none;stroke:#000;stroke-width:2.65px"/><path d="M.125 0v-.618l.101.096H.005V-.7h.356V0H.125Z" style="fill-rule:nonzero" transform="matrix(16 0 0 16 361.207 503.03)"/><path d="M.125 0v-.618l.101.096H.005V-.7h.356V0H.125Z" style="fill-rule:nonzero" transform="matrix(16 0 0 16 367.895 503.03)"/><path d="m.035.16.084-.281.033.126a.137.137 0 0 1-.095-.033A.118.118 0 0 1 .02-.12a.12.12 0 0 1 .037-.093.136.136 0 0 1 .095-.035c.038 0 .069.012.094.035a.12.12 0 0 1 .038.093.173.173 0 0 1-.003.032.187.187 0 0 1-.01.039.572.572 0 0 1-.026.06L.175.16h-.14Z" style="fill-rule:nonzero" transform="matrix(16 0 0 16 374.583 503.03)"/><path d="M.023-.12v-.15L.32-.7h.242l-.286.43-.11-.033h.542v.183H.023ZM.386 0v-.12l.007-.183V-.41h.222V0H.386Z" style="fill-rule:nonzero" transform="matrix(16 0 0 16 379.607 503.03)"/><path d="m.239-.09.005-.266.189-.191H.7l-.25.262-.113.091-.098.104ZM.05 0v-.742h.226V0H.05Zm.395 0-.15-.19.139-.171L.718 0H.445Z" style="fill-rule:nonzero" transform="matrix(16 0 0 16 395.8 503.03)"/><path d="M.234 0 .01-.7h.243l.181.591H.312L.504-.7h.217L.9-.109H.783L.972-.7h.224L.972 0H.719L.573-.484h.068L.487 0H.234Z" style="fill-rule:nonzero" transform="matrix(16 0 0 16 407.207 503.03)"/><path d="M.415.01a.207.207 0 0 1-.118-.031.175.175 0 0 1-.068-.093.472.472 0 0 1-.022-.159c0-.066.007-.12.02-.161a.169.169 0 0 1 .067-.093.22.22 0 0 1 .121-.03.26.26 0 0 1 .228.133.299.299 0 0 1 .036.151.305.305 0 0 1-.036.152.256.256 0 0 1-.228.131ZM.05.194v-.741h.215v.074l.001.2.01.2v.267H.05Zm.311-.36a.084.084 0 0 0 .045-.012.087.087 0 0 0 .032-.036.132.132 0 0 0 .012-.059.134.134 0 0 0-.012-.06.087.087 0 0 0-.032-.036.084.084 0 0 0-.045-.012.084.084 0 0 0-.045.012.087.087 0 0 0-.032.036.134.134 0 0 0-.012.06c0 .023.004.043.012.059a.087.087 0 0 0 .032.036.084.084 0 0 0 .045.012Z" style="fill-rule:nonzero" transform="matrix(16 0 0 16 425.945 503.03)"/><path d="M.264.01a.634.634 0 0 1-.138-.015.4.4 0 0 1-.11-.039l.062-.149a.387.387 0 0 0 .191.049.135.135 0 0 0 .055-.007c.01-.005.015-.011.015-.019S.333-.184.322-.188a.288.288 0 0 0-.045-.008L.215-.204a.564.564 0 0 1-.067-.013.216.216 0 0 1-.062-.027.13.13 0 0 1-.045-.048.167.167 0 0 1-.017-.078c0-.035.01-.066.031-.094a.219.219 0 0 1 .094-.067.415.415 0 0 1 .155-.026c.04 0 .08.004.12.011.04.007.074.019.103.034l-.062.149a.347.347 0 0 0-.158-.04.145.145 0 0 0-.058.008C.238-.39.233-.384.233-.377c0 .008.006.014.017.018a.197.197 0 0 0 .045.009l.062.008a.421.421 0 0 1 .067.014.223.223 0 0 1 .061.027.125.125 0 0 1 .045.049.16.16 0 0 1 .017.077c0 .033-.01.063-.031.092a.214.214 0 0 1-.094.068.426.426 0 0 1-.158.025Z" style="fill-rule:nonzero" transform="matrix(16 0 0 16 441.945 503.03)"/><path d="M.339.01a.352.352 0 0 1-.165-.037.271.271 0 0 1-.153-.247.271.271 0 0 1 .154-.247.357.357 0 0 1 .164-.036c.062 0 .117.012.165.036a.275.275 0 0 1 .113.1.27.27 0 0 1 .04.147.27.27 0 0 1-.153.248.364.364 0 0 1-.165.036Zm0-.176a.084.084 0 0 0 .045-.012.087.087 0 0 0 .032-.036.14.14 0 0 0 .012-.06.126.126 0 0 0-.012-.059.087.087 0 0 0-.032-.036.084.084 0 0 0-.045-.012.084.084 0 0 0-.077.047.134.134 0 0 0-.012.06c0 .023.004.043.012.059a.084.084 0 0 0 .032.037.084.084 0 0 0 .045.012Z" style="fill-rule:nonzero" transform="matrix(16 0 0 16 450.985 503.03)"/><path d="M.278.01A.256.256 0 0 1 .16-.017.183.183 0 0 1 .078-.1a.306.306 0 0 1-.03-.145v-.302h.226v.263c0 .039.006.066.019.081s.03.023.052.023a.07.07 0 0 0 .037-.011.069.069 0 0 0 .029-.035.16.16 0 0 0 .011-.064v-.257h.226V0H.433v-.158l.043.043a.192.192 0 0 1-.083.094.22.22 0 0 1-.115.031Z" style="fill-rule:nonzero" transform="matrix(16 0 0 16 461.83 503.03)"/><path d="M.314.01a.258.258 0 0 1-.176-.055C.096-.081.075-.137.075-.212V-.67h.226v.456c0 .017.004.03.013.039a.048.048 0 0 0 .034.014.09.09 0 0 0 .051-.015l.054.157A.202.202 0 0 1 .39.003.37.37 0 0 1 .314.01ZM0-.352v-.165h.413v.165H0Z" style="fill-rule:nonzero" transform="matrix(16 0 0 16 473 503.03)"/><path d="M.43-.557a.24.24 0 0 1 .114.026.187.187 0 0 1 .081.079.3.3 0 0 1 .029.14V0H.428v-.273c0-.034-.006-.058-.018-.073a.06.06 0 0 0-.049-.021.092.092 0 0 0-.043.011.074.074 0 0 0-.031.034.165.165 0 0 0-.011.065V0H.05v-.742h.226v.355L.222-.433A.222.222 0 0 1 .43-.557Z" style="fill-rule:nonzero" transform="matrix(16 0 0 16 480.36 503.03)"/><path d="M.028 0v-.145l.253-.234a.225.225 0 0 0 .035-.04.102.102 0 0 0 .016-.031.077.077 0 0 0 .004-.025.05.05 0 0 0-.017-.04C.308-.525.291-.53.268-.53a.106.106 0 0 0-.059.017.114.114 0 0 0-.044.048l-.178-.089a.29.29 0 0 1 .114-.117.367.367 0 0 1 .189-.045c.055 0 .104.009.147.027a.228.228 0 0 1 .1.076.19.19 0 0 1 .036.116.265.265 0 0 1-.009.068.212.212 0 0 1-.034.072.506.506 0 0 1-.077.083l-.19.173-.037-.082h.363V0H.028Z" style="fill-rule:nonzero" transform="matrix(12 0 0 12 393.447 517.43)"/><path d="M.344.01a.373.373 0 0 1-.167-.036.269.269 0 0 1-.156-.248c0-.055.014-.104.041-.147a.28.28 0 0 1 .115-.1.373.373 0 0 1 .167-.036.32.32 0 0 1 .171.043c.047.029.08.068.098.119l-.175.086a.128.128 0 0 0-.041-.055.098.098 0 0 0-.054-.017.09.09 0 0 0-.08.047.121.121 0 0 0-.013.06c0 .024.004.044.013.06a.083.083 0 0 0 .033.036.093.093 0 0 0 .1-.005.122.122 0 0 0 .042-.055l.175.086a.225.225 0 0 1-.098.119.32.32 0 0 1-.171.043Z" style="fill-rule:nonzero" transform="matrix(12 0 0 12 404.343 517.43)"/><path d="M.381 0v-.097L.365-.123v-.184c0-.027-.008-.047-.024-.061C.324-.382.298-.389.261-.389a.245.245 0 0 0-.075.012.206.206 0 0 0-.065.031L.049-.495a.39.39 0 0 1 .115-.046.546.546 0 0 1 .131-.016.34.34 0 0 1 .219.063c.051.042.077.109.077.2V0h-.21ZM.226.01a.248.248 0 0 1-.112-.023.162.162 0 0 1-.068-.061A.17.17 0 0 1 .05-.25a.166.166 0 0 1 .083-.056.426.426 0 0 1 .14-.019h.114v.109H.309c-.024 0-.041.004-.052.012C.246-.197.24-.185.24-.17a.04.04 0 0 0 .015.032c.009.008.022.012.039.012.015 0 .03-.004.043-.012a.075.075 0 0 0 .028-.04l.029.067a.144.144 0 0 1-.055.091.191.191 0 0 1-.113.03Z" style="fill-rule:nonzero" transform="matrix(12 0 0 12 411.723 517.43)"/><path d="M.05 0v-.547h.215v.165L.23-.429a.182.182 0 0 1 .08-.096.263.263 0 0 1 .132-.032v.2A.66.66 0 0 1 .416-.36L.392-.361a.124.124 0 0 0-.083.027c-.022.017-.033.048-.033.091V0H.05Z" style="fill-rule:nonzero" transform="matrix(12 0 0 12 419.391 517.43)"/><path d="M.415.01a.207.207 0 0 1-.118-.031.175.175 0 0 1-.068-.093.472.472 0 0 1-.022-.159c0-.066.007-.12.02-.161a.169.169 0 0 1 .067-.093.22.22 0 0 1 .121-.03.26.26 0 0 1 .228.133.299.299 0 0 1 .036.151.305.305 0 0 1-.036.152.256.256 0 0 1-.228.131ZM.05.194v-.741h.215v.074l.001.2.01.2v.267H.05Zm.311-.36a.084.084 0 0 0 .045-.012.087.087 0 0 0 .032-.036.132.132 0 0 0 .012-.059.134.134 0 0 0-.012-.06.087.087 0 0 0-.032-.036.084.084 0 0 0-.045-.012.084.084 0 0 0-.045.012.087.087 0 0 0-.032.036.134.134 0 0 0-.012.06c0 .023.004.043.012.059a.087.087 0 0 0 .032.036.084.084 0 0 0 .045.012Z" style="fill-rule:nonzero" transform="matrix(12 0 0 12 424.865 517.43)"/><path d="M.339.01a.352.352 0 0 1-.165-.037.271.271 0 0 1-.153-.247.271.271 0 0 1 .154-.247.357.357 0 0 1 .164-.036c.062 0 .117.012.165.036a.275.275 0 0 1 .113.1.27.27 0 0 1 .04.147.27.27 0 0 1-.153.248.364.364 0 0 1-.165.036Zm0-.176a.084.084 0 0 0 .045-.012.087.087 0 0 0 .032-.036.14.14 0 0 0 .012-.06.126.126 0 0 0-.012-.059.087.087 0 0 0-.032-.036.084.084 0 0 0-.045-.012.084.084 0 0 0-.077.047.134.134 0 0 0-.012.06c0 .023.004.043.012.059a.084.084 0 0 0 .032.037.084.084 0 0 0 .045.012Z" style="fill-rule:nonzero" transform="matrix(12 0 0 12 433.265 517.43)"/><path d="M.05 0v-.547h.215v.165L.23-.429a.182.182 0 0 1 .08-.096.263.263 0 0 1 .132-.032v.2A.66.66 0 0 1 .416-.36L.392-.361a.124.124 0 0 0-.083.027c-.022.017-.033.048-.033.091V0H.05Z" style="fill-rule:nonzero" transform="matrix(12 0 0 12 441.4 517.43)"/><path d="M.314.01a.258.258 0 0 1-.176-.055C.096-.081.075-.137.075-.212V-.67h.226v.456c0 .017.004.03.013.039a.048.048 0 0 0 .034.014.09.09 0 0 0 .051-.015l.054.157A.202.202 0 0 1 .39.003.37.37 0 0 1 .314.01ZM0-.352v-.165h.413v.165H0Z" style="fill-rule:nonzero" transform="matrix(12 0 0 12 447.05 517.43)"/><path d="M.264.01a.634.634 0 0 1-.138-.015.4.4 0 0 1-.11-.039l.062-.149a.387.387 0 0 0 .191.049.135.135 0 0 0 .055-.007c.01-.005.015-.011.015-.019S.333-.184.322-.188a.288.288 0 0 0-.045-.008L.215-.204a.564.564 0 0 1-.067-.013.216.216 0 0 1-.062-.027.13.13 0 0 1-.045-.048.167.167 0 0 1-.017-.078c0-.035.01-.066.031-.094a.219.219 0 0 1 .094-.067.415.415 0 0 1 .155-.026c.04 0 .08.004.12.011.04.007.074.019.103.034l-.062.149a.347.347 0 0 0-.158-.04.145.145 0 0 0-.058.008C.238-.39.233-.384.233-.377c0 .008.006.014.017.018a.197.197 0 0 0 .045.009l.062.008a.421.421 0 0 1 .067.014.223.223 0 0 1 .061.027.125.125 0 0 1 .045.049.16.16 0 0 1 .017.077c0 .033-.01.063-.031.092a.214.214 0 0 1-.094.068.426.426 0 0 1-.158.025Z" style="fill-rule:nonzero" transform="matrix(12 0 0 12 452.57 517.43)"/><path d="M377.959 225.99v83.401a4.229 4.229 0 0 1-4.227 4.227h-79.075a4.328 4.328 0 0 1-4.326-4.327V225.99h87.628Z" style="fill:#4eb848;stroke:#000;stroke-width:2.37px"/><path d="M305.033 313.269v-87.202" style="fill:none;stroke:#000;stroke-width:2.37px"/><path style="fill:#fff;stroke:#000;stroke-width:2.37px" d="M305.082 242.934h65.804v65.599h-65.804z"/><path d="M354.82 281.218v27.189M338.196 284.251v23.913M321.737 281.277v26.832M354.82 243.292v16.978M338.196 243.125v14.932M321.737 243.329v16.755" style="fill:none;stroke:#000;stroke-width:2.37px"/><path d="M300.672 278.953v3.252c0 .898-.729 1.626-1.626 1.626h-3.252a1.626 1.626 0 0 1-1.626-1.626v-3.252c0-.897.728-1.626 1.626-1.626h3.252c.897 0 1.626.729 1.626 1.626ZM300.672 288.55v3.251c0 .898-.729 1.626-1.626 1.626h-3.252a1.626 1.626 0 0 1-1.626-1.626v-3.251c0-.898.728-1.626 1.626-1.626h3.252c.897 0 1.626.728 1.626 1.626ZM295.475 297.206h3.722v7.302h-3.722z" style="fill:#fff;stroke:#000;stroke-width:2.37px"/><circle cx="313.442" cy="300.608" r="2.442" style="fill:#fff;stroke:#000;stroke-width:2.37px"/><circle cx="330.052" cy="300.608" r="2.442" style="fill:#fff;stroke:#000;stroke-width:2.37px"/><circle cx="346.739" cy="300.608" r="2.442" style="fill:#fff;stroke:#000;stroke-width:2.37px"/><circle cx="362.928" cy="300.608" r="2.442" style="fill:#fff;stroke:#000;stroke-width:2.37px"/><path d="m341.7 263.854-2.708 5.415h2.708l-5.077 9.477 1.015-6.769h-3.384l3.384-8.123h4.062ZM350.356 266.402c.741.699 1.118 1.629 1.13 2.791h-2.459c-.012-.511-.17-.926-.472-1.246-.303-.319-.702-.479-1.198-.479-.611 0-1.072.223-1.384.668-.311.446-.467 1.168-.467 2.168v.272c0 1.012.154 1.74.462 2.182.309.442.778.663 1.407.663.484 0 .877-.132 1.18-.399.302-.266.46-.62.472-1.062h2.459a3.372 3.372 0 0 1-.544 1.829 3.6 3.6 0 0 1-1.466 1.288 4.579 4.579 0 0 1-2.055.458c-1.404 0-2.511-.445-3.322-1.338-.811-.892-1.215-2.125-1.215-3.698v-.172c0-1.512.401-2.72 1.206-3.621.804-.901 1.909-1.352 3.312-1.352 1.229 0 2.213.349 2.954 1.048ZM360.048 266.402c.741.699 1.118 1.629 1.13 2.791h-2.46c-.011-.511-.169-.926-.471-1.246-.303-.319-.703-.479-1.198-.479-.612 0-1.073.223-1.384.668-.312.446-.467 1.168-.467 2.168v.272c0 1.012.154 1.74.462 2.182.309.442.777.663 1.407.663.484 0 .877-.132 1.18-.399.302-.266.46-.62.471-1.062h2.46a3.357 3.357 0 0 1-.545 1.829 3.591 3.591 0 0 1-1.465 1.288 4.586 4.586 0 0 1-2.056.458c-1.403 0-2.51-.445-3.321-1.338-.811-.892-1.216-2.125-1.216-3.698v-.172c0-1.512.402-2.72 1.207-3.621.805-.901 1.909-1.352 3.312-1.352 1.228 0 2.213.349 2.954 1.048ZM330.142 265.536h2.741l-3.313 9.818h-2.504l-3.313-9.818h2.741l1.824 6.615 1.824-6.615ZM315.718 274.211c-.905-.883-1.357-2.06-1.357-3.53v-.254c0-.986.19-1.868.572-2.646.381-.777.921-1.376 1.62-1.797.698-.42 1.495-.63 2.39-.63 1.344 0 2.401.424 3.173 1.27.771.847 1.156 2.049 1.156 3.603v1.071h-6.252c.084.641.34 1.156.767 1.543.426.387.966.58 1.62.58 1.01 0 1.799-.366 2.368-1.098l1.289 1.443c-.394.556-.926.991-1.597 1.303-.672.311-1.416.466-2.232.466-1.441 0-2.613-.441-3.517-1.324Zm1.302-4.873h4.167s-.24-1.881-2.244-1.894c-2.003-.013-1.923 1.894-1.923 1.894Z"/><path d="M.424.016a.442.442 0 0 1-.157-.027.357.357 0 0 1-.209-.193.374.374 0 0 1 0-.293.368.368 0 0 1 .209-.192.442.442 0 0 1 .157-.027c.057 0 .11.009.158.027a.35.35 0 0 1 .237.339.353.353 0 0 1-.112.262.37.37 0 0 1-.125.077.448.448 0 0 1-.158.027Zm.229.161A.373.373 0 0 1 .48.136.494.494 0 0 1 .398.075 1.205 1.205 0 0 1 .302-.02l.244-.06c.016.025.03.044.041.057A.103.103 0 0 0 .62.005a.092.092 0 0 0 .038.008.135.135 0 0 0 .097-.045l.102.12a.254.254 0 0 1-.204.089ZM.424-.175a.154.154 0 0 0 .061-.012.137.137 0 0 0 .05-.035.146.146 0 0 0 .034-.055.207.207 0 0 0 .012-.073.207.207 0 0 0-.012-.073.146.146 0 0 0-.034-.055.126.126 0 0 0-.05-.035.16.16 0 0 0-.123 0 .153.153 0 0 0-.05.034.168.168 0 0 0-.033.055.217.217 0 0 0-.012.074c0 .027.004.052.012.073.008.022.019.04.033.055a.156.156 0 0 0 .05.035.16.16 0 0 0 .062.012Z" style="fill-rule:nonzero" transform="matrix(16 0 0 16 287.164 340.106)"/><path d="M.057 0v-.7h.194l.356.426h-.09V-.7h.23V0H.553L.197-.426h.09V0h-.23Z" style="fill-rule:nonzero" transform="matrix(16 0 0 16 300.733 340.106)"/><path d="m-.019 0 .306-.7h.232l.306.7H.581L.355-.588h.092L.221 0h-.24Zm.182-.122.06-.17h.322l.06.17H.163Z" style="fill-rule:nonzero" transform="matrix(16 0 0 16 313.596 340.106)"/><path d="M.057 0v-.7h.337c.065 0 .122.011.169.032a.247.247 0 0 1 .111.092.247.247 0 0 1 .039.14.247.247 0 0 1-.039.14.26.26 0 0 1-.111.092.414.414 0 0 1-.169.032H.188l.105-.101V0H.057Zm.236-.247L.188-.354h.191c.033 0 .057-.007.073-.022a.081.081 0 0 0 .023-.06.078.078 0 0 0-.024-.06C.436-.511.412-.518.379-.518H.188l.105-.107v.378Z" style="fill-rule:nonzero" transform="matrix(16 0 0 16 326.493 340.106)"/><path d="M.057 0v-.7h.194l.356.426h-.09V-.7h.23V0H.553L.197-.426h.09V0h-.23Z" style="fill-rule:nonzero" transform="matrix(16 0 0 16 343.179 340.106)"/><path d="m-.019 0 .306-.7h.232l.306.7H.581L.355-.588h.092L.221 0h-.24Zm.182-.122.06-.17h.322l.06.17H.163Z" style="fill-rule:nonzero" transform="matrix(16 0 0 16 356.044 340.106)"/><path d="M.318.016a.732.732 0 0 1-.17-.02.476.476 0 0 1-.135-.052l.076-.172a.516.516 0 0 0 .231.064c.023 0 .04-.001.053-.004a.066.066 0 0 0 .029-.013.029.029 0 0 0 .009-.021c0-.013-.007-.023-.021-.03A.253.253 0 0 0 .335-.25L.259-.266a.943.943 0 0 1-.083-.023.327.327 0 0 1-.075-.037.17.17 0 0 1-.056-.06.192.192 0 0 1-.021-.094.2.2 0 0 1 .037-.118.24.24 0 0 1 .109-.086.45.45 0 0 1 .18-.032.66.66 0 0 1 .14.015c.046.01.087.025.124.046l-.071.171a.604.604 0 0 0-.1-.039.356.356 0 0 0-.095-.013.191.191 0 0 0-.054.006c-.013.004-.023.009-.028.016a.033.033 0 0 0-.009.022c0 .012.007.021.021.028a.205.205 0 0 0 .056.018l.076.015a.623.623 0 0 1 .082.022.335.335 0 0 1 .076.037.167.167 0 0 1 .055.06.184.184 0 0 1 .021.092.202.202 0 0 1-.036.117.251.251 0 0 1-.109.086.434.434 0 0 1-.181.033Z" style="fill-rule:nonzero" transform="matrix(16 0 0 16 368.939 340.106)"/><path d="M.352.01a.378.378 0 0 1-.174-.037.282.282 0 0 1-.116-.102.264.264 0 0 1-.041-.145.271.271 0 0 1 .152-.247.34.34 0 0 1 .158-.036c.054 0 .104.011.15.032a.266.266 0 0 1 .11.095.283.283 0 0 1 .041.156l-.001.027-.002.026H.208V-.33h.301l-.085.029a.124.124 0 0 0-.011-.054.094.094 0 0 0-.032-.036.09.09 0 0 0-.048-.012.082.082 0 0 0-.048.013.078.078 0 0 0-.032.035.124.124 0 0 0-.011.054v.034c0 .023.005.043.014.06a.092.092 0 0 0 .04.038.148.148 0 0 0 .063.012.167.167 0 0 0 .063-.01.28.28 0 0 0 .051-.03l.118.119a.257.257 0 0 1-.098.066.417.417 0 0 1-.141.022Z" style="fill-rule:nonzero" transform="matrix(11 0 0 11 289.083 353.306)"/><path d="m.205 0-.22-.547h.232l.167.444H.267l.178-.444h.214L.439 0H.205Z" style="fill-rule:nonzero" transform="matrix(11 0 0 11 296.156 353.306)"/><path d="M.344.01a.373.373 0 0 1-.167-.036.269.269 0 0 1-.156-.248c0-.055.014-.104.041-.147a.28.28 0 0 1 .115-.1.373.373 0 0 1 .167-.036.32.32 0 0 1 .171.043c.047.029.08.068.098.119l-.175.086a.128.128 0 0 0-.041-.055.098.098 0 0 0-.054-.017.09.09 0 0 0-.08.047.121.121 0 0 0-.013.06c0 .024.004.044.013.06a.083.083 0 0 0 .033.036.093.093 0 0 0 .1-.005.122.122 0 0 0 .042-.055l.175.086a.225.225 0 0 1-.098.119.32.32 0 0 1-.171.043Z" style="fill-rule:nonzero" transform="matrix(11 0 0 11 303.075 353.306)"/><path d="M.344.01a.373.373 0 0 1-.167-.036.269.269 0 0 1-.156-.248c0-.055.014-.104.041-.147a.28.28 0 0 1 .115-.1.373.373 0 0 1 .167-.036.32.32 0 0 1 .171.043c.047.029.08.068.098.119l-.175.086a.128.128 0 0 0-.041-.055.098.098 0 0 0-.054-.017.09.09 0 0 0-.08.047.121.121 0 0 0-.013.06c0 .024.004.044.013.06a.083.083 0 0 0 .033.036.093.093 0 0 0 .1-.005.122.122 0 0 0 .042-.055l.175.086a.225.225 0 0 1-.098.119.32.32 0 0 1-.171.043Z" style="fill-rule:nonzero" transform="matrix(11 0 0 11 309.785 353.306)"/><path d="M.05 0v-.547h.226V0H.05Zm.113-.591a.144.144 0 0 1-.099-.033.104.104 0 0 1-.037-.082c0-.033.012-.06.037-.082a.144.144 0 0 1 .099-.033c.041 0 .074.01.099.031a.099.099 0 0 1 .037.08.107.107 0 0 1-.037.085.14.14 0 0 1-.099.034Z" style="fill-rule:nonzero" transform="matrix(11 0 0 11 319.85 353.306)"/><path d="M.43-.557a.24.24 0 0 1 .114.026.187.187 0 0 1 .081.079.3.3 0 0 1 .029.14V0H.428v-.273c0-.034-.006-.058-.018-.073a.06.06 0 0 0-.049-.021.092.092 0 0 0-.043.011.074.074 0 0 0-.031.034.165.165 0 0 0-.011.065V0H.05v-.547h.215v.16L.222-.433A.222.222 0 0 1 .43-.557Z" style="fill-rule:nonzero" transform="matrix(11 0 0 11 323.436 353.306)"/><path d="M.057 0v-.7h.345c.078 0 .147.014.206.043a.326.326 0 0 1 .139.12.34.34 0 0 1 .05.186.347.347 0 0 1-.05.188.335.335 0 0 1-.139.121A.477.477 0 0 1 .402 0H.057Zm.236-.184h.099A.19.19 0 0 0 .48-.203a.142.142 0 0 0 .058-.056.187.187 0 0 0 .021-.092.181.181 0 0 0-.021-.09.136.136 0 0 0-.058-.056.19.19 0 0 0-.088-.019H.293v.332Z" style="fill-rule:nonzero" transform="matrix(11 0 0 11 334.459 353.306)"/><path d="M.339.01a.352.352 0 0 1-.165-.037.271.271 0 0 1-.153-.247.271.271 0 0 1 .154-.247.357.357 0 0 1 .164-.036c.062 0 .117.012.165.036a.275.275 0 0 1 .113.1.27.27 0 0 1 .04.147.27.27 0 0 1-.153.248.364.364 0 0 1-.165.036Zm0-.176a.084.084 0 0 0 .045-.012.087.087 0 0 0 .032-.036.14.14 0 0 0 .012-.06.126.126 0 0 0-.012-.059.087.087 0 0 0-.032-.036.084.084 0 0 0-.045-.012.084.084 0 0 0-.077.047.134.134 0 0 0-.012.06c0 .023.004.043.012.059a.084.084 0 0 0 .032.037.084.084 0 0 0 .045.012Z" style="fill-rule:nonzero" transform="matrix(11 0 0 11 343.544 353.306)"/><path d="M.344.01a.373.373 0 0 1-.167-.036.269.269 0 0 1-.156-.248c0-.055.014-.104.041-.147a.28.28 0 0 1 .115-.1.373.373 0 0 1 .167-.036.32.32 0 0 1 .171.043c.047.029.08.068.098.119l-.175.086a.128.128 0 0 0-.041-.055.098.098 0 0 0-.054-.017.09.09 0 0 0-.08.047.121.121 0 0 0-.013.06c0 .024.004.044.013.06a.083.083 0 0 0 .033.036.093.093 0 0 0 .1-.005.122.122 0 0 0 .042-.055l.175.086a.225.225 0 0 1-.098.119.32.32 0 0 1-.171.043Z" style="fill-rule:nonzero" transform="matrix(11 0 0 11 351.004 353.306)"/><path d="m.239-.09.005-.266.189-.191H.7l-.25.262-.113.091-.098.104ZM.05 0v-.742h.226V0H.05Zm.395 0-.15-.19.139-.171L.718 0H.445Z" style="fill-rule:nonzero" transform="matrix(11 0 0 11 357.769 353.306)"/><path d="M.352.01a.378.378 0 0 1-.174-.037.282.282 0 0 1-.116-.102.264.264 0 0 1-.041-.145.271.271 0 0 1 .152-.247.34.34 0 0 1 .158-.036c.054 0 .104.011.15.032a.266.266 0 0 1 .11.095.283.283 0 0 1 .041.156l-.001.027-.002.026H.208V-.33h.301l-.085.029a.124.124 0 0 0-.011-.054.094.094 0 0 0-.032-.036.09.09 0 0 0-.048-.012.082.082 0 0 0-.048.013.078.078 0 0 0-.032.035.124.124 0 0 0-.011.054v.034c0 .023.005.043.014.06a.092.092 0 0 0 .04.038.148.148 0 0 0 .063.012.167.167 0 0 0 .063-.01.28.28 0 0 0 .051-.03l.118.119a.257.257 0 0 1-.098.066.417.417 0 0 1-.141.022Z" style="fill-rule:nonzero" transform="matrix(11 0 0 11 365.334 353.306)"/><path d="M.05 0v-.547h.215v.165L.23-.429a.182.182 0 0 1 .08-.096.263.263 0 0 1 .132-.032v.2A.66.66 0 0 1 .416-.36L.392-.361a.124.124 0 0 0-.083.027c-.022.017-.033.048-.033.091V0H.05Z" style="fill-rule:nonzero" transform="matrix(11 0 0 11 372.519 353.306)"/><path d="m537.36 83.271 50.997-.036-.192 35.961M523.686 475.685l65.293.046-.212-27.116M525.349 196.947l-129.65 51.171M537.108 326.584 396.04 286.701M240.007 408.453l34.342-47.9M114.9 323.691l159.607-37.873M116.602 181.098 274.2 244.514M250.91 121.776l52.778 89.249" style="fill:none;stroke:#000;stroke-width:3px"/></svg>