<svg clip-rule="evenodd" fill-rule="evenodd" stroke-linejoin="round" stroke-miterlimit="2" viewBox="0 22 170 36" xmlns="http://www.w3.org/2000/svg"><g fill-rule="nonzero"><g fill="#fff"><path d="m37.54 51.18c-3.337.121-6.585-1.113-9-3.42-2.4-2.411-3.685-5.721-3.54-9.12v-.64c-.04-2.359.463-4.696 1.47-6.83.904-1.922 2.355-3.536 4.17-4.64 1.858-1.104 3.989-1.669 6.15-1.63 3.082-.182 6.092 1.013 8.21 3.26 2 2.193 3 5.297 3 9.31v2.76h-16.16c.16 1.531.871 2.954 2 4 1.146 1.007 2.635 1.541 4.16 1.49 2.372.103 4.651-.958 6.1-2.84l3.31 3.73c-1.044 1.484-2.471 2.656-4.13 3.39-1.802.815-3.763 1.218-5.74 1.18zm-.77-20.84c-1.234-.044-2.428.458-3.26 1.37-.915 1.112-1.473 2.475-1.6 3.91h9.39v-.55c.054-1.276-.383-2.526-1.22-3.49-.874-.868-2.081-1.32-3.31-1.24z"/><path d="m60.91 42.44 4.7-17.09h7l-8.48 25.36h-6.44l-8.52-25.36h7z"/><path d="m110 45.72c1.088.045 2.156-.311 3-1 .784-.697 1.229-1.701 1.22-2.75h6.32c.001 1.679-.485 3.322-1.4 4.73-.93 1.432-2.244 2.575-3.79 3.3-1.646.804-3.458 1.211-5.29 1.19-3.216.164-6.345-1.104-8.54-3.46-2.087-2.3-3.13-5.483-3.13-9.55v-.45c0-3.9 1.033-7.017 3.1-9.35 2.177-2.369 5.297-3.652 8.51-3.5 2.791-.135 5.524.84 7.6 2.71 1.937 1.888 2.99 4.507 2.9 7.21h-6.3c.025-1.187-.405-2.339-1.2-3.22-.798-.84-1.923-1.292-3.08-1.24-1.405-.08-2.755.576-3.56 1.73-.8 1.15-1.2 3-1.2 5.6v.7c0 2.61.39 4.49 1.19 5.63.829 1.174 2.217 1.828 3.65 1.72z"/><path d="m134.88 45.72c1.088.044 2.156-.312 3-1 .781-.699 1.223-1.702 1.21-2.75h6.33c.001 1.679-.485 3.322-1.4 4.73-.914 1.424-2.206 2.566-3.73 3.3-1.648.799-3.459 1.203-5.29 1.18-3.216.164-6.345-1.104-8.54-3.46-2.087-2.3-3.13-5.483-3.13-9.55v-.45c0-3.9 1.033-7.017 3.1-9.35 2.19-2.384 5.337-3.666 8.57-3.49 2.791-.137 5.525.838 7.6 2.71 1.943 1.884 3.001 4.505 2.91 7.21h-6.33c.023-1.188-.41-2.341-1.21-3.22-.835-.796-1.945-1.24-3.098-1.24-1.383 0-2.692.639-3.542 1.73-.8 1.15-1.21 3-1.21 5.6v.7c0 2.607.4 4.483 1.2 5.63.811 1.146 2.158 1.796 3.56 1.72z"/></g><path d="m82.92 22.86h9.22l-6.14 12.3h6.15l-11.53 21.51 2.3-15.36h-7.68z" fill="#0fdd42"/></g><path d="m0 0h170v76h-170z" fill="none"/></svg>