<svg viewBox="0 22 170 36" xmlns="http://www.w3.org/2000/svg"><g fill="#1c2445"><path d="m37.54 51.18a12.38 12.38 0 0 1 -9-3.42 12.19 12.19 0 0 1 -3.54-9.12v-.64a15.4 15.4 0 0 1 1.47-6.83 10.82 10.82 0 0 1 4.17-4.64 11.63 11.63 0 0 1 6.15-1.63 10.44 10.44 0 0 1 8.21 3.26q3 3.29 3 9.31v2.76h-16.16a6.35 6.35 0 0 0 2 4 6 6 0 0 0 4.16 1.49 7.3 7.3 0 0 0 6.1-2.84l3.31 3.73a10 10 0 0 1 -4.13 3.39 13.32 13.32 0 0 1 -5.74 1.18zm-.77-20.84a4.21 4.21 0 0 0 -3.26 1.37 7.14 7.14 0 0 0 -1.6 3.91h9.39v-.55a5 5 0 0 0 -1.22-3.49 4.3 4.3 0 0 0 -3.31-1.24z"/><path d="m60.91 42.44 4.7-17.09h7l-8.48 25.36h-6.44l-8.52-25.36h7z"/><path d="m110 45.72a4.45 4.45 0 0 0 3-1 3.64 3.64 0 0 0 1.22-2.75h6.32a8.67 8.67 0 0 1 -1.4 4.73 9.15 9.15 0 0 1 -3.79 3.3 11.75 11.75 0 0 1 -5.29 1.19 10.91 10.91 0 0 1 -8.54-3.46q-3.13-3.45-3.13-9.55v-.45q0-5.85 3.1-9.35a10.86 10.86 0 0 1 8.51-3.5 10.59 10.59 0 0 1 7.6 2.71 9.62 9.62 0 0 1 2.9 7.21h-6.3a4.66 4.66 0 0 0 -1.2-3.22 4 4 0 0 0 -3.08-1.24 4.06 4.06 0 0 0 -3.56 1.73c-.8 1.15-1.2 3-1.2 5.6v.7c0 2.61.39 4.49 1.19 5.63a4.09 4.09 0 0 0 3.65 1.72z"/><path d="m134.88 45.72a4.46 4.46 0 0 0 3-1 3.63 3.63 0 0 0 1.21-2.75h6.33a8.67 8.67 0 0 1 -1.4 4.73 9.15 9.15 0 0 1 -3.73 3.3 11.78 11.78 0 0 1 -5.29 1.18 10.91 10.91 0 0 1 -8.54-3.46q-3.13-3.45-3.13-9.55v-.45q0-5.85 3.1-9.35a10.84 10.84 0 0 1 8.57-3.49 10.57 10.57 0 0 1 7.6 2.71 9.59 9.59 0 0 1 2.91 7.21h-6.33a4.65 4.65 0 0 0 -1.21-3.22 4.49 4.49 0 0 0 -6.64.49c-.8 1.15-1.21 3-1.21 5.6v.7q0 3.91 1.2 5.63a4.09 4.09 0 0 0 3.56 1.72z"/></g><path d="m82.92 22.86h9.22l-6.14 12.3h6.15l-11.53 21.51 2.3-15.36h-7.68z" fill="#0fdd42"/><path d="m0 0h170v76h-170z" fill="none"/></svg>