<svg id="Ebene_1" data-name="Ebene 1" xmlns="http://www.w3.org/2000/svg" viewBox="0 0 170 76"><title>evcc-logo-rgb</title><path d="M37.54,51.18a12.38,12.38,0,0,1-9-3.42A12.19,12.19,0,0,1,25,38.64V38a15.4,15.4,0,0,1,1.47-6.83,10.82,10.82,0,0,1,4.17-4.64,11.63,11.63,0,0,1,6.15-1.63A10.44,10.44,0,0,1,45,28.16q3,3.29,3,9.31v2.76H31.84a6.35,6.35,0,0,0,2,4A6,6,0,0,0,38,45.72a7.3,7.3,0,0,0,6.1-2.84l3.31,3.73A10,10,0,0,1,43.28,50,13.32,13.32,0,0,1,37.54,51.18Zm-.77-20.84a4.21,4.21,0,0,0-3.26,1.37,7.14,7.14,0,0,0-1.6,3.91H41.3v-.55a5,5,0,0,0-1.22-3.49A4.3,4.3,0,0,0,36.77,30.34Z" style="fill:#18191a"/><path d="M60.91,42.44l4.7-17.09h7L64.13,50.71H57.69L49.17,25.35h7Z" style="fill:#18191a"/><path d="M110,45.72a4.45,4.45,0,0,0,3-1,3.64,3.64,0,0,0,1.22-2.75h6.32a8.67,8.67,0,0,1-1.4,4.73A9.15,9.15,0,0,1,115.35,50a11.75,11.75,0,0,1-5.29,1.19,10.91,10.91,0,0,1-8.54-3.46q-3.13-3.45-3.13-9.55v-.45q0-5.85,3.1-9.35A10.86,10.86,0,0,1,110,24.88a10.59,10.59,0,0,1,7.6,2.71,9.62,9.62,0,0,1,2.9,7.21H114.2A4.66,4.66,0,0,0,113,31.58a4,4,0,0,0-3.08-1.24,4.06,4.06,0,0,0-3.56,1.73c-.8,1.15-1.2,3-1.2,5.6v.7c0,2.61.39,4.49,1.19,5.63A4.09,4.09,0,0,0,110,45.72Z" style="fill:#18191a"/><path d="M134.88,45.72a4.46,4.46,0,0,0,3-1,3.63,3.63,0,0,0,1.21-2.75h6.33a8.67,8.67,0,0,1-1.4,4.73A9.15,9.15,0,0,1,140.29,50,11.78,11.78,0,0,1,135,51.18a10.91,10.91,0,0,1-8.54-3.46q-3.13-3.45-3.13-9.55v-.45q0-5.85,3.1-9.35A10.84,10.84,0,0,1,135,24.88a10.57,10.57,0,0,1,7.6,2.71,9.59,9.59,0,0,1,2.91,7.21h-6.33a4.65,4.65,0,0,0-1.21-3.22,4.49,4.49,0,0,0-6.64.49c-.8,1.15-1.21,3-1.21,5.6v.7q0,3.91,1.2,5.63A4.09,4.09,0,0,0,134.88,45.72Z" style="fill:#18191a"/><path d="M82.92,22.86h9.22L86,35.16h6.15L80.62,56.67l2.3-15.36H75.24Z" style="fill:#0fdd42"/><path d="M0 0h170v76H0z" fill="none"/></svg>